<svg width="948" height="205" viewBox="0 0 948 205" fill="none" xmlns="http://www.w3.org/2000/svg">
<path d="M313.88 158.44C304.04 158.44 295.16 156.34 287.24 152.14C279.44 147.94 273.26 141.94 268.7 134.14C264.26 126.34 262.04 117.22 262.04 106.78C262.04 96.46 264.32 87.4 268.88 79.6C273.44 71.68 279.68 65.62 287.6 61.42C295.52 57.22 304.4 55.12 314.24 55.12C324.08 55.12 332.96 57.22 340.88 61.42C348.8 65.62 355.04 71.68 359.6 79.6C364.16 87.4 366.44 96.46 366.44 106.78C366.44 117.1 364.1 126.22 359.42 134.14C354.86 141.94 348.56 147.94 340.52 152.14C332.6 156.34 323.72 158.44 313.88 158.44ZM313.88 131.8C319.76 131.8 324.74 129.64 328.82 125.32C333.02 121 335.12 114.82 335.12 106.78C335.12 98.74 333.08 92.56 329 88.24C325.04 83.92 320.12 81.76 314.24 81.76C308.24 81.76 303.26 83.92 299.3 88.24C295.34 92.44 293.36 98.62 293.36 106.78C293.36 114.82 295.28 121 299.12 125.32C303.08 129.64 308 131.8 313.88 131.8Z" fill="#8EA7E9"/>
<path d="M454.049 128.2L475.829 56.56H508.589L472.949 157H434.969L399.329 56.56H432.269L454.049 128.2Z" fill="#8EA7E9"/>
<path d="M563.125 46.12C557.725 46.12 553.285 44.56 549.805 41.44C546.445 38.2 544.765 34.24 544.765 29.56C544.765 24.76 546.445 20.8 549.805 17.68C553.285 14.44 557.725 12.82 563.125 12.82C568.405 12.82 572.725 14.44 576.085 17.68C579.565 20.8 581.305 24.76 581.305 29.56C581.305 34.24 579.565 38.2 576.085 41.44C572.725 44.56 568.405 46.12 563.125 46.12ZM578.425 56.56V157H547.645V56.56H578.425Z" fill="#8EA7E9"/>
<path d="M682.811 130.9V157H667.151C655.991 157 647.291 154.3 641.051 148.9C634.811 143.38 631.691 134.44 631.691 122.08V82.12H619.451V56.56H631.691V32.08H662.471V56.56H682.631V82.12H662.471V122.44C662.471 125.44 663.191 127.6 664.631 128.92C666.071 130.24 668.471 130.9 671.831 130.9H682.811Z" fill="#8EA7E9"/>
<path d="M782.036 130.9V157H766.376C755.216 157 746.516 154.3 740.276 148.9C734.036 143.38 730.916 134.44 730.916 122.08V82.12H718.676V56.56H730.916V32.08H761.696V56.56H781.856V82.12H761.696V122.44C761.696 125.44 762.416 127.6 763.856 128.92C765.296 130.24 767.696 130.9 771.056 130.9H782.036Z" fill="#8EA7E9"/>
<path d="M927.881 56.56L864.881 204.7H831.761L854.801 153.58L813.941 56.56H848.321L871.541 119.38L894.581 56.56H927.881Z" fill="#8EA7E9"/>
<path d="M90.3457 6C104.392 11.0004 109.479 25.3691 101.707 38.0933L32.4697 151.446C28.5837 157.808 19.74 160.938 12.7167 158.438C5.69341 155.938 3.15019 148.754 7.03622 142.392L90.3457 6Z" fill="#7286D3"/>
<path d="M32.74 15.0889C46.7865 10.0885 64.474 16.3498 72.2461 29.074L129.327 122.525C133.213 128.887 130.67 136.071 123.646 138.571C116.623 141.071 107.779 137.941 103.893 131.579L32.74 15.0889Z" fill="#7286D3"/>
<path d="M163.117 29.0392C170.889 16.315 188.577 10.0536 202.623 15.0541L131.47 131.544C127.584 137.906 118.74 141.037 111.717 138.536C104.694 136.036 102.15 128.852 106.036 122.49L163.117 29.0392Z" fill="#8EA7E9"/>
<path d="M133.657 38.128C125.884 25.4038 130.971 11.0352 145.018 6.03479L228.327 142.426C232.213 148.788 229.67 155.973 222.647 158.473C215.623 160.973 206.78 157.842 202.893 151.48L133.657 38.128Z" fill="#8EA7E9"/>
</svg>
