<svg width="236" height="157" viewBox="0 0 236 157" fill="none" xmlns="http://www.w3.org/2000/svg">
<path d="M90.3457 0C104.392 5.00043 109.479 19.3691 101.707 32.0933L32.4697 145.446C28.5837 151.808 19.74 154.938 12.7167 152.438C5.69341 149.938 3.15019 142.754 7.03622 136.392L90.3457 0Z" fill="#7286D3"/>
<path d="M32.74 9.08893C46.7865 4.0885 64.474 10.3498 72.2461 23.074L129.327 116.525C133.213 122.887 130.67 130.071 123.646 132.571C116.623 135.071 107.779 131.941 103.893 125.579L32.74 9.08893Z" fill="#7286D3"/>
<path d="M163.117 23.0392C170.889 10.315 188.577 4.05365 202.623 9.05408L131.47 125.544C127.584 131.906 118.74 135.037 111.717 132.536C104.694 130.036 102.15 122.852 106.036 116.49L163.117 23.0392Z" fill="#8EA7E9"/>
<path d="M133.657 32.128C125.884 19.4038 130.971 5.03522 145.018 0.0347857L228.327 136.426C232.213 142.788 229.67 149.973 222.647 152.473C215.623 154.973 206.78 151.842 202.893 145.48L133.657 32.128Z" fill="#8EA7E9"/>
</svg>
