<svg width="28" height="28" viewBox="0 0 28 28" fill="none" xmlns="http://www.w3.org/2000/svg">
<g clip-path="url(#clip0_162_2803)">
<path d="M12.8545 0.311157C12.0758 0.311157 11.3592 0.373282 10.7049 0.466616C8.24386 0.933282 7.27815 2.48874 7.27815 2.48874C6.84211 2.45782 6.28124 2.48874 5.81399 2.86207C4.31861 4.07541 3.91348 6.03541 3.88257 7.68449C3.88257 7.74662 3.88257 7.77782 3.88257 7.83995C3.88257 7.93328 3.88257 8.05782 3.88257 8.15116C3.91348 8.64874 3.9759 9.14662 4.06924 9.61328C4.19407 10.0487 4.31861 10.4533 4.44315 10.7954C5.40886 12.7554 7.24694 13.1287 7.24694 13.1287C6.90424 12.6312 6.93544 10.8266 7.27815 8.15116C7.34057 7.71541 7.90115 4.54207 10.8607 4.47995C14.0693 4.35541 16.9979 5.22662 17.1225 8.15116C17.247 10.4533 17.247 12.1954 18.2752 13.2845C17.7143 13.9687 16.0632 15.7112 14.5057 16.6133V17.8578C14.5057 17.8578 15.5338 18.6978 17.2158 19.9421C17.5897 20.2221 18.057 20.5021 18.5554 20.8133C19.5212 17.7645 22.6052 16.3333 23.0416 11.5421C23.5709 5.91116 20.5805 0.311157 12.8545 0.311157Z" fill="#F8BF3F"/>
<path d="M17.1226 8.15121C16.9981 5.22667 14.0694 4.35546 10.892 4.44879C7.93247 4.51121 7.37159 7.68454 7.30947 8.08879C6.93555 10.7645 6.90434 12.5688 7.27826 13.0667C7.7143 13.6888 10.892 17.1733 12.8858 17.1733C14.6927 17.1733 17.5586 14.2179 18.3374 13.2845C17.2471 12.1955 17.2471 10.4533 17.1226 8.15121Z" fill="#FBDBC0"/>
<path d="M11.3279 8.7421C11.3279 8.79722 11.3227 8.85206 11.3125 8.90602C11.302 8.96027 11.2868 9.01277 11.2664 9.06352C11.246 9.11456 11.2209 9.16297 11.1914 9.20877C11.162 9.25485 11.1284 9.29714 11.0908 9.33622C11.0532 9.37531 11.0123 9.41002 10.968 9.44064C10.9237 9.47127 10.877 9.49722 10.828 9.51822C10.7787 9.53922 10.7283 9.55527 10.676 9.56606C10.6238 9.57685 10.571 9.5821 10.518 9.5821C10.4649 9.5821 10.4121 9.57685 10.3599 9.56606C10.308 9.55527 10.2572 9.53922 10.2079 9.51822C10.1589 9.49722 10.1123 9.47127 10.0679 9.44064C10.0239 9.41002 9.98276 9.37531 9.94513 9.33622C9.9078 9.29714 9.87397 9.25485 9.84451 9.20877C9.81505 9.16297 9.78997 9.11456 9.76955 9.06352C9.74942 9.01277 9.73397 8.96027 9.72347 8.90602C9.71326 8.85206 9.70801 8.79722 9.70801 8.7421C9.70801 8.68697 9.71326 8.63243 9.72347 8.57818C9.73397 8.52422 9.74942 8.47172 9.76955 8.42068C9.78997 8.36964 9.81505 8.32152 9.84451 8.27543C9.87397 8.22964 9.9078 8.18735 9.94513 8.14827C9.98276 8.10918 10.0239 8.07447 10.0679 8.04385C10.1123 8.01322 10.1589 7.98727 10.2079 7.96627C10.2572 7.94497 10.308 7.92922 10.3599 7.91843C10.4121 7.90764 10.4649 7.9021 10.518 7.9021C10.571 7.9021 10.6238 7.90764 10.676 7.91843C10.7283 7.92922 10.7787 7.94497 10.828 7.96627C10.877 7.98727 10.9237 8.01322 10.968 8.04385C11.0123 8.07447 11.0532 8.10918 11.0908 8.14827C11.1284 8.18735 11.162 8.22964 11.1914 8.27543C11.2209 8.32152 11.246 8.36964 11.2664 8.42068C11.2868 8.47172 11.302 8.52422 11.3125 8.57818C11.3227 8.63243 11.3279 8.68697 11.3279 8.7421Z" fill="#111820"/>
<path d="M16.001 8.7421C16.001 8.79722 15.9958 8.85206 15.9853 8.90602C15.9751 8.96027 15.9596 9.01277 15.9392 9.06352C15.9188 9.11456 15.894 9.16297 15.8645 9.20877C15.8348 9.25485 15.8012 9.29714 15.7636 9.33622C15.726 9.37531 15.6851 9.41002 15.6408 9.44064C15.5968 9.47127 15.5501 9.49722 15.5008 9.51822C15.4518 9.53922 15.4011 9.55527 15.3489 9.56606C15.2969 9.57685 15.2441 9.5821 15.1911 9.5821C15.1377 9.5821 15.0852 9.57685 15.033 9.56606C14.9808 9.55527 14.93 9.53922 14.881 9.51822C14.8317 9.49722 14.7851 9.47127 14.741 9.44064C14.6967 9.41002 14.6559 9.37531 14.6182 9.33622C14.5806 9.29714 14.5471 9.25485 14.5176 9.20877C14.4879 9.16297 14.4631 9.11456 14.4426 9.06352C14.4222 9.01277 14.4068 8.96027 14.3966 8.90602C14.3861 8.85206 14.3811 8.79722 14.3811 8.7421C14.3811 8.68697 14.3861 8.63243 14.3966 8.57818C14.4068 8.52422 14.4222 8.47172 14.4426 8.42068C14.4631 8.36964 14.4879 8.32152 14.5176 8.27543C14.5471 8.22964 14.5806 8.18735 14.6182 8.14827C14.6559 8.10918 14.6967 8.07447 14.741 8.04385C14.7851 8.01322 14.8317 7.98727 14.881 7.96627C14.93 7.94497 14.9808 7.92922 15.033 7.91843C15.0852 7.90764 15.1377 7.9021 15.1911 7.9021C15.2441 7.9021 15.2969 7.90764 15.3489 7.91843C15.4011 7.92922 15.4518 7.94497 15.5008 7.96627C15.5501 7.98727 15.5968 8.01322 15.6408 8.04385C15.6851 8.07447 15.726 8.10918 15.7636 8.14827C15.8012 8.18735 15.8348 8.22964 15.8645 8.27543C15.894 8.32152 15.9188 8.36964 15.9392 8.42068C15.9596 8.47172 15.9751 8.52422 15.9853 8.57818C15.9958 8.63243 16.001 8.68697 16.001 8.7421Z" fill="#111820"/>
<path d="M13.5402 10.8888C13.5402 10.8888 13.322 11.1688 12.8547 11.1688C12.3875 11.1688 12.1693 10.8888 12.1693 10.8888C12.1381 10.8267 12.076 10.8579 12.2005 11.1067C12.4187 11.48 12.6678 11.5113 12.8547 11.5113C13.0417 11.5113 13.322 11.48 13.509 11.1067C13.6335 10.8888 13.5714 10.8579 13.5402 10.8888Z" fill="#111820"/>
<path d="M7.27815 8.15119C7.05999 7.93332 6.4682 7.40453 5.68945 7.74665C4.72374 8.15119 5.44007 11.5733 6.99786 11.4488C7.02878 10.5779 7.1224 9.48878 7.27815 8.15119Z" fill="#FBDBC0"/>
<path d="M6.90421 11.7288C5.9073 11.7288 5.31551 10.64 5.06613 9.67549C4.84826 8.74216 4.91038 7.71549 5.56459 7.43549C6.5303 7.03124 7.27813 7.71549 7.4963 7.93337C7.55842 7.99549 7.58963 8.08883 7.58963 8.18216C7.40267 9.52003 7.30934 10.6088 7.30934 11.4179C7.30934 11.5734 7.18451 11.6979 7.02876 11.7288C6.99784 11.7288 6.93542 11.7288 6.90421 11.7288ZM6.2188 7.93337C6.09426 7.93337 5.96971 7.96458 5.84517 8.0267C5.62701 8.12003 5.50246 8.77337 5.68942 9.55124C5.84517 10.2355 6.25001 10.92 6.74846 11.0755C6.77967 10.2979 6.87301 9.36458 6.99784 8.24458C6.81088 8.12003 6.5303 7.93337 6.2188 7.93337Z" fill="#111820"/>
<path d="M12.8547 14.56C11.1412 14.56 10.6427 13.3467 10.6118 13.3154L11.1724 13.0667C11.1724 13.0979 11.5775 13.9379 12.8547 13.9379C14.1632 13.9379 14.5371 13.0667 14.5371 13.0667L15.0977 13.3154C15.0664 13.3467 14.5371 14.56 12.8547 14.56Z" fill="#111820"/>
<path d="M12.8547 17.4845C10.6427 17.4845 7.30955 13.6888 7.02897 13.2533C6.87322 13.0354 6.40597 12.4133 7.02897 8.05784C7.09138 7.6533 7.68317 4.19996 10.9233 4.13784C15.0043 4.04451 17.3405 5.47542 17.4966 8.15117L17.5275 8.64876C17.6211 10.6088 17.7145 12.1645 18.5868 13.0666C18.7114 13.1912 18.7114 13.3778 18.618 13.5021C17.6833 14.4978 14.7861 17.4845 12.8547 17.4845ZM11.2969 4.72876C11.1724 4.72876 11.0478 4.72876 10.8921 4.72876C8.21284 4.79117 7.68317 7.55996 7.58984 8.11996C7.06017 11.9154 7.37167 12.7245 7.49651 12.8488C7.90134 13.44 11.0166 16.8 12.8547 16.8C14.3189 16.8 16.8112 14.4666 17.9014 13.2221C17.029 12.1645 16.9669 10.5778 16.8733 8.61784L16.8424 8.11996C16.6863 5.38209 13.8204 4.72876 11.2969 4.72876Z" fill="#111820"/>
<path d="M19.4901 14.0312C18.5868 14.0312 18.0884 13.5021 18.0884 13.4712L18.5556 13.0667C18.5868 13.0979 19.2723 13.8445 20.7364 13.0979L21.0167 13.6579C20.3937 13.9379 19.8953 14.0312 19.4901 14.0312Z" fill="#111820"/>
<path d="M18.7424 21.2488L18.4309 21.0621C18.2751 20.9688 18.1506 20.8755 18.0258 20.8133C17.683 20.5955 17.3403 20.4088 17.0913 20.1912C15.4089 18.9467 14.3811 18.1067 14.3811 18.1067L14.2563 18.0133V16.4267L14.412 16.3333C15.6895 15.5867 17.1537 14.1555 17.9324 13.2845C17.06 12.1955 16.9979 10.64 16.9043 8.68L16.8731 8.18213C16.7173 5.22667 13.5708 4.69788 10.9231 4.76C8.24384 4.82213 7.71417 7.59121 7.62084 8.15121C7.09117 11.9467 7.40267 12.7555 7.52721 12.88L7.99475 13.5021L7.21571 13.3779C7.12238 13.3779 5.22188 12.9733 4.19404 10.8888V10.8579C4.0383 10.4845 3.91346 10.08 3.78892 9.64454C3.66438 9.14667 3.60196 8.64879 3.57104 8.12C3.57104 8.02667 3.57104 7.90213 3.57104 7.80879V7.65333C3.60196 6.06667 4.00709 3.92 5.627 2.61333C6.00092 2.30213 6.49938 2.14667 7.12238 2.17788C7.43388 1.77333 8.52413 0.591208 10.6425 0.186667C11.3591 0.062125 12.0758 0 12.8545 0C16.2813 0 19.0851 1.12 20.9232 3.20454C22.7922 5.28879 23.6333 8.27546 23.353 11.5421C23.0728 14.56 21.7953 16.3021 20.6426 17.8267C19.9263 18.7912 19.2096 19.7245 18.8669 20.8755L18.7424 21.2488ZM14.8483 17.7021C15.1598 17.9512 16.0943 18.6979 17.434 19.6621C17.683 19.8488 17.9948 20.0355 18.3373 20.2533C18.3685 20.2845 18.3997 20.2845 18.4309 20.3155C18.8357 19.2267 19.4899 18.3555 20.1753 17.4533C21.328 15.8979 22.5119 14.3112 22.761 11.48C23.0415 8.36879 22.2316 5.56879 20.4868 3.60879C18.7424 1.64879 16.0943 0.622125 12.8545 0.622125C12.1067 0.622125 11.4215 0.684542 10.7361 0.777875C8.4308 1.21333 7.52721 2.64454 7.52721 2.64454L7.40267 2.8H7.21571C6.65513 2.76879 6.28121 2.86213 5.96971 3.11121C4.53675 4.29333 4.16284 6.25333 4.13163 7.68454V7.80879C4.13163 7.90213 4.13163 7.99546 4.13163 8.08879C4.16284 8.55546 4.22525 9.02213 4.31859 9.48879C4.41192 9.89333 4.53675 10.2667 4.6925 10.6088C5.2843 11.7912 6.15667 12.32 6.74846 12.5688C6.65513 11.9155 6.62392 10.64 6.96663 8.02667C7.02875 7.62213 7.62084 4.16879 10.8607 4.10667C14.9417 4.01333 17.2782 5.44454 17.434 8.12L17.4652 8.61788C17.5585 10.5779 17.6521 12.1333 18.5242 13.0355L18.7112 13.2533L18.5242 13.4712C18.0258 14.0621 16.437 15.7733 14.8171 16.7688V17.7021H14.8483Z" fill="#111820"/>
<path d="M17.2159 19.9112C15.5338 18.6667 14.5991 17.92 14.5057 17.8267V16.5822C13.9136 16.9246 13.3218 17.1422 12.8234 17.1422C12.3249 17.1422 11.7331 16.9246 11.1411 16.5822V17.8267C11.1411 17.8267 10.1132 18.6667 8.43089 19.9112C6.81097 21.1555 3.16602 22.4312 3.16602 27.6888H22.5432C22.5432 22.4312 18.8982 21.1555 17.2159 19.9112Z" fill="#767EBD"/>
<path d="M22.8547 28.0001H2.85449V27.6888C2.85449 23.0846 5.59587 21.3734 7.40274 20.2534C7.74545 20.0355 8.05695 19.8488 8.30633 19.6622C9.64566 18.6667 10.5805 17.9513 10.892 17.7022V16.0846L11.3592 16.3334C11.951 16.6755 12.4807 16.8622 12.8858 16.8622C13.2906 16.8622 13.8203 16.6755 14.4121 16.3334L14.8796 16.0846V17.7022C15.2532 18.0134 16.1256 18.6979 17.4652 19.6622C17.7143 19.8488 18.0258 20.0355 18.3685 20.2534C20.1754 21.3734 22.9168 23.0846 22.9168 27.6888V28.0001H22.8547ZM3.47749 27.3779H22.2626C22.138 23.3646 19.7706 21.8713 18.0258 20.7822C17.6831 20.5646 17.3404 20.3779 17.0913 20.1601C15.6272 19.1022 14.7236 18.3555 14.3812 18.1067L14.2563 18.0134V17.1113C13.7579 17.3601 13.2906 17.4846 12.8858 17.4846C12.4807 17.4846 12.0134 17.3601 11.515 17.1113V17.9822L11.3904 18.0755C11.3904 18.0755 10.3311 18.9467 8.67995 20.1601C8.39966 20.3779 8.08816 20.5646 7.74545 20.7822C5.96978 21.8713 3.57112 23.3646 3.47749 27.3779Z" fill="#111820"/>
<path d="M7.0288 27.6888H6.43701V26.3513C6.43701 25.4801 7.12243 24.3288 7.15364 24.2667L7.68301 24.5779C7.49635 24.8579 7.06001 25.7601 7.06001 26.3513V27.6888H7.0288Z" fill="#111820"/>
<path d="M19.2722 27.6888H18.6801V26.3513C18.6801 25.7601 18.2441 24.8888 18.0571 24.5779L18.5868 24.2667C18.618 24.3288 19.3034 25.4801 19.3034 26.3513V27.6888H19.2722Z" fill="#111820"/>
<path d="M12.8547 26.6933C14.5679 26.6933 16.1882 21.6845 16.7799 19.6C15.4091 18.5733 14.6304 17.92 14.537 17.8579V16.6445H14.5058C13.9137 16.9867 13.3532 17.2045 12.8547 17.2045C12.3562 17.2045 11.7954 16.9867 11.2036 16.6445H11.1724V17.8579C11.1724 17.8579 10.3312 18.5421 8.92944 19.6C9.52123 21.6533 11.1412 26.6933 12.8547 26.6933Z" fill="#FBDBC0"/>
<path d="M13.7269 23.6754C13.4152 24.0178 13.1661 24.4221 13.0415 24.8578C12.9791 25.0445 12.9479 25.2311 12.9167 25.4178C12.8858 25.2311 12.8546 25.0445 12.7922 24.8578C12.6676 24.4221 12.4185 24.0178 12.1067 23.6754C11.7952 23.3333 11.3592 23.1154 10.9541 22.9911C10.6426 22.8978 10.3623 22.8666 10.0508 22.8978C10.082 22.9599 10.082 22.9911 10.1132 23.0533C10.3623 23.1154 10.6117 23.1778 10.8607 23.3021C11.2347 23.4578 11.5774 23.6754 11.8577 23.9554C12.1379 24.2354 12.3561 24.5778 12.5431 24.9821C12.73 25.3554 12.8546 25.7599 12.9479 26.1954C13.0415 25.7599 13.1661 25.3554 13.353 24.9821C13.54 24.6087 13.7579 24.2666 14.0384 23.9554C14.3187 23.6754 14.6614 23.4578 15.0354 23.3021C15.222 23.2087 15.4402 23.1466 15.6272 23.1154C15.6584 23.0533 15.6896 22.9911 15.6896 22.9287C15.4402 22.9287 15.1911 22.9599 14.9105 23.0221C14.4745 23.0845 14.0694 23.3333 13.7269 23.6754Z" fill="#E9B891"/>
<path d="M12.8546 27.0045C11.1102 27.0045 9.61479 23.0221 8.64909 19.6621L8.58667 19.4445L8.77363 19.32C9.86388 18.5112 10.6117 17.92 10.892 17.7021V16.4267L11.2659 16.3021L11.3905 16.3645C11.9823 16.7067 12.4807 16.8621 12.8858 16.8621C13.2907 16.8621 13.7891 16.6755 14.3812 16.3645L14.5058 16.3021L14.8797 16.4267V17.7021C15.2221 17.9821 15.9387 18.5421 16.998 19.32L17.1847 19.4445L17.1226 19.6621C16.0945 22.9912 14.5991 27.0045 12.8546 27.0045ZM9.27209 19.6933C10.4869 23.8312 11.8265 26.3821 12.8546 26.3821C13.8515 26.3821 15.2221 23.8312 16.4372 19.6933C15.3469 18.8533 14.6303 18.2933 14.3812 18.1067L14.2564 18.0133V17.1112C13.7579 17.36 13.2907 17.4845 12.8858 17.4845C12.4807 17.4845 12.0135 17.36 11.515 17.1112V17.9821L11.3905 18.0755C11.3593 18.0755 10.5805 18.7288 9.27209 19.6933Z" fill="#111820"/>
</g>
<defs>
<clipPath id="clip0_162_2803">
<rect width="28" height="28" fill="white"/>
</clipPath>
</defs>
</svg>
