<svg width="28" height="28" viewBox="0 0 28 28" fill="none" xmlns="http://www.w3.org/2000/svg">
<g clip-path="url(#clip0_162_2812)">
<path d="M18.48 19.9199C16.7703 18.6771 15.7133 17.838 15.7133 17.838C15.7133 18.7702 14.9363 19.5472 14.0035 19.5472C13.0708 19.5472 12.2938 18.7702 12.2938 17.838C12.2938 17.838 11.2368 18.6771 9.52704 19.9199C7.78608 21.163 4.05566 22.4373 4.05566 27.6893H23.9514C23.9514 22.4373 20.221 21.163 18.48 19.9199Z" fill="white"/>
<path d="M9.52704 19.9199C7.78608 21.163 4.05566 22.4373 4.05566 27.6893H12.418C11.1747 25.3274 10.615 20.5727 10.4907 19.2053C10.1798 19.4229 9.86887 19.6714 9.52704 19.9199Z" fill="#596C7C"/>
<path d="M18.4801 19.9199C20.2211 21.163 23.9515 22.4373 23.9515 27.6893H15.5891C16.8325 25.3274 17.3922 20.5727 17.5164 19.2053C17.8274 19.4229 18.1383 19.6714 18.4801 19.9199Z" fill="#596C7C"/>
<path d="M12.9464 28H3.74463V27.6894C3.74463 23.0898 6.54259 21.3807 8.4078 20.2618C8.74963 20.0445 9.06055 19.8579 9.34025 19.6715C9.68238 19.423 10.0242 19.1742 10.3039 18.9566L10.7394 18.646L10.8015 19.1742C10.9258 20.5415 11.4855 25.2032 12.6976 27.534L12.9464 28ZM4.36646 27.3785H11.9206C10.9258 25.1411 10.4285 21.5049 10.2109 19.7957C10.0554 19.92 9.86875 20.0445 9.68238 20.1688C9.40238 20.3864 9.06055 20.5727 8.71871 20.7903C6.91563 21.878 4.49071 23.3695 4.36646 27.3785Z" fill="#111820"/>
<path d="M24.2623 28H15.0605L15.3093 27.534C16.5215 25.2032 17.0812 20.5415 17.2055 19.1742L17.2676 18.646L17.703 18.9566C17.9828 19.1742 18.3246 19.3918 18.6667 19.6715C18.9152 19.8579 19.2573 20.0445 19.5992 20.2618C21.4644 21.3807 24.2623 23.0898 24.2623 27.6894V28ZM16.0863 27.3785H23.6405C23.5163 23.3695 21.0913 21.878 19.2883 20.7903C18.9464 20.5727 18.6046 20.3864 18.3246 20.1688C18.1382 20.0445 17.9515 19.92 17.7961 19.7957C17.5785 21.5049 17.0812 25.1411 16.0863 27.3785Z" fill="#111820"/>
<path d="M21.309 7.08541L14.0036 7.64482L6.69824 7.0542C6.69824 7.0542 6.38733 16.3773 6.69824 18.3041C6.69824 18.3041 8.53224 17.838 14.0036 17.838C19.475 17.838 21.309 18.3041 21.309 18.3041C21.6511 16.4082 21.309 7.08541 21.309 7.08541Z" fill="#F8BF3F"/>
<path d="M21.5578 18.7081L21.216 18.6148C21.1847 18.6148 19.3507 18.1487 13.9724 18.1487C8.59437 18.1487 6.76037 18.6148 6.72916 18.6148L6.41825 18.7081L6.38733 18.3663C6.07641 16.4395 6.35612 7.42732 6.38733 7.05428V6.74365L14.0036 7.33399L21.6199 6.74365V7.05428C21.6199 7.42732 21.9308 16.4395 21.6199 18.3663L21.5578 18.7081ZM6.97795 7.39611C6.91583 8.98103 6.72916 15.7871 6.94675 17.9311C7.69283 17.8069 9.77591 17.5272 14.0036 17.5272C18.2316 17.5272 20.3144 17.8069 21.0605 17.9311C21.2781 15.7871 21.0914 8.98103 21.0293 7.39611L14.0036 7.95553H13.9724L6.97795 7.39611Z" fill="#111820"/>
<path d="M19.3816 6.05992C18.7288 2.45492 15.6511 2.20642 14.0035 2.20642C12.3559 2.20642 9.27822 2.45492 8.62547 6.05992C7.97272 9.8513 7.81727 12.4617 8.25243 13.0833C8.71881 13.7048 11.9828 17.1853 14.0035 17.1853C16.0242 17.1853 19.2882 13.7048 19.7546 13.0833C20.1898 12.4617 20.0343 9.8513 19.3816 6.05992Z" fill="#FBDBC0"/>
<path d="M12.4491 8.76369C12.4491 8.81881 12.4436 8.87335 12.4328 8.92731C12.4223 8.98127 12.4062 9.03377 12.3852 9.08481C12.3639 9.13556 12.3383 9.18398 12.3076 9.22977C12.277 9.27556 12.2423 9.31785 12.2032 9.35694C12.1641 9.39573 12.1218 9.43073 12.0761 9.46135C12.0303 9.49198 11.9818 9.51764 11.9308 9.53864C11.8801 9.55994 11.8276 9.57569 11.7733 9.58648C11.7193 9.59727 11.6648 9.60252 11.6097 9.60252C11.5546 9.60252 11.5 9.59727 11.4461 9.58648C11.3918 9.57569 11.3393 9.55994 11.2886 9.53864C11.2375 9.51764 11.1891 9.49198 11.1433 9.46135C11.0975 9.43073 11.0552 9.39573 11.0161 9.35694C10.9771 9.31785 10.9423 9.27556 10.9117 9.22977C10.8811 9.18398 10.8554 9.13556 10.8341 9.08481C10.8131 9.03377 10.7971 8.98127 10.7863 8.92731C10.7758 8.87335 10.7703 8.81881 10.7703 8.76369C10.7703 8.70856 10.7758 8.65402 10.7863 8.59977C10.7971 8.54581 10.8131 8.49331 10.8341 8.44256C10.8554 8.39152 10.8811 8.3431 10.9117 8.29731C10.9423 8.25152 10.9771 8.20923 11.0161 8.17014C11.0552 8.13135 11.0975 8.09664 11.1433 8.06602C11.1891 8.03539 11.2375 8.00944 11.2886 7.98844C11.3393 7.96744 11.3918 7.95139 11.4461 7.9406C11.5 7.92981 11.5546 7.92456 11.6097 7.92456C11.6648 7.92456 11.7193 7.92981 11.7733 7.9406C11.8276 7.95139 11.8801 7.96744 11.9308 7.98844C11.9818 8.00944 12.0303 8.03539 12.0761 8.06602C12.1218 8.09664 12.1641 8.13135 12.2032 8.17014C12.2423 8.20923 12.277 8.25152 12.3076 8.29731C12.3383 8.3431 12.3639 8.39152 12.3852 8.44256C12.4062 8.49331 12.4223 8.54581 12.4328 8.59977C12.4436 8.65402 12.4491 8.70856 12.4491 8.76369Z" fill="#111820"/>
<path d="M17.2367 8.76369C17.2367 8.81881 17.2312 8.87335 17.2204 8.92731C17.2099 8.98127 17.1938 9.03377 17.1728 9.08481C17.1515 9.13556 17.1259 9.18398 17.0952 9.22977C17.0646 9.27556 17.0299 9.31785 16.9908 9.35694C16.9517 9.39573 16.9094 9.43073 16.8637 9.46135C16.8179 9.49198 16.7694 9.51764 16.7184 9.53864C16.6677 9.55994 16.6152 9.57569 16.5609 9.58648C16.5069 9.59727 16.4524 9.60252 16.3973 9.60252C16.3422 9.60252 16.2876 9.59727 16.2337 9.58648C16.1794 9.57569 16.1269 9.55994 16.0762 9.53864C16.0251 9.51764 15.9767 9.49198 15.9309 9.46135C15.8851 9.43073 15.8428 9.39573 15.8037 9.35694C15.7647 9.31785 15.7299 9.27556 15.6993 9.22977C15.6687 9.18398 15.643 9.13556 15.6217 9.08481C15.6007 9.03377 15.5847 8.98127 15.5742 8.92731C15.5634 8.87335 15.5579 8.81881 15.5579 8.76369C15.5579 8.70856 15.5634 8.65402 15.5742 8.59977C15.5847 8.54581 15.6007 8.49331 15.6217 8.44256C15.643 8.39152 15.6687 8.3431 15.6993 8.29731C15.7299 8.25152 15.7647 8.20923 15.8037 8.17014C15.8428 8.13135 15.8851 8.09664 15.9309 8.06602C15.9767 8.03539 16.0251 8.00944 16.0762 7.98844C16.1269 7.96744 16.1794 7.95139 16.2337 7.9406C16.2876 7.92981 16.3422 7.92456 16.3973 7.92456C16.4524 7.92456 16.5069 7.92981 16.5609 7.9406C16.6152 7.95139 16.6677 7.96744 16.7184 7.98844C16.7694 8.00944 16.8179 8.03539 16.8637 8.06602C16.9094 8.09664 16.9517 8.13135 16.9908 8.17014C17.0299 8.20923 17.0646 8.25152 17.0952 8.29731C17.1259 8.3431 17.1515 8.39152 17.1728 8.44256C17.1938 8.49331 17.2099 8.54581 17.2204 8.59977C17.2312 8.65402 17.2367 8.70856 17.2367 8.76369Z" fill="#111820"/>
<path d="M14.7183 10.9078C14.7183 10.9078 14.5007 11.1875 14.0034 11.1875C13.5061 11.1875 13.2885 10.9078 13.2885 10.9078C13.2573 10.8456 13.1952 10.8768 13.3194 11.1253C13.537 11.4984 13.8167 11.5293 14.0034 11.5293C14.1901 11.5293 14.4698 11.4984 14.6874 11.1253C14.8116 10.9078 14.7495 10.8768 14.7183 10.9078Z" fill="#111820"/>
<path d="M14.0035 17.1853C13.475 17.1853 12.8843 16.9677 12.2937 16.6259V17.8689C12.2937 18.8014 13.0707 19.5781 14.0035 19.5781C14.9362 19.5781 15.7132 18.8014 15.7132 17.8689V16.6259C15.1226 16.9368 14.532 17.1853 14.0035 17.1853Z" fill="#FBDBC0"/>
<path d="M14.0035 17.4962C11.7341 17.4962 8.31455 13.7048 8.00363 13.2696C7.35088 12.3996 7.81726 8.8258 8.31455 5.9978C9.06063 1.89551 12.7911 1.89551 14.0035 1.89551C15.216 1.89551 18.9464 1.89551 19.6925 5.9978C20.1898 8.8258 20.6561 12.3996 20.0034 13.2696C19.6925 13.7048 16.273 17.4962 14.0035 17.4962ZM14.0035 2.51705C12.1071 2.51705 9.4958 2.89009 8.93638 6.09084C8.15909 10.4728 8.22122 12.4926 8.50122 12.8969C8.93638 13.4872 12.1383 16.8746 14.0035 16.8746C15.8687 16.8746 19.0706 13.4872 19.5058 12.9278C19.8167 12.5238 19.8479 10.535 19.0706 6.12205C18.5112 2.89009 15.8999 2.51705 14.0035 2.51705Z" fill="#111820"/>
<path d="M24.2622 28.0001H3.74463V27.6894C3.74463 23.0898 6.54259 21.3807 8.4078 20.2618C8.74963 20.0446 9.06055 19.8579 9.34025 19.6715C11.0191 18.4596 12.0761 17.6205 12.107 17.6205L12.6046 17.2166V17.869C12.6046 18.646 13.2261 19.2676 14.0034 19.2676C14.7807 19.2676 15.4023 18.646 15.4023 17.869V17.2166L15.8998 17.6205C15.8998 17.6205 16.9568 18.4596 18.6666 19.6715C18.9151 19.8579 19.2572 20.0446 19.599 20.2618C21.4643 21.3807 24.2622 23.0898 24.2622 27.6894V28.0001ZM4.36646 27.3785H23.6404C23.5161 23.3696 21.0912 21.878 19.2881 20.7903C18.9463 20.5728 18.6045 20.3864 18.3245 20.1688C17.2365 19.3918 16.4283 18.7703 15.962 18.4284C15.7132 19.2676 14.9362 19.8891 14.0034 19.8891C13.0707 19.8891 12.2937 19.2676 12.0449 18.4284C11.5785 18.7703 10.7703 19.423 9.68238 20.1688C9.40238 20.3864 9.06055 20.5728 8.71871 20.7903C6.91563 21.878 4.49071 23.3696 4.36646 27.3785Z" fill="#111820"/>
<path d="M14.0036 19.889C12.8845 19.889 11.9829 18.9878 11.9829 17.8689V16.0977L12.4493 16.3462C13.0708 16.688 13.5993 16.8747 14.0036 16.8747C14.4078 16.8747 14.9363 16.688 15.5579 16.3462L16.0242 16.0977V17.8689C16.0242 18.9566 15.1227 19.889 14.0036 19.889ZM12.6047 17.1232V17.8689C12.6047 18.6459 13.2263 19.2675 14.0036 19.2675C14.7809 19.2675 15.4024 18.6459 15.4024 17.8689V17.1232C14.8739 17.3717 14.4078 17.4962 14.0036 17.4962C13.5993 17.4962 13.1332 17.3717 12.6047 17.1232Z" fill="#111820"/>
<path d="M14.0035 14.5748C12.2625 14.5748 11.734 13.363 11.7031 13.3318L12.2625 13.0833C12.2625 13.1142 12.6668 13.9533 14.0035 13.9533C15.3402 13.9533 15.7445 13.0833 15.7445 13.0833L16.3039 13.3318C16.273 13.363 15.7445 14.5748 14.0035 14.5748Z" fill="#111820"/>
<path d="M8.03492 27.6894H7.41309V26.353C7.41309 25.4829 8.12825 24.3329 8.15917 24.2708L8.68767 24.5817C8.50129 24.8614 8.03492 25.7626 8.03492 26.353V27.6894Z" fill="#111820"/>
<path d="M20.5939 27.6894H19.9721V26.353C19.9721 25.7626 19.5057 24.8923 19.3193 24.5817L19.8478 24.2708C19.8788 24.3329 20.5939 25.4829 20.5939 26.353V27.6894Z" fill="#111820"/>
<path d="M12.2938 17.838L10.4595 18.8323L13.0398 20.6969L14.0035 19.5781L12.2938 17.838Z" fill="white"/>
<path d="M15.7132 17.838L17.5475 18.8323L14.9671 20.6969L14.0034 19.5781L15.7132 17.838Z" fill="white"/>
<path d="M13.0399 21.0079C12.9778 21.0079 12.9157 20.9767 12.8533 20.9458L10.2732 19.0811C10.1798 19.019 10.1489 18.9257 10.1489 18.8014C10.1489 18.7081 10.2111 18.5839 10.3041 18.5526L12.1384 17.5584C12.2626 17.4962 12.4181 17.5271 12.5114 17.6205L14.2212 19.3296C14.3454 19.4539 14.3454 19.6406 14.2524 19.7648L13.2887 20.8834C13.1954 20.9767 13.1333 21.0079 13.0399 21.0079ZM11.0193 18.8636L12.9778 20.2618L13.5684 19.5781L12.2005 18.2108L11.0193 18.8636Z" fill="#111820"/>
<path d="M14.9672 21.0079C14.8739 21.0079 14.7809 20.9767 14.7184 20.9146L13.7548 19.7958C13.6617 19.6715 13.6617 19.4851 13.786 19.3609L15.4957 17.6514C15.5891 17.5584 15.7445 17.5272 15.8688 17.5893L17.7031 18.5839C17.7961 18.646 17.8582 18.7393 17.8582 18.8324C17.8582 18.9257 17.8273 19.05 17.734 19.1121L15.1539 20.9767C15.0915 20.9767 15.0294 21.0079 14.9672 21.0079ZM14.4387 19.5782L15.0294 20.2618L16.9879 18.8636L15.8067 18.2108L14.4387 19.5782Z" fill="#111820"/>
<path d="M14.0036 0.341818C14.0036 0.341818 7.1022 0.124234 6.69824 7.08544C6.69824 11.3429 7.28887 15.4761 8.09708 18.0865C8.90528 20.7282 10.4596 20.2309 10.4596 20.2309C9.06074 15.3207 10.2732 5.99782 10.2732 5.99782C11.4545 6.68148 14.0348 6.80573 14.0348 6.80573C14.9985 6.77482 16.6461 6.7124 17.7962 5.99782C17.7962 5.99782 19.0086 15.2897 17.6098 20.2309C17.6098 20.2309 19.1641 20.7282 19.9723 18.0865C20.7805 15.4449 21.3714 11.3429 21.3714 7.08544C20.905 0.124234 14.0036 0.341818 14.0036 0.341818Z" fill="#F8BF3F"/>
<path d="M17.8893 20.5728C17.6717 20.5728 17.5163 20.5415 17.4851 20.5106C17.3299 20.4485 17.2366 20.293 17.2675 20.1376C18.449 15.9423 17.7339 8.39071 17.5163 6.49517C16.3972 7.02338 14.9983 7.11671 14.0035 7.11671C14.0035 7.11671 14.0035 7.11671 13.9722 7.11671C13.8792 7.11671 11.7961 7.02338 10.4594 6.46396C10.2418 8.3595 9.49575 15.9423 10.7082 20.1376C10.7394 20.293 10.677 20.4794 10.4906 20.5106C10.4594 20.5106 9.9 20.697 9.24725 20.3552C8.59421 20.0133 8.06571 19.2675 7.75508 18.1799C6.88446 15.2898 6.35596 11.0323 6.35596 7.0855C6.35596 7.0855 6.35596 7.0855 6.35596 7.05429C6.79112 4.39435e-05 13.6925 0.0312524 14.0035 0.0312524C14.3144 0.0312524 21.2158 4.39435e-05 21.6198 7.05429C21.6198 7.05429 21.6198 7.05429 21.6198 7.0855C21.6198 11.0633 21.0912 15.3207 20.2209 18.1799C19.8788 19.2675 19.3815 20.0133 18.7287 20.3552C18.4178 20.5415 18.1069 20.5728 17.8893 20.5728ZM17.7651 5.71817C17.796 5.71817 17.8581 5.71817 17.8893 5.74909C17.9827 5.78029 18.0448 5.87363 18.076 5.99788C18.1381 6.37063 19.226 14.9789 17.9827 19.9824C18.3866 19.9512 19.1639 19.6406 19.6303 18.0245C20.4697 15.1965 20.9982 11.0323 20.9982 7.11671C20.8115 4.35084 19.5991 2.455 17.3608 1.4295C15.6823 0.621586 14.0347 0.652794 14.0035 0.652794C14.0035 0.652794 14.0035 0.652794 13.9722 0.652794C13.6925 0.652794 7.38175 0.528252 6.97779 7.0855C6.97779 11.0011 7.50629 15.1965 8.34571 17.9933C8.843 19.6094 9.58908 19.92 9.99333 19.9512C8.74967 14.948 9.83787 6.33971 9.9 5.96667C9.9 5.87363 9.99333 5.78029 10.0864 5.71817C10.1797 5.68696 10.304 5.68696 10.3973 5.71817C11.4543 6.33971 13.848 6.46396 14.0035 6.46396C15.0605 6.43275 16.5526 6.33971 17.6096 5.71817C17.6717 5.71817 17.703 5.71817 17.7651 5.71817Z" fill="#111820"/>
<path d="M13.0398 20.697L14.0035 22.0643L14.9671 20.697L14.0035 19.5781L13.0398 20.697Z" fill="#EA4356"/>
<path d="M14.5321 21.3185L14.0036 22.0643L13.4751 21.3185C13.4751 21.3185 12.2938 27.4718 12.4181 27.6894H15.5891C15.7133 27.4718 14.5321 21.3185 14.5321 21.3185Z" fill="#EA4356"/>
<path d="M14.0034 22.3753C13.9101 22.3753 13.8167 22.3131 13.7546 22.251L12.7909 20.8834C12.6976 20.7591 12.7288 20.604 12.8221 20.5106L13.7858 19.3918C13.8479 19.3297 13.9413 19.2985 14.0346 19.2985C14.1276 19.2985 14.221 19.3297 14.2831 19.3918L15.2468 20.5106C15.3401 20.604 15.3401 20.7903 15.278 20.8834L14.3143 22.251C14.1901 22.344 14.0967 22.3753 14.0034 22.3753ZM13.4128 20.7282L14.0034 21.5361L14.594 20.7282L14.0034 20.0445L13.4128 20.7282Z" fill="#111820"/>
<path d="M15.589 28H12.418C12.2938 28 12.2005 27.9379 12.1383 27.8446C12.0762 27.7203 11.9517 27.5339 13.1641 21.2564C13.1953 21.1321 13.2887 21.0388 13.4129 21.0079C13.5372 20.9767 13.6617 21.0388 13.7238 21.1321L14.0035 21.5049L14.2832 21.1321C14.3454 21.0388 14.4699 20.9767 14.5942 21.0079C14.7184 21.0388 14.8117 21.1321 14.843 21.2564C16.0242 27.5027 15.9309 27.7203 15.8687 27.8446C15.8066 27.9379 15.6824 28 15.589 28ZM12.729 27.3785H15.2469C15.1539 26.5394 14.7184 24.0223 14.3454 22.0955L14.2523 22.251C14.1902 22.344 14.0969 22.3752 14.0035 22.3752C13.9102 22.3752 13.8169 22.3131 13.7547 22.251L13.6305 22.0955C13.2887 24.0223 12.8223 26.5394 12.729 27.3785Z" fill="#111820"/>
</g>
<defs>
<clipPath id="clip0_162_2812">
<rect width="28" height="28" fill="white"/>
</clipPath>
</defs>
</svg>
