<svg width="28" height="28" viewBox="0 0 28 28" fill="none" xmlns="http://www.w3.org/2000/svg">
<g clip-path="url(#clip0_162_2813)">
<path d="M19.2944 6.03544C18.6402 2.42665 15.5561 2.17786 13.905 2.17786C12.9705 2.17786 11.5375 2.27119 10.3849 3.01786C10.2291 3.60877 10.1979 4.29331 10.3537 5.13332C10.3849 5.25786 10.4158 5.38211 10.447 5.47544C10.447 5.47544 10.6652 6.28452 9.73066 7.24877C8.88949 8.11998 7.98591 10.1421 7.89258 11.76C7.92379 12.4133 7.98591 12.8488 8.14166 13.0666C8.60891 13.6888 11.8802 17.1733 13.905 17.1733C15.93 17.1733 19.2011 13.6888 19.6683 13.0666C20.1356 12.4445 19.9486 9.83119 19.2944 6.03544Z" fill="#FBDBC0"/>
<path d="M12.3474 8.7421C12.3474 8.79722 12.3418 8.85206 12.331 8.90602C12.3202 8.96027 12.3045 9.01277 12.2832 9.06352C12.2622 9.11456 12.2362 9.16297 12.2056 9.20877C12.1747 9.25485 12.14 9.29714 12.1009 9.33622C12.0618 9.37531 12.0192 9.41002 11.9735 9.44064C11.9277 9.47127 11.879 9.49722 11.8279 9.51822C11.7769 9.53922 11.7244 9.55527 11.6701 9.56606C11.6162 9.57685 11.5613 9.5821 11.5062 9.5821C11.4508 9.5821 11.3962 9.57685 11.342 9.56606C11.2877 9.55527 11.2352 9.53922 11.1842 9.51822C11.1332 9.49722 11.0847 9.47127 11.039 9.44064C10.9929 9.41002 10.9506 9.37531 10.9115 9.33622C10.8724 9.29714 10.8374 9.25485 10.8068 9.20877C10.7762 9.16297 10.7502 9.11456 10.7289 9.06352C10.7079 9.01277 10.6919 8.96027 10.6811 8.90602C10.6703 8.85206 10.665 8.79722 10.665 8.7421C10.665 8.68697 10.6703 8.63243 10.6811 8.57818C10.6919 8.52422 10.7079 8.47172 10.7289 8.42068C10.7502 8.36964 10.7762 8.32152 10.8068 8.27543C10.8374 8.22964 10.8724 8.18735 10.9115 8.14827C10.9506 8.10918 10.9929 8.07447 11.039 8.04385C11.0847 8.01322 11.1332 7.98727 11.1842 7.96627C11.2352 7.94497 11.2877 7.92922 11.342 7.91843C11.3962 7.90764 11.4508 7.9021 11.5062 7.9021C11.5613 7.9021 11.6162 7.90764 11.6701 7.91843C11.7244 7.92922 11.7769 7.94497 11.8279 7.96627C11.879 7.98727 11.9277 8.01322 11.9735 8.04385C12.0192 8.07447 12.0618 8.10918 12.1009 8.14827C12.14 8.18735 12.1747 8.22964 12.2056 8.27543C12.2362 8.32152 12.2622 8.36964 12.2832 8.42068C12.3045 8.47172 12.3202 8.52422 12.331 8.57818C12.3418 8.63243 12.3474 8.68697 12.3474 8.7421Z" fill="#111820"/>
<path d="M17.1447 8.7421C17.1447 8.79722 17.1394 8.85206 17.1286 8.90602C17.1179 8.96027 17.1018 9.01277 17.0808 9.06352C17.0595 9.11456 17.0339 9.16297 17.0029 9.20877C16.9723 9.25485 16.9376 9.29714 16.8985 9.33622C16.8594 9.37531 16.8169 9.41002 16.7711 9.44064C16.725 9.47127 16.6766 9.49722 16.6255 9.51822C16.5745 9.53922 16.522 9.55527 16.4677 9.56606C16.4135 9.57685 16.3589 9.5821 16.3038 9.5821C16.2484 9.5821 16.1939 9.57685 16.1396 9.56606C16.0854 9.55527 16.0329 9.53922 15.9818 9.51822C15.9308 9.49722 15.8824 9.47127 15.8363 9.44064C15.7905 9.41002 15.7479 9.37531 15.7088 9.33622C15.6697 9.29714 15.635 9.25485 15.6044 9.20877C15.5735 9.16297 15.5478 9.11456 15.5265 9.06352C15.5055 9.01277 15.4895 8.96027 15.4787 8.90602C15.4679 8.85206 15.4626 8.79722 15.4626 8.7421C15.4626 8.68697 15.4679 8.63243 15.4787 8.57818C15.4895 8.52422 15.5055 8.47172 15.5265 8.42068C15.5478 8.36964 15.5735 8.32152 15.6044 8.27543C15.635 8.22964 15.6697 8.18735 15.7088 8.14827C15.7479 8.10918 15.7905 8.07447 15.8363 8.04385C15.8824 8.01322 15.9308 7.98727 15.9818 7.96627C16.0329 7.94497 16.0854 7.92922 16.1396 7.91843C16.1939 7.90764 16.2484 7.9021 16.3038 7.9021C16.3589 7.9021 16.4135 7.90764 16.4677 7.91843C16.522 7.92922 16.5745 7.94497 16.6255 7.96627C16.6766 7.98727 16.725 8.01322 16.7711 8.04385C16.8169 8.07447 16.8594 8.10918 16.8985 8.14827C16.9376 8.18735 16.9723 8.22964 17.0029 8.27543C17.0339 8.32152 17.0595 8.36964 17.0808 8.42068C17.1018 8.47172 17.1179 8.52422 17.1286 8.57818C17.1394 8.63243 17.1447 8.68697 17.1447 8.7421Z" fill="#111820"/>
<path d="M14.6215 10.8888C14.6215 10.8888 14.4033 11.1688 13.9049 11.1688C13.4064 11.1688 13.1885 10.8888 13.1885 10.8888C13.1573 10.8267 13.0949 10.8579 13.2195 11.1067C13.4376 11.48 13.7179 11.5113 13.9049 11.5113C14.0918 11.5113 14.3721 11.48 14.5903 11.1067C14.7148 10.8888 14.6527 10.8579 14.6215 10.8888Z" fill="#111820"/>
<path d="M13.9049 17.1733C13.3752 17.1733 12.7834 16.9554 12.1917 16.6133V17.8578C12.1917 18.7912 12.9704 19.5687 13.9049 19.5687C14.8394 19.5687 15.6184 18.7912 15.6184 17.8578V16.6133C15.0264 16.9245 14.4346 17.1733 13.9049 17.1733Z" fill="#FBDBC0"/>
<path d="M18.391 19.9112C16.6775 18.6667 15.6185 17.8267 15.6185 17.8267C15.6185 18.76 14.8394 19.5379 13.9049 19.5379C12.9704 19.5379 12.1917 18.76 12.1917 17.8267C12.1917 17.8267 11.1323 18.6667 9.41908 19.9112C7.70553 21.1555 3.93604 22.4312 3.93604 27.6888H23.8738C23.8738 22.4312 20.1043 21.1555 18.391 19.9112Z" fill="#BDDA78"/>
<path d="M24.1853 28H3.62451V27.6888C3.62451 23.0845 6.4283 21.3733 8.2973 20.2533C8.64001 20.0355 8.95151 19.8488 9.23209 19.6621C10.9141 18.4488 11.9735 17.6088 12.0047 17.6088L12.5031 17.2045V17.8579C12.5031 18.6355 13.1261 19.2579 13.9049 19.2579C14.6836 19.2579 15.3069 18.6355 15.3069 17.8579V17.1112L15.8363 17.64C15.9611 17.7333 16.989 18.5421 18.578 19.6933C18.8271 19.88 19.1698 20.0667 19.5125 20.2845C21.3818 21.4045 24.1853 23.1155 24.1853 27.72V28ZM4.24751 27.3779H23.5623C23.4377 23.3645 21.0078 21.8712 19.201 20.7821C18.8583 20.5645 18.5156 20.3779 18.2353 20.16C17.1759 19.4133 16.3348 18.7912 15.8675 18.4179C15.6184 19.2579 14.8394 19.88 13.9049 19.88C12.9704 19.88 12.1916 19.2579 11.9423 18.4179C11.475 18.76 10.6651 19.4133 9.5748 20.16C9.29422 20.3779 8.95151 20.5645 8.6091 20.7821C6.80222 21.8712 4.37205 23.3645 4.24751 27.3779Z" fill="#111820"/>
<path d="M13.9049 19.8801C12.7834 19.8801 11.8801 18.9779 11.8801 17.8579V16.0846L12.3474 16.3334C12.9704 16.6755 13.5 16.8622 13.9049 16.8622C14.31 16.8622 14.8394 16.6755 15.4627 16.3334L15.9299 16.0846V17.8579C15.9299 18.9467 15.0263 19.8801 13.9049 19.8801ZM12.5031 17.1113V17.8579C12.5031 18.6355 13.1261 19.2579 13.9049 19.2579C14.6836 19.2579 15.3069 18.6355 15.3069 17.8579V17.1113C14.7773 17.3601 14.31 17.4846 13.9049 17.4846C13.5 17.4846 13.0325 17.3601 12.5031 17.1113Z" fill="#111820"/>
<path d="M13.9049 14.56C12.1605 14.56 11.6308 13.3467 11.5996 13.3154L12.1605 13.0667C12.1605 13.0979 12.5653 13.9379 13.9049 13.9379C15.2446 13.9379 15.6497 13.0667 15.6497 13.0667L16.2103 13.3154C16.1791 13.3467 15.6497 14.56 13.9049 14.56Z" fill="#111820"/>
<path d="M15.6184 16.5821C15.6184 16.5821 15.6184 17.92 15.6184 17.8267C15.6184 17.8267 16.1478 18.2621 17.0826 18.9155C17.3629 18.2 17.8301 17.5467 18.2974 17.1421C19.014 16.52 19.3879 15.0888 19.4191 13.3467C18.7646 14.0933 17.1447 15.7112 15.6184 16.5821Z" fill="#F8BF3F"/>
<path d="M8.14168 13.0666C7.98593 12.8487 7.8926 12.4133 7.8926 11.7599C8.01714 10.1421 8.92072 8.11994 9.73068 7.24873C10.6652 6.25327 10.447 5.4754 10.447 5.4754C10.4158 5.41327 10.4158 5.38206 10.3849 5.31994C10.3537 5.25781 10.3537 5.1954 10.3537 5.13327C10.3225 5.00873 10.3225 4.88448 10.2913 4.75994C10.2913 4.72873 10.2913 4.69781 10.2913 4.6354C10.2913 4.54206 10.2601 4.47994 10.2601 4.38661C10.2601 4.3554 10.2601 4.32448 10.2601 4.29327C10.2601 4.19994 10.2601 4.10661 10.2601 4.01327C10.2601 3.98206 10.2601 3.98206 10.2601 3.95115C10.2601 3.85781 10.2601 3.76448 10.2601 3.67115C10.2601 3.63994 10.2601 3.60873 10.2601 3.57781C10.2601 3.5154 10.2601 3.45327 10.2913 3.39115C10.2913 3.35994 10.2913 3.32873 10.3225 3.26661C10.3225 3.20448 10.3537 3.14206 10.3537 3.07994C10.447 2.6754 10.6028 2.33327 10.7897 2.05327C10.7897 2.05327 9.23222 1.71115 7.95472 3.82661C6.67752 5.94206 5.55606 11.0754 6.77114 14.2487C7.54989 16.3021 8.23531 18.6045 8.14168 20.7199C8.60893 20.4399 9.04527 20.1911 9.38797 19.9111C11.1012 18.6666 12.1606 17.8266 12.1606 17.8266V16.5821C10.3849 15.5866 8.48439 13.5333 8.14168 13.0666Z" fill="#F8BF3F"/>
<path d="M17.0826 19.2579C17.0201 19.2579 16.958 19.2267 16.8956 19.1955C16.2102 18.6979 15.6496 18.2622 15.4626 18.1067C15.369 18.0446 15.3069 17.9513 15.3069 17.8267V16.5822C15.3069 16.4579 15.369 16.3646 15.4626 16.3022C16.958 15.4622 18.5467 13.8755 19.1697 13.1288C19.2631 13.0355 19.3879 13.0046 19.5124 13.0355C19.637 13.0979 19.6994 13.1913 19.6994 13.3467C19.6682 14.7467 19.4191 16.5822 18.4843 17.3913C18.0171 17.7646 17.6122 18.3867 17.3316 19.0401C17.3004 19.1334 17.2071 19.1955 17.1138 19.2267C17.1447 19.2579 17.1138 19.2579 17.0826 19.2579ZM15.9299 17.7022C16.0856 17.8267 16.4596 18.1067 16.9268 18.4801C17.2383 17.8579 17.6431 17.3288 18.0795 16.9555C18.5779 16.5201 18.9206 15.5555 19.0452 14.2179C18.2664 15.0267 17.0826 16.1155 15.9299 16.8001V17.7022Z" fill="#111820"/>
<path d="M8.14153 21C8.07941 21 8.01699 21 7.98578 20.9688C7.89245 20.9066 7.83003 20.8133 7.83003 20.6888C7.95457 18.5112 7.17582 16.1466 6.49041 14.3421C5.24441 11.0754 6.39707 5.84876 7.70549 3.63997C9.07632 1.36876 10.7896 1.71117 10.8832 1.74209C10.9765 1.7733 11.0699 1.83542 11.1011 1.92876C11.1323 2.02209 11.1323 2.11542 11.0699 2.20876C10.8832 2.48876 10.7584 2.79997 10.6962 3.14209C10.6962 3.20451 10.665 3.26663 10.665 3.32876C10.665 3.35997 10.665 3.39117 10.6338 3.42209C10.6338 3.48451 10.6026 3.54663 10.6026 3.57784V3.60876C10.6026 3.63997 10.6026 3.67117 10.6026 3.67117C10.6026 3.76451 10.6026 3.85784 10.6026 3.95117V4.0133C10.6026 4.10663 10.6026 4.19997 10.6026 4.2933C10.6026 4.32451 10.6026 4.35542 10.6026 4.38663V4.41784C10.6026 4.51117 10.6026 4.5733 10.6338 4.66663V4.75997C10.665 4.88451 10.665 5.00876 10.6962 5.10209C10.6962 5.16451 10.7274 5.19542 10.7274 5.25784C10.7274 5.28876 10.7584 5.35117 10.7584 5.38209V5.4133C10.7584 5.4133 11.0699 6.37784 9.97961 7.49784C9.23207 8.30663 8.32849 10.2354 8.20395 11.7912C8.23516 12.5688 8.3597 12.8178 8.39091 12.9112C8.76482 13.4088 10.6338 15.4 12.3162 16.3333C12.4095 16.3954 12.4719 16.4888 12.4719 16.6133V17.8578C12.4719 17.9512 12.4407 18.0445 12.3474 18.1066C12.3474 18.1066 11.2568 18.9778 9.57478 20.1912C9.2942 20.4088 8.95149 20.5954 8.60878 20.8133C8.51545 20.8754 8.42211 20.9378 8.29728 21C8.26636 21 8.20395 21 8.14153 21ZM10.2911 2.36451C9.79266 2.42663 8.9827 2.76876 8.23516 3.98209C6.98886 6.06663 5.89861 11.0445 7.08249 14.1245C7.7367 15.8354 8.45303 18.0445 8.48424 20.16C8.76482 20.0045 9.01391 19.8178 9.23207 19.6621C10.6026 18.6666 11.5683 17.9512 11.8801 17.7021V16.8C10.0732 15.7112 8.23516 13.72 7.92366 13.2845C7.7367 13.0045 7.64307 12.5378 7.61216 11.8221V11.7912C7.7367 10.0178 8.70241 7.96451 9.54357 7.0933C10.2599 6.34663 10.1978 5.72451 10.1666 5.63117C10.1354 5.56876 10.1354 5.50663 10.1042 5.47542C10.0732 5.4133 10.0732 5.35117 10.0732 5.25784C10.042 5.1333 10.042 5.00876 10.0108 4.88451C10.0108 4.8533 10.0108 4.82209 10.0108 4.79117V4.75997C10.0108 4.66663 9.97961 4.5733 9.97961 4.47997C9.97961 4.41784 9.97961 4.38663 9.97961 4.35542C9.97961 4.26209 9.97961 4.13784 9.97961 4.04451V3.98209C9.97961 3.88876 9.97961 3.76451 10.0108 3.67117C10.0108 3.63997 10.0108 3.60876 10.0108 3.57784V3.54663C10.0108 3.48451 10.042 3.42209 10.042 3.35997C10.042 3.32876 10.042 3.26663 10.0732 3.23542C10.0732 3.1733 10.1042 3.07997 10.1042 3.01784C10.1042 2.76876 10.1978 2.55117 10.2911 2.36451Z" fill="#111820"/>
<path d="M20.1978 21.0312C19.5124 20.5954 18.8894 20.2533 18.391 19.9112C18.2973 19.8487 18.2352 19.7866 18.1416 19.7245L17.5186 23.7066C16.7398 24.0178 15.4626 24.3912 13.8736 24.3912C12.2849 24.3912 11.0077 24.0178 10.229 23.7066L9.60567 19.7245C9.51234 19.7866 9.44992 19.8487 9.35659 19.9112C8.88934 20.2533 8.23513 20.5954 7.54971 21.0312L8.20392 24.1421C7.4873 24.9199 7.54971 25.7287 7.54971 26.3199C7.54971 27.4087 7.54971 27.6578 7.54971 27.6578H20.1042C20.1042 27.6578 20.1042 27.4087 20.1042 26.3199C20.1042 25.7287 20.1666 24.9199 19.45 24.1421L20.1978 21.0312Z" fill="#4B88A0"/>
<path d="M20.5094 28H7.30041V26.2266C7.30041 25.6666 7.30041 24.8579 7.9237 24.08L7.23828 20.9066L7.42524 20.7821C7.70553 20.5954 7.98582 20.4088 8.26641 20.2533C8.60882 20.0354 8.92061 19.8488 9.20091 19.6621L9.85511 19.1954L10.5093 23.52C11.2881 23.8 12.4407 24.1112 13.8737 24.1112C15.3069 24.1112 16.4596 23.8 17.2384 23.52L17.8926 19.1954L18.5468 19.6621C18.7959 19.8488 19.1386 20.0354 19.4813 20.2533C19.7616 20.4088 20.0422 20.5954 20.3224 20.7821L20.5094 20.9066L19.824 24.08C20.4782 24.8579 20.447 25.6979 20.447 26.2266L20.5094 28ZM7.9237 27.3779H19.8552V26.2266C19.8552 25.6979 19.8552 25.0133 19.2631 24.36L19.201 24.2666L19.8552 21.1866C19.637 21.0312 19.4192 20.9066 19.201 20.7821C18.9207 20.5954 18.6401 20.44 18.391 20.2845L17.8302 23.9554L17.6744 24.0179C16.8644 24.3288 15.556 24.7333 13.9049 24.7333C12.2538 24.7333 10.9454 24.36 10.1354 24.0179L9.97966 23.9554L9.41907 20.2845C9.1697 20.44 8.88941 20.6266 8.60882 20.7821C8.39095 20.9066 8.17278 21.0312 7.95461 21.1866L8.60882 24.2666L8.51549 24.3912C7.9237 25.0445 7.9237 25.6979 7.9237 26.2579V27.3779Z" fill="#111820"/>
<path d="M10.3535 5.13328C10.478 5.78662 10.665 6.03541 12.9703 6.03541C15.4002 6.03541 18.1416 5.25782 18.9206 8.77328C19.6994 12.2578 19.6057 16.0845 18.2973 17.1733C16.9889 18.2621 15.992 21 17.4874 22.6178C18.9827 24.2354 17.4561 21.0312 20.6651 18.1066C23.8737 15.1821 23.8737 13.7512 23.8737 11.7599C23.8737 9.76874 24.4034 0.311157 13.9048 0.311157C13.9048 0.311157 9.54352 0.622074 10.3535 5.13328Z" fill="#F8BF3F"/>
<path d="M18.0482 23.3333C17.7988 23.3333 17.581 23.1467 17.2695 22.8045C16.6774 22.1512 16.3971 21.3112 16.4595 20.3467C16.5528 19.0712 17.2071 17.7021 18.1103 16.9245C19.2321 15.9912 19.45 12.5067 18.64 8.80454C18.0482 6.09788 16.2413 6.19121 14.1542 6.28454C13.7803 6.31546 13.3751 6.31546 13.0015 6.31546C10.7895 6.31546 10.2598 6.09788 10.0732 5.16454C9.7926 3.70213 10.042 2.52 10.7274 1.58667C11.8488 0.155458 13.8115 0 13.8736 0C13.8736 0 13.8736 0 13.9048 0C17.1446 0 19.6369 0.902125 21.3817 2.64454C24.2476 5.50667 24.1852 9.86213 24.1852 11.5112C24.1852 11.6045 24.1852 11.6979 24.1852 11.7912C24.1852 13.8133 24.1852 15.3067 20.8832 18.3245C19.2009 19.8488 18.8894 21.4355 18.7024 22.3688C18.5779 22.8979 18.5155 23.24 18.204 23.3333C18.1416 23.3333 18.0794 23.3333 18.0482 23.3333ZM15.2132 5.63121C16.958 5.63121 18.64 6.03546 19.2321 8.68C19.9484 11.9779 20.0421 16.0845 18.5155 17.3912C17.7367 18.0445 17.1446 19.2579 17.0825 20.3467C17.0513 20.9067 17.1446 21.7155 17.7367 22.3688C17.8613 22.4933 17.9237 22.5867 17.9858 22.6179C18.017 22.4933 18.0482 22.3379 18.0794 22.1821C18.2664 21.2488 18.64 19.4755 20.4469 17.8267C23.5622 14.9955 23.5622 13.6888 23.5622 11.76C23.5622 11.6667 23.5622 11.6045 23.5622 11.48C23.5622 9.92454 23.6246 5.75546 20.9453 3.04879C19.3254 1.46213 16.958 0.622125 13.9048 0.622125C13.7803 0.622125 12.1291 0.808792 11.1946 1.99121C10.6026 2.76879 10.4156 3.79546 10.665 5.07121C10.7274 5.50667 10.7895 5.72454 12.9703 5.72454C13.3442 5.72454 13.7178 5.69333 14.0918 5.69333C14.4657 5.66213 14.8393 5.63121 15.2132 5.63121Z" fill="#111820"/>
</g>
<defs>
<clipPath id="clip0_162_2813">
<rect width="28" height="28" fill="white"/>
</clipPath>
</defs>
</svg>
