<svg width="28" height="28" viewBox="0 0 28 28" fill="none" xmlns="http://www.w3.org/2000/svg">
<g clip-path="url(#clip0_162_2814)">
<path d="M15.5114 2.06476C15.5114 2.12164 15.5091 2.17851 15.5041 2.23539C15.4991 2.29197 15.4919 2.34826 15.4822 2.40426C15.4723 2.46026 15.4604 2.51539 15.4458 2.56993C15.4315 2.62447 15.4146 2.67814 15.3956 2.73064C15.3764 2.78343 15.3551 2.83506 15.3314 2.88522C15.3081 2.93539 15.2824 2.98439 15.2547 3.03164C15.227 3.07918 15.1973 3.12497 15.1658 3.16901C15.134 3.21306 15.1004 3.25506 15.0651 3.2956C15.0299 3.33585 14.9931 3.37406 14.9543 3.41022C14.9158 3.44639 14.8759 3.48022 14.8344 3.51201C14.7927 3.54351 14.7501 3.57297 14.7061 3.59981C14.6621 3.62664 14.6171 3.65085 14.5711 3.67272C14.525 3.6946 14.478 3.71385 14.4302 3.73018C14.3824 3.74681 14.3342 3.76081 14.2852 3.77189C14.2362 3.78297 14.1869 3.79143 14.1374 3.79697C14.0875 3.80251 14.0379 3.80514 13.988 3.80514C13.9381 3.80514 13.8883 3.80251 13.8387 3.79697C13.7888 3.79143 13.7395 3.78297 13.6908 3.77189C13.6418 3.76081 13.5934 3.74681 13.5456 3.73018C13.498 3.71385 13.4511 3.6946 13.405 3.67272C13.3589 3.65085 13.3137 3.62664 13.2696 3.59981C13.2256 3.57297 13.183 3.54351 13.1416 3.51201C13.0999 3.48022 13.0599 3.44639 13.0214 3.41022C12.9829 3.37406 12.9459 3.33585 12.9106 3.2956C12.8753 3.25506 12.8418 3.21306 12.8103 3.16901C12.7785 3.12497 12.749 3.07918 12.721 3.03164C12.6933 2.98439 12.6679 2.93539 12.6443 2.88522C12.6207 2.83506 12.5994 2.78343 12.5804 2.73064C12.5612 2.67814 12.5446 2.62447 12.53 2.56993C12.5154 2.51539 12.5034 2.46026 12.4938 2.40426C12.4839 2.34826 12.4766 2.29197 12.4716 2.23539C12.467 2.17851 12.4644 2.12164 12.4644 2.06476C12.4644 2.0076 12.467 1.95072 12.4716 1.89414C12.4766 1.83726 12.4839 1.78097 12.4938 1.72497C12.5034 1.66926 12.5154 1.61385 12.53 1.55931C12.5446 1.50476 12.5612 1.45139 12.5804 1.3986C12.5994 1.34581 12.6207 1.29447 12.6443 1.24431C12.6679 1.19385 12.6933 1.14514 12.7213 1.0976C12.749 1.05035 12.7785 1.00456 12.8103 0.960513C12.8418 0.916472 12.8753 0.87418 12.9106 0.83393C12.9459 0.79368 12.9829 0.755472 13.0214 0.719305C13.0599 0.683138 13.0999 0.649013 13.1416 0.617513C13.183 0.585722 13.2256 0.556555 13.2696 0.529722C13.3137 0.502888 13.3589 0.478388 13.405 0.456513C13.4511 0.43493 13.498 0.41568 13.5456 0.399055C13.5934 0.38243 13.6418 0.368722 13.6908 0.357638C13.7395 0.346555 13.7888 0.338097 13.8387 0.332555C13.8883 0.327013 13.9381 0.324097 13.988 0.324097C14.0379 0.324097 14.0875 0.327013 14.1374 0.332555C14.1869 0.338097 14.2362 0.346555 14.2852 0.357638C14.3342 0.368722 14.3824 0.38243 14.4302 0.399055C14.478 0.41568 14.525 0.43493 14.5711 0.456513C14.6171 0.478388 14.6621 0.502888 14.7061 0.529722C14.7501 0.556555 14.7927 0.585722 14.8344 0.617513C14.8759 0.649013 14.9158 0.683138 14.9543 0.719305C14.9931 0.755472 15.0299 0.79368 15.0651 0.83393C15.1004 0.87418 15.134 0.916472 15.1658 0.960513C15.1973 1.00456 15.227 1.05035 15.2547 1.0976C15.2824 1.14514 15.3081 1.19385 15.3314 1.24431C15.3551 1.29447 15.3764 1.34581 15.3956 1.3986C15.4146 1.45139 15.4315 1.50476 15.4458 1.55931C15.4604 1.61385 15.4723 1.66926 15.4822 1.72497C15.4919 1.78097 15.4991 1.83726 15.5041 1.89414C15.5091 1.95072 15.5114 2.0076 15.5114 2.06476Z" fill="#F8BF3F"/>
<path d="M13.9881 4.11606C12.9621 4.11606 12.1536 3.1836 12.1536 2.06477C12.1536 0.945642 12.9621 0.0131836 13.9881 0.0131836C15.0142 0.0131836 15.8224 0.945642 15.8224 2.06477C15.8224 3.1836 15.0142 4.11606 13.9881 4.11606ZM13.9881 0.635017C13.3039 0.635017 12.7754 1.28777 12.7754 2.06477C12.7754 2.84177 13.3351 3.49452 13.9881 3.49452C14.6409 3.49452 15.2006 2.84177 15.2006 2.06477C15.2006 1.28777 14.6721 0.635017 13.9881 0.635017Z" fill="#111820"/>
<path d="M19.7089 8.15671C19.7089 8.12551 19.1182 5.70117 17.8434 5.70117C16.5064 5.70117 16.2579 6.69576 13.9881 6.69576C11.7184 6.69576 11.4696 5.70117 10.1326 5.70117C8.85769 5.70117 8.26707 8.15671 8.26707 8.15671C7.89402 10.7986 7.86282 12.5702 8.23586 13.0675C8.70223 13.689 11.9671 17.1704 13.9881 17.1704C16.0091 17.1704 19.2737 13.689 19.7401 13.0675C20.0822 12.5702 20.051 10.7986 19.7089 8.15671Z" fill="#FBDBC0"/>
<path d="M12.4335 8.74708C12.4335 8.80221 12.428 8.85675 12.4172 8.911C12.4064 8.96496 12.3906 9.01746 12.3694 9.06821C12.3484 9.11925 12.3227 9.16767 12.2921 9.21346C12.2614 9.25925 12.2264 9.30154 12.1876 9.34063C12.1486 9.37971 12.1063 9.41442 12.0602 9.44504C12.0144 9.47567 11.966 9.50133 11.9152 9.52263C11.8642 9.54363 11.8117 9.55967 11.7577 9.57017C11.7035 9.58096 11.6489 9.5865 11.5938 9.5865C11.5387 9.5865 11.4841 9.58096 11.4302 9.57017C11.3759 9.55967 11.3234 9.54363 11.2727 9.52263C11.2216 9.50133 11.1732 9.47567 11.1274 9.44504C11.0816 9.41442 11.0394 9.37971 11.0003 9.34063C10.9612 9.30154 10.9265 9.25925 10.8959 9.21346C10.8652 9.16767 10.8393 9.11925 10.8183 9.06821C10.7973 9.01746 10.7812 8.96496 10.7704 8.911C10.7599 8.85675 10.7544 8.80221 10.7544 8.74708C10.7544 8.69196 10.7599 8.63742 10.7704 8.58346C10.7812 8.5295 10.7973 8.477 10.8183 8.42596C10.8393 8.37521 10.8652 8.32679 10.8959 8.281C10.9265 8.23521 10.9612 8.19263 11.0003 8.15383C11.0394 8.11475 11.0816 8.08004 11.1274 8.04942C11.1732 8.01879 11.2216 7.99283 11.2727 7.97183C11.3234 7.95083 11.3759 7.93479 11.4302 7.924C11.4841 7.9135 11.5387 7.90796 11.5938 7.90796C11.6489 7.90796 11.7035 7.9135 11.7577 7.924C11.8117 7.93479 11.8642 7.95083 11.9152 7.97183C11.966 7.99283 12.0144 8.01879 12.0602 8.04942C12.1063 8.08004 12.1486 8.11475 12.1876 8.15383C12.2264 8.19263 12.2614 8.23521 12.2921 8.281C12.3227 8.32679 12.3484 8.37521 12.3694 8.42596C12.3906 8.477 12.4064 8.5295 12.4172 8.58346C12.428 8.63742 12.4335 8.69196 12.4335 8.74708Z" fill="#111820"/>
<path d="M17.2216 8.74708C17.2216 8.80221 17.2163 8.85675 17.2055 8.911C17.1947 8.96496 17.179 9.01746 17.1577 9.06821C17.1367 9.11925 17.1107 9.16767 17.0801 9.21346C17.0495 9.25925 17.0148 9.30154 16.9757 9.34063C16.9369 9.37971 16.8943 9.41442 16.8485 9.44504C16.8027 9.47567 16.7543 9.50133 16.7036 9.52263C16.6525 9.54363 16.6 9.55967 16.5461 9.57017C16.4918 9.58096 16.4373 9.5865 16.3821 9.5865C16.327 9.5865 16.2725 9.58096 16.2185 9.57017C16.1643 9.55967 16.1118 9.54363 16.061 9.52263C16.01 9.50133 15.9616 9.47567 15.9158 9.44504C15.87 9.41442 15.8274 9.37971 15.7886 9.34063C15.7495 9.30154 15.7148 9.25925 15.6842 9.21346C15.6536 9.16767 15.6276 9.11925 15.6066 9.06821C15.5856 9.01746 15.5696 8.96496 15.5588 8.911C15.548 8.85675 15.5427 8.80221 15.5427 8.74708C15.5427 8.69196 15.548 8.63742 15.5588 8.58346C15.5696 8.5295 15.5856 8.477 15.6066 8.42596C15.6276 8.37521 15.6536 8.32679 15.6842 8.281C15.7148 8.23521 15.7495 8.19263 15.7886 8.15383C15.8274 8.11475 15.87 8.08004 15.9158 8.04942C15.9616 8.01879 16.01 7.99283 16.061 7.97183C16.1118 7.95083 16.1643 7.93479 16.2185 7.924C16.2725 7.9135 16.327 7.90796 16.3821 7.90796C16.4373 7.90796 16.4918 7.9135 16.5461 7.924C16.6 7.93479 16.6525 7.95083 16.7036 7.97183C16.7543 7.99283 16.8027 8.01879 16.8485 8.04942C16.8943 8.08004 16.9369 8.11475 16.9757 8.15383C17.0148 8.19263 17.0495 8.23521 17.0801 8.281C17.1107 8.32679 17.1367 8.37521 17.1577 8.42596C17.179 8.477 17.1947 8.5295 17.2055 8.58346C17.2163 8.63742 17.2216 8.69196 17.2216 8.74708Z" fill="#111820"/>
<path d="M14.7032 10.8918C14.7032 10.8918 14.4854 11.1718 13.9881 11.1718C13.4905 11.1718 13.2729 10.8918 13.2729 10.8918C13.2417 10.8296 13.1796 10.8609 13.3038 11.1094C13.5217 11.4824 13.8014 11.5136 13.9881 11.5136C14.1744 11.5136 14.4544 11.4824 14.672 11.1094C14.7963 10.8918 14.7341 10.8609 14.7032 10.8918Z" fill="#111820"/>
<path d="M8.26703 8.15677C8.04945 7.93918 7.42761 7.41068 6.61911 7.75252C5.62424 8.15677 6.37032 11.5757 7.95611 11.4514C7.98703 10.5811 8.11157 9.49318 8.26703 8.15677Z" fill="#FBDBC0"/>
<path d="M19.7087 8.15677C19.9266 7.93918 20.5484 7.41068 21.3567 7.75252C22.3518 8.15677 21.6054 11.5757 20.0199 11.4514C19.9887 10.5811 19.8642 9.49318 19.7087 8.15677Z" fill="#FBDBC0"/>
<path d="M13.9881 17.1704C13.4593 17.1704 12.8687 16.9528 12.2781 16.611V17.854C12.2781 18.7865 13.0554 19.5635 13.9881 19.5635C14.9209 19.5635 15.6982 18.7865 15.6982 17.854V16.611C15.1072 16.9216 14.5166 17.1704 13.9881 17.1704Z" fill="#FBDBC0"/>
<path d="M7.8939 11.7311C6.89873 11.7311 6.24598 10.6432 6.0284 9.67955C5.81053 8.74709 5.87294 7.72159 6.5569 7.44188C7.55178 7.03763 8.32907 7.72159 8.54665 7.93917C8.60907 8.0013 8.63998 8.09434 8.63998 8.18767C8.45361 9.52438 8.36028 10.612 8.36028 11.4202C8.36028 11.5757 8.23573 11.6999 8.08028 11.7311C7.98694 11.7311 7.92482 11.7311 7.8939 11.7311ZM7.17873 7.93917C7.05419 7.93917 6.92994 7.97009 6.77448 8.03221C6.5569 8.12555 6.43236 8.7783 6.61903 9.5553C6.77448 10.2393 7.17873 10.9229 7.70723 11.0784C7.73844 10.3014 7.83148 9.36892 7.98694 8.2498C7.76936 8.12555 7.52057 7.93917 7.17873 7.93917Z" fill="#111820"/>
<path d="M20.0822 11.7311C20.051 11.7311 19.9889 11.7311 19.9577 11.7311C19.8022 11.7311 19.6779 11.5757 19.6779 11.4202C19.6779 10.612 19.5846 9.52438 19.3979 8.18767C19.3979 8.09434 19.4292 8.0013 19.4913 7.93917C19.7089 7.72159 20.4552 7.03763 21.4813 7.44188C22.1653 7.72159 22.2274 8.7783 22.0098 9.67955C21.7301 10.6741 21.1083 11.7311 20.0822 11.7311ZM20.0201 8.281C20.1755 9.39984 20.2686 10.3323 20.2998 11.1093C20.8283 10.9541 21.2013 10.2393 21.388 9.5865C21.5747 8.7783 21.4813 8.15675 21.2325 8.06342C20.6728 7.81463 20.2686 8.06342 20.0201 8.281Z" fill="#111820"/>
<path d="M18.465 19.9056C16.755 18.6622 15.698 17.8231 15.698 17.8231C15.698 18.7556 14.9207 19.5326 13.988 19.5326C13.0552 19.5326 12.2779 18.7556 12.2779 17.8231C12.2779 17.8231 11.2206 18.6622 9.51058 19.9056C7.76933 21.1487 4.03833 22.423 4.03833 27.6759H23.9373C23.9373 22.423 20.2063 21.1487 18.465 19.9056Z" fill="#56A9DE"/>
<mask id="mask0_162_2814" style="mask-type:luminance" maskUnits="userSpaceOnUse" x="3" y="17" width="22" height="11">
<path d="M3.72754 17.0986H24.2667V28H3.72754V17.0986Z" fill="white"/>
</mask>
<g mask="url(#mask0_162_2814)">
<path d="M24.2483 27.9869H3.72754V27.6759C3.72754 23.0758 6.52579 21.3663 8.39129 20.2475C8.73341 20.0299 9.04433 19.8432 9.32404 19.6569C11.0032 18.4447 12.0602 17.6056 12.0914 17.6056L12.589 17.2013V17.8541C12.589 18.6311 13.2108 19.2529 13.9881 19.2529C14.7654 19.2529 15.3872 18.6311 15.3872 17.8541V17.1083L15.9157 17.6365C16.04 17.7298 17.066 18.538 18.6518 19.6881C18.9006 19.8744 19.2425 20.0608 19.5846 20.2784C21.4501 21.3975 24.2483 23.107 24.2483 27.7072V27.9869ZM4.34937 27.365H23.6265C23.5022 23.3555 21.077 21.8636 19.2737 20.7757C18.9315 20.5581 18.5897 20.3717 18.3097 20.1542C17.2527 19.4081 16.4133 18.7865 15.9469 18.4135C15.6981 19.2529 14.9208 19.8744 13.9881 19.8744C13.0553 19.8744 12.278 19.2529 12.0292 18.4135C11.5629 18.7556 10.7544 19.4081 9.66616 20.1542C9.38646 20.3717 9.04433 20.5581 8.70221 20.7757C6.89883 21.8636 4.47362 23.3555 4.34937 27.365Z" fill="#111820"/>
</g>
<path d="M13.988 19.8745C12.8686 19.8745 11.967 18.9732 11.967 17.8541V16.0825L12.4334 16.331C13.0552 16.6731 13.5837 16.8595 13.988 16.8595C14.3922 16.8595 14.9207 16.6731 15.5426 16.331L16.009 16.0825V17.8541C16.009 18.942 15.1071 19.8745 13.988 19.8745ZM12.5889 17.1083V17.8541C12.5889 18.6311 13.2107 19.2529 13.988 19.2529C14.7653 19.2529 15.3871 18.6311 15.3871 17.8541V17.1083C14.8586 17.3568 14.3922 17.4811 13.988 17.4811C13.5837 17.4811 13.1174 17.3568 12.5889 17.1083Z" fill="#111820"/>
<path d="M13.988 14.5594C12.2467 14.5594 11.7182 13.3472 11.687 13.3163L12.2467 13.0675C12.2467 13.0987 12.651 13.9378 13.988 13.9378C15.325 13.9378 15.7289 13.0675 15.7289 13.0675L16.2886 13.3163C16.2577 13.3472 15.7289 14.5594 13.988 14.5594Z" fill="#111820"/>
<path d="M19.7087 8.46743C19.5845 8.46743 19.4602 8.37439 19.3978 8.24985V8.21893V8.18772C19.3669 8.03226 19.4912 7.84589 19.6466 7.84589C19.8021 7.81468 19.9887 7.93922 19.9887 8.09439C19.9887 8.09439 19.9887 8.09439 19.9887 8.1256C20.0199 8.28106 19.8954 8.43651 19.7399 8.46743H19.7087Z" fill="#111820"/>
<path d="M13.988 17.481C11.7183 17.481 8.29818 13.6891 7.98697 13.2539C7.83151 13.0363 7.36514 12.4148 7.95605 8.09433V8.06342C8.01818 7.78371 8.64001 5.35938 10.1325 5.35938C10.7855 5.35938 11.2207 5.57696 11.6561 5.79454C12.1846 6.07425 12.7753 6.35396 13.988 6.35396C15.2005 6.35396 15.7914 6.04304 16.3199 5.79454C16.7551 5.57696 17.1905 5.35938 17.8433 5.35938C19.3357 5.35938 19.9266 7.78371 20.02 8.06342V8.09433C20.6106 12.3839 20.1442 13.0363 19.9888 13.2539C19.6778 13.6891 16.2578 17.481 13.988 17.481ZM8.57789 8.21888C8.04939 11.9487 8.39122 12.7566 8.48455 12.8812C8.92001 13.4715 12.1225 16.8595 13.988 16.8595C15.8535 16.8595 19.056 13.4715 19.4912 12.9121C19.6157 12.7566 19.9266 11.9796 19.3978 8.21888C19.2424 7.59704 18.683 6.01213 17.8433 6.01213C17.346 6.01213 17.0038 6.16729 16.5996 6.38488C16.0399 6.66458 15.3559 7.00671 13.988 7.00671C12.651 7.00671 11.9358 6.66458 11.3761 6.38488C10.9719 6.16729 10.6301 6.01213 10.1325 6.01213C9.29305 6.01213 8.73335 7.56613 8.57789 8.21888Z" fill="#111820"/>
<path d="M13.9881 1.28772C6.96131 1.28772 7.24102 7.62826 7.24102 7.62826C7.73861 7.65947 8.11165 7.9701 8.26711 8.15676C8.2359 8.46739 8.2359 8.46739 8.26711 8.15676C8.26711 8.15676 8.26711 8.15676 8.26711 8.12555C8.26711 8.09435 8.29831 8.06343 8.29831 8.0013C8.29831 8.0013 8.29831 8.0013 8.29831 7.9701V7.93918V7.90797C8.29831 7.87705 8.32923 7.81464 8.32923 7.75251C8.32923 7.7216 8.32923 7.7216 8.36044 7.69039V7.65947C8.39136 7.56614 8.42256 7.4728 8.45377 7.37947C8.57802 7.09976 8.70227 6.78914 8.88894 6.50943C8.88894 6.50943 8.88894 6.47822 8.92015 6.47822C8.95106 6.4473 8.95106 6.4161 8.98227 6.4161C8.98227 6.4161 8.98227 6.38489 9.01319 6.38489C9.07561 6.32276 9.10652 6.26064 9.16865 6.19851C9.19986 6.1673 9.23106 6.13639 9.26198 6.10518C9.29319 6.07426 9.29319 6.07426 9.32411 6.04305L9.35531 6.01214C9.38652 5.98093 9.38652 5.98093 9.41744 5.94972L9.44865 5.9188C9.47956 5.8876 9.51077 5.8876 9.51077 5.85668C9.51077 5.85668 9.51077 5.85668 9.54198 5.85668C9.5729 5.85668 9.5729 5.82547 9.60411 5.82547L9.63502 5.79455C9.66623 5.79455 9.66623 5.79455 9.69744 5.76335C9.72836 5.76335 9.72836 5.73214 9.75956 5.73214C9.79048 5.73214 9.79048 5.73214 9.82169 5.70122H9.8529C9.91502 5.67001 10.0084 5.67001 10.0705 5.67001C11.4075 5.67001 11.6563 6.6646 13.9257 6.6646C16.1955 6.6646 16.4443 5.67001 17.7813 5.67001C17.8125 5.67001 17.8746 5.67001 17.9058 5.67001C18.714 5.76335 19.2116 6.85126 19.4604 7.56614C19.6159 8.0013 19.6468 8.31193 19.6468 8.15676C19.8022 8.0013 20.1756 7.65947 20.6729 7.62826C20.735 7.62826 21.015 1.28772 13.9881 1.28772Z" fill="#F8BF3F"/>
<path d="M8.23583 8.68494C8.20491 8.68494 8.20491 8.68494 8.20491 8.68494C7.98704 8.65402 7.95612 8.49857 7.95612 8.34311V8.28098C7.80066 8.15673 7.55187 7.97007 7.24095 7.97007C7.1167 7.97007 6.99216 7.87702 6.96125 7.72157C6.96125 7.69036 6.96125 7.69036 6.96125 7.65944C6.96125 7.5349 6.86791 4.89298 8.7022 2.93502C9.94587 1.66044 11.7183 1.00769 14.019 1.00769C16.32 1.00769 18.0921 1.66044 19.3358 2.93502C21.2013 4.89298 21.1082 7.5349 21.077 7.65944V7.69036C21.0458 7.84582 20.9216 7.93915 20.7973 7.93915C20.4552 7.97007 20.1755 8.15673 20.051 8.28098C19.9888 8.43644 19.8334 8.46736 19.8334 8.49857C19.74 8.52948 19.5225 8.52948 19.4603 8.21886C19.4291 8.12552 19.3979 7.93915 19.3049 7.69036C18.9627 6.69577 18.4652 6.07423 17.9988 6.01211C17.9679 6.01211 17.9367 6.01211 17.9057 6.01211C17.4082 6.01211 17.066 6.16727 16.6618 6.38486C16.1024 6.66457 15.4181 7.00669 14.0502 7.00669C12.7132 7.00669 11.998 6.66457 11.4383 6.38486C11.0341 6.16727 10.6922 6.01211 10.1947 6.01211C10.1325 6.01211 10.1013 6.01211 10.0392 6.04302H9.97708H9.94587L9.88375 6.07423L9.82162 6.10515H9.79041H9.7595C9.72829 6.10515 9.72829 6.13636 9.69737 6.13636L9.63495 6.19848L9.60404 6.22969H9.57283C9.54191 6.26061 9.54191 6.26061 9.5107 6.29182C9.4795 6.32273 9.44858 6.35394 9.44858 6.35394C9.41737 6.41607 9.35525 6.44727 9.32404 6.5094L9.29312 6.54032C9.26191 6.57152 9.26191 6.57152 9.231 6.60244C9.231 6.60244 9.231 6.63365 9.19979 6.63365C9.04433 6.85123 8.92008 7.13094 8.79554 7.44186C8.76462 7.56611 8.73341 7.65944 8.7022 7.72157V7.87702C8.67129 7.93915 8.67129 7.97007 8.67129 8.03219L8.64008 8.09432C8.64008 8.15673 8.60916 8.18765 8.60916 8.21886L8.57795 8.37432V8.43644C8.48462 8.65402 8.32916 8.68494 8.23583 8.68494ZM17.8433 5.39027C17.9057 5.39027 17.9367 5.39027 17.9988 5.39027C18.9315 5.51482 19.5225 6.60244 19.8334 7.47277C19.8643 7.5349 19.8643 7.56611 19.8643 7.62823C20.02 7.5349 20.2064 7.44186 20.424 7.37944C20.3931 6.69577 20.2064 4.76873 18.8385 3.3699C17.7191 2.18894 16.1024 1.59832 13.9881 1.59832C11.8738 1.59832 10.2568 2.18894 9.13766 3.33898C7.76945 4.76873 7.58308 6.66457 7.55187 7.34852C7.76945 7.41065 7.95612 7.50398 8.11158 7.59702V7.56611C8.14279 7.47277 8.1737 7.37944 8.23583 7.25519C8.39129 6.88215 8.54675 6.57152 8.7022 6.32273L8.73341 6.29182C8.76462 6.26061 8.76462 6.22969 8.79554 6.19848L8.82675 6.16727C8.88887 6.10515 8.92008 6.04302 8.9822 5.94969V5.91877C9.01312 5.88757 9.04433 5.85665 9.07554 5.82544C9.07554 5.82544 9.10645 5.79452 9.13766 5.76332L9.16858 5.73211C9.19979 5.70119 9.19979 5.70119 9.231 5.66998H9.26191L9.29312 5.63907C9.32404 5.60786 9.35525 5.60786 9.38645 5.57694C9.38645 5.57694 9.41737 5.57694 9.41737 5.54573C9.44858 5.54573 9.44858 5.51482 9.4795 5.51482H9.5107L9.54191 5.48361C9.57283 5.48361 9.57283 5.4524 9.60404 5.4524H9.63495C9.66616 5.4524 9.66616 5.42148 9.69737 5.42148C9.72829 5.42148 9.7595 5.39027 9.7595 5.39027H9.79041C9.82162 5.39027 9.82162 5.39027 9.85283 5.39027C9.94587 5.35936 10.0704 5.35936 10.1637 5.35936C10.8165 5.35936 11.252 5.57694 11.6871 5.79452C12.2156 6.07423 12.8065 6.35394 14.019 6.35394C15.2317 6.35394 15.8224 6.04302 16.3509 5.79452C16.7551 5.57694 17.1906 5.39027 17.8433 5.39027Z" fill="#111820"/>
<path d="M8.39116 24.4125C9.13754 23.138 9.57271 21.7394 9.04421 20.1854C7.20962 21.3664 4.03833 22.8273 4.03833 27.676H7.70721C7.70721 27.676 7.70721 27.4272 7.70721 26.3396C7.70721 25.5314 8.14266 24.8474 8.39116 24.4125Z" fill="#FBDBC0"/>
<path d="M19.5846 24.4125C18.8385 23.138 18.4031 21.7394 18.9316 20.1854C20.7662 21.3664 23.9375 22.8273 23.9375 27.676H20.2686C20.2686 27.676 20.2686 27.4272 20.2686 26.3396C20.2686 25.5314 19.8334 24.8474 19.5846 24.4125Z" fill="#FBDBC0"/>
<mask id="mask1_162_2814" style="mask-type:luminance" maskUnits="userSpaceOnUse" x="3" y="19" width="7" height="9">
<path d="M3.72754 19.712H9.63204V28H3.72754V19.712Z" fill="white"/>
</mask>
<g mask="url(#mask1_162_2814)">
<path d="M8.01825 27.9869H3.72754V27.676C3.72754 23.0758 6.52579 21.3663 8.39129 20.2475C8.57796 20.123 8.73341 20.0299 8.92008 19.9366L9.26191 19.719L9.38646 20.092C10.0083 21.957 9.29312 23.5422 8.70221 24.5677L8.64008 24.661C8.39129 25.0962 8.04946 25.6868 8.04946 26.3395V27.9869H8.01825ZM4.34937 27.365H7.39641V26.3395C7.39641 25.5001 7.80066 24.8165 8.08037 24.3501L8.14279 24.257C8.92008 22.9515 9.13766 21.8015 8.88887 20.6827C8.82675 20.7136 8.76462 20.7448 8.73341 20.7757C6.89883 21.8636 4.47362 23.3555 4.34937 27.365Z" fill="#111820"/>
</g>
<mask id="mask2_162_2814" style="mask-type:luminance" maskUnits="userSpaceOnUse" x="18" y="19" width="7" height="9">
<path d="M18.3679 19.712H24.2794V28H18.3679V19.712Z" fill="white"/>
</mask>
<g mask="url(#mask2_162_2814)">
<path d="M24.2482 27.9869H19.9574V26.3395C19.9574 25.6868 19.6156 25.0962 19.3668 24.661L19.3047 24.5677C18.7138 23.5422 17.9986 21.957 18.6204 20.092L18.745 19.719L19.0868 19.9366C19.2423 20.0299 19.4289 20.1542 19.6156 20.2475C21.4811 21.3663 24.2794 23.0758 24.2794 27.676V27.9869H24.2482ZM20.5793 27.365H23.6263C23.5021 23.3555 21.0769 21.8636 19.2735 20.7757C19.2114 20.7448 19.1492 20.7136 19.0868 20.6827C18.8383 21.8015 19.0559 22.9515 19.8332 24.257L19.8953 24.3501C20.1753 24.8165 20.5793 25.5313 20.5793 26.3395V27.365Z" fill="#111820"/>
</g>
<path d="M13.0552 21.9879V22.6407H14.9516V21.9879H15.4492V23.5422H14.9516V22.7961H13.0552V23.5422H12.5576V21.9879H13.0552Z" fill="#1B75BC"/>
</g>
<defs>
<clipPath id="clip0_162_2814">
<rect width="28" height="28" fill="white"/>
</clipPath>
</defs>
</svg>
