<svg width="28" height="28" viewBox="0 0 28 28" fill="none" xmlns="http://www.w3.org/2000/svg">
<g clip-path="url(#clip0_162_2815)">
<path d="M18.4849 19.9112C16.7734 18.6667 15.7152 17.8267 15.7152 17.8267C15.7152 18.76 14.937 19.5379 14.0034 19.5379C13.0698 19.5379 12.2916 18.76 12.2916 17.8267C12.2916 17.8267 11.2334 18.6667 9.52193 19.9112C7.77893 21.1555 4.04443 22.4312 4.04443 27.6888H23.9624C23.9624 22.4312 20.2279 21.1555 18.4849 19.9112Z" fill="#BBD870"/>
<path d="M12.2916 17.8267C12.2916 17.8267 11.2334 18.6667 9.52193 19.9112C7.77893 21.1555 4.04443 22.4312 4.04443 27.6888H11.6071C11.6071 20.9067 12.7898 19.04 12.7898 19.04C12.4786 18.7288 12.2916 18.3245 12.2916 17.8267Z" fill="#F8BF3F"/>
<path d="M15.7152 17.8267C15.7152 17.8267 16.7734 18.6667 18.4849 19.9112C20.2279 21.1555 23.9624 22.4312 23.9624 27.6888H16.3997C16.3997 20.9067 15.217 19.04 15.217 19.04C15.5282 18.7288 15.7152 18.3245 15.7152 17.8267Z" fill="#F8BF3F"/>
<path d="M11.9184 28H3.7334V27.6888C3.7334 23.0846 6.53427 21.3734 8.40152 20.2534C8.74394 20.0355 9.05515 19.8488 9.33544 19.6622C11.016 18.4488 12.0739 17.6088 12.1051 17.6088L12.603 17.2046V17.8579C12.603 18.2313 12.7587 18.5734 13.0075 18.8534L13.1945 19.04L13.0699 19.2579C13.0699 19.2888 11.9184 21.1867 11.9184 27.72V28ZM4.35582 27.3779H11.2648C11.296 21.9646 12.1051 19.7555 12.3851 19.1022C12.2296 18.8846 12.1051 18.6667 12.0118 18.4179C11.5448 18.76 10.7357 19.4134 9.64665 20.16C9.36636 20.3779 9.02423 20.5646 8.68182 20.7822C6.9079 21.8713 4.48036 23.3646 4.35582 27.3779Z" fill="#111820"/>
<mask id="mask0_162_2815" style="mask-type:luminance" maskUnits="userSpaceOnUse" x="14" y="17" width="11" height="11">
<path d="M14.7839 17.1733H24.2794V28H14.7839V17.1733Z" fill="white"/>
</mask>
<g mask="url(#mask0_162_2815)">
<path d="M24.2736 28H16.0885V27.6888C16.0885 21.0933 14.9683 19.2267 14.937 19.2267L14.8125 19.0088L14.9992 18.8221C15.2795 18.5421 15.404 18.2 15.404 17.8267V17.1733L15.9019 17.5779C15.9019 17.5779 16.96 18.4179 18.6715 19.6312C18.9206 19.8179 19.263 20.0045 19.6055 20.2221C21.4727 21.3421 24.2736 23.0533 24.2736 27.6579V28ZM16.711 27.3779H23.6512C23.5266 23.3645 21.0991 21.8712 19.2943 20.7821C18.9518 20.5645 18.6094 20.3779 18.3294 20.16C17.24 19.3821 16.431 18.76 15.964 18.4179C15.9019 18.6667 15.7773 18.9155 15.5907 19.1021C15.9019 19.7555 16.6797 21.9645 16.711 27.3779Z" fill="#111820"/>
</g>
<path d="M19.5119 6.72003C19.761 7.99549 18.205 8.55549 18.205 8.55549C19.1074 6.6267 17.4892 4.57336 15.902 4.57336C14.3147 4.57336 14.0347 5.19549 14.0347 5.19549C14.0347 5.19549 13.7544 4.57336 12.1675 4.57336C10.5802 4.57336 8.96178 6.65791 9.8642 8.55549C9.8642 8.55549 8.30815 8.0267 8.55724 6.72003C7.99695 10.1422 7.8724 12.4755 8.30815 13.0667C8.77511 13.6888 12.0429 17.1734 14.0657 17.1734C16.0887 17.1734 19.3565 13.6888 19.8232 13.0667C20.1656 12.4755 20.0722 10.1422 19.5119 6.72003Z" fill="#FBDBC0"/>
<path d="M12.4474 8.7421C12.4474 8.79722 12.4419 8.85206 12.4311 8.90602C12.4206 8.96027 12.4046 9.01277 12.3836 9.06352C12.3623 9.11456 12.3363 9.16297 12.3057 9.20877C12.2751 9.25485 12.2403 9.29714 12.2013 9.33622C12.1622 9.37531 12.1199 9.41002 12.0738 9.44064C12.028 9.47127 11.9796 9.49722 11.9286 9.51822C11.8778 9.53922 11.825 9.55527 11.7711 9.56606C11.7168 9.57685 11.6623 9.5821 11.6071 9.5821C11.552 9.5821 11.4972 9.57685 11.4432 9.56606C11.389 9.55527 11.3365 9.53922 11.2854 9.51822C11.2347 9.49722 11.1863 9.47127 11.1402 9.44064C11.0944 9.41002 11.0518 9.37531 11.013 9.33622C10.9739 9.29714 10.9392 9.25485 10.9083 9.20877C10.8777 9.16297 10.852 9.11456 10.8307 9.06352C10.8097 9.01277 10.7937 8.96027 10.7829 8.90602C10.7721 8.85206 10.7668 8.79722 10.7668 8.7421C10.7668 8.68697 10.7721 8.63243 10.7829 8.57818C10.7937 8.52422 10.8097 8.47172 10.8307 8.42068C10.852 8.36964 10.8777 8.32152 10.9083 8.27543C10.9392 8.22964 10.9739 8.18735 11.013 8.14827C11.0518 8.10918 11.0944 8.07447 11.1402 8.04385C11.1863 8.01322 11.2347 7.98727 11.2854 7.96627C11.3365 7.94497 11.389 7.92922 11.4432 7.91843C11.4972 7.90764 11.552 7.9021 11.6071 7.9021C11.6623 7.9021 11.7168 7.90764 11.7711 7.91843C11.825 7.92922 11.8778 7.94497 11.9286 7.96627C11.9796 7.98727 12.028 8.01322 12.0738 8.04385C12.1199 8.07447 12.1622 8.10918 12.2013 8.14827C12.2403 8.18735 12.2751 8.22964 12.3057 8.27543C12.3363 8.32152 12.3623 8.36964 12.3836 8.42068C12.4046 8.47172 12.4206 8.52422 12.4311 8.57818C12.4419 8.63243 12.4474 8.68697 12.4474 8.7421Z" fill="#111820"/>
<path d="M17.2402 8.7421C17.2402 8.79722 17.2349 8.85206 17.2241 8.90602C17.2133 8.96027 17.1973 9.01277 17.1763 9.06352C17.155 9.11456 17.1293 9.16297 17.0987 9.20877C17.0678 9.25485 17.0331 9.29714 16.994 9.33622C16.9552 9.37531 16.9126 9.41002 16.8668 9.44064C16.8207 9.47127 16.7723 9.49722 16.7216 9.51822C16.6705 9.53922 16.618 9.55527 16.5638 9.56606C16.5098 9.57685 16.455 9.5821 16.3999 9.5821C16.3447 9.5821 16.2902 9.57685 16.2359 9.56606C16.182 9.55527 16.1292 9.53922 16.0784 9.51822C16.0274 9.49722 15.979 9.47127 15.9332 9.44064C15.8871 9.41002 15.8448 9.37531 15.8057 9.33622C15.7667 9.29714 15.7319 9.25485 15.7013 9.20877C15.6707 9.16297 15.6447 9.11456 15.6234 9.06352C15.6024 9.01277 15.5864 8.96027 15.5756 8.90602C15.5651 8.85206 15.5596 8.79722 15.5596 8.7421C15.5596 8.68697 15.5651 8.63243 15.5756 8.57818C15.5864 8.52422 15.6024 8.47172 15.6234 8.42068C15.6447 8.36964 15.6707 8.32152 15.7013 8.27543C15.7319 8.22964 15.7667 8.18735 15.8057 8.14827C15.8448 8.10918 15.8871 8.07447 15.9332 8.04385C15.979 8.01322 16.0274 7.98727 16.0784 7.96627C16.1292 7.94497 16.182 7.92922 16.2359 7.91843C16.2902 7.90764 16.3447 7.9021 16.3999 7.9021C16.455 7.9021 16.5098 7.90764 16.5638 7.91843C16.618 7.92922 16.6705 7.94497 16.7216 7.96627C16.7723 7.98727 16.8207 8.01322 16.8668 8.04385C16.9126 8.07447 16.9552 8.10918 16.994 8.14827C17.0331 8.18735 17.0678 8.22964 17.0987 8.27543C17.1293 8.32152 17.155 8.36964 17.1763 8.42068C17.1973 8.47172 17.2133 8.52422 17.2241 8.57818C17.2349 8.63243 17.2402 8.68697 17.2402 8.7421Z" fill="#111820"/>
<path d="M14.9993 10.7646C14.9993 10.7646 14.6881 11.1688 14.0036 11.1688C13.319 11.1688 13.0075 10.7646 13.0075 10.7646C12.9454 10.7022 12.8521 10.7334 13.0388 11.0446C13.319 11.5734 13.7236 11.6355 14.0036 11.6355C14.2836 11.6355 14.6572 11.5734 14.9684 11.0446C15.1239 10.7646 15.0618 10.7022 14.9993 10.7646Z" fill="#111820"/>
<path d="M8.27718 8.15119C8.0593 7.93332 7.43689 7.40453 6.62751 7.74665C5.63176 8.15119 6.37872 11.5733 7.96597 11.4488C7.99689 10.5779 8.12143 9.48878 8.27718 8.15119Z" fill="#FBDBC0"/>
<path d="M19.7297 8.15119C19.9476 7.93332 20.57 7.40453 21.3794 7.74665C22.3752 8.15119 21.6282 11.5733 20.0409 11.4488C20.01 10.5779 19.8855 9.48878 19.7297 8.15119Z" fill="#FBDBC0"/>
<path d="M14.0035 17.1733C13.4745 17.1733 12.8832 16.9554 12.2917 16.6133V17.8578C12.2917 18.7912 13.0699 19.5687 14.0035 19.5687C14.9372 19.5687 15.7153 18.7912 15.7153 17.8578V16.6133C15.1238 16.9245 14.5326 17.1733 14.0035 17.1733Z" fill="#FBDBC0"/>
<path d="M7.90369 11.7288C6.90794 11.7288 6.25431 10.64 6.03644 9.67549C5.81856 8.74216 5.88098 7.71549 6.56552 7.43549C7.56127 7.03124 8.33944 7.71549 8.55731 7.93337C8.61944 7.99549 8.65065 8.08883 8.65065 8.18216C8.46398 9.52003 8.37065 10.6088 8.37065 11.4179C8.37065 11.5734 8.2461 11.6979 8.09035 11.7288C7.99702 11.7288 7.9349 11.7288 7.90369 11.7288ZM7.18794 7.93337C7.0634 7.93337 6.93885 7.96458 6.7834 8.0267C6.56552 8.12003 6.44098 8.77337 6.62765 9.55124C6.7834 10.2355 7.18794 10.92 7.71702 11.0755C7.74823 10.2979 7.84156 9.36458 7.99702 8.24458C7.77915 8.12003 7.53035 7.93337 7.18794 7.93337Z" fill="#111820"/>
<path d="M20.1035 11.7288C20.0723 11.7288 20.0102 11.7288 19.979 11.7288C19.8232 11.7288 19.699 11.5734 19.699 11.4179C19.699 10.6088 19.6057 9.52003 19.4187 8.18216C19.4187 8.08883 19.4499 7.99549 19.512 7.93337C19.7299 7.71549 20.4769 7.03124 21.5038 7.43549C22.1887 7.71549 22.2508 8.77337 22.0329 9.67549C21.7529 10.6712 21.1305 11.7288 20.1035 11.7288ZM20.0411 8.27549C20.1969 9.39549 20.2902 10.3288 20.3214 11.1067C20.8505 10.9512 21.2238 10.2355 21.4105 9.58216C21.5975 8.77337 21.5038 8.15124 21.255 8.05791C20.6947 7.80883 20.2902 8.05791 20.0411 8.27549Z" fill="#111820"/>
<mask id="mask1_162_2815" style="mask-type:luminance" maskUnits="userSpaceOnUse" x="3" y="17" width="22" height="11">
<path d="M3.7334 17.0986H24.2796V28H3.7334V17.0986Z" fill="white"/>
</mask>
<g mask="url(#mask1_162_2815)">
<path d="M24.2737 28H3.7334V27.6888C3.7334 23.0845 6.53427 21.3733 8.40152 20.2533C8.74394 20.0355 9.05515 19.8488 9.33544 19.6621C11.016 18.4488 12.0739 17.6088 12.1051 17.6088L12.603 17.2045V17.8579C12.603 18.6355 13.2254 19.2579 14.0036 19.2579C14.7817 19.2579 15.4041 18.6355 15.4041 17.8579V17.1112L15.9332 17.64C16.0575 17.7333 17.0847 18.5421 18.6717 19.6933C18.9208 19.88 19.2632 20.0667 19.6056 20.2845C21.4729 21.4045 24.2737 23.1155 24.2737 27.72V28ZM4.35582 27.3779H23.6513C23.5268 23.3645 21.0992 21.8712 19.2944 20.7821C18.952 20.5645 18.6096 20.3779 18.3296 20.16C17.2714 19.4133 16.4311 18.7912 15.9641 18.4179C15.7154 19.2579 14.9372 19.88 14.0036 19.88C13.0699 19.88 12.2918 19.2579 12.043 18.4179C11.576 18.76 10.7669 19.4133 9.67757 20.16C9.39757 20.3779 9.05515 20.5645 8.71273 20.7821C6.9079 21.8712 4.48036 23.3645 4.35582 27.3779Z" fill="#111820"/>
</g>
<path d="M14.0035 19.8801C12.8832 19.8801 11.9805 18.9779 11.9805 17.8579V16.0846L12.4474 16.3334C13.0698 16.6755 13.5989 16.8622 14.0035 16.8622C14.408 16.8622 14.9371 16.6755 15.5595 16.3334L16.0265 16.0846V17.8579C16.0265 18.9467 15.1238 19.8801 14.0035 19.8801ZM12.6029 17.1113V17.8579C12.6029 18.6355 13.2253 19.2579 14.0035 19.2579C14.7816 19.2579 15.4041 18.6355 15.4041 17.8579V17.1113C14.875 17.3601 14.408 17.4846 14.0035 17.4846C13.5989 17.4846 13.132 17.3601 12.6029 17.1113Z" fill="#111820"/>
<path d="M7.53027 25.2621H8.15269V27.6888H7.53027V25.2621Z" fill="#111820"/>
<path d="M19.8542 25.2621H20.4767V27.6888H19.8542V25.2621Z" fill="#111820"/>
<path d="M14.0034 14.56C12.2607 14.56 11.7316 13.3467 11.7004 13.3154L12.2607 13.0667C12.2607 13.0979 12.6653 13.9379 14.0034 13.9379C15.3416 13.9379 15.7461 13.0667 15.7461 13.0667L16.3064 13.3154C16.2752 13.3467 15.7461 14.56 14.0034 14.56Z" fill="#111820"/>
<path d="M14.0034 17.4845C11.7316 17.4845 8.30803 13.6888 7.99682 13.2533C7.53015 12.6 7.59228 10.4221 8.18378 6.7512C8.18378 6.71999 8.18378 6.68878 8.21469 6.65787C8.2459 6.50212 8.40136 6.37787 8.58832 6.40878C8.74378 6.43999 8.86832 6.59545 8.83711 6.7512C8.83711 6.78212 8.83711 6.81333 8.83711 6.84453C8.77499 7.3112 9.05499 7.65333 9.33528 7.90212C9.21074 7.15545 9.36619 6.37787 9.80194 5.69333C10.3622 4.82212 11.2959 4.2312 12.1674 4.2312C13.1943 4.2312 13.7543 4.47999 14.0346 4.69787C14.3146 4.47999 14.8749 4.2312 15.9019 4.2312C16.7734 4.2312 17.707 4.7912 18.267 5.69333C18.7027 6.37787 18.8585 7.15545 18.7339 7.90212C19.0139 7.68453 19.2942 7.3112 19.2318 6.84453C19.2318 6.81333 19.2318 6.78212 19.2318 6.7512C19.2006 6.59545 19.3252 6.40878 19.4809 6.40878C19.6364 6.37787 19.823 6.50212 19.8542 6.65787C19.8542 6.68878 19.8542 6.71999 19.8854 6.7512C20.4767 10.3912 20.5391 12.6 20.0721 13.2533C19.6988 13.6888 16.2752 17.4845 14.0034 17.4845ZM8.61924 8.11999C8.05924 12.04 8.43257 12.7867 8.5259 12.9112C8.93044 13.4712 12.1362 16.8621 14.0034 16.8621C15.8707 16.8621 19.0764 13.4712 19.5118 12.9112C19.6054 12.7867 19.9476 12.04 19.4185 8.11999C19.0764 8.49333 18.6406 8.74212 18.2982 8.86666C18.1737 8.89787 18.0491 8.86666 17.9558 8.77333C17.8624 8.67999 17.8624 8.55545 17.8937 8.4312C18.267 7.65333 18.1737 6.81333 17.707 6.03545C17.2712 5.31999 16.5243 4.88453 15.8707 4.88453C14.5946 4.88453 14.2834 5.31999 14.2834 5.3512C14.2213 5.44453 14.1279 5.50666 14.0034 5.50666C13.8789 5.50666 13.7855 5.44453 13.7234 5.3512C13.6922 5.31999 13.4122 4.88453 12.1362 4.88453C11.4513 4.88453 10.7356 5.3512 10.2998 6.03545C9.83315 6.78212 9.77074 7.65333 10.1132 8.4312C10.1756 8.55545 10.1444 8.67999 10.051 8.77333C9.95769 8.86666 9.83315 8.89787 9.70861 8.86666C9.3974 8.74212 8.93044 8.49333 8.61924 8.11999ZM14.2834 5.28878C14.2834 5.31999 14.2834 5.31999 14.2834 5.28878V5.28878ZM13.7234 5.28878C13.7234 5.31999 13.7234 5.31999 13.7234 5.28878V5.28878Z" fill="#111820"/>
<path d="M20.7571 7.62207C20.7571 0.777824 16.3687 0.311157 15.3729 0.311157C14.4081 0.311157 14.0035 1.05782 14.0035 1.05782C14.0035 1.05782 13.599 0.311157 12.6342 0.311157C11.6384 0.311157 7.25 0.777824 7.25 7.62207C7.74817 7.65328 8.1215 7.96449 8.27725 8.15116C8.27725 8.18207 8.27725 8.21328 8.27725 8.24449C8.33938 7.77782 8.43271 7.27995 8.49513 6.75116C8.24604 8.02662 9.80208 8.58662 9.80208 8.58662C8.89967 6.65782 10.5178 4.60449 12.1051 4.60449C13.6923 4.60449 13.9723 5.22662 13.9723 5.22662C13.9723 5.22662 14.2526 4.60449 15.8396 4.60449C17.4268 4.60449 19.0453 6.68874 18.1426 8.58662C18.1426 8.58662 19.6989 8.05782 19.4498 6.78207C19.5432 7.31116 19.6056 7.80874 19.6677 8.27541C19.6677 8.24449 19.6677 8.21328 19.6677 8.18207C19.8856 7.99541 20.2589 7.65328 20.7571 7.62207Z" fill="#596C7C"/>
<path d="M9.83322 8.86667C9.80201 8.86667 9.7708 8.86667 9.73989 8.83546C9.42868 8.71121 8.96172 8.46213 8.6193 8.08879C8.6193 8.15121 8.58839 8.21333 8.58839 8.27546C8.55718 8.43121 8.40143 8.55546 8.24597 8.55546C8.09022 8.52454 7.99689 8.43121 7.96597 8.27546C7.81022 8.15121 7.56114 7.96454 7.21901 7.93333C7.12568 7.93333 7.03235 7.87121 7.00114 7.80879C6.96993 7.74667 6.93872 7.68454 6.93872 7.62213C6.93872 0.217875 12.0429 0 12.6341 0C13.3189 0 13.7544 0.311208 14.0035 0.56C14.2526 0.311208 14.7192 0 15.3728 0C15.9641 0 21.0682 0.217875 21.0682 7.62213C21.0682 7.68454 21.037 7.74667 21.0058 7.80879C20.9437 7.87121 20.8813 7.93333 20.7879 7.93333C20.4767 7.96454 20.1967 8.12 20.041 8.27546C20.0101 8.4 19.9167 8.52454 19.761 8.55546C19.6055 8.58667 19.4186 8.46213 19.4186 8.27546C19.4186 8.21333 19.3876 8.15121 19.3876 8.08879C19.0452 8.46213 18.6095 8.71121 18.2671 8.83546C18.1425 8.86667 18.0183 8.83546 17.9249 8.74213C17.8313 8.64879 17.8313 8.52454 17.8625 8.4C18.2361 7.62213 18.1425 6.78213 17.6758 6.00454C17.2401 5.28879 16.4931 4.85333 15.8395 4.85333C14.5638 4.85333 14.2526 5.28879 14.2526 5.32C14.1901 5.41333 14.0968 5.47546 13.9723 5.47546C13.8477 5.47546 13.7544 5.41333 13.6923 5.32C13.6611 5.28879 13.3811 4.85333 12.105 4.85333C11.4205 4.85333 10.7044 5.32 10.269 6.00454C9.80201 6.75121 9.73989 7.62213 10.082 8.4C10.1444 8.52454 10.1132 8.64879 10.0199 8.74213C9.98868 8.83546 9.92655 8.86667 9.83322 8.86667ZM15.8707 4.26213C16.7422 4.26213 17.6758 4.82213 18.2361 5.72454C18.6716 6.40879 18.8273 7.18667 18.7028 7.93333C18.9828 7.71546 19.2631 7.34213 19.2007 6.87546C19.2007 6.84454 19.2007 6.84454 19.2007 6.81333C19.1698 6.65788 19.2943 6.47121 19.4498 6.47121C19.6055 6.44 19.7922 6.56454 19.8231 6.72C19.8231 6.75121 19.8231 6.78213 19.8231 6.81333C19.8543 7.09333 19.9167 7.37333 19.9476 7.62213C20.1034 7.52879 20.2588 7.46667 20.4458 7.40454C20.3213 0.964542 16.2131 0.622125 15.3728 0.622125C14.5947 0.622125 14.2835 1.18213 14.2526 1.21333C14.1901 1.30667 14.0968 1.36879 13.9723 1.36879C13.8477 1.36879 13.7544 1.30667 13.6923 1.21333C13.7235 1.18213 13.3811 0.622125 12.6341 0.622125C11.7938 0.622125 7.68568 0.964542 7.56114 7.37333C7.7481 7.40454 7.90355 7.49788 8.0593 7.59121C8.09022 7.31121 8.15264 7.06213 8.18385 6.78213C8.18385 6.75121 8.18385 6.72 8.18385 6.68879C8.21476 6.53333 8.37051 6.40879 8.55718 6.44C8.71264 6.47121 8.83718 6.62667 8.80626 6.78213C8.80626 6.81333 8.80626 6.81333 8.80626 6.84454C8.74385 7.31121 9.02414 7.65333 9.30414 7.90213C9.1796 7.15546 9.33535 6.37788 9.7708 5.69333C10.3311 4.82213 11.2647 4.23121 12.1362 4.23121C13.1632 4.23121 13.7235 4.48 14.0035 4.69788C14.2835 4.51121 14.8438 4.26213 15.8707 4.26213ZM14.2835 5.28879C14.2835 5.32 14.2835 5.32 14.2835 5.28879V5.28879ZM13.7235 5.28879C13.7235 5.32 13.7235 5.32 13.7235 5.28879V5.28879Z" fill="#111820"/>
</g>
<defs>
<clipPath id="clip0_162_2815">
<rect width="28" height="28" fill="white"/>
</clipPath>
</defs>
</svg>
