<svg width="28" height="28" viewBox="0 0 28 28" fill="none" xmlns="http://www.w3.org/2000/svg">
<g clip-path="url(#clip0_162_2816)">
<path d="M18.4849 19.9112C16.7734 18.6667 15.8085 17.92 15.7152 17.8267V16.5822C15.0928 16.9246 14.5013 17.1422 14.0034 17.1422C13.4743 17.1422 12.8831 16.9246 12.2916 16.5822V17.8267C12.2916 17.8267 11.2334 18.6667 9.52193 19.9112C7.77893 21.1555 4.04443 22.4312 4.04443 27.6888H23.9624C23.9624 22.4312 20.2279 21.1555 18.4849 19.9112Z" fill="#F172AB"/>
<path d="M12.2917 15.7112V17.8266C12.2917 17.8266 13.132 21.84 14.0035 21.84C14.875 21.84 15.7153 17.8266 15.7153 17.8266V15.7112H12.2917Z" fill="#FBDBC0"/>
<path d="M14.0035 22.1821C12.9765 22.1821 12.2296 19.1954 11.9805 17.9199V15.4312H16.0574V17.9199C15.7774 19.1954 15.0304 22.1821 14.0035 22.1821ZM12.6029 17.7954C13.0074 19.7245 13.6611 21.4978 14.0035 21.5287C14.3459 21.4978 14.9992 19.7245 15.4041 17.7954V16.0221H12.572V17.7954H12.6029Z" fill="#111820"/>
<path d="M19.9168 9.83125C19.9168 9.76883 19.3565 6.25337 18.1738 5.04004C18.1738 5.04004 15.9954 6.25337 14.0036 6.25337C12.0118 6.25337 9.83334 5.04004 9.83334 5.04004C8.68184 6.25337 8.12155 9.6755 8.09034 9.83125C7.93488 11.5422 7.96609 12.6934 8.24609 13.0667C8.71276 13.6888 11.9806 17.1734 14.0036 17.1734C16.0266 17.1734 19.2944 13.6888 19.7611 13.0667C20.0411 12.6934 20.0723 11.5422 19.9168 9.83125Z" fill="#FBDBC0"/>
<path d="M12.4474 8.7421C12.4474 8.79722 12.4419 8.85206 12.4311 8.90602C12.4206 8.96027 12.4046 9.01277 12.3836 9.06352C12.3623 9.11456 12.3363 9.16297 12.3057 9.20877C12.2751 9.25485 12.2403 9.29714 12.2013 9.33622C12.1622 9.37531 12.1199 9.41002 12.0738 9.44064C12.028 9.47127 11.9796 9.49722 11.9286 9.51822C11.8778 9.53922 11.825 9.55527 11.7711 9.56606C11.7168 9.57685 11.6623 9.5821 11.6071 9.5821C11.552 9.5821 11.4972 9.57685 11.4432 9.56606C11.389 9.55527 11.3365 9.53922 11.2854 9.51822C11.2347 9.49722 11.1863 9.47127 11.1402 9.44064C11.0944 9.41002 11.0518 9.37531 11.013 9.33622C10.9739 9.29714 10.9392 9.25485 10.9083 9.20877C10.8777 9.16297 10.852 9.11456 10.8307 9.06352C10.8097 9.01277 10.7937 8.96027 10.7829 8.90602C10.7721 8.85206 10.7668 8.79722 10.7668 8.7421C10.7668 8.68697 10.7721 8.63243 10.7829 8.57818C10.7937 8.52422 10.8097 8.47172 10.8307 8.42068C10.852 8.36964 10.8777 8.32152 10.9083 8.27543C10.9392 8.22964 10.9739 8.18735 11.013 8.14827C11.0518 8.10918 11.0944 8.07447 11.1402 8.04385C11.1863 8.01322 11.2347 7.98727 11.2854 7.96627C11.3365 7.94497 11.389 7.92922 11.4432 7.91843C11.4972 7.90764 11.552 7.9021 11.6071 7.9021C11.6623 7.9021 11.7168 7.90764 11.7711 7.91843C11.825 7.92922 11.8778 7.94497 11.9286 7.96627C11.9796 7.98727 12.028 8.01322 12.0738 8.04385C12.1199 8.07447 12.1622 8.10918 12.2013 8.14827C12.2403 8.18735 12.2751 8.22964 12.3057 8.27543C12.3363 8.32152 12.3623 8.36964 12.3836 8.42068C12.4046 8.47172 12.4206 8.52422 12.4311 8.57818C12.4419 8.63243 12.4474 8.68697 12.4474 8.7421Z" fill="#111820"/>
<path d="M17.2402 8.7421C17.2402 8.79722 17.2349 8.85206 17.2241 8.90602C17.2133 8.96027 17.1973 9.01277 17.1763 9.06352C17.155 9.11456 17.1293 9.16297 17.0987 9.20877C17.0678 9.25485 17.0331 9.29714 16.994 9.33622C16.9552 9.37531 16.9126 9.41002 16.8668 9.44064C16.8207 9.47127 16.7723 9.49722 16.7216 9.51822C16.6705 9.53922 16.618 9.55527 16.5638 9.56606C16.5098 9.57685 16.455 9.5821 16.3999 9.5821C16.3447 9.5821 16.2902 9.57685 16.2359 9.56606C16.182 9.55527 16.1292 9.53922 16.0784 9.51822C16.0274 9.49722 15.979 9.47127 15.9332 9.44064C15.8871 9.41002 15.8448 9.37531 15.8057 9.33622C15.7667 9.29714 15.7319 9.25485 15.7013 9.20877C15.6707 9.16297 15.6447 9.11456 15.6234 9.06352C15.6024 9.01277 15.5864 8.96027 15.5756 8.90602C15.5651 8.85206 15.5596 8.79722 15.5596 8.7421C15.5596 8.68697 15.5651 8.63243 15.5756 8.57818C15.5864 8.52422 15.6024 8.47172 15.6234 8.42068C15.6447 8.36964 15.6707 8.32152 15.7013 8.27543C15.7319 8.22964 15.7667 8.18735 15.8057 8.14827C15.8448 8.10918 15.8871 8.07447 15.9332 8.04385C15.979 8.01322 16.0274 7.98727 16.0784 7.96627C16.1292 7.94497 16.182 7.92922 16.2359 7.91843C16.2902 7.90764 16.3447 7.9021 16.3999 7.9021C16.455 7.9021 16.5098 7.90764 16.5638 7.91843C16.618 7.92922 16.6705 7.94497 16.7216 7.96627C16.7723 7.98727 16.8207 8.01322 16.8668 8.04385C16.9126 8.07447 16.9552 8.10918 16.994 8.14827C17.0331 8.18735 17.0678 8.22964 17.0987 8.27543C17.1293 8.32152 17.155 8.36964 17.1763 8.42068C17.1973 8.47172 17.2133 8.52422 17.2241 8.57818C17.2349 8.63243 17.2402 8.68697 17.2402 8.7421Z" fill="#111820"/>
<path d="M14.9993 10.7646C14.9993 10.7646 14.6881 11.1688 14.0036 11.1688C13.319 11.1688 13.0075 10.7646 13.0075 10.7646C12.9454 10.7022 12.8521 10.7334 13.0388 11.0446C13.319 11.5734 13.7236 11.6355 14.0036 11.6355C14.2836 11.6355 14.6572 11.5734 14.9684 11.0446C15.1239 10.7646 15.0618 10.7022 14.9993 10.7646Z" fill="#111820"/>
<path d="M8.27718 8.15119C8.0593 7.93332 7.43689 7.40453 6.62751 7.74665C5.63176 8.15119 6.37872 11.5733 7.96597 11.4488C7.99689 10.5779 8.12143 9.48878 8.27718 8.15119Z" fill="#FBDBC0"/>
<path d="M19.7297 8.15119C19.9476 7.93332 20.57 7.40453 21.3794 7.74665C22.3752 8.15119 21.6282 11.5733 20.0409 11.4488C20.01 10.5779 19.8855 9.48878 19.7297 8.15119Z" fill="#FBDBC0"/>
<path d="M7.90369 11.7288C6.90794 11.7288 6.25431 10.64 6.03644 9.67549C5.81856 8.74216 5.88098 7.71549 6.56552 7.43549C7.56127 7.03124 8.33944 7.71549 8.55731 7.93337C8.61944 7.99549 8.65065 8.08883 8.65065 8.18216C8.46398 9.52003 8.37065 10.6088 8.37065 11.4179C8.37065 11.5734 8.2461 11.6979 8.09035 11.7288C7.99702 11.7288 7.9349 11.7288 7.90369 11.7288ZM7.18794 7.93337C7.0634 7.93337 6.93885 7.96458 6.7834 8.0267C6.56552 8.12003 6.44098 8.77337 6.62765 9.55124C6.7834 10.2355 7.18794 10.92 7.71702 11.0755C7.74823 10.2979 7.84156 9.36458 7.99702 8.24458C7.77915 8.12003 7.53035 7.93337 7.18794 7.93337Z" fill="#111820"/>
<path d="M20.1035 11.7288C20.0723 11.7288 20.0102 11.7288 19.979 11.7288C19.8232 11.7288 19.699 11.5734 19.699 11.4179C19.699 10.6088 19.6057 9.52003 19.4187 8.18216C19.4187 8.08883 19.4499 7.99549 19.512 7.93337C19.7299 7.71549 20.4769 7.03124 21.5038 7.43549C22.1887 7.71549 22.2508 8.77337 22.0329 9.67549C21.7529 10.6712 21.1305 11.7288 20.1035 11.7288ZM20.0411 8.27549C20.1969 9.39549 20.2902 10.3288 20.3214 11.1067C20.8505 10.9512 21.2238 10.2355 21.4105 9.58216C21.5975 8.77337 21.5038 8.15124 21.255 8.05791C20.6947 7.80883 20.2902 8.05791 20.0411 8.27549Z" fill="#111820"/>
<path d="M7.53027 25.2621H8.15269V27.6888H7.53027V25.2621Z" fill="#111820"/>
<path d="M19.8542 25.2621H20.4767V27.6888H19.8542V25.2621Z" fill="#111820"/>
<path d="M14.0034 14.56C12.2607 14.56 11.7316 13.3467 11.7004 13.3154L12.2607 13.0667C12.2607 13.0979 12.6653 13.9379 14.0034 13.9379C15.3416 13.9379 15.7461 13.0667 15.7461 13.0667L16.3064 13.3154C16.2752 13.3467 15.7461 14.56 14.0034 14.56Z" fill="#111820"/>
<path d="M14.0034 17.4846C11.7316 17.4846 8.30805 13.6888 7.99684 13.2534C7.87259 13.0979 7.49896 12.6 7.77896 9.80002C7.77896 9.80002 7.77896 9.80002 7.77896 9.76881C7.84138 9.39548 8.40138 6.06668 9.58409 4.82214C9.67742 4.72881 9.83317 4.69789 9.95771 4.76002C9.98863 4.76002 12.105 5.94214 14.0034 5.94214C15.9019 5.94214 18.0182 4.79123 18.0491 4.76002C18.1737 4.69789 18.3294 4.72881 18.4228 4.82214C19.6364 6.09789 20.1967 9.61335 20.2279 9.76881C20.2279 9.76881 20.2279 9.76881 20.2279 9.80002C20.4767 12.5688 20.1343 13.0667 20.01 13.2534C19.6988 13.6888 16.2752 17.4846 14.0034 17.4846ZM8.40138 9.86214C8.1838 12.2267 8.43259 12.7555 8.49501 12.88C8.93046 13.4712 12.1362 16.8621 14.0034 16.8621C15.8707 16.8621 19.0764 13.4712 19.5118 12.9112C19.6055 12.7867 19.8543 12.2579 19.6055 9.89335C19.5743 9.70669 19.0764 6.72002 18.1115 5.47548C17.4891 5.78668 15.7152 6.59548 14.0034 6.59548C12.2916 6.59548 10.5177 5.78668 9.8953 5.47548C9.11742 6.47123 8.58834 8.74214 8.40138 9.86214Z" fill="#111820"/>
<path d="M20.9745 3.85782C20.57 3.26662 15.4349 0.311157 14.0034 0.311157C12.5719 0.311157 7.4368 3.26662 7.03225 3.85782C6.62742 4.44874 7.40559 7.65328 7.40559 7.65328C7.84134 7.74662 8.15255 7.99541 8.27709 8.15116C8.24588 8.27541 8.24588 8.39995 8.21467 8.55541L8.308 8.64874C8.5883 7.49782 9.05496 5.81782 9.80192 5.07116C9.80192 5.07116 11.9804 6.28449 13.9722 6.28449C15.964 6.28449 18.1424 5.07116 18.1424 5.07116C18.8585 5.84874 19.3563 7.49782 19.6363 8.64874L19.7297 8.55541C19.6988 8.43116 19.6988 8.30662 19.6675 8.15116C19.7921 7.99541 20.1342 7.71541 20.539 7.65328C20.6012 7.65328 21.3481 4.44874 20.9745 3.85782Z" fill="#596C7C"/>
<path d="M19.6676 8.96C19.6364 8.96 19.6055 8.96 19.5743 8.96C19.4497 8.92879 19.3876 8.83546 19.3564 8.74213C19.014 7.21788 18.5473 6.09788 18.0803 5.47546C17.4579 5.78667 15.684 6.59546 13.9722 6.59546C12.2607 6.59546 10.4868 5.78667 9.86409 5.47546C9.39742 6.09788 8.96167 7.21788 8.58834 8.74213C8.55713 8.86667 8.46379 8.92879 8.37046 8.96C8.24592 8.99121 8.15259 8.96 8.05925 8.86667L7.96592 8.77333C7.9035 8.71121 7.87259 8.61788 7.87259 8.52454C7.87259 8.46213 7.9035 8.36879 7.9035 8.30667C7.77896 8.18213 7.56109 8.05788 7.28109 7.99546C7.21896 7.99546 7.15654 7.96454 7.09442 7.90213C7.06321 7.87121 7.0323 7.80879 7.0323 7.77788C6.84534 7 6.28534 4.38667 6.7208 3.73333C7.21896 3.01788 12.4162 0 14.0034 0C15.5907 0 20.7879 3.01788 21.2236 3.67121C21.6594 4.32454 21.0991 6.93788 20.9124 7.71546C20.9124 7.77788 20.8812 7.80879 20.8503 7.84C20.8191 7.90213 20.757 7.93333 20.6633 7.93333C20.4145 7.99546 20.1967 8.12 20.0409 8.24454C20.0409 8.33788 20.0721 8.4 20.0721 8.46213C20.0721 8.55546 20.0409 8.64879 19.9788 8.71121L19.9167 8.83546C19.8543 8.92879 19.7609 8.96 19.6676 8.96ZM7.65471 7.40454C7.9035 7.46667 8.09017 7.59121 8.24592 7.71546C8.55713 6.62667 8.99288 5.47546 9.58409 4.85333C9.67742 4.76 9.83317 4.72879 9.95771 4.79121C9.98863 4.79121 12.105 5.97333 14.0034 5.97333C15.9019 5.97333 18.0182 4.82213 18.0491 4.79121C18.1737 4.72879 18.3294 4.76 18.4228 4.85333C19.014 5.47546 19.4497 6.62667 19.7609 7.71546C19.9167 7.59121 20.1033 7.49788 20.3521 7.40454C20.7258 5.81788 20.8812 4.29333 20.7258 4.04454C20.3521 3.48454 15.3107 0.622125 14.0034 0.622125C12.6962 0.622125 7.65471 3.48454 7.3123 4.01333C7.12563 4.29333 7.3435 5.94213 7.65471 7.40454Z" fill="#111820"/>
<mask id="mask0_162_2816" style="mask-type:luminance" maskUnits="userSpaceOnUse" x="3" y="16" width="22" height="12">
<path d="M3.7334 16.0533H24.2796V28H3.7334V16.0533Z" fill="white"/>
</mask>
<g mask="url(#mask0_162_2816)">
<path d="M24.2737 28.0001H3.7334V27.6888C3.7334 23.0846 6.53427 21.3734 8.40152 20.2534C8.74394 20.0355 9.05515 19.8488 9.33544 19.6622C10.7045 18.6667 11.6694 17.9513 11.9806 17.7022V16.0846L12.4475 16.3334C13.0699 16.6755 13.599 16.8622 14.0036 16.8622C14.4081 16.8622 14.9372 16.6755 15.5596 16.3334L16.0266 16.0846V17.7022C16.4311 18.0134 17.3335 18.6979 18.6717 19.6622C18.9208 19.8488 19.2632 20.0355 19.6056 20.2534C21.4729 21.3734 24.2737 23.0846 24.2737 27.6888V28.0001ZM4.35582 27.3779H23.6513C23.5268 23.3646 21.0992 21.8713 19.2944 20.7822C18.952 20.5646 18.6096 20.3779 18.3296 20.1601C16.8356 19.1022 15.8708 18.3555 15.5596 18.1067L15.4351 18.0134V17.1113C14.906 17.3601 14.4393 17.4846 14.0348 17.4846C13.6302 17.4846 13.1633 17.3601 12.6342 17.1113V17.9822L12.5096 18.0755C12.5096 18.0755 11.4206 18.9467 9.73998 20.1601C9.45969 20.3779 9.11757 20.5646 8.77515 20.7822C6.9079 21.8713 4.48036 23.3646 4.35582 27.3779Z" fill="#111820"/>
</g>
</g>
<defs>
<clipPath id="clip0_162_2816">
<rect width="28" height="28" fill="white"/>
</clipPath>
</defs>
</svg>
