<svg width="28" height="28" viewBox="0 0 28 28" fill="none" xmlns="http://www.w3.org/2000/svg">
<g clip-path="url(#clip0_162_2804)">
<path d="M17.5321 19.929C15.8241 18.6874 14.7683 17.8491 14.7683 17.8491C14.7683 18.7804 13.9922 19.5565 13.0606 19.5565C12.129 19.5565 11.3526 18.7804 11.3526 17.8491C11.3526 17.8491 10.2967 18.6874 8.58903 19.929C6.84982 21.1706 3.12378 22.4435 3.12378 27.6897H22.9974C22.9974 22.4435 19.271 21.1706 17.5321 19.929Z" fill="#F172AB"/>
<path d="M8.58903 19.929C6.84982 21.1707 3.12378 22.4435 3.12378 27.6897H10.2967C10.2658 27.2239 10.2346 26.6342 10.2037 25.9514C10.0794 23.7472 11.3526 17.8804 11.3526 17.8804C11.3526 17.8804 10.2967 18.6874 8.58903 19.929Z" fill="#596C7C"/>
<path d="M17.5321 19.929C19.2711 21.1707 22.9974 22.4435 22.9974 27.6897H15.8241C15.8554 27.2239 15.8863 26.6342 15.9175 25.9514C16.0417 23.7472 14.7683 17.8804 14.7683 17.8804C14.7683 17.8804 15.8241 18.6874 17.5321 19.929Z" fill="#596C7C"/>
<mask id="mask0_162_2804" style="mask-type:luminance" maskUnits="userSpaceOnUse" x="2" y="17" width="10" height="11">
<path d="M2.80005 17.0986H11.872V28H2.80005V17.0986Z" fill="white"/>
</mask>
<g mask="url(#mask0_162_2804)">
<path d="M10.6384 27.9999H2.81323V27.6896C2.81323 23.0953 5.60798 21.3878 7.47115 20.2705C7.81269 20.0532 8.12332 19.8668 8.40273 19.6807C10.0795 18.47 11.1354 17.6318 11.1663 17.6318L11.8496 17.1041L11.6633 17.9424C11.6633 18.0042 10.3901 23.8093 10.5144 25.9513C10.5453 26.5719 10.5762 27.1617 10.6074 27.6896L10.6384 27.9999ZM3.43419 27.379H9.95527C9.92436 26.9444 9.89315 26.4477 9.86223 25.9513C9.7689 24.2129 10.5144 20.3326 10.8559 18.6252C10.3589 18.9976 9.64465 19.5255 8.74427 20.1774C8.46486 20.3947 8.12332 20.5808 7.78148 20.7981C5.98044 21.8845 3.55844 23.3747 3.43419 27.379Z" fill="#111820"/>
</g>
<mask id="mask1_162_2804" style="mask-type:luminance" maskUnits="userSpaceOnUse" x="14" y="17" width="10" height="11">
<path d="M14.2612 17.024H23.3519V28H14.2612V17.024Z" fill="white"/>
</mask>
<g mask="url(#mask1_162_2804)">
<path d="M23.3077 28.0001H15.4823L15.5135 27.6585C15.5445 27.1309 15.5757 26.5412 15.6066 25.9202C15.7308 23.7782 14.4577 17.9734 14.4577 17.9113L14.3022 17.0734L14.9856 17.601C14.9856 17.601 16.0415 18.4392 17.7492 19.6497C17.9977 19.836 18.3392 20.0221 18.6807 20.2394C20.5439 21.3571 23.3387 23.0645 23.3387 27.6585V28.0001H23.3077ZM16.1654 27.3791H22.6865C22.5622 23.3748 20.1402 21.8847 18.3392 20.7982C17.9977 20.5809 17.6561 20.3949 17.3767 20.1776C16.476 19.5257 15.7617 18.9978 15.265 18.6253C15.6066 20.3327 16.3518 24.2131 16.2587 25.9514C16.2275 26.4478 16.1966 26.9136 16.1654 27.3791Z" fill="#111820"/>
</g>
<path d="M20.3578 7.10885L13.0606 7.66739L5.76306 7.07764C5.76306 7.07764 5.45243 16.3903 5.76306 18.315C5.76306 18.315 7.59531 17.8492 13.0606 17.8492C18.5258 17.8492 20.3578 18.315 20.3578 18.315C20.6993 16.4215 20.3578 7.10885 20.3578 7.10885Z" fill="#F8BF3F"/>
<path d="M20.6063 18.7183L20.2647 18.6252C20.2338 18.6252 18.4016 18.1597 13.0293 18.1597C7.65743 18.1597 5.82518 18.6252 5.79426 18.6252L5.48364 18.7183L5.45243 18.377C5.1421 16.4523 5.42151 7.45 5.45243 7.07755V6.76721L13.0606 7.35696L20.6684 6.76721V7.07755C20.6684 7.45 20.979 16.4523 20.6684 18.377L20.6063 18.7183ZM6.04247 7.41909C5.98035 9.00225 5.79426 15.8004 6.01155 17.9424C6.75676 17.8182 8.83722 17.5388 13.0606 17.5388C17.2836 17.5388 19.3641 17.8182 20.1096 17.9424C20.3268 15.8004 20.1096 9.00225 20.0783 7.41909L13.0606 7.97792H13.0293L6.04247 7.41909Z" fill="#111820"/>
<path d="M18.4325 6.08411C17.7806 2.48319 14.7061 2.23499 13.0605 2.23499C11.4147 2.23499 8.34051 2.48319 7.68834 6.08411C7.03617 9.8714 6.88101 12.4789 7.31559 13.0999C7.78138 13.7205 11.0419 17.1972 13.0605 17.1972C15.0789 17.1972 18.3394 13.7205 18.8052 13.0999C19.2401 12.4789 19.0846 9.8714 18.4325 6.08411Z" fill="#FBDBC0"/>
<path d="M11.5076 8.78503C11.5076 8.83986 11.5024 8.8944 11.4916 8.94836C11.4808 9.00232 11.465 9.05482 11.444 9.10557C11.4227 9.15661 11.3971 9.20474 11.3664 9.25053C11.3358 9.29632 11.3011 9.33861 11.262 9.37769C11.2232 9.41649 11.1809 9.45119 11.1351 9.48182C11.0894 9.51244 11.0409 9.53811 10.9902 9.5594C10.9394 9.5804 10.8869 9.59615 10.833 9.60694C10.779 9.61774 10.7245 9.62299 10.6694 9.62299C10.6142 9.62299 10.5597 9.61774 10.5057 9.60694C10.4518 9.59615 10.3993 9.5804 10.3485 9.5594C10.2975 9.53811 10.2494 9.51244 10.2036 9.48182C10.1578 9.45119 10.1155 9.41649 10.0764 9.37769C10.0376 9.33861 10.0029 9.29632 9.97227 9.25053C9.94164 9.20474 9.91569 9.15661 9.89469 9.10557C9.87369 9.05482 9.85764 9.00232 9.84685 8.94836C9.83635 8.8944 9.83081 8.83986 9.83081 8.78503C9.83081 8.7299 9.83635 8.67536 9.84685 8.6214C9.85764 8.56744 9.87369 8.51494 9.89469 8.46419C9.91569 8.41344 9.94164 8.36503 9.97227 8.31924C10.0029 8.27344 10.0376 8.23115 10.0764 8.19236C10.1155 8.15328 10.1578 8.11857 10.2036 8.08794C10.2494 8.05761 10.2975 8.03165 10.3485 8.01065C10.3993 7.98965 10.4518 7.97361 10.5057 7.96282C10.5597 7.95232 10.6142 7.94678 10.6694 7.94678C10.7245 7.94678 10.779 7.95232 10.833 7.96282C10.8869 7.97361 10.9394 7.98965 10.9902 8.01065C11.0409 8.03165 11.0894 8.05761 11.1351 8.08794C11.1809 8.11857 11.2232 8.15328 11.262 8.19236C11.3011 8.23115 11.3358 8.27344 11.3664 8.31924C11.3971 8.36503 11.4227 8.41344 11.444 8.46419C11.465 8.51494 11.4808 8.56744 11.4916 8.6214C11.5024 8.67536 11.5076 8.7299 11.5076 8.78503Z" fill="#111820"/>
<path d="M16.2898 8.78503C16.2898 8.83986 16.2846 8.8944 16.2738 8.94836C16.263 9.00232 16.2472 9.05482 16.226 9.10557C16.205 9.15661 16.1793 9.20474 16.1487 9.25053C16.118 9.29632 16.0833 9.33861 16.0442 9.37769C16.0055 9.41649 15.9632 9.45119 15.9174 9.48182C15.8716 9.51244 15.8232 9.53811 15.7724 9.5594C15.7214 9.5804 15.6692 9.59615 15.6149 9.60694C15.561 9.61774 15.5064 9.62299 15.4516 9.62299C15.3965 9.62299 15.3419 9.61774 15.288 9.60694C15.234 9.59615 15.1815 9.5804 15.1307 9.5594C15.0797 9.53811 15.0316 9.51244 14.9858 9.48182C14.94 9.45119 14.8974 9.41649 14.8586 9.37769C14.8198 9.33861 14.7848 9.29632 14.7545 9.25053C14.7239 9.20474 14.6979 9.15661 14.6769 9.10557C14.6559 9.05482 14.6399 9.00232 14.6291 8.94836C14.6183 8.8944 14.613 8.83986 14.613 8.78503C14.613 8.7299 14.6183 8.67536 14.6291 8.6214C14.6399 8.56744 14.6559 8.51494 14.6769 8.46419C14.6979 8.41344 14.7239 8.36503 14.7545 8.31924C14.7848 8.27344 14.8198 8.23115 14.8586 8.19236C14.8974 8.15328 14.94 8.11857 14.9858 8.08794C15.0316 8.05761 15.0797 8.03165 15.1307 8.01065C15.1815 7.98965 15.234 7.97361 15.288 7.96282C15.3419 7.95232 15.3965 7.94678 15.4516 7.94678C15.5064 7.94678 15.561 7.95232 15.6149 7.96282C15.6692 7.97361 15.7214 7.98965 15.7724 8.01065C15.8232 8.03165 15.8716 8.05761 15.9174 8.08794C15.9632 8.11857 16.0055 8.15328 16.0442 8.19236C16.0833 8.23115 16.118 8.27344 16.1487 8.31924C16.1793 8.36503 16.205 8.41344 16.226 8.46419C16.2472 8.51494 16.263 8.56744 16.2738 8.6214C16.2846 8.67536 16.2898 8.7299 16.2898 8.78503Z" fill="#111820"/>
<path d="M13.7747 10.9267C13.7747 10.9267 13.5574 11.2061 13.0607 11.2061C12.5637 11.2061 12.3464 10.9267 12.3464 10.9267C12.3154 10.8649 12.2533 10.8958 12.3776 11.144C12.5949 11.5167 12.8743 11.5476 13.0607 11.5476C13.247 11.5476 13.5264 11.5167 13.7437 11.144C13.868 10.9267 13.8059 10.8958 13.7747 10.9267Z" fill="#111820"/>
<path d="M13.0605 17.1972C12.5326 17.1972 11.9426 16.9799 11.3525 16.6387V17.8803C11.3525 18.8116 12.129 19.5874 13.0605 19.5874C13.9921 19.5874 14.7682 18.8116 14.7682 17.8803V16.6387C14.1785 16.949 13.5885 17.1972 13.0605 17.1972Z" fill="#FBDBC0"/>
<path d="M13.0605 17.5079C10.7937 17.5079 7.3777 13.7206 7.06737 13.286C6.4152 12.4168 6.88099 8.8471 7.3777 6.02202C8.1232 1.92468 11.8495 1.92468 13.0605 1.92468C14.2715 1.92468 17.9979 1.92468 18.7431 6.02202C19.2401 8.8471 19.7059 12.4168 19.0537 13.286C18.7431 13.7206 15.3274 17.5079 13.0605 17.5079ZM13.0605 2.54535C11.1662 2.54535 8.55778 2.91781 7.99895 6.11535C7.22253 10.4921 7.28466 12.5098 7.56407 12.9135C7.99895 13.5033 11.1974 16.8869 13.0605 16.8869C14.9237 16.8869 18.1221 13.5033 18.5567 12.9444C18.8673 12.5411 18.8982 10.5542 18.1221 6.14627C17.563 2.91781 14.9546 2.54535 13.0605 2.54535Z" fill="#111820"/>
<mask id="mask2_162_2804" style="mask-type:luminance" maskUnits="userSpaceOnUse" x="2" y="17" width="22" height="11">
<path d="M2.80005 17.1733H23.352V28H2.80005V17.1733Z" fill="white"/>
</mask>
<g mask="url(#mask2_162_2804)">
<path d="M23.3081 28.0001H2.81323V27.6897C2.81323 23.0954 5.60798 21.388 7.47115 20.2706C7.81269 20.0533 8.12332 19.8669 8.40273 19.6808C10.0795 18.4701 11.1354 17.6319 11.1663 17.6319L11.6633 17.2285V17.8804C11.6633 18.6565 12.2842 19.2772 13.0606 19.2772C13.8368 19.2772 14.458 18.6565 14.458 17.8804V17.2285L14.9547 17.6319C14.9547 17.6319 16.0106 18.4701 17.7186 19.6808C17.9668 19.8669 18.3086 20.0533 18.6502 20.2706C20.5133 21.388 23.3081 23.0954 23.3081 27.6897V28.0001ZM3.43419 27.3791H22.6868C22.5626 23.3748 20.1406 21.8847 18.3395 20.7982C17.998 20.5809 17.6564 20.3948 17.377 20.1776C16.29 19.4014 15.4826 18.7805 15.0169 18.4392C14.7684 19.2772 13.9922 19.8981 13.0606 19.8981C12.1291 19.8981 11.3526 19.2772 11.1041 18.4392C10.6384 18.7805 9.83102 19.4323 8.74427 20.1776C8.46486 20.3948 8.12332 20.5809 7.78148 20.7982C5.98044 21.8847 3.55844 23.3748 3.43419 27.3791Z" fill="#111820"/>
</g>
<path d="M13.0606 19.8981C11.9427 19.8981 11.042 18.9978 11.042 17.8804V16.1108L11.5078 16.3593C12.129 16.7006 12.657 16.887 13.0606 16.887C13.4643 16.887 13.9922 16.7006 14.6132 16.3593L15.079 16.1108V17.8804C15.079 18.9668 14.1786 19.8981 13.0606 19.8981ZM11.6632 17.1352V17.8804C11.6632 18.6565 12.2842 19.2772 13.0606 19.2772C13.8367 19.2772 14.458 18.6565 14.458 17.8804V17.1352C13.9301 17.3837 13.4643 17.5079 13.0606 17.5079C12.657 17.5079 12.1912 17.3837 11.6632 17.1352Z" fill="#111820"/>
<path d="M13.0605 14.5898C11.3216 14.5898 10.7937 13.3791 10.7625 13.3482L11.3216 13.1C11.3216 13.1309 11.7252 13.9691 13.0605 13.9691C14.3957 13.9691 14.7994 13.1 14.7994 13.1L15.3582 13.3482C15.3273 13.3791 14.7994 14.5898 13.0605 14.5898Z" fill="#111820"/>
<path d="M7.09825 27.6896H6.47729V26.3547C6.47729 25.4855 7.19159 24.3369 7.2225 24.2748L7.75042 24.5854C7.56405 24.8648 7.09825 25.7649 7.09825 26.3547V27.6896Z" fill="#111820"/>
<path d="M19.6437 27.6896H19.0225V26.3547C19.0225 25.7649 18.5567 24.8957 18.3706 24.5854L18.8982 24.2748C18.9294 24.3369 19.6437 25.4855 19.6437 26.3547V27.6896Z" fill="#111820"/>
<path d="M18.4637 3.13518C18.7122 0.682849 17.8427 0.496765 16.942 0.403724C16.0417 0.31039 14.023 0.589807 13.0605 0.589807C12.0977 0.589807 10.0794 0.31039 9.17874 0.403724C8.27836 0.496765 7.40891 0.682849 7.65741 3.13518C7.65741 3.13518 5.11086 5.21506 5.01782 6.7361C5.01782 6.7361 6.88099 5.74297 12.9672 5.74297C19.0537 5.74297 21.1342 6.7361 21.1342 6.7361C21.0411 5.21506 18.4637 3.13518 18.4637 3.13518Z" fill="#46C0B5"/>
<path d="M7.62631 2.70056C7.62631 2.82481 7.65752 2.97998 7.65752 3.10423C7.65752 3.10423 7.31569 3.38364 6.8811 3.78702H19.2402C18.8053 3.35244 18.4638 3.10423 18.4638 3.10423C18.4638 2.94906 18.4947 2.82481 18.4947 2.70056H7.62631Z" fill="#00A79D"/>
<path d="M21.1032 7.01547C21.072 7.01547 21.0099 7.01547 20.9789 6.98455C20.9477 6.98455 18.8673 6.02205 12.9362 6.02205C7.0361 6.02205 5.14202 6.95334 5.11081 6.98455C5.01777 7.04668 4.89352 7.01547 4.80048 6.95334C4.70714 6.89122 4.64502 6.79818 4.64502 6.67393C4.73835 5.24622 6.72577 3.41455 7.2846 2.97997C7.06731 0.496717 8.06102 0.186384 9.08564 0.0621337C9.64448 8.69855e-06 10.5761 0.0930504 11.4767 0.155175C12.0668 0.2173 12.6256 0.248217 13.0293 0.248217C13.4329 0.248217 13.9921 0.186384 14.5821 0.155175C15.4825 0.0930504 16.4141 8.69855e-06 16.9732 0.0621337C17.9978 0.186384 18.9915 0.496717 18.7742 2.97997C19.3021 3.44576 21.3205 5.24622 21.4135 6.67393C21.4135 6.79818 21.3826 6.89122 21.2893 6.95334C21.2271 7.01547 21.165 7.01547 21.1032 7.01547ZM12.9671 5.4323C17.3769 5.4323 19.7058 5.96022 20.6992 6.23934C20.2646 5.15288 18.8673 3.84913 18.2772 3.38363C18.1842 3.32151 18.153 3.22847 18.153 3.10422C18.3706 0.869175 17.6872 0.80705 16.9111 0.714009C16.4141 0.651884 15.4825 0.744925 14.6442 0.80705C14.023 0.869175 13.4641 0.900092 13.0605 0.900092C12.6568 0.900092 12.0668 0.838259 11.4767 0.80705C10.6382 0.744925 9.7066 0.651884 9.20989 0.714009C8.43348 0.80705 7.75039 0.869175 7.96769 3.10422C7.96769 3.19726 7.93677 3.32151 7.84344 3.38363C7.25369 3.84913 5.85631 5.15288 5.45235 6.23934C6.38394 5.92901 8.61985 5.4323 12.9671 5.4323Z" fill="#111820"/>
<path d="M9.3029 6.05324V5.89807C7.59519 6.05324 6.47723 6.27053 5.82506 6.45661C5.79415 6.6739 5.76294 6.8912 5.76294 7.10878C5.76294 11.3613 6.35298 15.4901 7.16031 18.0976C7.96765 20.736 9.52048 20.2393 9.52048 20.2393C8.0919 15.3347 9.3029 6.05324 9.3029 6.05324Z" fill="#F8BF3F"/>
<path d="M20.2956 6.45661C19.6437 6.27053 18.5257 6.05324 16.8177 5.89807V6.05324C16.8177 6.05324 18.0287 15.3347 16.6313 20.2705C16.6313 20.2705 18.1842 20.7672 18.9915 18.1285C19.7988 15.4901 20.3889 11.3925 20.3889 7.1397C20.3577 6.86028 20.3268 6.64299 20.2956 6.45661Z" fill="#F8BF3F"/>
<path d="M9.17873 20.5808C8.96143 20.5808 8.6511 20.5499 8.34048 20.3635C7.68831 20.022 7.16039 19.2771 6.84977 18.1906C5.98031 15.3037 5.45239 11.0509 5.45239 7.10874C5.45239 7.10874 5.45239 7.10874 5.45239 7.07753C5.45239 6.86024 5.4836 6.61203 5.51452 6.39474C5.54573 6.27049 5.60785 6.17744 5.7321 6.14624C6.35306 5.96015 7.50193 5.71165 9.27206 5.5874C9.3651 5.5874 9.42723 5.61861 9.48935 5.64953C9.55148 5.71165 9.58268 5.77378 9.58268 5.86682V6.02199C9.58268 6.05319 9.58268 6.05319 9.58268 6.08411C9.58268 6.17744 8.4026 15.3658 9.76877 20.1774C9.79998 20.3326 9.73785 20.5187 9.55148 20.5499C9.58268 20.5499 9.42723 20.5808 9.17873 20.5808ZM6.07364 7.10874C6.07364 11.02 6.60156 15.2107 7.43981 18.0042C7.71952 18.9355 8.12318 19.5565 8.61989 19.8359C8.80627 19.9289 8.96143 19.9602 9.08568 19.9911C7.93681 15.3658 8.77506 7.63636 8.96143 6.23928C7.59527 6.36353 6.6946 6.5499 6.10456 6.70507C6.07364 6.82932 6.07364 6.95328 6.07364 7.10874Z" fill="#111820"/>
<path d="M16.9421 20.5809C16.7248 20.5809 16.5694 20.55 16.5385 20.5188C16.3833 20.4566 16.29 20.3015 16.3212 20.1463C17.6873 15.335 16.5076 6.14631 16.5076 6.05327C16.5076 6.02206 16.5076 6.02206 16.5076 5.99114V5.83597C16.5076 5.74293 16.5385 5.68081 16.6006 5.61868C16.6627 5.55656 16.7558 5.52564 16.8179 5.55656C18.5568 5.71172 19.706 5.96022 20.3578 6.11539C20.4821 6.14631 20.5754 6.23935 20.5754 6.3636C20.6063 6.58089 20.6376 6.79818 20.6376 7.01547C20.6376 7.01547 20.6376 7.01547 20.6376 7.04668C20.6376 11.0201 20.1096 15.2728 19.2402 18.1286C18.8983 19.215 18.4016 19.9602 17.7495 20.3015C17.4701 20.55 17.1594 20.5809 16.9421 20.5809ZM17.1594 6.23935C17.3458 7.69856 18.1843 15.3659 17.0352 19.9911C17.4391 19.9602 18.2153 19.6496 18.6811 18.0355C19.5196 15.2107 20.0475 11.051 20.0475 7.13972C20.0475 7.01547 20.0163 6.86031 20.0163 6.73606C19.4263 6.54997 18.4947 6.3636 17.1594 6.23935Z" fill="#111820"/>
<path d="M7.68823 25.8892H9.48927V26.5098H7.68823V25.8892Z" fill="#111820"/>
</g>
<defs>
<clipPath id="clip0_162_2804">
<rect width="28" height="28" fill="white"/>
</clipPath>
</defs>
</svg>
