<svg width="28" height="28" viewBox="0 0 28 28" fill="none" xmlns="http://www.w3.org/2000/svg">
<g clip-path="url(#clip0_162_2805)">
<path d="M14.5699 6.96879C11.2708 5.97333 8.003 5.3512 7.34966 8.1512C6.97604 10.7955 6.94512 12.5688 7.31846 13.0667C7.78512 13.6888 11.053 17.1733 13.076 17.1733C15.099 17.1733 18.3668 13.6888 18.8335 13.0667C19.2692 12.4755 19.1447 10.1112 18.5535 6.62666C17.6198 7.18666 16.3126 7.49787 14.5699 6.96879Z" fill="#FBDBC0"/>
<path d="M11.5199 8.7421C11.5199 8.79722 11.5144 8.85206 11.5036 8.90602C11.4931 8.96027 11.4771 9.01277 11.4561 9.06352C11.4348 9.11456 11.4088 9.16297 11.3782 9.20877C11.3476 9.25485 11.3129 9.29714 11.2738 9.33622C11.2347 9.37531 11.1924 9.41002 11.1463 9.44064C11.1005 9.47127 11.0521 9.49722 11.0011 9.51822C10.9503 9.53922 10.8975 9.55527 10.8436 9.56606C10.7893 9.57685 10.7348 9.5821 10.6796 9.5821C10.6245 9.5821 10.5697 9.57685 10.5157 9.56606C10.4615 9.55527 10.409 9.53922 10.3579 9.51822C10.3072 9.49722 10.2588 9.47127 10.2127 9.44064C10.1669 9.41002 10.1243 9.37531 10.0855 9.33622C10.0464 9.29714 10.0117 9.25485 9.98081 9.20877C9.95019 9.16297 9.92452 9.11456 9.90323 9.06352C9.88223 9.01277 9.86619 8.96027 9.8554 8.90602C9.84461 8.85206 9.83936 8.79722 9.83936 8.7421C9.83936 8.68697 9.84461 8.63243 9.8554 8.57818C9.86619 8.52422 9.88223 8.47172 9.90323 8.42068C9.92452 8.36964 9.95019 8.32152 9.98081 8.27543C10.0117 8.22964 10.0464 8.18735 10.0855 8.14827C10.1243 8.10918 10.1669 8.07447 10.2127 8.04385C10.2588 8.01322 10.3072 7.98727 10.3579 7.96627C10.409 7.94497 10.4615 7.92922 10.5157 7.91843C10.5697 7.90764 10.6245 7.9021 10.6796 7.9021C10.7348 7.9021 10.7893 7.90764 10.8436 7.91843C10.8975 7.92922 10.9503 7.94497 11.0011 7.96627C11.0521 7.98727 11.1005 8.01322 11.1463 8.04385C11.1924 8.07447 11.2347 8.10918 11.2738 8.14827C11.3129 8.18735 11.3476 8.22964 11.3782 8.27543C11.4088 8.32152 11.4348 8.36964 11.4561 8.42068C11.4771 8.47172 11.4931 8.52422 11.5036 8.57818C11.5144 8.63243 11.5199 8.68697 11.5199 8.7421Z" fill="#111820"/>
<path d="M16.3127 8.7421C16.3127 8.79722 16.3074 8.85206 16.2966 8.90602C16.2858 8.96027 16.2698 9.01277 16.2488 9.06352C16.2275 9.11456 16.2018 9.16297 16.1712 9.20877C16.1403 9.25485 16.1056 9.29714 16.0665 9.33622C16.0277 9.37531 15.9851 9.41002 15.9393 9.44064C15.8932 9.47127 15.8448 9.49722 15.7941 9.51822C15.743 9.53922 15.6905 9.55527 15.6363 9.56606C15.5823 9.57685 15.5275 9.5821 15.4724 9.5821C15.4172 9.5821 15.3627 9.57685 15.3085 9.56606C15.2545 9.55527 15.2017 9.53922 15.151 9.51822C15.0999 9.49722 15.0515 9.47127 15.0057 9.44064C14.9596 9.41002 14.9173 9.37531 14.8782 9.33622C14.8392 9.29714 14.8045 9.25485 14.7738 9.20877C14.7432 9.16297 14.7172 9.11456 14.696 9.06352C14.675 9.01277 14.6589 8.96027 14.6481 8.90602C14.6376 8.85206 14.6321 8.79722 14.6321 8.7421C14.6321 8.68697 14.6376 8.63243 14.6481 8.57818C14.6589 8.52422 14.675 8.47172 14.696 8.42068C14.7172 8.36964 14.7432 8.32152 14.7738 8.27543C14.8045 8.22964 14.8392 8.18735 14.8782 8.14827C14.9173 8.10918 14.9596 8.07447 15.0057 8.04385C15.0515 8.01322 15.0999 7.98727 15.151 7.96627C15.2017 7.94497 15.2545 7.92922 15.3085 7.91843C15.3627 7.90764 15.4172 7.9021 15.4724 7.9021C15.5275 7.9021 15.5823 7.90764 15.6363 7.91843C15.6905 7.92922 15.743 7.94497 15.7941 7.96627C15.8448 7.98727 15.8932 8.01322 15.9393 8.04385C15.9851 8.07447 16.0277 8.10918 16.0665 8.14827C16.1056 8.18735 16.1403 8.22964 16.1712 8.27543C16.2018 8.32152 16.2275 8.36964 16.2488 8.42068C16.2698 8.47172 16.2858 8.52422 16.2966 8.57818C16.3074 8.63243 16.3127 8.68697 16.3127 8.7421Z" fill="#111820"/>
<path d="M14.0718 10.7646C14.0718 10.7646 13.7606 11.1688 13.0761 11.1688C12.3916 11.1688 12.0801 10.7646 12.0801 10.7646C12.0179 10.7022 11.9246 10.7334 12.1113 11.0446C12.3916 11.5734 12.7961 11.6355 13.0761 11.6355C13.3561 11.6355 13.7297 11.5734 14.0409 11.0446C14.1964 10.7646 14.1343 10.7022 14.0718 10.7646Z" fill="#111820"/>
<path d="M7.34969 8.15119C7.13181 7.93332 6.5094 7.40453 5.70002 7.74665C4.70427 8.15119 5.45123 11.5733 7.03848 11.4488C7.0694 10.5779 7.19394 9.48878 7.34969 8.15119Z" fill="#FBDBC0"/>
<path d="M18.8022 8.15119C19.0201 7.93332 19.6425 7.40453 20.4519 7.74665C21.4477 8.15119 20.7007 11.5733 19.1135 11.4488C19.0825 10.5779 18.958 9.48878 18.8022 8.15119Z" fill="#FBDBC0"/>
<path d="M13.076 17.1733C12.547 17.1733 11.9558 16.9554 11.3643 16.6133V17.8578C11.3643 18.7912 12.1424 19.5687 13.076 19.5687C14.0097 19.5687 14.7878 18.7912 14.7878 17.8578V16.6133C14.1963 16.9245 13.6051 17.1733 13.076 17.1733Z" fill="#FBDBC0"/>
<path d="M6.9762 11.7288C5.98045 11.7288 5.32682 10.64 5.10895 9.67549C4.89107 8.74216 4.95349 7.71549 5.63803 7.43549C6.63378 7.03124 7.41195 7.71549 7.62982 7.93337C7.69195 7.99549 7.72316 8.08883 7.72316 8.18216C7.53649 9.52003 7.44316 10.6088 7.44316 11.4179C7.44316 11.5734 7.31861 11.6979 7.16286 11.7288C7.06953 11.7288 7.00741 11.7288 6.9762 11.7288ZM6.26045 7.93337C6.13591 7.93337 6.01136 7.96458 5.85591 8.0267C5.63803 8.12003 5.51349 8.77337 5.70016 9.55124C5.85591 10.2355 6.26045 10.92 6.78953 11.0755C6.82074 10.2979 6.91407 9.36458 7.06953 8.24458C6.85166 8.12003 6.60286 7.93337 6.26045 7.93337Z" fill="#111820"/>
<path d="M19.1758 11.7288C19.1446 11.7288 19.0825 11.7288 19.0513 11.7288C18.8955 11.7288 18.7713 11.5734 18.7713 11.4179C18.7713 10.6088 18.6779 9.52003 18.491 8.18216C18.491 8.08883 18.5222 7.99549 18.5843 7.93337C18.8022 7.71549 19.5491 7.03124 20.5761 7.43549C21.2609 7.71549 21.3231 8.77337 21.1052 9.67549C20.8252 10.6712 20.2028 11.7288 19.1758 11.7288ZM19.1134 8.27549C19.2691 9.39549 19.3625 10.3288 19.3937 11.1067C19.9228 10.9512 20.2961 10.2355 20.4828 9.58216C20.6697 8.77337 20.5761 8.15124 20.3273 8.05791C19.767 7.80883 19.3625 8.05791 19.1134 8.27549Z" fill="#111820"/>
<path d="M17.5574 19.9112C15.8459 18.6667 14.7877 17.8267 14.7877 17.8267C14.7877 18.76 14.0095 19.5379 13.0759 19.5379C12.1423 19.5379 11.3641 18.76 11.3641 17.8267C11.3641 17.8267 10.3059 18.6667 8.59444 19.9112C6.85144 21.1555 3.11694 22.4312 3.11694 27.6888H23.0349C23.0349 22.4312 19.3004 21.1555 17.5574 19.9112Z" fill="#00A5A5"/>
<mask id="mask0_162_2805" style="mask-type:luminance" maskUnits="userSpaceOnUse" x="2" y="17" width="22" height="11">
<path d="M2.80005 17.1733H23.352V28H2.80005V17.1733Z" fill="white"/>
</mask>
<g mask="url(#mask0_162_2805)">
<path d="M23.3462 28H2.80591V27.6888C2.80591 23.0846 5.60678 21.3734 7.47403 20.2534C7.81645 20.0355 8.12766 19.8488 8.40795 19.6622C10.0885 18.4488 11.1464 17.6088 11.1776 17.6088L11.6755 17.2046V17.8579C11.6755 18.6355 12.2979 19.2579 13.0761 19.2579C13.8542 19.2579 14.4767 18.6355 14.4767 17.8579V17.2046L14.9745 17.6088C14.9745 17.6088 16.0327 18.4488 17.7442 19.6622C17.9933 19.8488 18.3357 20.0355 18.6781 20.2534C20.5454 21.3734 23.3462 23.0846 23.3462 27.6888V28ZM3.42832 27.3779H22.7238C22.5993 23.3646 20.1717 21.8713 18.3669 20.7822C18.0245 20.5646 17.6821 20.3779 17.4021 20.16C16.3127 19.3822 15.5036 18.76 15.0367 18.4179C14.7879 19.2579 14.0097 19.88 13.0761 19.88C12.1425 19.88 11.3643 19.2579 11.1155 18.4179C10.6485 18.76 9.83945 19.4134 8.75008 20.16C8.47008 20.3779 8.12766 20.5646 7.78524 20.7822C5.98041 21.8713 3.55287 23.3646 3.42832 27.3779Z" fill="#111820"/>
</g>
<path d="M13.076 19.8801C11.9557 19.8801 11.053 18.9779 11.053 17.8579V16.0846L11.5199 16.3334C12.1424 16.6755 12.6714 16.8622 13.076 16.8622C13.4805 16.8622 14.0096 16.6755 14.632 16.3334L15.099 16.0846V17.8579C15.099 18.9467 14.1963 19.8801 13.076 19.8801ZM11.6754 17.1113V17.8579C11.6754 18.6355 12.2978 19.2579 13.076 19.2579C13.8541 19.2579 14.4766 18.6355 14.4766 17.8579V17.1113C13.9475 17.3601 13.4805 17.4846 13.076 17.4846C12.6714 17.4846 12.2045 17.3601 11.6754 17.1113Z" fill="#111820"/>
<path d="M6.60278 25.2621H7.2252V27.6888H6.60278V25.2621Z" fill="#111820"/>
<path d="M18.9268 25.2621H19.5492V27.6888H18.9268V25.2621Z" fill="#111820"/>
<path d="M13.0759 14.56C11.3332 14.56 10.8042 13.3467 10.7729 13.3154L11.3332 13.0667C11.3332 13.0979 11.7378 13.9379 13.0759 13.9379C14.4141 13.9379 14.8187 13.0667 14.8187 13.0667L15.3789 13.3154C15.3477 13.3467 14.8187 14.56 13.0759 14.56Z" fill="#111820"/>
<path d="M20.7321 2.64449C19.456 3.91995 17.9 2.61328 16.3127 1.49328C14.7255 0.373282 13.0761 0.311157 13.0761 0.311157C5.94925 0.311157 6.19833 7.62207 6.19833 7.62207C6.78954 7.59116 7.19408 7.96449 7.38075 8.15116C8.00316 5.31995 11.3022 5.97328 14.601 6.96874C18.2733 8.08874 19.9851 5.47541 20.3897 4.79116C20.9187 3.73328 20.7321 2.64449 20.7321 2.64449Z" fill="#596C7C"/>
<path d="M7.34977 8.46212C7.31856 8.46212 7.31856 8.46212 7.28735 8.46212C7.22523 8.46212 7.19402 8.43121 7.16281 8.4C7.16281 8.4 7.16281 8.4 7.13189 8.36879C7.00735 8.24454 6.63373 7.93333 6.19827 7.93333C6.04252 7.93333 5.91798 7.84 5.88706 7.68454C5.88706 7.65333 5.88706 7.65333 5.88706 7.62212C5.88706 7.46667 5.79344 4.13788 7.97219 1.92879C9.21702 0.653333 10.9285 0 13.0761 0C13.1694 0 14.85 0.062125 16.4994 1.21333C16.6239 1.30667 16.7484 1.4 16.873 1.49333C18.5224 2.67546 19.5805 3.32879 20.4829 2.42667C20.5763 2.33333 20.7008 2.30212 20.7941 2.36454C20.9187 2.39546 20.9811 2.48879 21.012 2.61333C21.012 2.67546 21.2299 3.82667 20.6075 4.94667C20.2963 5.53787 18.4602 8.49333 14.4766 7.28C12.2979 6.62667 9.93277 6.03546 8.62552 6.81333C8.12764 7.09333 7.81644 7.56 7.66098 8.24454C7.62977 8.36879 7.50523 8.46212 7.34977 8.46212ZM6.50948 7.34212C6.78948 7.37333 7.00735 7.49787 7.19402 7.62212C7.41189 7.03121 7.78523 6.56454 8.31431 6.25333C9.80823 5.38212 12.267 5.94212 14.6633 6.65787C18.1799 7.71546 19.7984 5.16454 20.0784 4.63546C20.3584 4.13788 20.4208 3.60879 20.452 3.23546C19.2069 3.92 17.8066 2.92454 16.5306 1.99121C16.406 1.89787 16.2815 1.80454 16.1572 1.71121C14.6321 0.684542 13.0761 0.622125 13.0761 0.622125C11.1155 0.622125 9.52823 1.21333 8.40794 2.36454C6.75827 4.04454 6.54039 6.50212 6.50948 7.34212Z" fill="#111820"/>
<path d="M13.0761 17.4845C10.8043 17.4845 7.38071 13.6888 7.0695 13.2533C6.91405 13.0354 6.44709 12.4133 7.03859 8.08877V8.05786C7.22525 7.21786 7.661 6.59544 8.28342 6.22211C9.77705 5.35119 12.2358 5.91119 14.6321 6.62665C16.0327 7.06211 17.3088 6.96877 18.3669 6.34665C18.4603 6.28452 18.5536 6.28452 18.6469 6.34665C18.7403 6.37786 18.8024 6.47119 18.8336 6.56452C19.456 10.3288 19.5184 12.5688 19.0515 13.2221C18.7715 13.6888 15.3479 17.4845 13.0761 17.4845ZM7.661 8.21331C7.16284 11.9466 7.47405 12.7245 7.56767 12.88C8.00313 13.4712 11.2088 16.8621 13.0761 16.8621C14.9433 16.8621 18.149 13.4712 18.5845 12.9112C18.6781 12.7866 19.0827 11.9154 18.3357 7.12452C17.2151 7.65331 15.9082 7.68452 14.5076 7.27998C12.3291 6.62665 9.964 6.03544 8.65675 6.81331C8.12767 7.06211 7.81646 7.52877 7.661 8.21331Z" fill="#111820"/>
<path d="M11.3641 17.8267L9.52808 18.8221L12.1111 20.6888L13.0759 19.5688L11.3641 17.8267Z" fill="white"/>
<path d="M14.7877 17.8267L16.6238 18.8221L14.0408 20.6888L13.0759 19.5688L14.7877 17.8267Z" fill="white"/>
<path d="M12.1112 21C12.0491 21 11.9867 20.9688 11.9246 20.9378L9.34158 19.0712C9.24825 19.0088 9.21704 18.9154 9.21704 18.7912C9.21704 18.6978 9.27917 18.5733 9.3725 18.5421L11.2088 17.5466C11.3334 17.4845 11.4888 17.5154 11.5822 17.6088L13.294 19.32C13.4185 19.4445 13.4185 19.6312 13.3252 19.7554L12.3603 20.8754C12.267 20.9688 12.2046 21 12.1112 21ZM10.0885 18.8533L12.0491 20.2533L12.6403 19.5688L11.271 18.2L10.0885 18.8533Z" fill="#111820"/>
<path d="M14.0409 21C13.9476 21 13.8543 20.9688 13.7919 20.9067L12.827 19.7867C12.7337 19.6621 12.7337 19.4755 12.8582 19.3512L14.57 17.64C14.6634 17.5467 14.8188 17.5155 14.9434 17.5779L16.7797 18.5734C16.873 18.6355 16.9351 18.7288 16.9351 18.8221C16.9351 18.9155 16.9039 19.04 16.8106 19.1021L14.2276 20.9688C14.1655 20.9688 14.1031 21 14.0409 21ZM13.5119 19.5688L14.1031 20.2534L16.0636 18.8534L14.8812 18.2L13.5119 19.5688Z" fill="#111820"/>
<path d="M17.4642 25.2621H16.624C16.4373 25.2621 16.3127 25.4178 16.3127 25.5733V26.4133C16.3127 26.6 16.4685 26.7245 16.624 26.7245H17.4642C17.6509 26.7245 17.7755 26.5688 17.7755 26.4133V25.5733C17.7755 25.4178 17.6509 25.2621 17.4642 25.2621Z" fill="#067F7C"/>
</g>
<defs>
<clipPath id="clip0_162_2805">
<rect width="28" height="28" fill="white"/>
</clipPath>
</defs>
</svg>
