<svg width="28" height="28" viewBox="0 0 28 28" fill="none" xmlns="http://www.w3.org/2000/svg">
<g clip-path="url(#clip0_162_2806)">
<path d="M19.91 9.85139C19.91 9.78926 19.3506 6.2776 18.1691 5.06543C18.1691 5.06543 15.9929 6.2776 14.0035 6.2776C12.014 6.2776 9.83791 5.06543 9.83791 5.06543C8.68757 6.2776 8.12816 9.69593 8.09695 9.85139C7.94149 11.5606 7.9727 12.7103 8.25241 13.0833C8.71878 13.7049 11.9828 17.1853 14.0035 17.1853C16.0242 17.1853 19.2882 13.7049 19.7546 13.0833C20.0343 12.7103 20.0655 11.5606 19.91 9.85139Z" fill="#FBDBC0"/>
<path d="M12.4491 8.76369C12.4491 8.81881 12.4436 8.87335 12.4328 8.92731C12.4223 8.98127 12.4062 9.03377 12.3852 9.08481C12.3639 9.13556 12.3383 9.18398 12.3076 9.22977C12.277 9.27556 12.2423 9.31785 12.2032 9.35694C12.1641 9.39573 12.1218 9.43073 12.0761 9.46135C12.0303 9.49198 11.9818 9.51764 11.9308 9.53864C11.8801 9.55994 11.8276 9.57569 11.7733 9.58648C11.7193 9.59727 11.6648 9.60252 11.6097 9.60252C11.5546 9.60252 11.5 9.59727 11.4461 9.58648C11.3918 9.57569 11.3393 9.55994 11.2886 9.53864C11.2375 9.51764 11.1891 9.49198 11.1433 9.46135C11.0975 9.43073 11.0552 9.39573 11.0161 9.35694C10.9771 9.31785 10.9423 9.27556 10.9117 9.22977C10.8811 9.18398 10.8554 9.13556 10.8341 9.08481C10.8131 9.03377 10.7971 8.98127 10.7863 8.92731C10.7758 8.87335 10.7703 8.81881 10.7703 8.76369C10.7703 8.70856 10.7758 8.65402 10.7863 8.59977C10.7971 8.54581 10.8131 8.49331 10.8341 8.44256C10.8554 8.39152 10.8811 8.3431 10.9117 8.29731C10.9423 8.25152 10.9771 8.20923 11.0161 8.17014C11.0552 8.13135 11.0975 8.09664 11.1433 8.06602C11.1891 8.03539 11.2375 8.00944 11.2886 7.98844C11.3393 7.96744 11.3918 7.95139 11.4461 7.9406C11.5 7.92981 11.5546 7.92456 11.6097 7.92456C11.6648 7.92456 11.7193 7.92981 11.7733 7.9406C11.8276 7.95139 11.8801 7.96744 11.9308 7.98844C11.9818 8.00944 12.0303 8.03539 12.0761 8.06602C12.1218 8.09664 12.1641 8.13135 12.2032 8.17014C12.2423 8.20923 12.277 8.25152 12.3076 8.29731C12.3383 8.3431 12.3639 8.39152 12.3852 8.44256C12.4062 8.49331 12.4223 8.54581 12.4328 8.59977C12.4436 8.65402 12.4491 8.70856 12.4491 8.76369Z" fill="#111820"/>
<path d="M17.2367 8.76369C17.2367 8.81881 17.2312 8.87335 17.2204 8.92731C17.2099 8.98127 17.1938 9.03377 17.1728 9.08481C17.1515 9.13556 17.1259 9.18398 17.0952 9.22977C17.0646 9.27556 17.0299 9.31785 16.9908 9.35694C16.9517 9.39573 16.9094 9.43073 16.8637 9.46135C16.8179 9.49198 16.7694 9.51764 16.7184 9.53864C16.6677 9.55994 16.6152 9.57569 16.5609 9.58648C16.5069 9.59727 16.4524 9.60252 16.3973 9.60252C16.3422 9.60252 16.2876 9.59727 16.2337 9.58648C16.1794 9.57569 16.1269 9.55994 16.0762 9.53864C16.0251 9.51764 15.9767 9.49198 15.9309 9.46135C15.8851 9.43073 15.8428 9.39573 15.8037 9.35694C15.7647 9.31785 15.7299 9.27556 15.6993 9.22977C15.6687 9.18398 15.643 9.13556 15.6217 9.08481C15.6007 9.03377 15.5847 8.98127 15.5742 8.92731C15.5634 8.87335 15.5579 8.81881 15.5579 8.76369C15.5579 8.70856 15.5634 8.65402 15.5742 8.59977C15.5847 8.54581 15.6007 8.49331 15.6217 8.44256C15.643 8.39152 15.6687 8.3431 15.6993 8.29731C15.7299 8.25152 15.7647 8.20923 15.8037 8.17014C15.8428 8.13135 15.8851 8.09664 15.9309 8.06602C15.9767 8.03539 16.0251 8.00944 16.0762 7.98844C16.1269 7.96744 16.1794 7.95139 16.2337 7.9406C16.2876 7.92981 16.3422 7.92456 16.3973 7.92456C16.4524 7.92456 16.5069 7.92981 16.5609 7.9406C16.6152 7.95139 16.6677 7.96744 16.7184 7.98844C16.7694 8.00944 16.8179 8.03539 16.8637 8.06602C16.9094 8.09664 16.9517 8.13135 16.9908 8.17014C17.0299 8.20923 17.0646 8.25152 17.0952 8.29731C17.1259 8.3431 17.1515 8.39152 17.1728 8.44256C17.1938 8.49331 17.2099 8.54581 17.2204 8.59977C17.2312 8.65402 17.2367 8.70856 17.2367 8.76369Z" fill="#111820"/>
<path d="M14.9983 10.7835C14.9983 10.7835 14.6874 11.1874 14.0034 11.1874C13.3194 11.1874 13.0085 10.7835 13.0085 10.7835C12.9464 10.7213 12.8531 10.7525 13.0397 11.0632C13.3194 11.5917 13.7237 11.6538 14.0034 11.6538C14.2831 11.6538 14.6561 11.5917 14.9671 11.0632C15.1225 10.7835 15.0604 10.7213 14.9983 10.7835Z" fill="#111820"/>
<path d="M8.2834 8.17312C8.06581 7.95553 7.44427 7.42732 6.63577 7.76916C5.64119 8.17312 6.38727 11.5917 7.97277 11.4672C8.00369 10.5972 8.12823 9.47832 8.2834 8.17312Z" fill="#FBDBC0"/>
<path d="M19.7236 8.17312C19.9412 7.95553 20.5628 7.42732 21.3713 7.76916C22.3658 8.17312 21.6198 11.5917 20.0343 11.4672C20.0033 10.5972 19.8788 9.47832 19.7236 8.17312Z" fill="#FBDBC0"/>
<path d="M14.0035 17.1853C13.475 17.1853 12.8843 16.9677 12.2937 16.6259V17.8689C12.2937 18.8014 13.0707 19.5781 14.0035 19.5781C14.9362 19.5781 15.7132 18.8014 15.7132 17.8689V16.6259C15.1226 16.9368 14.532 17.1853 14.0035 17.1853Z" fill="#FBDBC0"/>
<path d="M7.91032 11.7469C6.91574 11.7469 6.2627 10.6592 6.04512 9.69586C5.82753 8.76369 5.88966 7.73819 6.57362 7.45848C7.56849 7.05423 8.34578 7.73819 8.56337 7.95548C8.62549 8.01761 8.65641 8.11094 8.65641 8.20428C8.47003 9.5404 8.3767 10.6283 8.3767 11.4362C8.3767 11.5917 8.25245 11.7159 8.09699 11.7469C8.00366 11.7469 7.94153 11.7469 7.91032 11.7469ZM7.19545 7.95548C7.0712 7.95548 6.94666 7.98669 6.7912 8.04882C6.57362 8.14215 6.44937 8.79461 6.63574 9.57161C6.7912 10.2553 7.19545 10.9389 7.72395 11.0944C7.75516 10.3174 7.8482 9.38523 8.00366 8.2664C7.78607 8.14215 7.53728 7.95548 7.19545 7.95548Z" fill="#111820"/>
<path d="M20.0968 11.7469C20.0656 11.7469 20.0035 11.7469 19.9723 11.7469C19.8168 11.7469 19.6926 11.5917 19.6926 11.4362C19.6926 10.6283 19.5992 9.5404 19.4128 8.20428C19.4128 8.11094 19.4438 8.01761 19.5059 7.95548C19.7238 7.73819 20.4698 7.05423 21.4956 7.45848C22.1796 7.73819 22.2417 8.79461 22.0241 9.69586C21.7444 10.6904 21.1226 11.7469 20.0968 11.7469ZM20.0344 8.29732C20.1898 9.41615 20.2832 10.3486 20.3144 11.1253C20.8429 10.9702 21.2159 10.2553 21.4023 9.60253C21.589 8.79461 21.4956 8.17307 21.2468 8.08003C20.6874 7.83123 20.2832 8.08003 20.0344 8.29732Z" fill="#111820"/>
<path d="M18.48 19.9199C16.7703 18.6771 15.7133 17.838 15.7133 17.838C15.7133 18.7702 14.9363 19.5472 14.0035 19.5472C13.0708 19.5472 12.2938 18.7702 12.2938 17.838C12.2938 17.838 11.2368 18.6771 9.52704 19.9199C7.78608 21.163 4.05566 22.4373 4.05566 27.6893H23.9514C23.9514 22.4373 20.221 21.163 18.48 19.9199Z" fill="#8DB0C6"/>
<path d="M24.2622 28H3.74463V27.6894C3.74463 23.0898 6.54259 21.3806 8.4078 20.2618C8.74963 20.0445 9.06055 19.8578 9.34025 19.6715C11.0191 18.4596 12.0761 17.6205 12.107 17.6205L12.6046 17.2165V17.869C12.6046 18.646 13.2261 19.2675 14.0034 19.2675C14.7807 19.2675 15.4023 18.646 15.4023 17.869V17.1232L15.9308 17.6514C16.0553 17.7447 17.0811 18.5526 18.6666 19.7027C18.9151 19.889 19.2572 20.0754 19.599 20.293C21.4643 21.4118 24.2622 23.121 24.2622 27.7203V28ZM4.36646 27.3785H23.6404C23.5161 23.3695 21.0912 21.8779 19.2881 20.7903C18.9463 20.5727 18.6045 20.3863 18.3245 20.1688C17.2675 19.423 16.4283 18.8014 15.962 18.4284C15.7132 19.2675 14.9362 19.889 14.0034 19.889C13.0707 19.889 12.2937 19.2675 12.0449 18.4284C11.5785 18.7702 10.7703 19.423 9.68238 20.1688C9.40238 20.3863 9.06055 20.5727 8.71871 20.7903C6.91563 21.8779 4.49071 23.3695 4.36646 27.3785Z" fill="#111820"/>
<path d="M14.0036 19.889C12.8845 19.889 11.9829 18.9878 11.9829 17.8689V16.0977L12.4493 16.3462C13.0708 16.688 13.5993 16.8747 14.0036 16.8747C14.4078 16.8747 14.9363 16.688 15.5579 16.3462L16.0242 16.0977V17.8689C16.0242 18.9566 15.1227 19.889 14.0036 19.889ZM12.6047 17.1232V17.8689C12.6047 18.6459 13.2263 19.2675 14.0036 19.2675C14.7809 19.2675 15.4024 18.6459 15.4024 17.8689V17.1232C14.8739 17.3717 14.4078 17.4962 14.0036 17.4962C13.5993 17.4962 13.1332 17.3717 12.6047 17.1232Z" fill="#111820"/>
<path d="M7.53735 25.2654H8.15919V27.6894H7.53735V25.2654Z" fill="#111820"/>
<path d="M19.8479 25.2654H20.4697V27.6894H19.8479V25.2654Z" fill="#111820"/>
<path d="M14.0035 14.544C12.2625 14.544 11.734 13.3318 11.7031 13.3009L12.2625 13.0521C12.2625 13.0833 12.6668 13.9225 14.0035 13.9225C15.3402 13.9225 15.7445 13.0521 15.7445 13.0521L16.3039 13.3009C16.273 13.363 15.7445 14.544 14.0035 14.544Z" fill="#111820"/>
<path d="M14.0034 17.4962C11.734 17.4962 8.31447 13.7049 8.00355 13.2697C7.8793 13.1142 7.50626 12.6172 7.78597 9.82015C7.78597 9.82015 7.78597 9.82015 7.78597 9.78923C7.84809 9.41619 8.4078 6.0909 9.58905 4.84811C9.68239 4.75477 9.83784 4.72357 9.96209 4.78569C9.9933 4.78569 12.107 5.96665 14.0034 5.96665C15.8998 5.96665 18.0136 4.8169 18.0448 4.78569C18.169 4.72357 18.3245 4.75477 18.4178 4.84811C19.6303 6.12211 20.1897 9.63377 20.2209 9.78923C20.2209 9.78923 20.2209 9.78923 20.2209 9.82015C20.4697 12.586 20.1276 13.1142 20.0033 13.2697C19.6924 13.7049 16.2729 17.4962 14.0034 17.4962ZM8.4078 9.88227C8.19022 12.2442 8.43872 12.7724 8.50114 12.8969C8.9363 13.4873 12.1382 16.8747 14.0034 16.8747C15.8686 16.8747 19.0706 13.4873 19.5057 12.9279C19.5991 12.8036 19.8478 12.2754 19.5991 9.91348C19.5681 9.72711 19.0706 6.74365 18.1069 5.50057C17.4851 5.81148 15.7132 6.6194 14.0034 6.6194C12.2937 6.6194 10.5218 5.81148 9.89997 5.50057C9.12268 6.49515 8.59418 8.76373 8.4078 9.88227Z" fill="#111820"/>
<path d="M19.8788 9.66492C19.8788 9.63371 19.8788 9.57159 19.8788 9.54038C19.8788 9.44734 19.8479 9.3228 19.8479 9.22976C19.8479 9.19855 19.8479 9.13642 19.8479 9.10551C19.8479 9.01217 19.8166 8.88792 19.8166 8.76367C19.8166 8.73246 19.8166 8.67034 19.7857 8.63913C19.7545 8.48396 19.7545 8.35942 19.7236 8.20426C19.7236 8.17305 19.7236 8.17305 19.7236 8.14213C19.7236 8.14213 19.7236 8.14213 19.7236 8.17305C19.91 7.98667 20.3451 7.61363 20.967 7.64484L21.8064 5.62476H20.4385L20.7494 3.76013L19.7236 3.91559V2.29976L18.2002 2.3928L17.6405 0.994547L16.3659 1.55367L15.8686 0.528172L14.7495 1.21184L14.0034 0.341797L13.2574 1.21184L12.1382 0.528172L11.6719 1.55367L10.3973 0.994547L9.83786 2.3928L8.31448 2.29976V3.91559L7.25748 3.76013L7.5684 5.62476L6.23169 5.65596L7.07111 7.67576C7.69265 7.61363 8.12811 8.01759 8.31448 8.20426V8.17305C8.31448 8.26638 8.28327 8.39063 8.28327 8.48396C8.28327 8.54609 8.28327 8.57701 8.25236 8.63913C8.25236 8.73246 8.22115 8.8258 8.22115 8.91884C8.22115 8.98096 8.19023 9.04338 8.19023 9.10551C8.19023 9.16763 8.15902 9.26067 8.15902 9.3228C8.15902 9.38521 8.12811 9.47826 8.12811 9.54038C8.12811 9.60251 8.12811 9.66492 8.0969 9.72705C8.0969 9.78917 8.0969 9.82009 8.0969 9.88221C8.12811 9.69584 8.68752 6.30842 9.83786 5.12746C9.83786 5.12746 12.014 6.33963 14.0034 6.33963C15.9929 6.33963 18.169 5.12746 18.169 5.12746C19.2881 6.30842 19.8479 9.66492 19.91 9.88221C19.91 9.78917 19.91 9.72705 19.8788 9.66492Z" fill="#596C7C"/>
<path d="M8.09702 10.1619H8.06581C7.87943 10.131 7.7861 9.97553 7.7861 9.82007L7.94156 8.39061C7.94156 8.3594 7.94156 8.32849 7.94156 8.29728C7.75518 8.14211 7.44427 7.92453 7.07122 7.98665C6.91577 7.98665 6.79122 7.92453 6.76031 7.80028L5.92089 5.78019C5.88968 5.68686 5.88968 5.56261 5.9521 5.50049C6.01422 5.40715 6.10756 5.37624 6.2006 5.34503L7.19547 5.31411L6.94668 3.79132C6.91577 3.69799 6.94668 3.60494 7.04001 3.51161C7.10214 3.44949 7.19547 3.41828 7.31972 3.41828L8.00368 3.51161V2.26853C8.00368 2.17519 8.03489 2.11307 8.09702 2.05094C8.15914 1.98882 8.25247 1.9579 8.3146 1.9579L9.62039 2.05094L10.0865 0.869985C10.1177 0.80786 10.1798 0.745735 10.2419 0.68361C10.3041 0.652693 10.3974 0.652693 10.4907 0.68361L11.5165 1.14969L11.8586 0.403902C11.8896 0.310568 11.9517 0.279652 12.045 0.248443C12.1383 0.217527 12.2317 0.248443 12.2938 0.279652L13.1641 0.80786L13.7548 0.124193C13.8793 -5.66337e-05 14.0969 -5.66337e-05 14.2211 0.124193L14.8118 0.80786L15.6824 0.279652C15.7445 0.248443 15.8376 0.217527 15.9309 0.248443C16.0242 0.279652 16.0863 0.341777 16.1176 0.403902L16.4906 1.14969L17.4852 0.714818C17.5476 0.68361 17.6406 0.68361 17.734 0.714818C17.7961 0.745735 17.8582 0.80786 17.8894 0.901193L18.3558 2.08215L19.6613 1.98882C19.7546 1.98882 19.8168 2.02003 19.8789 2.08215C19.9413 2.14428 19.9722 2.23732 19.9722 2.29974V3.54282L20.6562 3.44949C20.7495 3.41828 20.8428 3.4804 20.9359 3.54282C20.9983 3.60494 21.0292 3.72919 21.0292 3.82224L20.8116 5.31411L21.8065 5.34503C21.8996 5.34503 21.9929 5.40715 22.055 5.50049C22.1174 5.59382 22.1174 5.68686 22.0862 5.78019L21.2468 7.76907C21.1847 7.89332 21.0604 7.98665 20.9359 7.95544C20.5628 7.92453 20.221 8.1109 20.0656 8.26636C20.0656 8.3594 20.0968 8.48394 20.0968 8.57699L20.1277 8.70153C20.1277 8.82578 20.1589 8.91882 20.1589 9.04336V9.16761C20.1589 9.26065 20.1898 9.38519 20.1898 9.47824L20.221 9.78915C20.2519 9.94432 20.1277 10.0998 19.9413 10.131C19.7858 10.1619 19.6304 10.0377 19.5992 9.88219C19.5683 9.75794 19.0707 6.71236 18.107 5.46928C17.4852 5.78019 15.7133 6.58811 14.0036 6.58811C12.2938 6.58811 10.5219 5.78019 9.9001 5.46928C8.93643 6.74357 8.43885 9.75794 8.40793 9.9134C8.37672 10.0377 8.25247 10.1619 8.09702 10.1619ZM18.1691 4.75469C18.2625 4.75469 18.3246 4.78561 18.3867 4.84803C18.9776 5.46928 19.4437 6.65024 19.7237 7.70694C19.9722 7.52057 20.3144 7.3339 20.7183 7.3339L21.3089 5.93565H20.4074C20.3144 5.93565 20.221 5.90444 20.1589 5.8114C20.0968 5.74899 20.0656 5.65594 20.0968 5.56261L20.3453 4.13315L19.7237 4.22649C19.6304 4.22649 19.5371 4.22649 19.4749 4.16407C19.4128 4.10194 19.3816 4.0089 19.3816 3.91557V2.64157L18.1691 2.70369C18.0449 2.70369 17.9206 2.64157 17.8582 2.51703L17.4231 1.39849L16.4594 1.80244C16.3039 1.86457 16.1176 1.80244 16.0554 1.64699L15.7445 0.963318L14.9363 1.46061C14.8118 1.55365 14.6254 1.52274 14.5321 1.39849L14.0036 0.80786L13.4751 1.39849C13.3817 1.52274 13.2263 1.55365 13.0708 1.46061L12.2626 0.963318L11.9208 1.64699C11.8586 1.80244 11.672 1.86457 11.5165 1.80244L10.5528 1.39849L10.1177 2.51703C10.0556 2.64157 9.93102 2.73461 9.80677 2.70369L8.59431 2.64157V3.91557C8.59431 4.0089 8.56339 4.10194 8.50127 4.16407C8.43885 4.22649 8.34581 4.2574 8.25247 4.22649L7.63064 4.13315L7.87943 5.56261C7.87943 5.65594 7.87943 5.74899 7.81731 5.8114C7.75489 5.87353 7.66185 5.93565 7.56852 5.93565H6.66697L7.2576 7.3339C7.69277 7.36511 8.03489 7.55149 8.25247 7.70694C8.56339 6.65024 8.99856 5.46928 9.58918 4.84803C9.68252 4.75469 9.83797 4.72349 9.96222 4.78561C9.99343 4.78561 12.1071 5.96657 14.0036 5.96657C15.9 5.96657 18.0137 4.81682 18.0449 4.78561C18.0761 4.78561 18.1382 4.75469 18.1691 4.75469Z" fill="#111820"/>
</g>
<defs>
<clipPath id="clip0_162_2806">
<rect width="28" height="28" fill="white"/>
</clipPath>
</defs>
</svg>
