<svg width="28" height="28" viewBox="0 0 28 28" fill="none" xmlns="http://www.w3.org/2000/svg">
<g clip-path="url(#clip0_162_2807)">
<path d="M19.3876 6.03544C18.734 2.42665 15.6528 2.17786 14.0034 2.17786C12.354 2.17786 9.27287 2.42665 8.61925 6.03544C7.96591 9.83119 7.81016 12.4445 8.24591 13.0666C8.71258 13.6888 11.9804 17.1733 14.0034 17.1733C16.0264 17.1733 19.2942 13.6888 19.7609 13.0666C20.1967 12.4445 20.0409 9.83119 19.3876 6.03544Z" fill="#FBDBC0"/>
<path d="M12.4474 8.7421C12.4474 8.79722 12.4419 8.85206 12.4311 8.90602C12.4206 8.96027 12.4046 9.01277 12.3836 9.06352C12.3623 9.11456 12.3363 9.16297 12.3057 9.20877C12.2751 9.25485 12.2403 9.29714 12.2013 9.33622C12.1622 9.37531 12.1199 9.41002 12.0738 9.44064C12.028 9.47127 11.9796 9.49722 11.9286 9.51822C11.8778 9.53922 11.825 9.55527 11.7711 9.56606C11.7168 9.57685 11.6623 9.5821 11.6071 9.5821C11.552 9.5821 11.4972 9.57685 11.4432 9.56606C11.389 9.55527 11.3365 9.53922 11.2854 9.51822C11.2347 9.49722 11.1863 9.47127 11.1402 9.44064C11.0944 9.41002 11.0518 9.37531 11.013 9.33622C10.9739 9.29714 10.9392 9.25485 10.9083 9.20877C10.8777 9.16297 10.852 9.11456 10.8307 9.06352C10.8097 9.01277 10.7937 8.96027 10.7829 8.90602C10.7721 8.85206 10.7668 8.79722 10.7668 8.7421C10.7668 8.68697 10.7721 8.63243 10.7829 8.57818C10.7937 8.52422 10.8097 8.47172 10.8307 8.42068C10.852 8.36964 10.8777 8.32152 10.9083 8.27543C10.9392 8.22964 10.9739 8.18735 11.013 8.14827C11.0518 8.10918 11.0944 8.07447 11.1402 8.04385C11.1863 8.01322 11.2347 7.98727 11.2854 7.96627C11.3365 7.94497 11.389 7.92922 11.4432 7.91843C11.4972 7.90764 11.552 7.9021 11.6071 7.9021C11.6623 7.9021 11.7168 7.90764 11.7711 7.91843C11.825 7.92922 11.8778 7.94497 11.9286 7.96627C11.9796 7.98727 12.028 8.01322 12.0738 8.04385C12.1199 8.07447 12.1622 8.10918 12.2013 8.14827C12.2403 8.18735 12.2751 8.22964 12.3057 8.27543C12.3363 8.32152 12.3623 8.36964 12.3836 8.42068C12.4046 8.47172 12.4206 8.52422 12.4311 8.57818C12.4419 8.63243 12.4474 8.68697 12.4474 8.7421Z" fill="#111820"/>
<path d="M17.2402 8.7421C17.2402 8.79722 17.2349 8.85206 17.2241 8.90602C17.2133 8.96027 17.1973 9.01277 17.1763 9.06352C17.155 9.11456 17.1293 9.16297 17.0987 9.20877C17.0678 9.25485 17.0331 9.29714 16.994 9.33622C16.9552 9.37531 16.9126 9.41002 16.8668 9.44064C16.8207 9.47127 16.7723 9.49722 16.7216 9.51822C16.6705 9.53922 16.618 9.55527 16.5638 9.56606C16.5098 9.57685 16.455 9.5821 16.3999 9.5821C16.3447 9.5821 16.2902 9.57685 16.2359 9.56606C16.182 9.55527 16.1292 9.53922 16.0784 9.51822C16.0274 9.49722 15.979 9.47127 15.9332 9.44064C15.8871 9.41002 15.8448 9.37531 15.8057 9.33622C15.7667 9.29714 15.7319 9.25485 15.7013 9.20877C15.6707 9.16297 15.6447 9.11456 15.6234 9.06352C15.6024 9.01277 15.5864 8.96027 15.5756 8.90602C15.5651 8.85206 15.5596 8.79722 15.5596 8.7421C15.5596 8.68697 15.5651 8.63243 15.5756 8.57818C15.5864 8.52422 15.6024 8.47172 15.6234 8.42068C15.6447 8.36964 15.6707 8.32152 15.7013 8.27543C15.7319 8.22964 15.7667 8.18735 15.8057 8.14827C15.8448 8.10918 15.8871 8.07447 15.9332 8.04385C15.979 8.01322 16.0274 7.98727 16.0784 7.96627C16.1292 7.94497 16.182 7.92922 16.2359 7.91843C16.2902 7.90764 16.3447 7.9021 16.3999 7.9021C16.455 7.9021 16.5098 7.90764 16.5638 7.91843C16.618 7.92922 16.6705 7.94497 16.7216 7.96627C16.7723 7.98727 16.8207 8.01322 16.8668 8.04385C16.9126 8.07447 16.9552 8.10918 16.994 8.14827C17.0331 8.18735 17.0678 8.22964 17.0987 8.27543C17.1293 8.32152 17.155 8.36964 17.1763 8.42068C17.1973 8.47172 17.2133 8.52422 17.2241 8.57818C17.2349 8.63243 17.2402 8.68697 17.2402 8.7421Z" fill="#111820"/>
<path d="M14.9993 10.7646C14.9993 10.7646 14.6881 11.1688 14.0036 11.1688C13.319 11.1688 13.0075 10.7646 13.0075 10.7646C12.9454 10.7022 12.8521 10.7334 13.0388 11.0446C13.319 11.5734 13.7236 11.6355 14.0036 11.6355C14.2836 11.6355 14.6572 11.5734 14.9684 11.0446C15.1239 10.7646 15.0618 10.7022 14.9993 10.7646Z" fill="#111820"/>
<path d="M8.27718 8.15119C8.0593 7.93332 7.43689 7.40453 6.62751 7.74665C5.63176 8.15119 6.37872 11.5733 7.96597 11.4488C7.99689 10.5779 8.12143 9.48878 8.27718 8.15119Z" fill="#FBDBC0"/>
<path d="M19.7297 8.15119C19.9476 7.93332 20.57 7.40453 21.3794 7.74665C22.3752 8.15119 21.6282 11.5733 20.0409 11.4488C20.01 10.5779 19.8855 9.48878 19.7297 8.15119Z" fill="#FBDBC0"/>
<path d="M14.0035 17.1733C13.4745 17.1733 12.8832 16.9554 12.2917 16.6133V17.8578C12.2917 18.7912 13.0699 19.5687 14.0035 19.5687C14.9372 19.5687 15.7153 18.7912 15.7153 17.8578V16.6133C15.1238 16.9245 14.5326 17.1733 14.0035 17.1733Z" fill="#FBDBC0"/>
<path d="M7.90369 11.7288C6.90794 11.7288 6.25431 10.64 6.03644 9.67549C5.81856 8.74216 5.88098 7.71549 6.56552 7.43549C7.56127 7.03124 8.33944 7.71549 8.55731 7.93337C8.61944 7.99549 8.65065 8.08883 8.65065 8.18216C8.46398 9.52003 8.37065 10.6088 8.37065 11.4179C8.37065 11.5734 8.2461 11.6979 8.09035 11.7288C7.99702 11.7288 7.9349 11.7288 7.90369 11.7288ZM7.18794 7.93337C7.0634 7.93337 6.93885 7.96458 6.7834 8.0267C6.56552 8.12003 6.44098 8.77337 6.62765 9.55124C6.7834 10.2355 7.18794 10.92 7.71702 11.0755C7.74823 10.2979 7.84156 9.36458 7.99702 8.24458C7.77915 8.12003 7.53035 7.93337 7.18794 7.93337Z" fill="#111820"/>
<path d="M14.0035 17.4846C11.7317 17.4846 8.30808 13.6888 7.99687 13.2534C7.34354 12.3822 7.8102 8.80457 8.30808 5.97337C9.05504 1.8667 12.7898 1.8667 14.0035 1.8667C15.2171 1.8667 18.9519 1.8667 19.6988 5.97337C20.1967 8.80457 20.6634 12.3822 20.01 13.2534C19.6988 13.6888 16.2752 17.4846 14.0035 17.4846ZM14.0035 2.48882C12.105 2.48882 9.49079 2.86216 8.9305 6.0667C8.15262 10.4534 8.21475 12.4755 8.49504 12.88C8.9305 13.4712 12.1362 16.8622 14.0035 16.8622C15.8707 16.8622 19.0764 13.4712 19.5119 12.9112C19.8231 12.5067 19.8543 10.5155 19.0764 6.09791C18.5161 2.86216 15.9019 2.48882 14.0035 2.48882Z" fill="#111820"/>
<path d="M20.1035 11.7288C20.0723 11.7288 20.0102 11.7288 19.979 11.7288C19.8232 11.7288 19.699 11.5734 19.699 11.4179C19.699 10.6088 19.6057 9.52003 19.4187 8.18216C19.4187 8.08883 19.4499 7.99549 19.512 7.93337C19.7299 7.71549 20.4769 7.03124 21.5038 7.43549C22.1887 7.71549 22.2508 8.77337 22.0329 9.67549C21.7529 10.6712 21.1305 11.7288 20.1035 11.7288ZM20.0411 8.27549C20.1969 9.39549 20.2902 10.3288 20.3214 11.1067C20.8505 10.9512 21.2238 10.2355 21.4105 9.58216C21.5975 8.77337 21.5038 8.15124 21.255 8.05791C20.6947 7.80883 20.2902 8.05791 20.0411 8.27549Z" fill="#111820"/>
<path d="M18.4849 19.9112C16.7734 18.6667 15.7152 17.8267 15.7152 17.8267C15.7152 18.76 14.937 19.5379 14.0034 19.5379C13.0698 19.5379 12.2916 18.76 12.2916 17.8267C12.2916 17.8267 11.2334 18.6667 9.52193 19.9112C7.77893 21.1555 4.04443 22.4312 4.04443 27.6888H23.9624C23.9624 22.4312 20.2279 21.1555 18.4849 19.9112Z" fill="#FBDBC0"/>
<path d="M14.0035 19.8801C12.8832 19.8801 11.9805 18.9779 11.9805 17.8579V16.0846L12.4474 16.3334C13.0698 16.6755 13.5989 16.8622 14.0035 16.8622C14.408 16.8622 14.9371 16.6755 15.5595 16.3334L16.0265 16.0846V17.8579C16.0265 18.9467 15.1238 19.8801 14.0035 19.8801ZM12.6029 17.1113V17.8579C12.6029 18.6355 13.2253 19.2579 14.0035 19.2579C14.7816 19.2579 15.4041 18.6355 15.4041 17.8579V17.1113C14.875 17.3601 14.408 17.4846 14.0035 17.4846C13.5989 17.4846 13.132 17.3601 12.6029 17.1113Z" fill="#111820"/>
<path d="M14.0034 14.56C12.2607 14.56 11.7316 13.3467 11.7004 13.3154L12.2607 13.0667C12.2607 13.0979 12.6653 13.9379 14.0034 13.9379C15.3416 13.9379 15.7461 13.0667 15.7461 13.0667L16.3064 13.3154C16.2752 13.3467 15.7461 14.56 14.0034 14.56Z" fill="#111820"/>
<path d="M10.1133 5.07116C10.4557 5.50662 10.9536 6.03541 13.5678 6.03541C16.1508 6.03541 17.8314 3.23541 20.5392 6.62662C20.5392 6.62662 19.6989 0.311157 14.0035 0.311157C8.30815 0.311157 9.36632 4.10662 10.1133 5.07116Z" fill="#596C7C"/>
<path d="M20.5392 6.93787C20.4459 6.93787 20.3522 6.90667 20.2901 6.81333C18.6095 4.72879 17.458 5.16454 15.9953 5.75546C15.2484 6.03546 14.4705 6.34667 13.5678 6.34667C10.9224 6.34667 10.2999 5.81787 9.8642 5.28879C9.33541 4.63546 8.89966 3.14212 9.49087 1.92879C9.89541 1.02667 11.0469 0 14.0035 0C19.8856 0 20.8504 6.50212 20.8504 6.56454C20.8813 6.68879 20.788 6.84454 20.6635 6.90667C20.6325 6.90667 20.5701 6.93787 20.5392 6.93787ZM10.3624 4.88454C10.6112 5.22667 11.016 5.72454 13.5678 5.72454C14.3459 5.72454 15.0617 5.44454 15.7462 5.16454C17.0535 4.66667 18.3605 4.13788 19.9477 5.56879C19.4498 3.79546 17.9559 0.622125 14.0035 0.622125C11.9184 0.622125 10.549 1.15121 10.0512 2.17787C9.55299 3.20454 10.0199 4.44879 10.3624 4.88454Z" fill="#111820"/>
<path d="M14.0034 20.8755C15.3728 20.8755 16.4931 19.9112 16.7421 18.6355C16.0885 18.1379 15.7152 17.8579 15.7152 17.8579C15.7152 18.7912 14.937 19.5688 14.0034 19.5688C13.0698 19.5688 12.2916 18.7912 12.2916 17.8579C12.2916 17.8579 11.9183 18.1379 11.2646 18.6355C11.5137 19.9112 12.634 20.8755 14.0034 20.8755Z" fill="#EA4356"/>
<path d="M14.0034 21.1867C12.5095 21.1867 11.2334 20.1288 10.9534 18.6979C10.9222 18.5733 10.9846 18.4488 11.078 18.3867C11.7316 17.92 12.0737 17.6088 12.1049 17.6088C12.1983 17.5467 12.3228 17.5154 12.4473 17.5779C12.5407 17.64 12.634 17.7333 12.634 17.8579C12.634 18.6354 13.2564 19.2579 14.0346 19.2579C14.8125 19.2579 15.4349 18.6354 15.4349 17.8579C15.4349 17.7333 15.5282 17.6088 15.6528 17.5779C15.7461 17.5467 15.8706 17.5779 15.9331 17.64C15.964 17.6712 16.3376 17.9512 16.9288 18.4179C17.0221 18.48 17.0846 18.6045 17.0533 18.7288C16.7733 20.1288 15.4973 21.1867 14.0034 21.1867ZM11.6071 18.76C11.9183 19.8179 12.8831 20.5645 14.0034 20.5645C15.1237 20.5645 16.0885 19.8179 16.3997 18.76C16.2443 18.6354 16.0885 18.5421 15.964 18.4179C15.7152 19.2579 14.937 19.88 14.0034 19.88C13.0698 19.88 12.2916 19.2579 12.0428 18.4179C11.9183 18.5112 11.7937 18.6045 11.6071 18.76Z" fill="#111820"/>
<path d="M23.2156 26.7554C23.1844 26.1333 22.9977 25.2312 23.6201 25.1066C23.558 24.92 23.4956 24.7645 23.4335 24.6088C23.4023 24.6088 22.4377 24.7954 22.6553 25.7912C22.8732 26.8178 22.4377 27.2221 22.0329 27.0045C21.6283 26.7866 21.3171 26.88 21.3171 27.6888H22.4998C22.8732 27.44 23.2156 27.0978 23.2156 26.7554Z" fill="#00A79D"/>
<path d="M21.7216 24.8579C21.9085 25.6045 22.3131 26.2267 21.6906 26.1645C21.0682 26.1021 20.8191 26.04 20.5391 26.4445C20.3834 26.6621 20.3213 27.3779 20.3522 27.6579H20.8191C20.8191 26.8488 21.1304 26.3821 21.5349 26.6C21.9394 26.8179 22.3752 26.3821 22.1573 25.3867C21.9394 24.3912 23.1843 24.1112 23.1843 24.1112C23.1534 23.9554 23.0288 23.8 22.9355 23.6445C22.9355 23.6445 21.5349 24.1421 21.7216 24.8579Z" fill="#00A79D"/>
<path d="M19.8542 25.2621H20.4767V27.6888H19.8542V25.2621Z" fill="#111820"/>
<path d="M4.7915 26.7554C4.82271 26.1333 5.00938 25.2312 4.38696 25.1066C4.44909 24.92 4.5115 24.7645 4.57363 24.6088C4.60484 24.6088 5.56938 24.7954 5.3518 25.7912C5.13392 26.8178 5.56938 27.2221 5.97421 27.0045C6.37875 26.7866 6.68996 26.88 6.68996 27.6888H5.50725C5.13392 27.44 4.7915 27.0978 4.7915 26.7554Z" fill="#00A79D"/>
<path d="M6.28546 24.8578C6.0985 25.6045 5.69396 26.2266 6.31638 26.1645C6.9388 26.1021 7.18788 26.0399 7.46788 26.4445C7.62363 26.6621 7.68575 27.3778 7.65484 27.6578H7.18788C7.18788 26.8487 6.87667 26.3821 6.47213 26.5999C6.06759 26.8178 5.63184 26.3821 5.84971 25.3866C6.06759 24.3912 4.82275 24.1112 4.82275 24.1112C4.88488 23.9554 5.00942 23.7687 5.07155 23.6133C5.07155 23.6445 6.47213 24.1421 6.28546 24.8578Z" fill="#00A79D"/>
<mask id="mask0_162_2807" style="mask-type:luminance" maskUnits="userSpaceOnUse" x="3" y="17" width="22" height="11">
<path d="M3.7334 17.1733H24.2796V28H3.7334V17.1733Z" fill="white"/>
</mask>
<g mask="url(#mask0_162_2807)">
<path d="M24.2737 28H3.7334V27.6888C3.7334 23.0846 6.53427 21.3734 8.40152 20.2534C8.74394 20.0355 9.05515 19.8488 9.33544 19.6622C11.016 18.4488 12.0739 17.6088 12.1051 17.6088L12.603 17.2046V17.8579C12.603 18.6355 13.2254 19.2579 14.0036 19.2579C14.7817 19.2579 15.4041 18.6355 15.4041 17.8579V17.2046L15.902 17.6088C15.902 17.6088 16.9602 18.4488 18.6717 19.6622C18.9208 19.8488 19.2632 20.0355 19.6056 20.2534C21.4729 21.3734 24.2737 23.0846 24.2737 27.6888V28ZM4.35582 27.3779H23.6513C23.5268 23.3646 21.0992 21.8713 19.2944 20.7822C18.952 20.5646 18.6096 20.3779 18.3296 20.16C17.2402 19.3822 16.4311 18.76 15.9641 18.4179C15.7154 19.2579 14.9372 19.88 14.0036 19.88C13.0699 19.88 12.2918 19.2579 12.043 18.4179C11.576 18.76 10.7669 19.4134 9.67757 20.16C9.39757 20.3779 9.05515 20.5646 8.71273 20.7822C6.9079 21.8713 4.48036 23.3646 4.35582 27.3779Z" fill="#111820"/>
</g>
<path d="M7.53027 25.2621H8.15269V27.6888H7.53027V25.2621Z" fill="#111820"/>
<path d="M20.788 10.3912C20.788 10.4034 20.7857 10.4154 20.781 10.4268C20.7763 10.4381 20.7693 10.4484 20.7606 10.4571C20.7518 10.4659 20.7419 10.4726 20.7305 10.4772C20.7189 10.4822 20.7072 10.4845 20.6947 10.4845C20.6824 10.4845 20.6704 10.4822 20.6591 10.4772C20.6474 10.4726 20.6375 10.4659 20.6287 10.4571C20.62 10.4484 20.6133 10.4381 20.6083 10.4268C20.6037 10.4154 20.6013 10.4034 20.6013 10.3912C20.6013 10.3786 20.6037 10.3667 20.6083 10.3553C20.6133 10.3439 20.62 10.3337 20.6287 10.325C20.6375 10.3162 20.6474 10.3095 20.6591 10.3049C20.6704 10.3002 20.6824 10.2979 20.6947 10.2979C20.7072 10.2979 20.7189 10.3002 20.7305 10.3049C20.7419 10.3095 20.7518 10.3162 20.7606 10.325C20.7693 10.3337 20.7763 10.3439 20.781 10.3553C20.7857 10.3667 20.788 10.3786 20.788 10.3912Z" fill="#111820"/>
<path d="M21.037 9.86213C21.037 9.87467 21.0347 9.88663 21.0297 9.89801C21.0251 9.90938 21.0183 9.91959 21.0096 9.92834C21.0008 9.93709 20.9906 9.9438 20.9793 9.94847C20.9679 9.95313 20.9559 9.95547 20.9437 9.95547C20.9311 9.95547 20.9192 9.95313 20.9078 9.94847C20.8964 9.9438 20.8862 9.93709 20.8775 9.92834C20.8687 9.91959 20.862 9.90938 20.8573 9.89801C20.8527 9.88663 20.8503 9.87467 20.8503 9.86213C20.8503 9.84988 20.8527 9.83792 20.8573 9.82655C20.862 9.81517 20.8687 9.80497 20.8775 9.79622C20.8862 9.78747 20.8964 9.78076 20.9078 9.77609C20.9192 9.77113 20.9311 9.7688 20.9437 9.7688C20.9559 9.7688 20.9679 9.77113 20.9793 9.77609C20.9906 9.78076 21.0008 9.78747 21.0096 9.79622C21.0183 9.80497 21.0251 9.81517 21.0297 9.82655C21.0347 9.83792 21.037 9.84988 21.037 9.86213Z" fill="#111820"/>
</g>
<defs>
<clipPath id="clip0_162_2807">
<rect width="28" height="28" fill="white"/>
</clipPath>
</defs>
</svg>
