<svg width="28" height="28" viewBox="0 0 28 28" fill="none" xmlns="http://www.w3.org/2000/svg">
<g clip-path="url(#clip0_162_2808)">
<path d="M18.4849 19.9112C16.7734 18.6667 15.8085 17.92 15.7152 17.8267V16.5822C15.0928 16.9246 14.5013 17.1422 14.0034 17.1422C13.4743 17.1422 12.8831 16.9246 12.2916 16.5822V17.8267C12.2916 17.8267 11.2334 18.6667 9.52193 19.9112C7.77893 21.1555 4.04443 22.4312 4.04443 27.6888H23.9624C23.9624 22.4312 20.2279 21.1555 18.4849 19.9112Z" fill="#FBDBC0"/>
<mask id="mask0_162_2808" style="mask-type:luminance" maskUnits="userSpaceOnUse" x="3" y="16" width="22" height="12">
<path d="M3.7334 16.0533H24.2796V28H3.7334V16.0533Z" fill="white"/>
</mask>
<g mask="url(#mask0_162_2808)">
<path d="M24.2737 28.0001H3.7334V27.6888C3.7334 23.0846 6.53427 21.3734 8.40152 20.2534C8.74394 20.0355 9.05515 19.8488 9.33544 19.6622C10.7045 18.6667 11.6694 17.9513 11.9806 17.7022V16.0846L12.4475 16.3334C13.0699 16.6755 13.599 16.8622 14.0036 16.8622C14.4081 16.8622 14.9372 16.6755 15.5596 16.3334L16.0266 16.0846V17.7022C16.4311 18.0134 17.3026 18.6979 18.6717 19.6622C18.9208 19.8488 19.2632 20.0355 19.6056 20.2534C21.4729 21.3734 24.2737 23.0846 24.2737 27.6888V28.0001ZM4.35582 27.3779H23.6513C23.5268 23.3646 21.0992 21.8713 19.2944 20.7822C18.952 20.5646 18.6096 20.3779 18.3296 20.1601C16.8044 19.1022 15.8708 18.3555 15.5596 18.1067L15.4351 18.0134V17.1113C14.906 17.3601 14.4393 17.4846 14.0348 17.4846C13.6302 17.4846 13.1633 17.3601 12.6342 17.1113V17.9822L12.5096 18.0755C12.5096 18.0755 11.4206 18.9467 9.73998 20.1601C9.45969 20.3779 9.11757 20.5646 8.77515 20.7822C6.9079 21.8713 4.48036 23.3646 4.35582 27.3779Z" fill="#111820"/>
</g>
<path d="M20.29 27.6888C20.29 27.6888 20.29 27.44 20.29 26.3512C20.29 24.7021 18.9518 23.1779 15.2482 22.3067C12.914 21.7467 11.2334 20.5645 10.2065 19.4133C9.9886 19.5688 9.77073 19.7245 9.52193 19.9112C7.77893 21.1555 4.04443 22.4312 4.04443 27.6888H20.29Z" fill="#F6F087"/>
<path d="M20.6014 28H3.7334V27.6888C3.7334 23.0845 6.53427 21.3733 8.40152 20.2533C8.74394 20.0355 9.05515 19.8488 9.33544 19.6621C9.58423 19.4755 9.80211 19.32 10.02 19.1645L10.2379 19.0088L10.4245 19.2267C11.1094 20.0045 12.6654 21.3733 15.3108 22.0267C19.6677 23.0845 20.5702 24.9821 20.5702 26.3821V28H20.6014ZM4.35582 27.3779H19.9789V26.3512C19.9789 24.64 18.3296 23.3645 15.1863 22.6179C13.1945 22.1512 11.4515 21.1555 10.1757 19.8488C10.02 19.9421 9.86423 20.0667 9.70877 20.1912C9.42877 20.4088 9.08636 20.5955 8.74394 20.8133C6.9079 21.8712 4.48036 23.3645 4.35582 27.3779Z" fill="#111820"/>
<path d="M19.3876 6.03544C18.734 2.42665 15.6528 2.17786 14.0034 2.17786C12.354 2.17786 9.27287 2.42665 8.61925 6.03544C7.96591 9.83119 7.81016 12.4445 8.24591 13.0666C8.71258 13.6888 11.9804 17.1733 14.0034 17.1733C16.0264 17.1733 19.2942 13.6888 19.7609 13.0666C20.1967 12.4445 20.0409 9.83119 19.3876 6.03544Z" fill="#FBDBC0"/>
<path d="M12.4474 8.7421C12.4474 8.79722 12.4419 8.85206 12.4311 8.90602C12.4206 8.96027 12.4046 9.01277 12.3836 9.06352C12.3623 9.11456 12.3363 9.16297 12.3057 9.20877C12.2751 9.25485 12.2403 9.29714 12.2013 9.33622C12.1622 9.37531 12.1199 9.41002 12.0738 9.44064C12.028 9.47127 11.9796 9.49722 11.9286 9.51822C11.8778 9.53922 11.825 9.55527 11.7711 9.56606C11.7168 9.57685 11.6623 9.5821 11.6071 9.5821C11.552 9.5821 11.4972 9.57685 11.4432 9.56606C11.389 9.55527 11.3365 9.53922 11.2854 9.51822C11.2347 9.49722 11.1863 9.47127 11.1402 9.44064C11.0944 9.41002 11.0518 9.37531 11.013 9.33622C10.9739 9.29714 10.9392 9.25485 10.9083 9.20877C10.8777 9.16297 10.852 9.11456 10.8307 9.06352C10.8097 9.01277 10.7937 8.96027 10.7829 8.90602C10.7721 8.85206 10.7668 8.79722 10.7668 8.7421C10.7668 8.68697 10.7721 8.63243 10.7829 8.57818C10.7937 8.52422 10.8097 8.47172 10.8307 8.42068C10.852 8.36964 10.8777 8.32152 10.9083 8.27543C10.9392 8.22964 10.9739 8.18735 11.013 8.14827C11.0518 8.10918 11.0944 8.07447 11.1402 8.04385C11.1863 8.01322 11.2347 7.98727 11.2854 7.96627C11.3365 7.94497 11.389 7.92922 11.4432 7.91843C11.4972 7.90764 11.552 7.9021 11.6071 7.9021C11.6623 7.9021 11.7168 7.90764 11.7711 7.91843C11.825 7.92922 11.8778 7.94497 11.9286 7.96627C11.9796 7.98727 12.028 8.01322 12.0738 8.04385C12.1199 8.07447 12.1622 8.10918 12.2013 8.14827C12.2403 8.18735 12.2751 8.22964 12.3057 8.27543C12.3363 8.32152 12.3623 8.36964 12.3836 8.42068C12.4046 8.47172 12.4206 8.52422 12.4311 8.57818C12.4419 8.63243 12.4474 8.68697 12.4474 8.7421Z" fill="#111820"/>
<path d="M17.2402 8.7421C17.2402 8.79722 17.2349 8.85206 17.2241 8.90602C17.2133 8.96027 17.1973 9.01277 17.1763 9.06352C17.155 9.11456 17.1293 9.16297 17.0987 9.20877C17.0678 9.25485 17.0331 9.29714 16.994 9.33622C16.9552 9.37531 16.9126 9.41002 16.8668 9.44064C16.8207 9.47127 16.7723 9.49722 16.7216 9.51822C16.6705 9.53922 16.618 9.55527 16.5638 9.56606C16.5098 9.57685 16.455 9.5821 16.3999 9.5821C16.3447 9.5821 16.2902 9.57685 16.2359 9.56606C16.182 9.55527 16.1292 9.53922 16.0784 9.51822C16.0274 9.49722 15.979 9.47127 15.9332 9.44064C15.8871 9.41002 15.8448 9.37531 15.8057 9.33622C15.7667 9.29714 15.7319 9.25485 15.7013 9.20877C15.6707 9.16297 15.6447 9.11456 15.6234 9.06352C15.6024 9.01277 15.5864 8.96027 15.5756 8.90602C15.5651 8.85206 15.5596 8.79722 15.5596 8.7421C15.5596 8.68697 15.5651 8.63243 15.5756 8.57818C15.5864 8.52422 15.6024 8.47172 15.6234 8.42068C15.6447 8.36964 15.6707 8.32152 15.7013 8.27543C15.7319 8.22964 15.7667 8.18735 15.8057 8.14827C15.8448 8.10918 15.8871 8.07447 15.9332 8.04385C15.979 8.01322 16.0274 7.98727 16.0784 7.96627C16.1292 7.94497 16.182 7.92922 16.2359 7.91843C16.2902 7.90764 16.3447 7.9021 16.3999 7.9021C16.455 7.9021 16.5098 7.90764 16.5638 7.91843C16.618 7.92922 16.6705 7.94497 16.7216 7.96627C16.7723 7.98727 16.8207 8.01322 16.8668 8.04385C16.9126 8.07447 16.9552 8.10918 16.994 8.14827C17.0331 8.18735 17.0678 8.22964 17.0987 8.27543C17.1293 8.32152 17.155 8.36964 17.1763 8.42068C17.1973 8.47172 17.2133 8.52422 17.2241 8.57818C17.2349 8.63243 17.2402 8.68697 17.2402 8.7421Z" fill="#111820"/>
<path d="M14.7192 10.8888C14.7192 10.8888 14.5014 11.1688 14.0035 11.1688C13.5056 11.1688 13.2877 10.8888 13.2877 10.8888C13.2565 10.8267 13.1944 10.8579 13.3189 11.1067C13.5365 11.48 13.8168 11.5113 14.0035 11.5113C14.1902 11.5113 14.4704 11.48 14.688 11.1067C14.8126 10.8888 14.7504 10.8579 14.7192 10.8888Z" fill="#111820"/>
<path d="M8.27718 8.15119C8.0593 7.93332 7.43689 7.40453 6.62751 7.74665C5.63176 8.15119 6.37872 11.5733 7.96597 11.4488C7.99689 10.5779 8.12143 9.48878 8.27718 8.15119Z" fill="#FBDBC0"/>
<path d="M19.7297 8.15119C19.9476 7.93332 20.57 7.40453 21.3794 7.74665C22.3752 8.15119 21.6282 11.5733 20.0409 11.4488C20.01 10.5779 19.8855 9.48878 19.7297 8.15119Z" fill="#FBDBC0"/>
<path d="M7.90369 11.7288C6.90794 11.7288 6.25431 10.64 6.03644 9.67549C5.81856 8.74216 5.88098 7.71549 6.56552 7.43549C7.56127 7.03124 8.33944 7.71549 8.55731 7.93337C8.61944 7.99549 8.65065 8.08883 8.65065 8.18216C8.46398 9.52003 8.37065 10.6088 8.37065 11.4179C8.37065 11.5734 8.2461 11.6979 8.09035 11.7288C7.99702 11.7288 7.9349 11.7288 7.90369 11.7288ZM7.18794 7.93337C7.0634 7.93337 6.93885 7.96458 6.7834 8.0267C6.56552 8.12003 6.44098 8.77337 6.62765 9.55124C6.7834 10.2355 7.18794 10.92 7.71702 11.0755C7.74823 10.2979 7.84156 9.36458 7.99702 8.24458C7.77915 8.12003 7.53035 7.93337 7.18794 7.93337Z" fill="#111820"/>
<path d="M14.0035 17.4846C11.7317 17.4846 8.30808 13.6888 7.99687 13.2534C7.34354 12.3822 7.8102 8.80457 8.30808 5.97337C9.05504 1.8667 12.7898 1.8667 14.0035 1.8667C15.2171 1.8667 18.9519 1.8667 19.6988 5.97337C20.1967 8.80457 20.6634 12.3822 20.01 13.2534C19.6988 13.6888 16.2752 17.4846 14.0035 17.4846ZM14.0035 2.48882C12.105 2.48882 9.49079 2.86216 8.9305 6.0667C8.15262 10.4534 8.21475 12.4755 8.49504 12.88C8.9305 13.4712 12.1362 16.8622 14.0035 16.8622C15.8707 16.8622 19.0764 13.4712 19.5119 12.9112C19.8231 12.5067 19.8543 10.5155 19.0764 6.09791C18.5161 2.86216 15.9019 2.48882 14.0035 2.48882Z" fill="#111820"/>
<path d="M20.1035 11.7288C20.0723 11.7288 20.0102 11.7288 19.979 11.7288C19.8232 11.7288 19.699 11.5734 19.699 11.4179C19.699 10.6088 19.6057 9.52003 19.4187 8.18216C19.4187 8.08883 19.4499 7.99549 19.512 7.93337C19.7299 7.71549 20.4769 7.03124 21.5038 7.43549C22.1887 7.71549 22.2508 8.77337 22.0329 9.67549C21.7529 10.6712 21.1305 11.7288 20.1035 11.7288ZM20.0411 8.27549C20.1969 9.39549 20.2902 10.3288 20.3214 11.1067C20.8505 10.9512 21.2238 10.2355 21.4105 9.58216C21.5975 8.77337 21.5038 8.15124 21.255 8.05791C20.6947 7.80883 20.2902 8.05791 20.0411 8.27549Z" fill="#111820"/>
<path d="M14.0034 14.56C12.2607 14.56 11.7316 13.3467 11.7004 13.3154L12.2607 13.0667C12.2607 13.0979 12.6653 13.9379 14.0034 13.9379C15.3416 13.9379 15.7461 13.0667 15.7461 13.0667L16.3064 13.3154C16.2752 13.3467 15.7461 14.56 14.0034 14.56Z" fill="#111820"/>
<path d="M8.02818 27.6888H7.40576V26.3513C7.40576 25.4801 8.12151 24.3288 8.15272 24.2667L8.6818 24.5779C8.49514 24.8579 8.02818 25.7601 8.02818 26.3513V27.6888Z" fill="#111820"/>
<path d="M14.0035 0.311157C8.93058 0.311157 7.09454 2.17782 7.25 6.15995C7.2812 6.62662 7.2812 7.12449 7.2812 7.62207C7.77908 7.65328 8.1215 7.96449 8.27725 8.15116C8.27725 8.18207 8.30816 8.15116 8.27725 8.15116C8.27725 8.15116 9.77087 6.15995 9.98875 4.66662C9.98875 4.66662 14.875 8.21328 19.6989 8.15116C19.8544 7.99541 20.228 7.68449 20.6947 7.62207C20.6947 7.12449 20.6947 6.62662 20.7259 6.15995C20.9125 2.17782 19.0765 0.311157 14.0035 0.311157Z" fill="#F8BF3F"/>
<path d="M20.7569 11.2C20.5391 11.3554 20.29 11.4487 20.01 11.4178C20.01 12.2578 19.9476 12.8178 19.7609 13.0666C19.4185 13.5333 17.52 15.5866 15.7461 16.5821V17.4533C15.7461 17.4533 19.2318 19.6621 21.0369 16.5821C21.6906 15.4312 20.8503 14.0621 20.7569 11.2Z" fill="#F8BF3F"/>
<path d="M8.24595 13.0666C8.05928 12.8178 7.96595 12.2578 7.99686 11.4178C7.71686 11.4487 7.46778 11.3554 7.24991 11.2C7.15657 14.0621 6.31628 15.4312 7.00111 16.5821C8.80624 19.6621 12.2917 17.4533 12.2917 17.4533V16.5821C10.4868 15.5866 8.58836 13.5333 8.24595 13.0666Z" fill="#F8BF3F"/>
<path d="M8.30824 8.49333C8.27732 8.49333 8.27732 8.49333 8.24611 8.49333C8.15278 8.46213 8.05945 8.43121 8.02824 8.33788C7.9037 8.21333 7.6237 7.99546 7.25007 7.96454C7.09461 7.96454 6.97007 7.80879 6.97007 7.65333C6.97007 7.12454 6.97007 6.62667 6.93886 6.19121C6.84553 4.16879 7.28128 2.70667 8.24611 1.71121C9.3664 0.56 11.2027 0 14.0036 0C16.8045 0 18.6408 0.56 19.7611 1.71121C20.7259 2.70667 21.1305 4.16879 21.0684 6.19121C21.0372 6.62667 21.0372 7.12454 21.0372 7.65333C21.0372 7.80879 20.9126 7.93333 20.7572 7.96454C20.3523 7.99546 20.0723 8.27546 19.9478 8.4C19.8857 8.46213 19.8232 8.49333 19.7299 8.49333C19.699 8.49333 19.6366 8.49333 19.6057 8.49333C15.4975 8.49333 11.4827 6.03546 10.2067 5.22667C9.86428 6.47121 8.93065 7.84 8.61945 8.27546C8.58853 8.36879 8.43278 8.49333 8.30824 8.49333ZM10.02 4.35546C10.0822 4.35546 10.1446 4.38667 10.2067 4.41788C10.2691 4.44879 14.9994 7.84 19.6057 7.84C19.7923 7.68454 20.0723 7.46667 20.4459 7.37333C20.4459 6.93788 20.4769 6.53333 20.4769 6.16C20.5393 4.32454 20.1657 3.01788 19.3566 2.14667C18.3296 1.12 16.5866 0.622125 14.0036 0.622125C11.4206 0.622125 9.67761 1.12 8.68186 2.14667C7.84157 3.01788 7.46795 4.32454 7.56128 6.16C7.56128 6.53333 7.59249 6.93788 7.59249 7.37333C7.84157 7.43546 8.05945 7.56 8.24611 7.68454C8.65065 7.09333 9.55307 5.69333 9.70882 4.60454C9.74003 4.51121 9.80215 4.41788 9.89549 4.35546C9.9267 4.35546 9.9579 4.35546 10.02 4.35546Z" fill="#111820"/>
<path d="M18.2983 18.5421C16.8668 18.5421 15.6219 17.7645 15.5595 17.7333C15.4662 17.6712 15.4041 17.5778 15.4041 17.4845V16.6133C15.4041 16.4887 15.4662 16.3954 15.5595 16.3333C17.2401 15.3687 19.1073 13.4087 19.481 12.9112C19.5431 12.8178 19.6988 12.5066 19.6676 11.4487C19.6676 11.3554 19.6988 11.2621 19.761 11.2312C19.8231 11.1687 19.9167 11.1378 20.0101 11.1378C20.1967 11.1687 20.3834 11.1066 20.5701 10.9821C20.6634 10.9199 20.7879 10.8887 20.8813 10.9512C20.9746 11.0133 21.037 11.1066 21.0682 11.2312C21.0991 12.3821 21.2549 13.2845 21.3794 14.0312C21.5661 15.1821 21.7216 15.9912 21.2549 16.7999C20.7258 17.7021 20.0101 18.2933 19.1073 18.5112C18.8586 18.5112 18.5783 18.5421 18.2983 18.5421ZM16.0265 17.2978C16.4622 17.5466 17.738 18.1378 18.9828 17.8578C19.6988 17.6712 20.2901 17.2045 20.7258 16.4578C21.0682 15.8666 20.9437 15.1821 20.757 14.1245C20.6325 13.4712 20.5079 12.6933 20.4458 11.7287C20.3834 11.7287 20.3522 11.7599 20.2901 11.7599C20.2901 12.5378 20.1655 13.0045 19.9788 13.2845C19.6676 13.7199 17.8313 15.7112 16.0265 16.7999V17.2978Z" fill="#111820"/>
<path d="M9.70878 18.5421C9.42878 18.5421 9.14849 18.5112 8.86849 18.4488C7.96607 18.2312 7.25003 17.6712 6.72095 16.7379C6.25428 15.96 6.40974 15.12 6.5967 13.9688C6.72095 13.2221 6.8767 12.32 6.90791 11.1688C6.90791 11.0445 6.97003 10.9512 7.09457 10.8888C7.18791 10.8267 7.31245 10.8579 7.40578 10.92C7.59245 11.0445 7.7482 11.1067 7.93486 11.0755C7.96607 11.0755 7.96607 11.0755 7.99699 11.0755C8.18395 11.0755 8.3082 11.2 8.3082 11.3867C8.3082 12.4445 8.43274 12.7555 8.49516 12.8488C8.86849 13.3467 10.7357 15.3379 12.4163 16.2712C12.5097 16.3333 12.5721 16.4267 12.5721 16.5512V17.4221C12.5721 17.5155 12.5097 17.64 12.4163 17.6712C12.3851 17.7645 11.1403 18.5421 9.70878 18.5421ZM7.53032 11.6979C7.46791 12.6621 7.34366 13.44 7.21911 14.0933C7.03245 15.1512 6.90791 15.8355 7.25003 16.4267C7.68578 17.1733 8.27728 17.6712 9.02424 17.8267C10.2379 18.1379 11.5448 17.5155 11.9806 17.2667V16.7379C10.1757 15.6488 8.33941 13.6579 8.0282 13.2221C7.84153 12.9421 7.71699 12.4445 7.71699 11.6979C7.62366 11.7288 7.59245 11.6979 7.53032 11.6979Z" fill="#111820"/>
</g>
<defs>
<clipPath id="clip0_162_2808">
<rect width="28" height="28" fill="white"/>
</clipPath>
</defs>
</svg>
