<svg width="28" height="28" viewBox="0 0 28 28" fill="none" xmlns="http://www.w3.org/2000/svg">
<g clip-path="url(#clip0_162_2810)">
<path d="M7.6236 21.0933C8.33935 20.6266 8.99298 20.2533 9.49085 19.9112C11.2026 18.6666 12.2608 17.8266 12.2608 17.8266C12.2608 18.76 13.0387 19.5378 13.9723 19.5378C14.9059 19.5378 15.6841 18.76 15.6841 17.8266C15.6841 17.8266 16.7423 18.6666 18.4541 19.9112C18.7029 20.0978 18.9829 20.2845 19.3253 20.4712C20.1656 17.1112 22.7489 14.28 22.7489 8.77328C22.811 1.67995 17.9871 0.311157 14.0035 0.311157C10.8914 0.311157 10.1757 1.64874 10.1757 1.64874C8.40148 1.64874 6.72089 1.55541 5.56939 4.79116C4.41789 8.02662 5.75635 9.95541 6.93877 14.9333C7.65481 17.8578 7.71693 19.9112 7.6236 21.0933Z" fill="#F8BF3F"/>
<path d="M19.7299 8.15126C18.7029 6.31551 18.3605 6.81338 15.0305 6.68884C11.7006 6.56459 11.2027 5.10217 11.2027 5.10217C10.4558 5.91126 10.4558 5.78671 9.36638 6.47126C8.46397 7.06217 8.18397 9.14671 8.09034 9.83126C7.93488 11.5422 7.96609 12.6622 8.24609 13.0667C8.71276 13.6888 11.9806 17.1734 14.0036 17.1734C16.0266 17.1734 19.2944 13.6888 19.7611 13.0667C20.1035 12.5688 20.0723 10.7955 19.7299 8.15126Z" fill="#FBDBC0"/>
<path d="M7.62358 21.4045C7.56116 21.4045 7.53024 21.4045 7.46783 21.3733C7.37449 21.3112 7.31237 21.2179 7.31237 21.0933C7.37449 19.9112 7.31237 17.8888 6.62753 15.0267C6.31633 13.7512 6.00512 12.6621 5.72512 11.6979C4.94695 8.96 4.41787 7.15546 5.32058 4.66667C6.47208 1.30667 8.2772 1.30667 10.0199 1.30667C10.3311 0.933333 11.3581 0 14.0035 0C19.9477 0 23.1222 3.01788 23.1222 8.74213C23.1222 12.4133 21.9707 14.9333 20.9746 17.1421C20.4458 18.2933 19.9477 19.3821 19.6677 20.5021C19.6365 20.5955 19.5743 20.6888 19.481 20.72C19.3877 20.7512 19.2943 20.7512 19.2007 20.6888C18.8586 20.5021 18.5783 20.3155 18.3295 20.1288C17.2713 19.3821 16.431 18.76 15.9641 18.3867C15.7153 19.2267 14.9371 19.8488 14.0035 19.8488C13.0699 19.8488 12.2917 19.2267 12.0429 18.3867C11.576 18.7288 10.7669 19.3821 9.67749 20.1288C9.39749 20.3467 9.05508 20.5333 8.71266 20.7512C8.43266 20.9379 8.12145 21.1245 7.81024 21.3112C7.74812 21.4045 7.6857 21.4045 7.62358 21.4045ZM9.86416 1.92879C8.2772 1.92879 6.87662 2.02213 5.88087 4.85333C5.07149 7.15546 5.53845 8.77333 6.31633 11.48C6.59662 12.4445 6.90783 13.5333 7.21903 14.84C7.81024 17.36 7.96599 19.2267 7.93478 20.5021C8.09024 20.4088 8.21478 20.3155 8.37053 20.2533C8.71266 20.0355 9.05508 19.8488 9.30416 19.6621C10.9847 18.4488 12.0429 17.6088 12.0738 17.6088C12.1675 17.5467 12.2917 17.5155 12.4162 17.5779C12.5096 17.64 12.6029 17.7333 12.6029 17.8579C12.6029 18.6355 13.2253 19.2579 14.0035 19.2579C14.7817 19.2579 15.4041 18.6355 15.4041 17.8579C15.4041 17.7333 15.4662 17.6088 15.5907 17.5779C15.6841 17.5467 15.8086 17.5467 15.902 17.6088C15.9332 17.64 16.991 18.48 18.6716 19.6621C18.8274 19.7555 18.9828 19.88 19.1698 19.9733C19.481 18.9467 19.9167 17.9512 20.3834 16.8933C21.3795 14.7467 22.4685 12.2888 22.4685 8.74213C22.4997 3.36 19.6365 0.622125 14.0035 0.622125C11.1714 0.622125 10.4557 1.77333 10.4557 1.77333C10.3932 1.86667 10.2999 1.92879 10.1757 1.92879H10.0199C9.9887 1.92879 9.92658 1.92879 9.86416 1.92879Z" fill="#111820"/>
<path d="M12.4474 8.7421C12.4474 8.79722 12.4419 8.85206 12.4311 8.90602C12.4206 8.96027 12.4046 9.01277 12.3836 9.06352C12.3623 9.11456 12.3363 9.16297 12.3057 9.20877C12.2751 9.25485 12.2403 9.29714 12.2013 9.33622C12.1622 9.37531 12.1199 9.41002 12.0738 9.44064C12.028 9.47127 11.9796 9.49722 11.9286 9.51822C11.8778 9.53922 11.825 9.55527 11.7711 9.56606C11.7168 9.57685 11.6623 9.5821 11.6071 9.5821C11.552 9.5821 11.4972 9.57685 11.4432 9.56606C11.389 9.55527 11.3365 9.53922 11.2854 9.51822C11.2347 9.49722 11.1863 9.47127 11.1402 9.44064C11.0944 9.41002 11.0518 9.37531 11.013 9.33622C10.9739 9.29714 10.9392 9.25485 10.9083 9.20877C10.8777 9.16297 10.852 9.11456 10.8307 9.06352C10.8097 9.01277 10.7937 8.96027 10.7829 8.90602C10.7721 8.85206 10.7668 8.79722 10.7668 8.7421C10.7668 8.68697 10.7721 8.63243 10.7829 8.57818C10.7937 8.52422 10.8097 8.47172 10.8307 8.42068C10.852 8.36964 10.8777 8.32152 10.9083 8.27543C10.9392 8.22964 10.9739 8.18735 11.013 8.14827C11.0518 8.10918 11.0944 8.07447 11.1402 8.04385C11.1863 8.01322 11.2347 7.98727 11.2854 7.96627C11.3365 7.94497 11.389 7.92922 11.4432 7.91843C11.4972 7.90764 11.552 7.9021 11.6071 7.9021C11.6623 7.9021 11.7168 7.90764 11.7711 7.91843C11.825 7.92922 11.8778 7.94497 11.9286 7.96627C11.9796 7.98727 12.028 8.01322 12.0738 8.04385C12.1199 8.07447 12.1622 8.10918 12.2013 8.14827C12.2403 8.18735 12.2751 8.22964 12.3057 8.27543C12.3363 8.32152 12.3623 8.36964 12.3836 8.42068C12.4046 8.47172 12.4206 8.52422 12.4311 8.57818C12.4419 8.63243 12.4474 8.68697 12.4474 8.7421Z" fill="#111820"/>
<path d="M17.2402 8.7421C17.2402 8.79722 17.2349 8.85206 17.2241 8.90602C17.2133 8.96027 17.1973 9.01277 17.1763 9.06352C17.155 9.11456 17.1293 9.16297 17.0987 9.20877C17.0678 9.25485 17.0331 9.29714 16.994 9.33622C16.9552 9.37531 16.9126 9.41002 16.8668 9.44064C16.8207 9.47127 16.7723 9.49722 16.7216 9.51822C16.6705 9.53922 16.618 9.55527 16.5638 9.56606C16.5098 9.57685 16.455 9.5821 16.3999 9.5821C16.3447 9.5821 16.2902 9.57685 16.2359 9.56606C16.182 9.55527 16.1292 9.53922 16.0784 9.51822C16.0274 9.49722 15.979 9.47127 15.9332 9.44064C15.8871 9.41002 15.8448 9.37531 15.8057 9.33622C15.7667 9.29714 15.7319 9.25485 15.7013 9.20877C15.6707 9.16297 15.6447 9.11456 15.6234 9.06352C15.6024 9.01277 15.5864 8.96027 15.5756 8.90602C15.5651 8.85206 15.5596 8.79722 15.5596 8.7421C15.5596 8.68697 15.5651 8.63243 15.5756 8.57818C15.5864 8.52422 15.6024 8.47172 15.6234 8.42068C15.6447 8.36964 15.6707 8.32152 15.7013 8.27543C15.7319 8.22964 15.7667 8.18735 15.8057 8.14827C15.8448 8.10918 15.8871 8.07447 15.9332 8.04385C15.979 8.01322 16.0274 7.98727 16.0784 7.96627C16.1292 7.94497 16.182 7.92922 16.2359 7.91843C16.2902 7.90764 16.3447 7.9021 16.3999 7.9021C16.455 7.9021 16.5098 7.90764 16.5638 7.91843C16.618 7.92922 16.6705 7.94497 16.7216 7.96627C16.7723 7.98727 16.8207 8.01322 16.8668 8.04385C16.9126 8.07447 16.9552 8.10918 16.994 8.14827C17.0331 8.18735 17.0678 8.22964 17.0987 8.27543C17.1293 8.32152 17.155 8.36964 17.1763 8.42068C17.1973 8.47172 17.2133 8.52422 17.2241 8.57818C17.2349 8.63243 17.2402 8.68697 17.2402 8.7421Z" fill="#111820"/>
<path d="M14.7192 10.8888C14.7192 10.8888 14.5014 11.1688 14.0035 11.1688C13.5056 11.1688 13.2877 10.8888 13.2877 10.8888C13.2565 10.8267 13.1944 10.8579 13.3189 11.1067C13.5365 11.48 13.8168 11.5113 14.0035 11.5113C14.1902 11.5113 14.4704 11.48 14.688 11.1067C14.8126 10.8888 14.7504 10.8579 14.7192 10.8888Z" fill="#111820"/>
<path d="M14.0035 17.1733C13.4745 17.1733 12.8832 16.9554 12.2917 16.6133V17.8578C12.2917 18.7912 13.0699 19.5687 14.0035 19.5687C14.9372 19.5687 15.7153 18.7912 15.7153 17.8578V16.6133C15.1238 16.9245 14.5326 17.1733 14.0035 17.1733Z" fill="#FBDBC0"/>
<path d="M18.4849 19.9112C16.7734 18.6667 15.7152 17.8267 15.7152 17.8267C15.7152 18.76 14.937 19.5379 14.0034 19.5379C13.0698 19.5379 12.2916 18.76 12.2916 17.8267C12.2916 17.8267 11.2334 18.6667 9.52193 19.9112C7.77893 21.1555 4.04443 22.4312 4.04443 27.6888H23.9624C23.9624 22.4312 20.2279 21.1555 18.4849 19.9112Z" fill="#94D7E6"/>
<mask id="mask0_162_2810" style="mask-type:luminance" maskUnits="userSpaceOnUse" x="3" y="17" width="22" height="11">
<path d="M3.7334 17.0986H24.2796V28H3.7334V17.0986Z" fill="white"/>
</mask>
<g mask="url(#mask0_162_2810)">
<path d="M24.2737 28H3.7334V27.6888C3.7334 23.0845 6.53427 21.3733 8.40152 20.2533C8.74394 20.0355 9.05515 19.8488 9.33544 19.6621C11.016 18.4488 12.0739 17.6088 12.1051 17.6088L12.603 17.2045V17.8579C12.603 18.6355 13.2254 19.2579 14.0036 19.2579C14.7817 19.2579 15.4041 18.6355 15.4041 17.8579V17.1112L15.9332 17.64C16.0575 17.7333 17.0847 18.5421 18.6717 19.6933C18.9208 19.88 19.2632 20.0667 19.6056 20.2845C21.4729 21.4045 24.2737 23.1155 24.2737 27.72V28ZM4.35582 27.3779H23.6513C23.5268 23.3645 21.0992 21.8712 19.2944 20.7821C18.952 20.5645 18.6096 20.3779 18.3296 20.16C17.2714 19.4133 16.4311 18.7912 15.9641 18.4179C15.7154 19.2579 14.9372 19.88 14.0036 19.88C13.0699 19.88 12.2918 19.2579 12.043 18.4179C11.576 18.76 10.7669 19.4133 9.67757 20.16C9.39757 20.3779 9.05515 20.5645 8.71273 20.7821C6.9079 21.8712 4.48036 23.3645 4.35582 27.3779Z" fill="#111820"/>
</g>
<path d="M14.0035 19.8801C12.8832 19.8801 11.9805 18.9779 11.9805 17.8579V16.0846L12.4474 16.3334C13.0698 16.6755 13.5989 16.8622 14.0035 16.8622C14.408 16.8622 14.9371 16.6755 15.5595 16.3334L16.0265 16.0846V17.8579C16.0265 18.9467 15.1238 19.8801 14.0035 19.8801ZM12.6029 17.1113V17.8579C12.6029 18.6355 13.2253 19.2579 14.0035 19.2579C14.7816 19.2579 15.4041 18.6355 15.4041 17.8579V17.1113C14.875 17.3601 14.408 17.4846 14.0035 17.4846C13.5989 17.4846 13.132 17.3601 12.6029 17.1113Z" fill="#111820"/>
<path d="M14.0034 14.56C12.2607 14.56 11.7316 13.3467 11.7004 13.3154L12.2607 13.0667C12.2607 13.0979 12.6653 13.9379 14.0034 13.9379C15.3416 13.9379 15.7461 13.0667 15.7461 13.0667L16.3064 13.3154C16.2752 13.3467 15.7461 14.56 14.0034 14.56Z" fill="#111820"/>
<path d="M14.0034 17.4845C11.7316 17.4845 8.30805 13.6888 7.99684 13.2533C7.87259 13.0979 7.49896 12.6 7.77896 9.83122C7.81017 9.55122 7.84138 9.27121 7.87259 8.99122C7.87259 8.9288 7.90351 8.89788 7.93471 8.86667C8.12138 7.90213 8.49501 6.6888 9.21076 6.22213C9.49076 6.03546 9.70863 5.91121 9.86409 5.81788C10.331 5.53788 10.4244 5.47546 10.9535 4.91546C11.0159 4.82213 11.1401 4.79121 11.2335 4.82213C11.3271 4.85334 11.4204 4.91546 11.4513 5.04001C11.4513 5.04001 11.9495 6.31546 14.9992 6.4088C15.7152 6.44001 16.2752 6.44001 16.7422 6.44001C18.5161 6.44001 19.0764 6.44001 19.9476 8.02667C19.9788 8.05788 19.9788 8.0888 19.9788 8.12001C20.57 12.4133 20.1033 13.0667 19.9476 13.2845C19.6988 13.6888 16.2752 17.4845 14.0034 17.4845ZM8.40138 9.89334C8.1838 12.2267 8.43259 12.7555 8.52592 12.88C8.93046 13.4712 12.1362 16.8621 14.0034 16.8621C15.8707 16.8621 19.0764 13.4712 19.5118 12.9112C19.6364 12.7555 19.9476 11.9779 19.4185 8.27547C18.734 7.03121 18.4849 7.03121 16.7734 7.03121C16.3064 7.03121 15.7152 7.03121 14.9992 7.00001C12.5407 6.90667 11.5447 6.09788 11.1401 5.60001C10.7668 5.97334 10.5801 6.09788 10.1756 6.34667C10.0198 6.44001 9.80196 6.56455 9.52196 6.75121C8.89955 7.15546 8.52592 8.6488 8.40138 9.89334Z" fill="#111820"/>
<path d="M19.5742 24.4222C18.3603 23.1155 19.3563 20.4712 19.3563 20.4712L18.1736 19.6934C17.7691 21.0934 18.2982 23.1779 17.2088 24.1112C15.9952 25.1379 11.9804 25.1379 10.7668 24.1112C9.67738 23.1779 10.2065 21.0934 9.80192 19.6934L8.61921 20.4712C8.61921 20.4712 9.61526 23.1155 8.40134 24.4222C7.9968 24.8579 7.7168 25.5422 7.7168 26.3512C7.7168 27.44 7.7168 27.6888 7.7168 27.6888H20.2278C20.2278 27.6888 20.2278 27.44 20.2278 26.3512C20.2588 25.5422 19.9788 24.8579 19.5742 24.4222Z" fill="#596C7C"/>
<path d="M20.5701 28H7.40576V26.3512C7.40576 25.5112 7.68576 24.7334 8.18393 24.2046C9.2418 23.0534 8.33939 20.5955 8.33939 20.5955L8.24605 20.3779L9.98876 19.2267L10.1133 19.6312C10.2691 20.1912 10.3 20.8134 10.3312 21.4355C10.3624 22.4312 10.3933 23.3955 10.9848 23.8934C12.0739 24.8267 15.9332 24.8267 17.0223 23.8934C17.6138 23.3955 17.6447 22.4621 17.6759 21.4355C17.7071 20.8134 17.7381 20.16 17.8938 19.6312L18.0183 19.2267L19.6056 20.2846L19.7611 20.44L19.6989 20.6267C19.6989 20.6579 18.7962 23.1155 19.8544 24.2355C20.3523 24.7646 20.6326 25.5421 20.6326 26.3821V28H20.5701ZM8.02818 27.3779H19.9477V26.3512C19.9477 25.6667 19.7298 25.0446 19.3565 24.64C18.2362 23.4579 18.7962 21.3112 19.0141 20.6267L18.4229 20.2221C18.3605 20.6267 18.3296 21.0312 18.3296 21.4667C18.2983 22.5555 18.2362 23.7067 17.4581 24.36C16.1199 25.5112 11.9496 25.5112 10.6112 24.36C9.8333 23.6755 9.77089 22.5555 9.73997 21.4667C9.70876 21.0312 9.70876 20.6267 9.64664 20.2221L9.05514 20.6267C9.27301 21.3734 9.8021 23.4579 8.71272 24.64C8.33939 25.0446 8.12151 25.6667 8.12151 26.3512V27.3779H8.02818Z" fill="#111820"/>
</g>
<defs>
<clipPath id="clip0_162_2810">
<rect width="28" height="28" fill="white"/>
</clipPath>
</defs>
</svg>
