<svg width="28" height="28" viewBox="0 0 28 28" fill="none" xmlns="http://www.w3.org/2000/svg">
<g clip-path="url(#clip0_162_2811)">
<path d="M19.3876 6.03544C18.734 2.42665 15.6528 2.17786 14.0034 2.17786C12.354 2.17786 9.27287 2.42665 8.61925 6.03544C7.96591 9.83119 7.81016 12.4445 8.24591 13.0666C8.71258 13.6888 11.9804 17.1733 14.0034 17.1733C16.0264 17.1733 19.2942 13.6888 19.7609 13.0666C20.1967 12.4445 20.0409 9.83119 19.3876 6.03544Z" fill="#FBDBC0"/>
<path d="M12.4474 8.7421C12.4474 8.79722 12.4419 8.85206 12.4311 8.90602C12.4206 8.96027 12.4046 9.01277 12.3836 9.06352C12.3623 9.11456 12.3363 9.16297 12.3057 9.20877C12.2751 9.25485 12.2403 9.29714 12.2013 9.33622C12.1622 9.37531 12.1199 9.41002 12.0738 9.44064C12.028 9.47127 11.9796 9.49722 11.9286 9.51822C11.8778 9.53922 11.825 9.55527 11.7711 9.56606C11.7168 9.57685 11.6623 9.5821 11.6071 9.5821C11.552 9.5821 11.4972 9.57685 11.4432 9.56606C11.389 9.55527 11.3365 9.53922 11.2854 9.51822C11.2347 9.49722 11.1863 9.47127 11.1402 9.44064C11.0944 9.41002 11.0518 9.37531 11.013 9.33622C10.9739 9.29714 10.9392 9.25485 10.9083 9.20877C10.8777 9.16297 10.852 9.11456 10.8307 9.06352C10.8097 9.01277 10.7937 8.96027 10.7829 8.90602C10.7721 8.85206 10.7668 8.79722 10.7668 8.7421C10.7668 8.68697 10.7721 8.63243 10.7829 8.57818C10.7937 8.52422 10.8097 8.47172 10.8307 8.42068C10.852 8.36964 10.8777 8.32152 10.9083 8.27543C10.9392 8.22964 10.9739 8.18735 11.013 8.14827C11.0518 8.10918 11.0944 8.07447 11.1402 8.04385C11.1863 8.01322 11.2347 7.98727 11.2854 7.96627C11.3365 7.94497 11.389 7.92922 11.4432 7.91843C11.4972 7.90764 11.552 7.9021 11.6071 7.9021C11.6623 7.9021 11.7168 7.90764 11.7711 7.91843C11.825 7.92922 11.8778 7.94497 11.9286 7.96627C11.9796 7.98727 12.028 8.01322 12.0738 8.04385C12.1199 8.07447 12.1622 8.10918 12.2013 8.14827C12.2403 8.18735 12.2751 8.22964 12.3057 8.27543C12.3363 8.32152 12.3623 8.36964 12.3836 8.42068C12.4046 8.47172 12.4206 8.52422 12.4311 8.57818C12.4419 8.63243 12.4474 8.68697 12.4474 8.7421Z" fill="#111820"/>
<path d="M17.2402 8.7421C17.2402 8.79722 17.2349 8.85206 17.2241 8.90602C17.2133 8.96027 17.1973 9.01277 17.1763 9.06352C17.155 9.11456 17.1293 9.16297 17.0987 9.20877C17.0678 9.25485 17.0331 9.29714 16.994 9.33622C16.9552 9.37531 16.9126 9.41002 16.8668 9.44064C16.8207 9.47127 16.7723 9.49722 16.7216 9.51822C16.6705 9.53922 16.618 9.55527 16.5638 9.56606C16.5098 9.57685 16.455 9.5821 16.3999 9.5821C16.3447 9.5821 16.2902 9.57685 16.2359 9.56606C16.182 9.55527 16.1292 9.53922 16.0784 9.51822C16.0274 9.49722 15.979 9.47127 15.9332 9.44064C15.8871 9.41002 15.8448 9.37531 15.8057 9.33622C15.7667 9.29714 15.7319 9.25485 15.7013 9.20877C15.6707 9.16297 15.6447 9.11456 15.6234 9.06352C15.6024 9.01277 15.5864 8.96027 15.5756 8.90602C15.5651 8.85206 15.5596 8.79722 15.5596 8.7421C15.5596 8.68697 15.5651 8.63243 15.5756 8.57818C15.5864 8.52422 15.6024 8.47172 15.6234 8.42068C15.6447 8.36964 15.6707 8.32152 15.7013 8.27543C15.7319 8.22964 15.7667 8.18735 15.8057 8.14827C15.8448 8.10918 15.8871 8.07447 15.9332 8.04385C15.979 8.01322 16.0274 7.98727 16.0784 7.96627C16.1292 7.94497 16.182 7.92922 16.2359 7.91843C16.2902 7.90764 16.3447 7.9021 16.3999 7.9021C16.455 7.9021 16.5098 7.90764 16.5638 7.91843C16.618 7.92922 16.6705 7.94497 16.7216 7.96627C16.7723 7.98727 16.8207 8.01322 16.8668 8.04385C16.9126 8.07447 16.9552 8.10918 16.994 8.14827C17.0331 8.18735 17.0678 8.22964 17.0987 8.27543C17.1293 8.32152 17.155 8.36964 17.1763 8.42068C17.1973 8.47172 17.2133 8.52422 17.2241 8.57818C17.2349 8.63243 17.2402 8.68697 17.2402 8.7421Z" fill="#111820"/>
<path d="M14.9993 10.7646C14.9993 10.7646 14.6881 11.1688 14.0036 11.1688C13.319 11.1688 13.0075 10.7646 13.0075 10.7646C12.9454 10.7022 12.8521 10.7334 13.0388 11.0446C13.319 11.5734 13.7236 11.6355 14.0036 11.6355C14.2836 11.6355 14.6572 11.5734 14.9684 11.0446C15.1239 10.7646 15.0618 10.7022 14.9993 10.7646Z" fill="#111820"/>
<path d="M8.27718 8.15119C8.0593 7.93332 7.43689 7.40453 6.62751 7.74665C5.63176 8.15119 6.37872 11.5733 7.96597 11.4488C7.99689 10.5779 8.12143 9.48878 8.27718 8.15119Z" fill="#FBDBC0"/>
<path d="M19.7297 8.15119C19.9476 7.93332 20.57 7.40453 21.3794 7.74665C22.3752 8.15119 21.6282 11.5733 20.0409 11.4488C20.01 10.5779 19.8855 9.48878 19.7297 8.15119Z" fill="#FBDBC0"/>
<path d="M14.0035 17.1733C13.4745 17.1733 12.8832 16.9554 12.2917 16.6133V17.8578C12.2917 18.7912 13.0699 19.5687 14.0035 19.5687C14.9372 19.5687 15.7153 18.7912 15.7153 17.8578V16.6133C15.1238 16.9245 14.5326 17.1733 14.0035 17.1733Z" fill="#FBDBC0"/>
<path d="M7.90369 11.7288C6.90794 11.7288 6.25431 10.64 6.03644 9.67549C5.81856 8.74216 5.88098 7.71549 6.56552 7.43549C7.56127 7.03124 8.33944 7.71549 8.55731 7.93337C8.61944 7.99549 8.65065 8.08883 8.65065 8.18216C8.46398 9.52003 8.37065 10.6088 8.37065 11.4179C8.37065 11.5734 8.2461 11.6979 8.09035 11.7288C7.99702 11.7288 7.9349 11.7288 7.90369 11.7288ZM7.18794 7.93337C7.0634 7.93337 6.93885 7.96458 6.7834 8.0267C6.56552 8.12003 6.44098 8.77337 6.62765 9.55124C6.7834 10.2355 7.18794 10.92 7.71702 11.0755C7.74823 10.2979 7.84156 9.36458 7.99702 8.24458C7.77915 8.12003 7.53035 7.93337 7.18794 7.93337Z" fill="#111820"/>
<path d="M14.0035 17.4846C11.7317 17.4846 8.30808 13.6888 7.99687 13.2534C7.34354 12.3822 7.8102 8.80457 8.30808 5.97337C9.05504 1.8667 12.7898 1.8667 14.0035 1.8667C15.2171 1.8667 18.9519 1.8667 19.6988 5.97337C20.1967 8.80457 20.6634 12.3822 20.01 13.2534C19.6988 13.6888 16.2752 17.4846 14.0035 17.4846ZM14.0035 2.48882C12.105 2.48882 9.49079 2.86216 8.9305 6.0667C8.15262 10.4534 8.21475 12.4755 8.49504 12.88C8.9305 13.4712 12.1362 16.8622 14.0035 16.8622C15.8707 16.8622 19.0764 13.4712 19.5119 12.9112C19.8231 12.5067 19.8543 10.5155 19.0764 6.09791C18.5161 2.86216 15.9019 2.48882 14.0035 2.48882Z" fill="#111820"/>
<path d="M20.1035 11.7288C20.0723 11.7288 20.0102 11.7288 19.979 11.7288C19.8232 11.7288 19.699 11.5734 19.699 11.4179C19.699 10.6088 19.6057 9.52003 19.4187 8.18216C19.4187 8.08883 19.4499 7.99549 19.512 7.93337C19.7299 7.71549 20.4769 7.03124 21.5038 7.43549C22.1887 7.71549 22.2508 8.77337 22.0329 9.67549C21.7529 10.6712 21.1305 11.7288 20.1035 11.7288ZM20.0411 8.27549C20.1969 9.39549 20.2902 10.3288 20.3214 11.1067C20.8505 10.9512 21.2238 10.2355 21.4105 9.58216C21.5975 8.77337 21.5038 8.15124 21.255 8.05791C20.6947 7.80883 20.2902 8.05791 20.0411 8.27549Z" fill="#111820"/>
<path d="M18.4849 19.9112C16.7734 18.6667 15.7152 17.8267 15.7152 17.8267C15.7152 18.76 14.937 19.5379 14.0034 19.5379C13.0698 19.5379 12.2916 18.76 12.2916 17.8267C12.2916 17.8267 11.2334 18.6667 9.52193 19.9112C7.77893 21.1555 4.04443 22.4312 4.04443 27.6888H23.9624C23.9624 22.4312 20.2279 21.1555 18.4849 19.9112Z" fill="#EA4356"/>
<mask id="mask0_162_2811" style="mask-type:luminance" maskUnits="userSpaceOnUse" x="3" y="17" width="22" height="11">
<path d="M3.7334 17.0986H24.2796V28H3.7334V17.0986Z" fill="white"/>
</mask>
<g mask="url(#mask0_162_2811)">
<path d="M24.2737 28H3.7334V27.6888C3.7334 23.0845 6.53427 21.3733 8.40152 20.2533C8.74394 20.0355 9.05515 19.8488 9.33544 19.6621C11.016 18.4488 12.0739 17.6088 12.1051 17.6088L12.603 17.2045V17.8579C12.603 18.6355 13.2254 19.2579 14.0036 19.2579C14.7817 19.2579 15.4041 18.6355 15.4041 17.8579V17.1112L15.9332 17.64C16.0575 17.7333 17.0847 18.5421 18.6717 19.6933C18.9208 19.88 19.2632 20.0667 19.6056 20.2845C21.4729 21.4045 24.2737 23.1155 24.2737 27.72V28ZM4.35582 27.3779H23.6513C23.5268 23.3645 21.0992 21.8712 19.2944 20.7821C18.952 20.5645 18.6096 20.3779 18.3296 20.16C17.2714 19.4133 16.4311 18.7912 15.9641 18.4179C15.7154 19.2579 14.9372 19.88 14.0036 19.88C13.0699 19.88 12.2918 19.2579 12.043 18.4179C11.576 18.76 10.7669 19.4133 9.67757 20.16C9.39757 20.3779 9.05515 20.5645 8.71273 20.7821C6.9079 21.8712 4.48036 23.3645 4.35582 27.3779Z" fill="#111820"/>
</g>
<path d="M14.0035 19.8801C12.8832 19.8801 11.9805 18.9779 11.9805 17.8579V16.0846L12.4474 16.3334C13.0698 16.6755 13.5989 16.8622 14.0035 16.8622C14.408 16.8622 14.9371 16.6755 15.5595 16.3334L16.0265 16.0846V17.8579C16.0265 18.9467 15.1238 19.8801 14.0035 19.8801ZM12.6029 17.1113V17.8579C12.6029 18.6355 13.2253 19.2579 14.0035 19.2579C14.7816 19.2579 15.4041 18.6355 15.4041 17.8579V17.1113C14.875 17.3601 14.408 17.4846 14.0035 17.4846C13.5989 17.4846 13.132 17.3601 12.6029 17.1113Z" fill="#111820"/>
<path d="M19.8542 25.2621H20.4767V27.6888H19.8542V25.2621Z" fill="#111820"/>
<path d="M14.0034 14.56C12.2607 14.56 11.7316 13.3467 11.7004 13.3154L12.2607 13.0667C12.2607 13.0979 12.6653 13.9379 14.0034 13.9379C15.3416 13.9379 15.7461 13.0667 15.7461 13.0667L16.3064 13.3154C16.2752 13.3467 15.7461 14.56 14.0034 14.56Z" fill="#111820"/>
<path d="M20.5079 5.84877H7.49899C7.12566 5.84877 6.81445 5.53786 6.81445 5.16452C6.81445 4.79119 7.12566 4.47998 7.49899 4.47998H20.4767C20.8503 4.47998 21.1615 4.79119 21.1615 5.16452C21.1615 5.56877 20.8812 5.84877 20.5079 5.84877Z" fill="#EA4356"/>
<path d="M19.7297 4.51116C18.9518 2.08449 16.6797 0.311157 14.0034 0.311157C11.3271 0.311157 9.05497 2.08449 8.2771 4.51116H19.7297Z" fill="#F8BF3F"/>
<path d="M20.5078 6.16003H7.49892C6.96984 6.16003 6.50317 5.72457 6.50317 5.16457C6.50317 4.60457 6.93863 4.16882 7.49892 4.16882H20.4766C21.0057 4.16882 21.4727 4.60457 21.4727 5.16457C21.4727 5.72457 21.0369 6.16003 20.5078 6.16003ZM7.49892 4.82216C7.31226 4.82216 7.12559 4.97791 7.12559 5.19549C7.12559 5.41337 7.28105 5.56882 7.49892 5.56882H20.4766C20.6633 5.56882 20.8503 5.41337 20.8503 5.19549C20.8503 4.97791 20.6945 4.82216 20.4766 4.82216H7.49892Z" fill="#111820"/>
<path d="M19.7297 4.82212H8.27714C8.18381 4.82212 8.09018 4.76 8.02806 4.69788C7.96593 4.60454 7.96593 4.51121 7.99685 4.41787C8.80622 1.77333 11.2335 0 14.0034 0C16.7734 0 19.2006 1.77333 20.01 4.41787C20.0409 4.51121 20.01 4.60454 19.9788 4.69788C19.9167 4.76 19.8231 4.82212 19.7297 4.82212ZM8.74381 4.2H19.2943C18.4228 2.05333 16.3686 0.622125 14.0034 0.622125C11.6383 0.622125 9.5841 2.05333 8.74381 4.2Z" fill="#111820"/>
<path d="M20.1656 25.2621C20.0723 23.2712 19.8544 22.2754 15.0617 19.1954C14.7817 19.4133 14.4081 19.5688 14.0035 19.5688C13.599 19.5688 13.2254 19.4445 12.9454 19.1954C8.15272 22.2754 7.93484 23.2712 7.84151 25.2621C7.8103 25.8533 7.84151 27.6888 7.84151 27.6888H20.1656C20.1656 27.6888 20.1968 25.8533 20.1656 25.2621Z" fill="white"/>
<path d="M20.4767 28.0001H7.53023V27.6888C7.53023 27.6267 7.49902 25.8534 7.53023 25.2313C7.62356 23.1155 7.90356 22.0579 12.7586 18.9155L12.9453 18.7913L13.132 18.9155C13.3811 19.1022 13.6923 19.2267 14.0035 19.2267C14.3147 19.2267 14.6259 19.1334 14.875 18.9155L15.0616 18.7913L15.2483 18.9155C20.1034 22.0888 20.3522 23.1467 20.4767 25.2313C20.5079 25.8534 20.4767 27.5955 20.4767 27.6888V28.0001ZM8.15264 27.3779H19.8543C19.8543 26.8488 19.8855 25.7288 19.8543 25.2622C19.761 23.4888 19.7298 22.5555 15.0616 19.5379C14.7504 19.7246 14.3768 19.8488 14.0035 19.8488C13.6301 19.8488 13.2565 19.7555 12.9453 19.5379C8.3081 22.5555 8.24598 23.4579 8.15264 25.2622C8.12144 25.7288 8.15264 26.8488 8.15264 27.3779Z" fill="#111820"/>
<path d="M8.27719 8.15121C8.37052 7.49788 8.49507 6.78213 8.61932 6.03546C8.61932 5.97334 8.65052 5.94213 8.65052 5.88H7.68569L7.49902 7.68455C7.90357 7.77788 8.15265 8.02667 8.27719 8.15121Z" fill="#596C7C"/>
<path d="M19.6988 8.15121C19.6055 7.49788 19.4809 6.78213 19.3564 6.03546C19.3564 5.97334 19.3252 5.94213 19.3252 5.88H20.29L20.4767 7.68455C20.1034 7.77788 19.8231 8.02667 19.6988 8.15121Z" fill="#596C7C"/>
<path d="M8.05942 8.36885C7.96609 8.27551 7.74821 8.05793 7.437 7.99551C7.28125 7.9646 7.18792 7.80885 7.21913 7.65339L7.40579 5.84885C7.40579 5.69339 7.56125 5.56885 7.717 5.56885H8.68184C8.77517 5.56885 8.8685 5.60006 8.93063 5.69339C8.99304 5.75551 9.02425 5.84885 8.99304 5.94218V6.0046C8.99304 6.03551 8.99304 6.06672 8.96184 6.09793C8.83729 6.8446 8.71275 7.56006 8.61942 8.21339C8.61942 8.21339 8.61942 8.21339 8.61942 8.2446L8.30821 8.18218L8.05942 8.36885ZM7.87275 7.46672C7.93488 7.49793 7.997 7.52885 8.05942 7.56006C8.12154 7.1246 8.21488 6.65793 8.27729 6.16006H7.96609L7.87275 7.46672Z" fill="#111820"/>
<path d="M19.6988 8.46218C19.543 8.46218 19.4185 8.36885 19.3876 8.21339C19.2942 7.56006 19.1697 6.8446 19.0452 6.09793C19.0452 6.06672 19.0452 6.03551 19.014 6.0046V5.94218C18.9827 5.84885 19.014 5.75551 19.0764 5.69339C19.1385 5.63126 19.2318 5.56885 19.3252 5.56885H20.29C20.4457 5.56885 20.57 5.69339 20.6012 5.84885L20.7879 7.65339C20.7879 7.80885 20.6945 7.93339 20.57 7.99551C20.29 8.08885 20.0721 8.27551 19.9788 8.36885C19.9167 8.43126 19.8542 8.46218 19.7921 8.49339C19.7609 8.46218 19.7297 8.46218 19.6988 8.46218ZM19.7297 6.16006C19.823 6.65793 19.8855 7.1246 19.9476 7.56006C20.01 7.52885 20.0721 7.49793 20.1342 7.46672L20.01 6.16006H19.7297Z" fill="#111820"/>
</g>
<defs>
<clipPath id="clip0_162_2811">
<rect width="28" height="28" fill="white"/>
</clipPath>
</defs>
</svg>
