<svg width="28" height="28" viewBox="0 0 28 28" fill="none" xmlns="http://www.w3.org/2000/svg">
<mask id="mask0_21_2877" style="mask-type:alpha" maskUnits="userSpaceOnUse" x="0" y="0" width="28" height="28">
<rect width="28" height="28" fill="#D9D9D9"/>
</mask>
<g mask="url(#mask0_21_2877)">
<path d="M12.8333 15.1667V18.6667C12.8333 18.9973 12.9451 19.2743 13.1687 19.498C13.3923 19.7216 13.6694 19.8334 13.9999 19.8334C14.3305 19.8334 14.6076 19.7216 14.8312 19.498C15.0548 19.2743 15.1666 18.9973 15.1666 18.6667V15.1667H18.6666C18.9971 15.1667 19.2742 15.0549 19.4978 14.8313C19.7214 14.6077 19.8333 14.3306 19.8333 14C19.8333 13.6695 19.7214 13.3924 19.4978 13.1688C19.2742 12.9452 18.9971 12.8334 18.6666 12.8334H15.1666V9.33337C15.1666 9.00282 15.0548 8.72574 14.8312 8.50212C14.6076 8.27851 14.3305 8.16671 13.9999 8.16671C13.6694 8.16671 13.3923 8.27851 13.1687 8.50212C12.9451 8.72574 12.8333 9.00282 12.8333 9.33337V12.8334H9.33325C9.0027 12.8334 8.72561 12.9452 8.502 13.1688C8.27839 13.3924 8.16659 13.6695 8.16659 14C8.16659 14.3306 8.27839 14.6077 8.502 14.8313C8.72561 15.0549 9.0027 15.1667 9.33325 15.1667H12.8333ZM13.9999 25.6667C12.386 25.6667 10.8694 25.3605 9.44992 24.748C8.03047 24.1355 6.79575 23.3042 5.74575 22.2542C4.69575 21.2042 3.8645 19.9695 3.252 18.55C2.6395 17.1306 2.33325 15.6139 2.33325 14C2.33325 12.3862 2.6395 10.8695 3.252 9.45004C3.8645 8.0306 4.69575 6.79587 5.74575 5.74587C6.79575 4.69587 8.03047 3.86462 9.44992 3.25212C10.8694 2.63962 12.386 2.33337 13.9999 2.33337C15.6138 2.33337 17.1305 2.63962 18.5499 3.25212C19.9694 3.86462 21.2041 4.69587 22.2541 5.74587C23.3041 6.79587 24.1353 8.0306 24.7478 9.45004C25.3603 10.8695 25.6666 12.3862 25.6666 14C25.6666 15.6139 25.3603 17.1306 24.7478 18.55C24.1353 19.9695 23.3041 21.2042 22.2541 22.2542C21.2041 23.3042 19.9694 24.1355 18.5499 24.748C17.1305 25.3605 15.6138 25.6667 13.9999 25.6667Z" fill="#E5E0FF"/>
</g>
</svg>
