<svg width="28" height="28" viewBox="0 0 28 28" fill="none" xmlns="http://www.w3.org/2000/svg">
<g clip-path="url(#clip0_162_1693)">
<path d="M20.9999 18.6666V12.8333C20.9999 9.25163 19.0866 6.25329 15.7499 5.45996V4.66663C15.7499 3.69829 14.9566 2.91663 13.9882 2.91663C13.0199 2.91663 12.2499 3.69829 12.2499 4.66663V5.45996C8.90156 6.25329 6.99989 9.23996 6.99989 12.8333V18.6666L5.48322 20.1716C4.74822 20.9066 5.26156 22.1666 6.29989 22.1666H21.6649C22.7032 22.1666 23.2282 20.9066 22.4932 20.1716L20.9999 18.6666ZM13.9882 25.6666C15.2716 25.6666 16.3216 24.6166 16.3216 23.3333H11.6549C11.6549 24.6166 12.6932 25.6666 13.9882 25.6666ZM7.89822 5.51829C8.38823 5.07496 8.39989 4.31663 7.93323 3.84996C7.48989 3.40663 6.76656 3.39496 6.31156 3.82663C4.31656 5.64663 2.93989 8.11996 2.49656 10.8966C2.39156 11.6083 2.93989 12.25 3.66323 12.25C4.22323 12.25 4.71323 11.8416 4.80656 11.2816C5.15656 9.01829 6.27656 6.99996 7.89822 5.51829ZM21.6999 3.82663C21.2332 3.39496 20.5099 3.40663 20.0666 3.84996C19.5999 4.31663 19.6232 5.06329 20.1016 5.50663C21.7116 6.98829 22.8432 9.00663 23.1932 11.27C23.2749 11.83 23.7649 12.2383 24.3366 12.2383C25.0482 12.2383 25.6082 11.5966 25.4916 10.885C25.0482 8.11996 23.6832 5.65829 21.6999 3.82663Z" fill="#E5E0FF"/>
</g>
<defs>
<clipPath id="clip0_162_1693">
<rect width="28" height="28" fill="white"/>
</clipPath>
</defs>
</svg>
