<svg width="28" height="28" viewBox="0 0 28 28" fill="none" xmlns="http://www.w3.org/2000/svg">
<mask id="mask0_2_491" style="mask-type:alpha" maskUnits="userSpaceOnUse" x="0" y="0" width="28" height="28">
<rect width="28" height="28" fill="#D9D9D9"/>
</mask>
<g mask="url(#mask0_2_491)">
<path d="M9.12926 15.1668L14.8459 20.8834C15.0793 21.1168 15.1911 21.389 15.1813 21.7001C15.1716 22.0112 15.0501 22.2834 14.8168 22.5168C14.5834 22.7307 14.3112 22.8425 14.0001 22.8522C13.689 22.8619 13.4168 22.7501 13.1834 22.5168L5.48343 14.8168C5.36676 14.7001 5.28413 14.5737 5.23551 14.4376C5.1869 14.3015 5.1626 14.1557 5.1626 14.0001C5.1626 13.8445 5.1869 13.6987 5.23551 13.5626C5.28413 13.4265 5.36676 13.3001 5.48343 13.1834L13.1834 5.48343C13.3973 5.26954 13.6647 5.1626 13.9855 5.1626C14.3063 5.1626 14.5834 5.26954 14.8168 5.48343C15.0501 5.71676 15.1668 5.99385 15.1668 6.31468C15.1668 6.63551 15.0501 6.9126 14.8168 7.14593L9.12926 12.8334H22.1668C22.4973 12.8334 22.7744 12.9452 22.998 13.1688C23.2216 13.3925 23.3334 13.6695 23.3334 14.0001C23.3334 14.3307 23.2216 14.6077 22.998 14.8313C22.7744 15.055 22.4973 15.1668 22.1668 15.1668H9.12926Z" fill="#E5E0FF"/>
</g>
</svg>
