<svg width="16" height="16" viewBox="0 0 16 16" fill="none" xmlns="http://www.w3.org/2000/svg">
<circle cx="8" cy="8" r="8" fill="#7286D3"/>
<mask id="mask0_2_501" style="mask-type:alpha" maskUnits="userSpaceOnUse" x="3" y="3" width="11" height="11">
<rect x="3.33325" y="3.33334" width="10" height="10" fill="#D9D9D9"/>
</mask>
<g mask="url(#mask0_2_501)">
<path d="M6.59367 8.75003L8.63534 10.7917C8.71867 10.875 8.7586 10.9722 8.75513 11.0834C8.75166 11.1945 8.70825 11.2917 8.62492 11.375C8.54159 11.4514 8.44436 11.4913 8.33325 11.4948C8.22214 11.4983 8.12492 11.4584 8.04159 11.375L5.29159 8.62503C5.24992 8.58336 5.2204 8.53822 5.20304 8.48961C5.18568 8.441 5.177 8.38891 5.177 8.33336C5.177 8.2778 5.18568 8.22572 5.20304 8.17711C5.2204 8.1285 5.24992 8.08336 5.29159 8.04169L8.04159 5.29169C8.11797 5.2153 8.21346 5.17711 8.32804 5.17711C8.44263 5.17711 8.54159 5.2153 8.62492 5.29169C8.70825 5.37503 8.74992 5.47398 8.74992 5.58857C8.74992 5.70315 8.70825 5.80211 8.62492 5.88544L6.59367 7.91669H11.2499C11.368 7.91669 11.4669 7.95662 11.5468 8.03648C11.6267 8.11634 11.6666 8.2153 11.6666 8.33336C11.6666 8.45141 11.6267 8.55037 11.5468 8.63023C11.4669 8.71009 11.368 8.75003 11.2499 8.75003H6.59367Z" fill="#E5E0FF"/>
</g>
</svg>
