<svg width="30" height="30" viewBox="0 0 30 30" fill="none" xmlns="http://www.w3.org/2000/svg">
<path d="M23.5 5.121L26.0605 2.5605L23.9395 0.4395L21.595 2.7825C19.7245 1.062 17.236 0 14.5 0C11.764 0 9.2755 1.062 7.405 2.7825L5.0605 0.4395L2.9395 2.5605L5.5 5.121C4.51924 6.74384 4.00056 8.60382 4 10.5H1V13.5H4V16.5H1V19.5H4C4 25.29 8.7115 30 14.5 30C20.2885 30 25 25.29 25 19.5H28V16.5H25V13.5H28V10.5H25C24.9994 8.60382 24.4808 6.74384 23.5 5.121ZM19 19.5H10V16.5H19V19.5ZM19 13.5H10V10.5H19V13.5Z" fill="#6A6A6A"/>
</svg>
