<svg width="28" height="28" viewBox="0 0 28 28" fill="none" xmlns="http://www.w3.org/2000/svg">
<mask id="mask0_56_3741" style="mask-type:alpha" maskUnits="userSpaceOnUse" x="0" y="0" width="28" height="28">
<rect width="28" height="28" fill="#D9D9D9"/>
</mask>
<g mask="url(#mask0_56_3741)">
<path d="M5.83333 19.8333C5.19167 19.8333 4.64236 19.6049 4.18542 19.1479C3.72847 18.691 3.5 18.1417 3.5 17.5V10.5C3.5 9.85833 3.72847 9.30903 4.18542 8.85208C4.64236 8.39514 5.19167 8.16667 5.83333 8.16667H22.1667C22.8083 8.16667 23.3576 8.39514 23.8146 8.85208C24.2715 9.30903 24.5 9.85833 24.5 10.5V17.5C24.5 18.1417 24.2715 18.691 23.8146 19.1479C23.3576 19.6049 22.8083 19.8333 22.1667 19.8333H5.83333ZM5.83333 17.5H22.1667V10.5H5.83333V17.5ZM4.6375 5.83333C4.30694 5.83333 4.03472 5.72153 3.82083 5.49792C3.60694 5.27431 3.5 4.99722 3.5 4.66667C3.5 4.33611 3.61181 4.05903 3.83542 3.83542C4.05903 3.61181 4.33611 3.5 4.66667 3.5H23.3625C23.6931 3.5 23.9653 3.61181 24.1792 3.83542C24.3931 4.05903 24.5 4.33611 24.5 4.66667C24.5 4.99722 24.3882 5.27431 24.1646 5.49792C23.941 5.72153 23.6639 5.83333 23.3333 5.83333H4.6375ZM4.6375 24.5C4.30694 24.5 4.03472 24.3882 3.82083 24.1646C3.60694 23.941 3.5 23.6639 3.5 23.3333C3.5 23.0028 3.61181 22.7257 3.83542 22.5021C4.05903 22.2785 4.33611 22.1667 4.66667 22.1667H23.3625C23.6931 22.1667 23.9653 22.2785 24.1792 22.5021C24.3931 22.7257 24.5 23.0028 24.5 23.3333C24.5 23.6639 24.3882 23.941 24.1646 24.1646C23.941 24.3882 23.6639 24.5 23.3333 24.5H4.6375Z" fill="#E5E0FF"/>
</g>
</svg>
