<svg width="28" height="28" viewBox="0 0 28 28" fill="none" xmlns="http://www.w3.org/2000/svg">
<mask id="mask0_21_3627" style="mask-type:alpha" maskUnits="userSpaceOnUse" x="0" y="0" width="28" height="28">
<rect width="28" height="28" fill="#D9D9D9"/>
</mask>
<g mask="url(#mask0_21_3627)">
<path d="M13.9999 15.6334L17.3833 19.0167C17.5971 19.2306 17.8694 19.3375 18.1999 19.3375C18.5305 19.3375 18.8027 19.2306 19.0166 19.0167C19.2305 18.8028 19.3374 18.5306 19.3374 18.2C19.3374 17.8695 19.2305 17.5973 19.0166 17.3834L15.6333 14L19.0166 10.6167C19.2305 10.4028 19.3374 10.1306 19.3374 9.80004C19.3374 9.46949 19.2305 9.19726 19.0166 8.98337C18.8027 8.76949 18.5305 8.66254 18.1999 8.66254C17.8694 8.66254 17.5971 8.76949 17.3833 8.98337L13.9999 12.3667L10.6166 8.98337C10.4027 8.76949 10.1305 8.66254 9.79992 8.66254C9.46936 8.66254 9.19714 8.76949 8.98325 8.98337C8.76936 9.19726 8.66242 9.46949 8.66242 9.80004C8.66242 10.1306 8.76936 10.4028 8.98325 10.6167L12.3666 14L8.98325 17.3834C8.76936 17.5973 8.66242 17.8695 8.66242 18.2C8.66242 18.5306 8.76936 18.8028 8.98325 19.0167C9.19714 19.2306 9.46936 19.3375 9.79992 19.3375C10.1305 19.3375 10.4027 19.2306 10.6166 19.0167L13.9999 15.6334ZM13.9999 25.6667C12.386 25.6667 10.8694 25.3605 9.44992 24.748C8.03047 24.1355 6.79575 23.3042 5.74575 22.2542C4.69575 21.2042 3.8645 19.9695 3.252 18.55C2.6395 17.1306 2.33325 15.6139 2.33325 14C2.33325 12.3862 2.6395 10.8695 3.252 9.45004C3.8645 8.0306 4.69575 6.79587 5.74575 5.74587C6.79575 4.69587 8.03047 3.86462 9.44992 3.25212C10.8694 2.63962 12.386 2.33337 13.9999 2.33337C15.6138 2.33337 17.1305 2.63962 18.5499 3.25212C19.9694 3.86462 21.2041 4.69587 22.2541 5.74587C23.3041 6.79587 24.1353 8.0306 24.7478 9.45004C25.3603 10.8695 25.6666 12.3862 25.6666 14C25.6666 15.6139 25.3603 17.1306 24.7478 18.55C24.1353 19.9695 23.3041 21.2042 22.2541 22.2542C21.2041 23.3042 19.9694 24.1355 18.5499 24.748C17.1305 25.3605 15.6138 25.6667 13.9999 25.6667Z" fill="#E5E0FF"/>
</g>
</svg>
