<svg width="28" height="28" viewBox="0 0 28 28" fill="none" xmlns="http://www.w3.org/2000/svg">
<mask id="mask0_21_3674" style="mask-type:alpha" maskUnits="userSpaceOnUse" x="0" y="0" width="28" height="28">
<rect width="28" height="28" fill="#D9D9D9"/>
</mask>
<g mask="url(#mask0_21_3674)">
<path d="M12.3666 16.1L9.85825 13.5917C9.64436 13.3778 9.37214 13.2709 9.04159 13.2709C8.71103 13.2709 8.43881 13.3778 8.22492 13.5917C8.01103 13.8056 7.90409 14.0778 7.90409 14.4084C7.90409 14.7389 8.01103 15.0112 8.22492 15.225L11.5499 18.55C11.7833 18.7834 12.0555 18.9 12.3666 18.9C12.6777 18.9 12.9499 18.7834 13.1833 18.55L19.7749 11.9584C19.9888 11.7445 20.0958 11.4723 20.0958 11.1417C20.0958 10.8112 19.9888 10.5389 19.7749 10.325C19.561 10.1112 19.2888 10.0042 18.9583 10.0042C18.6277 10.0042 18.3555 10.1112 18.1416 10.325L12.3666 16.1ZM13.9999 25.6667C12.386 25.6667 10.8694 25.3605 9.44992 24.748C8.03047 24.1355 6.79575 23.3042 5.74575 22.2542C4.69575 21.2042 3.8645 19.9695 3.252 18.55C2.6395 17.1306 2.33325 15.6139 2.33325 14C2.33325 12.3862 2.6395 10.8695 3.252 9.45004C3.8645 8.0306 4.69575 6.79587 5.74575 5.74587C6.79575 4.69587 8.03047 3.86462 9.44992 3.25212C10.8694 2.63962 12.386 2.33337 13.9999 2.33337C15.6138 2.33337 17.1305 2.63962 18.5499 3.25212C19.9694 3.86462 21.2041 4.69587 22.2541 5.74587C23.3041 6.79587 24.1353 8.0306 24.7478 9.45004C25.3603 10.8695 25.6666 12.3862 25.6666 14C25.6666 15.6139 25.3603 17.1306 24.7478 18.55C24.1353 19.9695 23.3041 21.2042 22.2541 22.2542C21.2041 23.3042 19.9694 24.1355 18.5499 24.748C17.1305 25.3605 15.6138 25.6667 13.9999 25.6667Z" fill="#E5E0FF"/>
</g>
</svg>
