<svg width="28" height="28" viewBox="0 0 28 28" fill="none" xmlns="http://www.w3.org/2000/svg">
<g clip-path="url(#clip0_120_1126)">
<mask id="mask0_120_1126" style="mask-type:luminance" maskUnits="userSpaceOnUse" x="0" y="0" width="28" height="28">
<path d="M0 0H27.9253V27.9253H0V0Z" fill="white"/>
</mask>
<g mask="url(#mask0_120_1126)">
<path fill-rule="evenodd" clip-rule="evenodd" d="M14.059 -1.72852e-05C14.2888 -1.72852e-05 14.5192 0.00581605 14.749 0.0168993C14.9789 0.0279827 15.2081 0.0448993 15.4368 0.0676494C15.666 0.0903994 15.8941 0.118399 16.1216 0.152233C16.3497 0.186066 16.576 0.225149 16.8018 0.270066C17.0275 0.314983 17.2521 0.365149 17.475 0.421149C17.6984 0.477149 17.92 0.538399 18.14 0.605483C18.3605 0.671983 18.5786 0.744316 18.795 0.821899C19.012 0.899483 19.2267 0.982316 19.439 1.0704C19.652 1.15848 19.862 1.25123 20.0702 1.34982C20.2779 1.4484 20.4832 1.55165 20.6862 1.66015C20.8892 1.76865 21.0893 1.88182 21.2865 2.00023C21.4842 2.11865 21.6785 2.24173 21.8698 2.36948C22.0611 2.49723 22.249 2.62965 22.4339 2.76673C22.6188 2.90382 22.8002 3.04498 22.9781 3.1914C23.1555 3.33723 23.3299 3.48715 23.5002 3.64173C23.6711 3.79632 23.8374 3.95498 24.0001 4.11773C24.1629 4.28048 24.3215 4.44732 24.4761 4.61765C24.6307 4.78798 24.7806 4.9624 24.9265 5.14032C25.0729 5.31765 25.214 5.49907 25.3511 5.68398C25.4882 5.8689 25.6206 6.05673 25.7484 6.24807C25.8761 6.4394 25.9992 6.63365 26.1176 6.8314C26.236 7.02857 26.3492 7.22865 26.4577 7.43165C26.5662 7.63465 26.6695 7.83998 26.768 8.04823C26.8666 8.2559 26.96 8.46648 27.048 8.67882C27.1355 8.89115 27.2184 9.10582 27.296 9.32282C27.3735 9.53923 27.4459 9.7574 27.5124 9.9779C27.5795 10.1978 27.6407 10.4195 27.6967 10.6429C27.7527 10.8663 27.8029 11.0903 27.8478 11.3161C27.8927 11.5418 27.9318 11.7687 27.9656 11.9962C27.9995 12.2237 28.0275 12.4518 28.0502 12.6811C28.073 12.9097 28.0899 13.1396 28.101 13.3688C28.112 13.5986 28.1179 13.8291 28.1179 14.0589C28.1179 14.2887 28.112 14.5191 28.101 14.749C28.0899 14.9788 28.073 15.2081 28.0502 15.4367C28.0275 15.666 27.9995 15.8941 27.9656 16.1216C27.9318 16.3496 27.8927 16.576 27.8478 16.8017C27.8029 17.0275 27.7527 17.2521 27.6967 17.4749C27.6407 17.6983 27.5795 17.92 27.5124 18.1399C27.4459 18.3604 27.3735 18.5786 27.296 18.795C27.2184 19.012 27.1355 19.2267 27.048 19.439C26.96 19.6519 26.8666 19.8619 26.768 20.0702C26.6695 20.2778 26.5662 20.4832 26.4577 20.6861C26.3492 20.8892 26.236 21.0892 26.1176 21.2864C25.9992 21.4841 25.8761 21.6784 25.7484 21.8697C25.6206 22.0611 25.4882 22.2489 25.3511 22.4338C25.214 22.6187 25.0729 22.8001 24.9265 22.9781C24.7806 23.1554 24.6307 23.3298 24.4761 23.5002C24.3215 23.6711 24.1629 23.8373 24.0001 24.0001C23.8374 24.1628 23.6711 24.3215 23.5002 24.4761C23.3299 24.6306 23.1555 24.7806 22.9781 24.9264C22.8002 25.0728 22.6188 25.214 22.4339 25.3511C22.249 25.4881 22.0611 25.6206 21.8698 25.7483C21.6785 25.8761 21.4842 25.9992 21.2865 26.1176C21.0893 26.236 20.8892 26.3491 20.6862 26.4577C20.4832 26.5662 20.2779 26.6694 20.0702 26.768C19.862 26.8666 19.652 26.9599 19.439 27.048C19.2267 27.1355 19.012 27.2183 18.795 27.2959C18.5786 27.3735 18.3605 27.4458 18.14 27.5123C17.92 27.5794 17.6984 27.6406 17.475 27.6967C17.2521 27.7527 17.0275 27.8028 16.8018 27.8477C16.576 27.8927 16.3497 27.9317 16.1216 27.9656C15.8941 27.9994 15.666 28.0274 15.4368 28.0501C15.2081 28.0729 14.9789 28.0898 14.749 28.1009C14.5192 28.112 14.2888 28.1178 14.059 28.1178C13.8291 28.1178 13.5987 28.112 13.3689 28.1009C13.1396 28.0898 12.9098 28.0729 12.6811 28.0501C12.4519 28.0274 12.2238 27.9994 11.9963 27.9656C11.7688 27.9317 11.5419 27.8927 11.3161 27.8477C11.0904 27.8028 10.8664 27.7527 10.643 27.6967C10.4195 27.6406 10.1979 27.5794 9.97796 27.5123C9.75746 27.4458 9.53929 27.3735 9.32288 27.2959C9.10588 27.2183 8.89121 27.1355 8.67888 27.048C8.46654 26.9599 8.25596 26.8666 8.04829 26.768C7.84004 26.6694 7.63471 26.5662 7.43171 26.4577C7.22871 26.3491 7.02863 26.236 6.83146 26.1176C6.63371 25.9992 6.43946 25.8761 6.24813 25.7483C6.05679 25.6206 5.86896 25.4881 5.68404 25.3511C5.49913 25.214 5.31771 25.0728 5.14038 24.9264C4.96246 24.7806 4.78804 24.6306 4.61771 24.4761C4.44738 24.3215 4.28054 24.1628 4.11779 24.0001C3.95504 23.8373 3.79638 23.6711 3.64179 23.5002C3.48721 23.3298 3.33729 23.1554 3.19146 22.9781C3.04504 22.8001 2.90388 22.6187 2.76679 22.4338C2.62971 22.2489 2.49729 22.0611 2.36954 21.8697C2.24179 21.6784 2.11871 21.4841 2.00029 21.2864C1.88188 21.0892 1.76871 20.8892 1.66021 20.6861C1.55171 20.4832 1.44846 20.2778 1.34988 20.0702C1.25129 19.8619 1.15854 19.6519 1.07046 19.439C0.982377 19.2267 0.899544 19.012 0.82196 18.795C0.744377 18.5786 0.672044 18.3604 0.605544 18.1399C0.53846 17.92 0.47721 17.6983 0.42121 17.4749C0.36521 17.2521 0.315044 17.0275 0.270127 16.8017C0.22521 16.576 0.186127 16.3496 0.152294 16.1216C0.11846 15.8941 0.0904605 15.666 0.0677104 15.4367C0.0449604 15.2081 0.0280438 14.9788 0.0169604 14.749C0.00587708 14.5191 4.375e-05 14.2887 4.375e-05 14.0589C-0.000539583 13.8285 0.00471042 13.5986 0.0157938 13.3688C0.0262937 13.139 0.042627 12.9092 0.0647938 12.6799C0.0869604 12.4507 0.11496 12.2226 0.14821 11.9945C0.182044 11.767 0.220544 11.5401 0.26546 11.3143C0.309794 11.088 0.35996 10.8634 0.415377 10.64C0.471377 10.4166 0.532044 10.1949 0.598544 9.9744C0.665044 9.7539 0.737377 9.53573 0.814377 9.31873C0.89196 9.10173 0.974211 8.88707 1.06229 8.67415C1.15038 8.46123 1.24313 8.25065 1.34171 8.04298C1.43971 7.83473 1.54296 7.62882 1.65146 7.42582C1.75996 7.22282 1.87313 7.02215 1.99154 6.82498C2.10938 6.62723 2.23246 6.4324 2.36021 6.24107C2.48796 6.04973 2.62038 5.86132 2.75746 5.6764C2.89454 5.49148 3.03629 5.31007 3.18213 5.13215C3.32796 4.95423 3.47846 4.77982 3.63304 4.6089C3.78763 4.43857 3.94629 4.27173 4.10904 4.10898C4.27179 3.94623 4.43863 3.78757 4.60896 3.63298C4.77988 3.4784 4.95429 3.3279 5.13221 3.18207C5.31013 3.03623 5.49154 2.89448 5.67646 2.7574C5.86138 2.62032 6.04979 2.4879 6.24113 2.36015C6.43246 2.2324 6.62729 2.10932 6.82504 1.99148C7.02221 1.87307 7.22288 1.7599 7.42588 1.6514C7.62888 1.5429 7.83479 1.43965 8.04304 1.34165C8.25071 1.24307 8.46129 1.15032 8.67421 1.06223C8.88713 0.974149 9.10179 0.891899 9.31879 0.814316C9.53579 0.737316 9.75396 0.664983 9.97446 0.598483C10.195 0.531983 10.4166 0.471316 10.64 0.415316C10.8635 0.359899 11.088 0.309733 11.3144 0.265399C11.5401 0.220483 11.767 0.181983 11.9945 0.148149C12.2226 0.114899 12.4507 0.0868993 12.68 0.0647328C12.9092 0.042566 13.139 0.0262327 13.3689 0.0157328C13.5987 0.00464938 13.8285 -0.000600619 14.059 -1.72852e-05ZM5.89463 9.63782H22.1055C22.5476 9.63782 22.5768 9.63782 22.5768 10.1978V17.92C22.5768 18.4502 22.5768 18.48 22.1644 18.48H5.89463C5.48221 18.48 5.42329 18.48 5.42329 18.0086V10.1097C5.42329 9.69673 5.42329 9.63782 5.89463 9.63782ZM13.2925 16.4757C13.1635 16.4436 13.0405 16.3957 12.9238 16.3327C12.8065 16.2691 12.6992 16.1927 12.6012 16.1029C12.5032 16.0125 12.418 15.9116 12.3457 15.8001C12.2734 15.6887 12.2156 15.5703 12.1725 15.4443C12.1725 15.2378 12.1725 15.1789 12.3498 15.12H12.8503C12.873 15.0943 12.8993 15.0751 12.9302 15.0611C12.9611 15.0471 12.9938 15.0401 13.0276 15.0401C13.0615 15.0401 13.0935 15.0471 13.1245 15.0611C13.1554 15.0751 13.1816 15.0943 13.2044 15.12C13.6168 15.8567 14.8546 15.68 14.8546 15.12C14.8546 14.56 12.32 14.9432 12.32 13.0276C12.3177 12.9471 12.3218 12.8666 12.3317 12.7866C12.3422 12.7067 12.3591 12.6286 12.3819 12.5516C12.4052 12.474 12.4344 12.3993 12.4694 12.327C12.5044 12.2547 12.5446 12.1852 12.5913 12.1193C12.6374 12.0534 12.6881 11.9916 12.7447 11.9338C12.8007 11.8761 12.8608 11.823 12.9255 11.7751C12.9903 11.7267 13.0585 11.6841 13.1297 11.6474C13.2015 11.6101 13.275 11.5791 13.3514 11.5535C13.5287 11.5535 13.5579 11.5535 13.5579 11.2589V10.9643C13.5579 10.8167 13.5579 10.7876 13.7935 10.7876H14.2357C14.4714 10.7876 14.5011 10.7876 14.5011 10.9643V11.2C14.5011 11.4065 14.5011 11.4356 14.7368 11.4946C14.9614 11.5576 15.1638 11.6637 15.3435 11.8125C15.5231 11.9618 15.6649 12.1403 15.7687 12.3497C15.7687 12.5265 15.7687 12.6146 15.7687 12.6735H15.2968C15.12 12.6735 15.0611 12.6735 14.9725 12.6735C14.5898 12.0546 13.5579 12.1724 13.5579 12.6735C13.5579 13.1746 16.1222 12.88 16.1222 14.8254C16.1269 14.924 16.1222 15.0226 16.1082 15.1206C16.0942 15.2186 16.0715 15.3142 16.04 15.4076C16.0079 15.5015 15.9676 15.5913 15.9192 15.6776C15.8708 15.764 15.8148 15.8451 15.7512 15.9203C15.6876 15.9962 15.6176 16.0656 15.5412 16.1286C15.4648 16.191 15.3831 16.2458 15.2962 16.2936C15.2093 16.3409 15.1189 16.38 15.025 16.4109C14.931 16.4412 14.8348 16.4628 14.7368 16.4757C14.5303 16.4757 14.4714 16.4757 14.4714 16.7702V17.0946C14.4714 17.2713 14.4714 17.3302 14.2357 17.3302H13.8525C13.5876 17.3302 13.5579 17.3302 13.5579 17.0654V16.8C13.5579 16.5935 13.5579 16.5346 13.2925 16.4757ZM8.84221 10.4632H10.9346C11.2887 10.4632 11.3768 10.4632 11.1703 10.9346C11.032 11.172 10.9095 11.417 10.8034 11.6701C10.6972 11.9233 10.6085 12.1823 10.5368 12.4477C10.465 12.7126 10.4108 12.9815 10.3746 13.2533C10.3385 13.5257 10.3204 13.7993 10.3204 14.0735C10.3204 14.3482 10.3385 14.6218 10.3746 14.8937C10.4108 15.1661 10.465 15.4344 10.5368 15.6998C10.6085 15.9647 10.6972 16.2236 10.8034 16.4774C10.9095 16.7306 11.032 16.9756 11.1703 17.2124C11.3476 17.4778 11.1703 17.6254 10.9055 17.6254H8.84221C8.51788 17.6254 8.40004 17.6254 8.28221 17.0357C8.23904 16.849 8.17313 16.6705 8.08388 16.5007C7.99521 16.3304 7.88613 16.1747 7.75721 16.0329C7.62771 15.8911 7.48304 15.7675 7.32263 15.6631C7.16163 15.5581 6.99013 15.4752 6.80871 15.4146C6.39571 15.4146 6.30763 15.1789 6.30763 14.7665V13.2924C6.30763 12.88 6.30763 12.7913 6.80871 12.6735C6.99363 12.6146 7.16804 12.5317 7.33079 12.4256C7.49413 12.32 7.64054 12.194 7.77004 12.0493C7.89954 11.9041 8.00804 11.7442 8.09496 11.5704C8.18188 11.3966 8.24429 11.214 8.28221 11.0232C8.28221 10.6102 8.51788 10.4632 8.87138 10.4632H8.84221ZM17.0357 10.4632H19.3644C19.6887 10.4632 19.7768 10.4632 19.8946 11.0524C19.9285 11.2227 19.9815 11.3861 20.0545 11.5436C20.1268 11.7011 20.2172 11.8475 20.3251 11.9834C20.4325 12.1193 20.5544 12.2406 20.6909 12.3474C20.828 12.4542 20.975 12.5428 21.1325 12.6146C21.5157 12.6146 21.6925 12.9097 21.6925 13.2632V14.7367C21.6989 14.7735 21.7018 14.8108 21.7006 14.8482C21.6995 14.8855 21.6942 14.9222 21.686 14.9584C21.6773 14.9951 21.6656 15.0302 21.6499 15.064C21.6341 15.0984 21.6155 15.1305 21.5933 15.1602C21.5717 15.1906 21.5466 15.2186 21.5192 15.2436C21.4918 15.2687 21.462 15.2909 21.43 15.3107C21.3979 15.33 21.3646 15.3457 21.329 15.3586C21.294 15.3708 21.2579 15.3801 21.2211 15.3854C21.0578 15.4472 20.9044 15.5277 20.7609 15.6275C20.6174 15.7267 20.4879 15.8421 20.3724 15.9728C20.2569 16.1041 20.1583 16.247 20.0778 16.4016C19.9973 16.5562 19.936 16.7189 19.8946 16.8887C19.8946 17.4189 19.659 17.5367 19.3346 17.5367H17.0946C16.7114 17.5367 16.6525 17.5367 16.859 17.0946C16.9943 16.8577 17.1133 16.6133 17.2165 16.3607C17.3198 16.1082 17.4067 15.8503 17.4767 15.5866C17.5467 15.323 17.5992 15.0558 17.6342 14.7851C17.6692 14.5151 17.6873 14.2432 17.6873 13.9702C17.6873 13.6978 17.6692 13.426 17.6342 13.1559C17.5992 12.8852 17.5467 12.6181 17.4767 12.3544C17.4067 12.0907 17.3198 11.8329 17.2165 11.5803C17.1133 11.3277 16.9943 11.0833 16.859 10.8465C16.6525 10.5222 16.6525 10.3746 17.0655 10.3746L17.0357 10.4632Z" fill="#E5E0FF"/>
</g>
</g>
<defs>
<clipPath id="clip0_120_1126">
<rect width="28" height="28" fill="white"/>
</clipPath>
</defs>
</svg>
