<svg width="28" height="28" viewBox="0 0 28 28" fill="none" xmlns="http://www.w3.org/2000/svg">
<g clip-path="url(#clip0_132_1334)">
<path d="M6.99992 22.1667C6.99992 23.45 8.04992 24.5 9.33325 24.5H18.6666C19.9499 24.5 20.9999 23.45 20.9999 22.1667V10.5C20.9999 9.21667 19.9499 8.16667 18.6666 8.16667H9.33325C8.04992 8.16667 6.99992 9.21667 6.99992 10.5V22.1667ZM20.9999 4.66667H18.0833L17.2549 3.83833C17.0449 3.62833 16.7416 3.5 16.4383 3.5H11.5616C11.2583 3.5 10.9549 3.62833 10.7449 3.83833L9.91659 4.66667H6.99992C6.35825 4.66667 5.83325 5.19167 5.83325 5.83333C5.83325 6.475 6.35825 7 6.99992 7H20.9999C21.6416 7 22.1666 6.475 22.1666 5.83333C22.1666 5.19167 21.6416 4.66667 20.9999 4.66667Z" fill="#E5E0FF"/>
</g>
<defs>
<clipPath id="clip0_132_1334">
<rect width="28" height="28" fill="white"/>
</clipPath>
</defs>
</svg>
