<svg width="28" height="28" viewBox="0 0 28 28" fill="none" xmlns="http://www.w3.org/2000/svg">
<g clip-path="url(#clip0_120_1128)">
<mask id="mask0_120_1128" style="mask-type:luminance" maskUnits="userSpaceOnUse" x="0" y="0" width="28" height="28">
<path d="M0 0H27.9253V27.9253H0V0Z" fill="white"/>
</mask>
<g mask="url(#mask0_120_1128)">
<path fill-rule="evenodd" clip-rule="evenodd" d="M14.059 -1.72852e-05C14.2888 -1.72852e-05 14.5192 0.00581605 14.749 0.0168993C14.9789 0.0279827 15.2081 0.0448993 15.4368 0.0676494C15.666 0.0903994 15.8941 0.118399 16.1216 0.152233C16.3497 0.186066 16.576 0.225149 16.8018 0.270066C17.0275 0.314983 17.2521 0.365149 17.475 0.421149C17.6984 0.477149 17.92 0.538399 18.14 0.605483C18.3605 0.671983 18.5786 0.744316 18.795 0.821899C19.012 0.899483 19.2267 0.982316 19.439 1.0704C19.652 1.15848 19.862 1.25123 20.0702 1.34982C20.2779 1.4484 20.4832 1.55165 20.6862 1.66015C20.8892 1.76865 21.0893 1.88182 21.2865 2.00023C21.4842 2.11865 21.6785 2.24173 21.8698 2.36948C22.0611 2.49723 22.249 2.62965 22.4339 2.76673C22.6188 2.90382 22.8002 3.04498 22.9781 3.1914C23.1555 3.33723 23.3299 3.48715 23.5002 3.64173C23.6711 3.79632 23.8374 3.95498 24.0001 4.11773C24.1629 4.28048 24.3215 4.44732 24.4761 4.61765C24.6307 4.78798 24.7806 4.9624 24.9265 5.14032C25.0729 5.31765 25.214 5.49907 25.3511 5.68398C25.4882 5.8689 25.6206 6.05673 25.7484 6.24807C25.8761 6.4394 25.9992 6.63365 26.1176 6.8314C26.236 7.02857 26.3492 7.22865 26.4577 7.43165C26.5662 7.63465 26.6695 7.83998 26.768 8.04823C26.8666 8.2559 26.96 8.46648 27.048 8.67882C27.1355 8.89115 27.2184 9.10582 27.296 9.32282C27.3735 9.53923 27.4459 9.7574 27.5124 9.9779C27.5795 10.1978 27.6407 10.4195 27.6967 10.6429C27.7527 10.8663 27.8029 11.0903 27.8478 11.3161C27.8927 11.5418 27.9318 11.7687 27.9656 11.9962C27.9995 12.2237 28.0275 12.4518 28.0502 12.6811C28.073 12.9097 28.0899 13.1396 28.101 13.3688C28.112 13.5986 28.1179 13.8291 28.1179 14.0589C28.1179 14.2887 28.112 14.5191 28.101 14.749C28.0899 14.9788 28.073 15.2081 28.0502 15.4367C28.0275 15.666 27.9995 15.8941 27.9656 16.1216C27.9318 16.3496 27.8927 16.576 27.8478 16.8017C27.8029 17.0275 27.7527 17.2521 27.6967 17.4749C27.6407 17.6983 27.5795 17.92 27.5124 18.1399C27.4459 18.3604 27.3735 18.5786 27.296 18.795C27.2184 19.012 27.1355 19.2267 27.048 19.439C26.96 19.6519 26.8666 19.8619 26.768 20.0702C26.6695 20.2778 26.5662 20.4832 26.4577 20.6861C26.3492 20.8892 26.236 21.0892 26.1176 21.2864C25.9992 21.4841 25.8761 21.6784 25.7484 21.8697C25.6206 22.0611 25.4882 22.2489 25.3511 22.4338C25.214 22.6187 25.0729 22.8001 24.9265 22.9781C24.7806 23.1554 24.6307 23.3298 24.4761 23.5002C24.3215 23.6711 24.1629 23.8373 24.0001 24.0001C23.8374 24.1628 23.6711 24.3215 23.5002 24.4761C23.3299 24.6306 23.1555 24.7806 22.9781 24.9264C22.8002 25.0728 22.6188 25.214 22.4339 25.3511C22.249 25.4881 22.0611 25.6206 21.8698 25.7483C21.6785 25.8761 21.4842 25.9992 21.2865 26.1176C21.0893 26.236 20.8892 26.3491 20.6862 26.4577C20.4832 26.5662 20.2779 26.6694 20.0702 26.768C19.862 26.8666 19.652 26.9599 19.439 27.048C19.2267 27.1355 19.012 27.2183 18.795 27.2959C18.5786 27.3735 18.3605 27.4458 18.14 27.5123C17.92 27.5794 17.6984 27.6406 17.475 27.6967C17.2521 27.7527 17.0275 27.8028 16.8018 27.8477C16.576 27.8927 16.3497 27.9317 16.1216 27.9656C15.8941 27.9994 15.666 28.0274 15.4368 28.0501C15.2081 28.0729 14.9789 28.0898 14.749 28.1009C14.5192 28.112 14.2888 28.1178 14.059 28.1178C13.8291 28.1178 13.5987 28.112 13.3689 28.1009C13.1396 28.0898 12.9098 28.0729 12.6811 28.0501C12.4519 28.0274 12.2238 27.9994 11.9963 27.9656C11.7688 27.9317 11.5419 27.8927 11.3161 27.8477C11.0904 27.8028 10.8664 27.7527 10.643 27.6967C10.4195 27.6406 10.1979 27.5794 9.97796 27.5123C9.75746 27.4458 9.53929 27.3735 9.32288 27.2959C9.10588 27.2183 8.89121 27.1355 8.67888 27.048C8.46654 26.9599 8.25596 26.8666 8.04829 26.768C7.84004 26.6694 7.63471 26.5662 7.43171 26.4577C7.22871 26.3491 7.02863 26.236 6.83146 26.1176C6.63371 25.9992 6.43946 25.8761 6.24813 25.7483C6.05679 25.6206 5.86896 25.4881 5.68404 25.3511C5.49913 25.214 5.31771 25.0728 5.14038 24.9264C4.96246 24.7806 4.78804 24.6306 4.61771 24.4761C4.44738 24.3215 4.28054 24.1628 4.11779 24.0001C3.95504 23.8373 3.79638 23.6711 3.64179 23.5002C3.48721 23.3298 3.33729 23.1554 3.19146 22.9781C3.04504 22.8001 2.90388 22.6187 2.76679 22.4338C2.62971 22.2489 2.49729 22.0611 2.36954 21.8697C2.24179 21.6784 2.11871 21.4841 2.00029 21.2864C1.88188 21.0892 1.76871 20.8892 1.66021 20.6861C1.55171 20.4832 1.44846 20.2778 1.34988 20.0702C1.25129 19.8619 1.15854 19.6519 1.07046 19.439C0.982377 19.2267 0.899544 19.012 0.82196 18.795C0.744377 18.5786 0.672044 18.3604 0.605544 18.1399C0.53846 17.92 0.47721 17.6983 0.42121 17.4749C0.36521 17.2521 0.315044 17.0275 0.270127 16.8017C0.22521 16.576 0.186127 16.3496 0.152294 16.1216C0.11846 15.8941 0.0904605 15.666 0.0677104 15.4367C0.0449604 15.2081 0.0280438 14.9788 0.0169604 14.749C0.00587708 14.5191 4.375e-05 14.2887 4.375e-05 14.0589C-0.000539583 13.8285 0.00471042 13.5986 0.0157938 13.3688C0.0262937 13.139 0.042627 12.9092 0.0647938 12.6799C0.0869604 12.4507 0.11496 12.2226 0.14821 11.9945C0.182044 11.767 0.220544 11.5401 0.26546 11.3143C0.309794 11.088 0.35996 10.8634 0.415377 10.64C0.471377 10.4166 0.532044 10.1949 0.598544 9.9744C0.665044 9.7539 0.737377 9.53573 0.814377 9.31873C0.89196 9.10173 0.974211 8.88707 1.06229 8.67415C1.15038 8.46123 1.24313 8.25065 1.34171 8.04298C1.43971 7.83473 1.54296 7.62882 1.65146 7.42582C1.75996 7.22282 1.87313 7.02215 1.99154 6.82498C2.10938 6.62723 2.23246 6.4324 2.36021 6.24107C2.48796 6.04973 2.62038 5.86132 2.75746 5.6764C2.89454 5.49148 3.03629 5.31007 3.18213 5.13215C3.32796 4.95423 3.47846 4.77982 3.63304 4.6089C3.78763 4.43857 3.94629 4.27173 4.10904 4.10898C4.27179 3.94623 4.43863 3.78757 4.60896 3.63298C4.77988 3.4784 4.95429 3.3279 5.13221 3.18207C5.31013 3.03623 5.49154 2.89448 5.67646 2.7574C5.86138 2.62032 6.04979 2.4879 6.24113 2.36015C6.43246 2.2324 6.62729 2.10932 6.82504 1.99148C7.02221 1.87307 7.22288 1.7599 7.42588 1.6514C7.62888 1.5429 7.83479 1.43965 8.04304 1.34165C8.25071 1.24307 8.46129 1.15032 8.67421 1.06223C8.88713 0.974149 9.10179 0.891899 9.31879 0.814316C9.53579 0.737316 9.75396 0.664983 9.97446 0.598483C10.195 0.531983 10.4166 0.471316 10.64 0.415316C10.8635 0.359899 11.088 0.309733 11.3144 0.265399C11.5401 0.220483 11.767 0.181983 11.9945 0.148149C12.2226 0.114899 12.4507 0.0868993 12.68 0.0647328C12.9092 0.042566 13.139 0.0262327 13.3689 0.0157328C13.5987 0.00464938 13.8285 -0.000600619 14.059 -1.72852e-05ZM21.1914 13.0276V10.9346C21.1914 10.1978 21.1914 10.1978 22.2525 10.9346C23.3135 11.6713 22.8422 11.3476 22.8422 11.5832V13.1157C22.8422 13.5286 22.8422 13.5286 22.0168 13.5286C21.1914 13.5286 21.1914 13.5286 21.1914 13.1157V13.0276ZM5.57029 12.7913C5.79429 12.7102 6.02529 12.67 6.26329 12.67C6.50129 12.67 6.73229 12.7102 6.95571 12.7913C7.33896 12.7913 7.33896 13.0276 7.19138 13.3811C7.04438 13.7346 6.98546 13.8232 6.89679 14.0589C6.86704 14.1476 6.86704 14.2357 6.89679 14.3243C7.36871 16.3578 7.84004 18.3913 8.28221 20.4254C8.29621 20.4744 8.30204 20.5252 8.29971 20.5765C8.29738 20.6278 8.28688 20.6774 8.26821 20.7252C8.24954 20.7731 8.22388 20.8168 8.19063 20.8559C8.15796 20.8956 8.11946 20.9288 8.07571 20.9557C7.94563 21.0612 7.80738 21.1551 7.66096 21.2374C7.51454 21.3197 7.36229 21.3885 7.20421 21.4445C7.04613 21.5011 6.88396 21.5431 6.71888 21.5716C6.55321 21.6002 6.38696 21.6142 6.21896 21.6142C6.05096 21.6142 5.88471 21.6002 5.71904 21.5716C5.55396 21.5431 5.39179 21.5011 5.23371 21.4445C5.07563 21.3885 4.92338 21.3197 4.77696 21.2374C4.63054 21.1551 4.49229 21.0612 4.36221 20.9557C4.28988 20.8938 4.23796 20.8186 4.20646 20.7287C4.17496 20.6395 4.16796 20.5479 4.18546 20.4546C4.36221 19.6589 4.56871 18.8632 4.74546 18.0676C4.92221 17.2713 4.74546 17.5956 4.33246 17.4487C3.92004 17.3011 3.83138 17.2124 3.92004 16.8297C4.00871 16.4465 4.24438 15.6502 4.39138 15.0611C4.53896 14.4713 4.53896 14.7367 4.98113 14.7367C5.42329 14.7367 5.68871 14.7367 5.65896 14.3535C5.69104 14.2164 5.69104 14.0787 5.65896 13.9411L5.42329 13.4102C5.27571 13.0276 5.27571 12.9686 5.65896 12.8211L5.57029 12.7913ZM5.27571 15.5324C5.27571 15.3265 5.27571 15.2967 5.06979 15.2676C4.86329 15.2378 4.86329 15.2676 4.80438 15.4146C4.74546 15.5622 4.56871 16.2989 4.48004 16.7411C4.39138 17.1832 4.48004 16.9476 4.65679 17.0065C4.83354 17.0654 4.92221 17.0065 4.98113 17.0065C5.04004 17.0065 5.18763 16.0924 5.27571 15.6502V15.5324ZM11.1703 13.0276C11.1703 13.4989 11.1703 13.44 10.3455 13.44C9.52004 13.44 9.49029 13.44 9.49029 13.0276V11.4946C9.49029 11.2886 9.49029 11.2297 10.08 10.8756C11.1114 10.1686 11.1703 10.1978 11.1703 10.8756V13.0276ZM21.1033 20.6313L17.6844 18.5097C17.6844 18.5097 17.4779 18.5097 17.2422 18.5097C17.0065 18.5097 16.7411 18.8632 17.2422 19.1578C18.4211 19.8946 19.6 20.6611 20.8379 21.3687C22.0757 22.0757 22.1935 21.3687 21.2503 20.6313H21.1033ZM20.2779 10.6989V13.0276C20.2779 13.4102 20.2779 13.44 19.8655 13.44H12.6146C12.2022 13.44 12.1725 13.44 12.1725 13.0276V10.6989C12.1725 10.1097 12.1725 10.1097 12.7622 10.2865C13.3117 10.5216 13.8793 10.6989 14.465 10.8191C15.0506 10.9392 15.6421 10.9987 16.24 10.9987C16.838 10.9987 17.4295 10.9392 18.0151 10.8191C18.6008 10.6989 19.1684 10.5216 19.7179 10.2865C20.2487 10.08 20.2779 10.0502 20.2779 10.6989ZM12.1725 6.92648C12.1725 6.86757 12.1614 6.81157 12.1386 6.75732C12.1165 6.70307 12.0844 6.65523 12.043 6.61382C12.0015 6.5724 11.9537 6.5409 11.8995 6.51815C11.8452 6.49598 11.7892 6.4849 11.7303 6.4849C11.672 6.4849 11.6154 6.49598 11.5617 6.51815C11.5075 6.5409 11.4596 6.5724 11.4182 6.61382C11.3768 6.65523 11.3447 6.70307 11.3225 6.75732C11.2998 6.81157 11.2887 6.86757 11.2887 6.92648V9.04865C11.291 9.11865 11.2765 9.18515 11.245 9.24757C11.214 9.31057 11.1691 9.3619 11.1114 9.40215L8.84221 10.9935C8.45896 11.2589 8.37029 11.3767 8.63571 11.6421C8.90113 11.9076 8.84221 11.7897 8.84221 11.7897C8.84221 11.7897 8.98979 11.7897 8.98979 12.0254V13.0865C8.98979 13.44 8.98979 13.4989 8.60654 13.4989C8.22329 13.4989 8.01679 13.7054 8.60654 14C10.7579 15.2378 12.88 16.5346 15.0611 17.8902C15.0611 17.8902 15.2379 17.8902 15.4444 17.8902C15.6503 17.8902 15.9746 17.5367 15.4444 17.2421L13.5579 16.0632C12.6146 15.5032 12.6444 15.3854 13.7346 15.3854H18.7157C19.8946 15.3854 19.8946 15.3854 18.9222 16.0632L11.3768 20.6313C10.4044 21.2211 10.8465 21.9286 11.7898 21.3687C15.8865 18.8924 19.8946 16.24 23.9325 13.9411C24.3455 13.6756 24.4335 13.44 23.9325 13.44C23.4314 13.44 23.579 13.4102 23.579 13.0567V11.7897C23.579 11.7897 23.7557 11.7897 23.9033 11.6124C24.0503 11.4356 23.9033 11.2589 23.6968 11.0232L21.339 9.43132C21.2812 9.39165 21.2369 9.34032 21.2054 9.27732C21.1739 9.21432 21.1599 9.14782 21.1622 9.07782V6.92648C21.1494 6.87573 21.1284 6.82848 21.0998 6.78473C21.0706 6.74098 21.0356 6.70307 20.9942 6.67098C20.9534 6.6389 20.9079 6.61382 20.8583 6.5969C20.8087 6.57998 20.7574 6.57182 20.7055 6.57182C20.653 6.57182 20.6022 6.57998 20.5526 6.5969C20.503 6.61382 20.4575 6.6389 20.4161 6.67098C20.3747 6.70307 20.3397 6.74098 20.3111 6.78473C20.2825 6.82848 20.2615 6.87573 20.2487 6.92648C20.2487 7.45673 20.2487 7.51565 19.9244 7.60432C19.3224 7.80207 18.7093 7.95082 18.084 8.05115C17.4586 8.15148 16.8292 8.20165 16.1957 8.20165C15.5628 8.20165 14.9334 8.15148 14.308 8.05115C13.6827 7.95082 13.069 7.80207 12.4676 7.60432C12.1135 7.60432 12.1433 7.42757 12.1433 6.92648H12.1725Z" fill="#E5E0FF"/>
</g>
</g>
<defs>
<clipPath id="clip0_120_1128">
<rect width="28" height="28" fill="white"/>
</clipPath>
</defs>
</svg>
