<svg width="28" height="28" viewBox="0 0 28 28" fill="none" xmlns="http://www.w3.org/2000/svg">
<mask id="mask0_5_1008" style="mask-type:luminance" maskUnits="userSpaceOnUse" x="0" y="2" width="28" height="23">
<path d="M0.149414 2.79999H27.9254V24.696H0.149414V2.79999Z" fill="white"/>
</mask>
<g mask="url(#mask0_5_1008)">
<path d="M12.7252 5.31768C13.1685 5.31768 13.8081 5.57581 14.6443 6.09264C13.7874 5.69276 12.9284 5.49297 12.0674 5.49297C11.9584 5.49297 11.849 5.49618 11.7396 5.5026C12.0266 5.38681 12.3133 5.32672 12.5997 5.32235L12.6286 5.32206C12.6598 5.31914 12.6919 5.31768 12.7252 5.31768ZM17.5939 3.16489C17.6012 3.16489 17.6088 3.16518 17.6164 3.16547L17.6316 3.16518C18.7163 3.30606 19.479 3.47231 19.92 3.66451C20.0049 4.69993 20.1049 5.47897 20.2204 6.00106C20.0845 6.04014 19.9909 6.11976 19.9392 6.24022L19.7263 7.11931C19.7327 7.12981 19.7079 7.13476 19.6514 7.13476C19.5248 7.13476 19.2401 7.1091 18.7974 7.05718L18.5317 7.08693L18.0239 7.66414C17.4787 8.52718 17.4029 9.06997 17.7967 9.29222C17.8795 9.33276 18.0026 9.35376 18.1662 9.35551L19.0327 9.30651C19.5064 9.33364 19.8611 9.34735 20.0964 9.34735C20.3108 9.34735 20.4263 9.33597 20.4432 9.31381C20.5867 9.28085 20.7089 9.22193 20.8099 9.13706C21.1672 8.66251 21.3932 8.4251 21.4877 8.4251C21.4889 8.4251 21.4903 8.4251 21.4915 8.42539C21.8447 8.30026 22.1641 8.23785 22.4496 8.23785C22.5517 8.23785 22.6494 8.24572 22.7427 8.26176C22.7932 8.23668 22.8387 8.1801 22.8795 8.0926L23.5623 6.52489C23.581 6.51964 23.6043 6.51672 23.632 6.51672C23.737 6.51672 23.9071 6.55493 24.1422 6.63076C25.9094 7.34885 27.0157 7.74347 27.4604 7.81464C27.5377 7.86685 27.5573 7.95989 27.5191 8.09435L27.1968 8.99472L25.7102 12.3643C25.5209 12.838 25.3911 13.2895 25.3211 13.7194L22.0331 12.4626C21.6922 12.3226 21.469 12.2033 21.3637 12.1048C21.2392 11.9884 21.201 11.872 21.2491 11.7556L21.7642 10.8488C21.8295 10.7135 21.8491 10.5744 21.8228 10.4315C21.7309 10.141 21.441 9.99572 20.9534 9.99572C20.9315 9.99572 20.909 9.99601 20.8863 9.9966C19.6298 10.115 18.6935 10.1739 18.0778 10.1739C17.6211 10.1739 17.3408 10.1416 17.2369 10.0765C17.1562 10.1366 17.1022 10.2104 17.0745 10.2976C16.8251 11.1178 16.6638 11.5719 16.5909 11.6594C16.5428 11.7734 16.366 11.9502 16.0607 12.1891C15.9977 12.2617 15.9469 12.3381 15.9084 12.4189C15.7051 12.9701 15.5418 13.3484 15.4187 13.5535C15.3828 13.6346 15.3843 13.7206 15.4231 13.8116C15.4858 13.907 15.5794 13.9548 15.7042 13.9548C15.7287 13.9548 15.7541 13.9531 15.7807 13.9493C17.017 13.6077 18.4176 13.4371 19.9818 13.4371C20.2399 13.4371 20.5027 13.4418 20.7699 13.4511L21.3684 14.6376L22.251 17.2022C23.1234 18.6658 23.5509 19.4367 23.534 19.5146C23.569 19.6123 23.5859 19.6814 23.5848 19.7222C23.2814 19.7654 23.1234 19.8628 23.1099 20.0142C23.0621 20.1618 23.1213 20.354 23.2879 20.5908C23.3713 20.7025 23.5087 20.8128 23.7 20.9213L24.9349 21.6207L25.3701 21.8003C25.4867 21.8321 25.6046 21.8482 25.7233 21.8482C25.7478 21.8482 25.7726 21.8473 25.7971 21.8461C26.3311 21.7455 26.7199 21.6953 26.9634 21.6953C27.0346 21.6953 27.0932 21.6994 27.1396 21.7079C26.3559 22.0106 25.298 22.2699 23.9666 22.4861C23.9199 22.7518 23.4897 22.946 22.6757 23.0694L22.7267 22.778L22.5313 22.3376C22.5074 21.6828 22.4657 21.3136 22.4059 21.2298L20.7069 17.5732L19.691 15.6891C19.5749 15.5633 19.4122 15.5003 19.2028 15.5003C19.1264 15.5003 19.0435 15.5088 18.9543 15.5257C17.2967 15.9763 15.9877 16.4626 15.0279 16.9846C14.9762 17.0024 14.9407 17.0115 14.9217 17.0115C14.9074 17.0115 14.9024 17.0065 14.9065 16.9966C14.9243 16.8983 14.8753 16.8286 14.7598 16.7875C14.7525 16.7869 14.7455 16.7866 14.7385 16.7866C14.6714 16.7866 14.6184 16.8126 14.579 16.8639L12.6552 20.9236C12.5402 21.1412 12.283 21.8514 11.8843 23.0548C11.4491 23.7881 11.0752 24.2142 10.7625 24.3326C9.03645 23.6682 6.76116 23.1546 3.93666 22.7911C3.98799 22.2303 3.88503 21.9071 3.62836 21.8216L3.04532 21.8835C2.53928 21.7773 2.17295 21.7245 1.94574 21.7245C1.83111 21.7245 1.75207 21.7379 1.70832 21.7651C1.61732 21.7869 1.51495 21.8444 1.40149 21.9374C1.34141 21.9753 1.18216 22.1681 0.92374 22.5161C0.88524 22.5625 0.828656 22.5972 0.753698 22.6202C0.72599 22.6275 0.701198 22.6313 0.679323 22.6313C0.553906 22.6313 0.520073 22.5111 0.576948 22.2711C0.734448 21.6866 1.37903 21.1333 2.51041 20.6109C2.63816 20.4695 2.62707 20.3443 2.47716 20.2356H2.47745L2.52441 20.2566C2.48386 20.2195 2.49786 20.1801 2.5667 20.1387C2.84057 19.9068 3.2772 19.6219 3.87686 19.2841C3.96699 19.3947 4.03932 19.5396 4.09386 19.7199C4.17407 20.3449 4.2432 20.6821 4.30095 20.7314C4.3832 20.9163 4.56199 21.0697 4.83732 21.1916C5.51953 21.4646 6.52724 21.6956 7.86074 21.8843L9.58157 22.1151C9.58682 22.1151 9.59207 22.1151 9.59703 22.1151C9.84728 22.1151 10.0039 22.0719 10.0669 21.9853C10.2262 21.9815 10.255 21.4448 10.1538 20.3758C10.3854 20.0638 10.4916 19.7668 10.4726 19.4857C10.5073 19.1821 10.407 18.3447 10.1719 16.9741C10.15 16.646 10.1745 16.3485 10.2457 16.0816L10.4688 15.4636L11.3896 13.503L12.8614 11.5436C12.9681 11.4007 13.0136 11.3038 12.9982 11.2531H12.9979C13.0165 11.2233 13.0057 11.1557 12.9655 11.0507C12.8996 10.9923 12.8307 10.9629 12.7593 10.9629C12.705 10.9629 12.649 10.9798 12.5916 11.0133C12.3795 11.0991 11.9922 11.338 11.4296 11.73C9.94791 12.7902 8.86874 13.6786 8.19149 14.3949C7.93832 14.663 7.7992 14.8563 7.77441 14.9748C7.88612 15.5989 7.85753 16.1651 7.68895 16.6728L7.75282 15.6249C7.71987 15.4554 7.63499 15.3516 7.49878 15.3134C7.46232 15.302 7.42353 15.2965 7.38182 15.2965C7.24941 15.2965 7.08957 15.3528 6.90203 15.4656L5.6432 16.4138C5.59624 16.4036 5.55074 16.3984 5.50699 16.3984C5.3772 16.3984 5.26112 16.4442 5.15845 16.5361C5.29582 16.4133 5.26666 16.2587 5.07095 16.0723C5.16632 15.7351 5.51078 15.2565 6.10491 14.6361C6.36799 14.3666 6.56516 14.201 6.69612 14.1391C6.69174 14.119 6.72907 14.1088 6.80753 14.1088C6.87607 14.1088 6.97641 14.1167 7.10853 14.1321C7.16774 14.1278 7.24007 14.0861 7.32553 14.0073C8.01737 12.8468 9.13678 11.6083 10.6835 10.2918C12.0902 9.0726 13.2671 8.11943 14.2144 7.43226C14.4005 7.30101 14.5469 7.21468 14.6539 7.17297C15.0967 7.14439 15.349 7.08926 15.4102 7.00701C15.5954 6.82997 15.5365 6.63251 15.2335 6.41435H15.2338C15.4837 6.54997 15.7101 6.61793 15.9125 6.61793C16.1353 6.61793 16.329 6.53568 16.4941 6.37176C16.5862 6.2761 16.6784 6.12093 16.77 5.90656C16.7119 5.08143 16.7822 4.33214 16.9809 3.65926C17.0894 3.32997 17.2935 3.16518 17.5937 3.16518L17.5939 3.16489ZM17.5884 2.8006C17.1824 2.8006 16.8843 3.00068 16.6936 3.40114C16.4623 3.98097 16.3599 4.80085 16.3862 5.86047C16.3042 6.05589 16.2094 6.1746 16.1012 6.2166C16.0586 6.24139 16.0058 6.25364 15.9428 6.25364C15.8472 6.25364 15.7282 6.22535 15.5852 6.16847C14.2033 5.37951 13.3584 4.98518 13.0501 4.98518C13.0369 4.98518 13.0247 4.98576 13.0136 4.98722C12.8847 4.96972 12.7572 4.96097 12.6309 4.96097C12.0704 4.96097 11.5325 5.13306 11.0169 5.47693C10.8976 5.62072 10.9294 5.74643 11.1119 5.85406C11.3319 5.83481 11.5489 5.82518 11.7624 5.82518C12.9739 5.82518 14.0788 6.13347 15.0772 6.75006C15.0407 6.74597 15.0039 6.74393 14.9666 6.74393C14.6496 6.74393 14.2984 6.89531 13.9137 7.19835C12.787 8.03543 11.5538 9.04285 10.2145 10.2203C8.79932 11.4392 7.75282 12.6134 7.07528 13.7425C7.02016 13.7273 6.96387 13.72 6.90612 13.72C6.57857 13.72 6.20495 13.9609 5.78553 14.4433C5.21999 15.0346 4.86182 15.5403 4.71074 15.9603C4.65532 16.1268 4.68974 16.2563 4.81428 16.3488C4.70578 16.4713 4.68099 16.6072 4.74049 16.7566C4.81516 16.8945 4.91607 16.9633 5.04353 16.9633C5.06366 16.9633 5.08466 16.9616 5.10624 16.9581C5.17974 16.9488 5.30282 16.8852 5.47549 16.7676C5.51224 16.7808 5.55132 16.7872 5.59303 16.7872C5.6887 16.7872 5.79691 16.7528 5.91737 16.6842L6.96387 15.8611C7.12691 15.7433 7.26341 15.6768 7.37307 15.6613H7.37337C7.19312 16.5871 7.29345 17.05 7.67495 17.05C7.72774 17.05 7.78607 17.0409 7.84966 17.0231C7.99462 16.919 8.08766 16.737 8.12937 16.4774C8.23232 15.8585 8.23203 15.3886 8.12907 15.0675L8.29212 14.8286C9.18374 13.8481 10.5709 12.7377 12.4533 11.4975H12.4536C11.52 12.6581 11.0705 13.2478 11.1049 13.2665L10.1439 15.2994L9.89132 16.0006C9.81374 16.2975 9.78603 16.6241 9.8082 16.9803C10.0404 18.3794 10.1413 19.1896 10.1109 19.411C10.1098 19.577 10.0946 19.7044 10.0663 19.7928C9.87791 20.0556 9.78632 20.2373 9.79187 20.3382L9.82337 21.7079C9.81549 21.7362 9.76066 21.7505 9.65886 21.7505C9.57312 21.7505 9.45382 21.7403 9.30157 21.7201L6.94141 21.3658C6.21428 21.2453 5.54461 21.0688 4.93299 20.8364C4.77257 20.7673 4.66349 20.6628 4.60516 20.5231C4.51824 19.8564 4.42345 19.4507 4.32049 19.306C4.1417 19.0108 4.01774 18.8633 3.94832 18.8633C3.93228 18.8633 3.91945 18.8711 3.90924 18.8866C3.4172 19.0992 2.89191 19.4241 2.33307 19.8613C2.10032 20.074 2.04403 20.2545 2.16449 20.4038C1.10691 20.8647 0.46174 21.4527 0.228406 22.1673C0.0857813 22.6249 0.237156 22.8993 0.682531 22.9909C0.833615 22.9898 0.964865 22.9478 1.07628 22.8646C1.13403 22.8463 1.30611 22.6441 1.59224 22.258C1.65553 22.1853 1.73807 22.1352 1.83986 22.1069C1.84949 22.0929 1.8842 22.0859 1.94399 22.0859C2.10966 22.0859 2.46811 22.1396 3.01907 22.2466C3.04211 22.2486 3.06603 22.2495 3.09082 22.2495C3.20953 22.2495 3.34778 22.2276 3.50528 22.1842C3.60503 22.2933 3.61874 22.5374 3.54641 22.9163C3.55749 22.9982 3.63916 23.0688 3.7917 23.1283C6.56311 23.4868 8.89062 24.01 10.7745 24.6972C10.7759 24.6972 10.7774 24.6972 10.7789 24.6972C11.1122 24.6972 11.5699 24.2404 12.1517 23.3269C12.4341 22.2034 13.3067 20.228 14.77 17.4011C14.9806 17.3816 15.1851 17.3297 15.3834 17.2457C15.8591 16.9598 16.4731 16.6895 17.2253 16.4351C18.1709 16.0988 18.7609 15.916 18.996 15.8868C19.0756 15.8728 19.1453 15.8661 19.2051 15.8661C19.353 15.8661 19.4396 15.9084 19.465 15.9927C19.4405 16.0927 19.7575 16.6971 20.4161 17.806C21.3212 19.8526 21.8534 20.993 22.0127 21.2275C22.099 21.3136 22.1533 21.7082 22.1754 22.4108L22.3653 22.8489L22.2825 23.0983C22.2772 23.1047 22.281 23.1102 22.2942 23.1152C22.2586 23.1236 22.2545 23.1519 22.2813 23.2001C22.3084 23.2989 22.3499 23.3599 22.4053 23.3832C22.4505 23.4171 22.5249 23.434 22.6281 23.434C22.8119 23.434 23.0872 23.3803 23.4547 23.273C23.8651 23.1543 24.0894 23.0038 24.1279 22.8218C26.3457 22.4298 27.5401 22.0693 27.7119 21.7403C27.7845 21.5405 27.6381 21.4124 27.272 21.3558C27.1869 21.3407 27.0859 21.3328 26.9693 21.3328C26.6712 21.3328 26.2696 21.383 25.7644 21.483L25.3975 21.4279L23.8747 20.6016C23.744 20.5316 23.6405 20.4493 23.5647 20.3546C23.5084 20.2851 23.4742 20.2081 23.4632 20.123C23.7178 20.0991 23.8712 20.0124 23.9234 19.864C23.9663 19.7371 23.952 19.5848 23.8805 19.4072C23.8727 19.2617 23.4459 18.4893 22.6004 17.0905L21.665 14.4005C21.4845 13.9647 21.2579 13.5488 20.9852 13.1524C20.5097 13.1104 20.0393 13.0894 19.5741 13.0894C18.2794 13.0894 17.024 13.2516 15.8081 13.5756L16.2698 12.5169C16.6746 12.1704 16.9007 11.9193 16.9485 11.7635C17.0194 11.6588 17.1731 11.2178 17.4093 10.4411C17.5922 10.5053 17.8509 10.5373 18.1849 10.5373C18.235 10.5373 18.2867 10.5368 18.34 10.5353L21.0569 10.365C21.3422 10.3866 21.481 10.4522 21.4731 10.5618C21.4743 10.5616 21.4757 10.5616 21.4769 10.5616C21.5291 10.5618 21.3678 10.8471 20.9933 11.417L20.886 11.7136C20.8387 11.9974 20.9224 12.2211 21.1371 12.3851C21.3212 12.5431 21.6379 12.7073 22.0874 12.8777L25.2193 14.0694C25.2764 14.0977 25.3342 14.1117 25.3931 14.1117C25.4389 14.1117 25.485 14.1033 25.5319 14.0861C25.5882 14.0548 25.6282 14.0076 25.6515 13.944C25.7323 13.4053 25.8822 12.8786 26.1019 12.3646L27.7469 8.59747C27.9064 8.15531 27.9402 7.85985 27.8487 7.71139C27.8131 7.61106 27.7025 7.52297 27.517 7.44685C27.1898 7.41885 26.0969 7.02976 24.2387 6.27931C23.9707 6.19443 23.7697 6.15214 23.6364 6.15214C23.6099 6.15214 23.5857 6.15389 23.5644 6.1571C23.4171 6.17197 23.2989 6.22856 23.21 6.32656L22.5785 7.87706C22.5462 7.87618 22.5135 7.8756 22.4811 7.8756C22.0877 7.8756 21.7064 7.94881 21.3375 8.09551C21.1488 8.15151 20.9052 8.39681 20.6072 8.83139C20.5339 8.90022 20.447 8.94368 20.347 8.96206L17.9431 8.95856C17.8967 8.55168 18.142 8.0401 18.6792 7.42381C19.0981 7.47222 19.4102 7.49643 19.6158 7.49643C19.8109 7.49643 19.9101 7.47456 19.913 7.43081C19.9964 7.38968 20.06 7.30539 20.1037 7.17822L20.2776 6.37731C20.3082 6.38051 20.3371 6.38197 20.3639 6.38197C20.5351 6.38197 20.6223 6.31926 20.6249 6.19414C20.4488 5.36172 20.3484 4.55031 20.3239 3.76018C20.3035 3.60531 20.2542 3.48689 20.1761 3.40493C20.0696 3.23226 19.2305 3.03131 17.6587 2.80147H17.6357C17.6199 2.80089 17.6042 2.8006 17.5887 2.8006H17.5884Z" fill="#E5E0FF"/>
</g>
<path d="M22.5955 8.43616L21.843 9.96741L22.0758 8.45045H22.0772L22.5955 8.43616ZM5.15502 16.4261C5.15531 16.4284 5.15473 16.4316 5.15356 16.4351L5.15502 16.4261ZM17.6529 3.10449C17.3023 3.10449 17.0804 3.23166 16.9871 3.48628C16.7458 4.08333 16.6537 4.88512 16.71 5.89166C16.5542 6.25245 16.3754 6.46012 16.1739 6.51408C16.0978 6.54091 16.0167 6.55403 15.9312 6.55403C15.7979 6.55403 15.6533 6.52195 15.4975 6.45749C14.1089 5.68224 13.3036 5.29462 13.0813 5.29462C13.0679 5.29462 13.0566 5.29608 13.0472 5.2987C12.9101 5.27303 12.7716 5.2602 12.6316 5.2602C12.2332 5.2602 11.8234 5.36491 11.4022 5.57491C11.5971 5.56295 11.7852 5.55683 11.9669 5.55683C12.6926 5.55683 13.3147 5.6522 13.8336 5.84324C15.0556 6.27608 15.5859 6.62724 15.4246 6.89674C15.4258 7.00262 15.1528 7.07874 14.6062 7.12453C14.4994 7.17003 14.353 7.25812 14.1669 7.38937C13.1446 8.13691 11.9473 9.10845 10.5748 10.3043C9.07239 11.5876 7.96785 12.8141 7.26056 13.9837C7.21797 14.0274 7.15993 14.0569 7.08614 14.0723C6.98668 14.0537 6.90356 14.0446 6.83677 14.0446C6.75918 14.0446 6.70406 14.0572 6.67052 14.082C6.55093 14.1307 6.34239 14.3062 6.04489 14.6084C5.46564 15.2095 5.11272 15.7048 4.98614 16.0936C5.11535 16.1995 5.17777 16.2706 5.17368 16.3074L5.15502 16.4258C5.15473 16.4223 5.15298 16.4197 5.14977 16.4179C5.10281 16.4655 5.08239 16.4894 5.08852 16.4894C5.09289 16.4894 5.11039 16.4774 5.14131 16.4538L5.01268 16.5935C5.00539 16.6267 5.01852 16.6492 5.05148 16.6609C5.26031 16.5112 5.44639 16.4363 5.60972 16.4363C5.64764 16.4363 5.68439 16.4404 5.71997 16.4485L6.92631 15.5237C7.09081 15.416 7.24656 15.3621 7.39356 15.3621C7.41922 15.3621 7.4446 15.3638 7.46968 15.367C7.60881 15.4198 7.68318 15.5108 7.69281 15.64L7.5951 16.499C7.58752 16.6285 7.61814 16.7183 7.68727 16.7679C7.90747 16.3605 7.95618 15.7707 7.8331 14.9987C7.83922 14.9117 7.95997 14.7397 8.19535 14.4824C8.81427 13.813 9.83335 12.9628 11.2529 11.9312C11.8073 11.534 12.2262 11.2636 12.5097 11.1201C12.608 11.0588 12.6931 11.0282 12.7652 11.0282C12.827 11.0282 12.8792 11.0507 12.9221 11.0959C12.9968 11.1492 12.946 11.307 12.7701 11.5692L11.3448 13.4555C11.2637 13.7731 10.9566 14.4255 10.4237 15.4125L10.1953 16.0303C10.1139 16.3389 10.0854 16.6504 10.1096 16.9648C10.3429 18.3493 10.4438 19.1739 10.412 19.4381C10.4286 19.7578 10.3222 20.0675 10.0926 20.3674C10.1755 21.3908 10.1661 21.9024 10.0646 21.9024C10.0629 21.9024 10.0611 21.9021 10.0591 21.9018C10.0159 22.0057 9.87622 22.0579 9.63997 22.0579C9.57843 22.0579 9.50989 22.0541 9.43522 22.0471L5.40818 21.4197C4.98818 21.322 4.35118 20.6611 3.49689 19.4364C2.95089 19.7581 2.60089 20.0031 2.44689 20.1708L2.53614 20.4231C2.53556 20.4826 2.50843 20.5339 2.45477 20.5774C1.64889 20.9819 1.15948 21.2946 0.9871 21.5145C0.591309 21.9666 0.430017 22.3201 0.503225 22.5759C0.554267 22.6517 0.618725 22.6899 0.696892 22.6899C0.745309 22.6899 0.798683 22.6753 0.8576 22.6462L1.41439 22.0097C1.50598 21.9179 1.62148 21.8531 1.76148 21.8149C1.80523 21.7968 1.8726 21.7881 1.9636 21.7881C2.18381 21.7881 2.54256 21.8403 3.04014 21.945L3.62056 21.8835C3.85623 21.9949 3.93439 22.3102 3.85448 22.8296C6.52293 23.1735 8.85102 23.6924 10.8384 24.3857C11.2249 24.1372 11.5933 23.7005 11.943 23.0758C12.3417 21.8721 12.5986 21.1616 12.7136 20.9446L14.652 16.8779C14.6867 16.8563 14.717 16.8455 14.7433 16.8455C14.8144 16.8455 14.8529 16.9263 14.8591 17.0876L15.0163 17.0523C16.474 16.3322 17.8638 15.8366 19.1851 15.5654C19.2072 15.5633 19.2285 15.5625 19.2495 15.5625C19.4519 15.5625 19.6124 15.6581 19.7308 15.8497L20.6801 17.6592C21.5799 19.6942 22.1178 20.8466 22.2936 21.1164C22.396 21.259 22.4546 21.6682 22.4695 22.3446L22.6649 22.7847C22.683 22.848 22.6565 22.9606 22.5856 23.1227C22.6078 23.1251 22.632 23.1262 22.6579 23.1262C22.8621 23.1262 23.1794 23.0501 23.6105 22.8976C23.6715 22.874 23.7292 22.8433 23.7838 22.8051C23.845 22.6406 23.9203 22.5514 24.0092 22.5374C25.4839 22.2979 26.5969 22.0153 27.3485 21.6892C27.2957 21.6551 27.149 21.6382 26.9081 21.6382C26.8947 21.6382 26.881 21.6382 26.867 21.6382C26.8573 21.6373 26.8454 21.6367 26.8314 21.6367C26.6972 21.6367 26.3703 21.6845 25.8502 21.7799C25.8068 21.7825 25.7651 21.7837 25.7251 21.7837C25.5839 21.7837 25.4667 21.768 25.3731 21.7362L23.7132 20.8568C23.5618 20.7742 23.4376 20.6739 23.3401 20.5561C23.1914 20.363 23.1351 20.1848 23.1707 20.0212C23.1628 19.9095 23.3159 19.8263 23.6298 19.7715C23.6586 19.7435 23.6502 19.6621 23.6044 19.5274C23.6009 19.3979 23.1681 18.6127 22.3056 17.1719L21.4233 14.6072C21.2932 14.264 21.0844 13.8591 20.7959 13.393C20.5043 13.3811 20.2167 13.375 19.9326 13.375C18.4215 13.375 17.0197 13.5465 15.7273 13.8897C15.7253 13.89 15.7233 13.89 15.7212 13.89C15.5468 13.89 15.4581 13.8192 15.4552 13.6774L16.0012 12.3775C16.4413 11.9729 16.6683 11.7212 16.682 11.6215L17.244 10.1468C17.3333 10.2069 17.5969 10.2369 18.0356 10.2369C18.6525 10.2369 19.6156 10.1774 20.9246 10.0584C20.9389 10.0581 20.9529 10.0581 20.9669 10.0581C21.4186 10.0581 21.6846 10.192 21.7651 10.4595C21.7879 10.5647 21.7675 10.6884 21.7042 10.831C21.3559 11.3627 21.1844 11.6655 21.1891 11.7393C21.1302 11.881 21.1812 12.0237 21.3422 12.1672C21.4953 12.2888 21.7348 12.4133 22.0603 12.5408L25.3783 13.8031C25.4363 13.3831 25.5443 12.9681 25.7024 12.5583L27.3532 8.77945C27.5463 8.31599 27.6238 8.01353 27.5859 7.87237L27.567 7.82949C27.532 7.78166 27.4786 7.74783 27.4063 7.7277C27.0598 7.69328 25.9914 7.31237 24.2008 6.58466C23.9596 6.49978 23.768 6.4572 23.626 6.4572C23.6096 6.4572 23.5936 6.45778 23.5784 6.45895C23.4906 6.47674 23.4495 6.49716 23.4551 6.52049L22.8589 7.98845C22.8011 8.12612 22.7495 8.20049 22.7037 8.21187C22.6057 8.19116 22.5016 8.18095 22.3916 8.18095C22.1189 8.18095 21.8089 8.24395 21.4615 8.37053C21.4598 8.37024 21.4577 8.37024 21.4557 8.37024C21.3583 8.37024 21.1337 8.60649 20.7819 9.07899C20.6816 9.16591 20.5617 9.22424 20.4223 9.25428C20.4045 9.2747 20.2931 9.28491 20.0889 9.28491C19.8539 9.28491 19.4957 9.27149 19.0144 9.24466L18.1534 9.29308C17.986 9.28958 17.865 9.26508 17.7897 9.21899C17.4246 8.91887 17.6369 8.25708 18.4267 7.23333C18.4897 7.15983 18.5798 7.12162 18.6971 7.11928L19.5689 7.19395C19.5841 7.19541 19.5989 7.19599 19.6135 7.19599C19.6704 7.19599 19.7226 7.1852 19.7704 7.16362L19.9889 6.28045C20.0254 6.17078 20.1251 6.08678 20.289 6.02874L19.9565 3.6117C19.8486 3.5067 19.1772 3.34599 17.9423 3.1287C17.8376 3.11266 17.741 3.10449 17.6526 3.10449H17.6529Z" fill="#E5E0FF"/>
<path d="M4.04193 19.2372C3.89143 19.1529 3.73947 19.1395 3.58577 19.1972C3.43381 19.2602 3.32327 19.3772 3.25414 19.5481C3.18939 19.7193 3.18502 19.8981 3.2416 20.0842C3.30227 20.2656 3.40639 20.4006 3.55368 20.4893C3.70418 20.5739 3.85614 20.5873 4.00985 20.5295C4.1621 20.4668 4.27264 20.3499 4.34206 20.179C4.40681 20.008 4.41118 19.8293 4.35489 19.6432C4.29422 19.4615 4.19039 19.3264 4.04281 19.2378" fill="#E5E0FF"/>
<path d="M6.11032 21.9269L5.9992 21.7662C5.94087 21.6379 5.89391 21.5562 5.85803 21.5209C5.66991 21.355 5.53399 21.2561 5.45028 21.2243C5.37299 21.1841 5.25166 21.1636 5.08628 21.1631C4.90953 21.1596 4.79957 21.1738 4.75641 21.2065C4.70712 21.2287 4.69516 21.2818 4.72112 21.3661C4.73453 21.4302 4.78207 21.5049 4.86374 21.5895C4.9667 21.6986 5.07724 21.7674 5.19478 21.7966C5.24057 21.8091 5.31582 21.8231 5.42053 21.838C5.4637 21.8441 5.50657 21.8496 5.54887 21.854C5.68595 21.8645 5.76995 21.8724 5.80057 21.8771L6.05112 21.9135C6.08116 21.9185 6.1007 21.9226 6.10945 21.9266" fill="#E5E0FF"/>
<path d="M17.8803 10.2664L16.8962 10.6715C17.0362 10.67 17.1269 10.6683 17.1689 10.6665C17.1978 10.6656 17.227 10.663 17.2562 10.6581C17.2874 10.6534 17.3294 10.6429 17.3822 10.6263C17.3857 10.6266 17.4384 10.6061 17.5402 10.5653C17.6213 10.5289 17.6817 10.493 17.7219 10.4586C17.7319 10.4495 17.7403 10.4411 17.747 10.4329L17.88 10.2669" fill="#E5E0FF"/>
<path d="M17.6 10.3755L17.5953 10.3764C17.5915 10.3769 17.5927 10.3769 17.5991 10.3755M17.593 10.3767L16.9534 10.4974C17.0097 10.5059 17.0718 10.5117 17.14 10.5143C17.1715 10.5155 17.2036 10.5155 17.2372 10.5143C17.2558 10.5137 17.2736 10.5117 17.2905 10.5085C17.3072 10.5056 17.3229 10.5012 17.3378 10.4954C17.3804 10.4755 17.4282 10.4551 17.4813 10.4344C17.4956 10.428 17.5087 10.4219 17.5207 10.4152L17.5697 10.3863C17.5784 10.3819 17.5863 10.3787 17.5927 10.3769" fill="#E5E0FF"/>
<path d="M17.6609 10.3539L16.928 10.5449C16.9755 10.5452 17.0059 10.5443 17.0196 10.5423C17.0298 10.5411 17.04 10.5394 17.0493 10.5376L17.0919 10.528C17.1012 10.5263 17.1103 10.5245 17.119 10.5233C17.1316 10.521 17.1552 10.5187 17.1896 10.5163C17.1989 10.5155 17.2086 10.514 17.2188 10.5125C17.2348 10.5099 17.252 10.5064 17.2707 10.5023C17.3369 10.4866 17.3879 10.4746 17.4244 10.4668C17.4442 10.4615 17.4684 10.4522 17.4961 10.439C17.5941 10.3868 17.6493 10.3585 17.6609 10.3539Z" fill="#E5E0FF"/>
</svg>
