<svg width="28" height="28" viewBox="0 0 28 28" fill="none" xmlns="http://www.w3.org/2000/svg">
<mask id="mask0_5_1006" style="mask-type:luminance" maskUnits="userSpaceOnUse" x="1" y="0" width="26" height="28">
<path d="M1.29492 0.223999H26.7189V27.8507H1.29492V0.223999Z" fill="white"/>
</mask>
<g mask="url(#mask0_5_1006)">
<path d="M11.3294 13.4266C11.3353 13.3368 11.3353 13.2805 11.3353 13.2805C10.919 13.0276 10.9695 12.752 10.9695 12.752C10.9695 12.752 10.8852 12.752 10.9301 12.5778C10.975 12.4034 10.8908 12.516 10.7726 12.4314C10.6545 12.3471 10.2777 11.639 10.2438 11.5658C10.2103 11.4928 10.2666 11.2846 10.2045 11.1778C10.1426 11.0711 10.2103 10.9643 10.1426 10.8911C10.0753 10.8182 10.0303 10.6663 10.019 10.5257C10.0076 10.3854 10.362 10.0818 10.362 10.0818C10.3564 9.96364 10.1371 9.99164 9.98513 9.9861C9.83346 9.98056 9.72642 9.80614 9.79963 9.72185C9.86701 9.63756 9.68705 9.60372 9.67013 9.60372C9.65321 9.60372 9.52955 9.21026 9.43388 9.03031C9.33821 8.85064 9.31576 8.54701 9.31576 8.54701C9.38342 8.53564 9.41696 8.36706 9.41696 8.36706C9.25392 8.33322 9.19763 8.20401 9.1358 8.06343C9.07396 7.92285 8.96721 7.2876 9.08534 7.15839C9.20346 7.03472 9.12471 6.92797 9.10226 6.87168C9.08534 6.81539 8.86601 6.86614 8.77588 6.82122C8.68576 6.77601 8.70851 6.61881 8.67467 6.56806C8.64084 6.5176 8.6633 6.81539 8.56763 6.71418C8.47226 6.61326 8.30892 6.33764 8.24155 6.23643C8.17417 6.13522 8.10096 5.86543 8.11205 5.76422C8.11788 5.66301 8.03913 5.57872 8.03913 5.57872C7.91517 5.16281 8.14588 5.12897 8.14588 5.12897C8.3203 5.06714 8.29201 4.92656 8.29201 4.92656C8.27538 4.97731 8.02221 4.97731 8.02221 4.97731C8.02221 4.97731 7.96592 4.88718 7.94901 4.81981C7.93209 4.75243 7.86471 4.45435 7.88717 4.39251C7.90409 4.33068 7.88717 4.22947 7.88163 4.12272C7.8758 4.01597 7.90409 4.02706 7.90409 3.91476C7.90409 3.80218 7.96038 3.61114 7.96038 3.61114C8.0053 3.49885 8.07851 3.37518 8.07851 3.37518C7.98838 3.37518 7.9773 3.22876 7.9773 3.22876C8.11788 3.00972 8.58455 2.75656 8.6353 2.73993C8.68576 2.72301 8.94476 2.71718 8.97276 2.71718C9.00076 2.71718 9.01213 2.72856 9.07396 2.79039C9.1358 2.85222 9.23146 2.74547 9.30467 2.74547C9.37759 2.74547 9.43388 2.92543 9.51846 2.92543C9.60276 2.92543 9.72642 2.97035 9.73196 3.0491C9.7378 3.13339 9.98513 3.2626 10.0583 3.24568C10.1315 3.22876 10.0863 3.38072 10.1989 3.4481C10.3115 3.51547 10.5308 3.84156 10.5308 3.89231C10.5308 3.94276 10.5647 4.17318 10.5647 4.17318C10.5647 4.17318 10.632 4.17318 10.632 4.23501C10.632 4.29685 10.6714 4.61185 10.7726 4.72414C10.8738 4.83672 11.0089 5.07268 10.9357 5.25264C10.8628 5.4326 10.975 5.76422 10.975 5.76422C10.975 5.76422 10.8852 5.93864 10.649 6.19151C10.4127 6.44439 10.964 6.45576 10.964 6.45576C11.279 6.45576 11.279 7.00672 11.279 7.00672L11.729 8.20401C11.7625 8.48518 11.4195 8.56947 11.4195 8.56947C11.279 8.67622 11.4365 8.80572 11.4365 8.80572C11.4365 8.80572 11.442 8.7156 11.5094 8.69314C11.577 8.67068 11.8582 8.76051 11.8133 8.78297C11.7625 8.80572 11.6952 9.04168 11.6952 9.04168C11.9145 9.02477 11.9653 9.06414 11.9653 9.06414C11.9653 9.06414 11.9653 9.32285 12.0157 9.31701C12.0665 9.31147 12.1846 9.24964 12.1846 9.24964C12.5051 9.47451 12.5839 9.9581 12.5839 9.9581C12.7694 10.0818 12.7918 10.3402 12.7918 10.3402C12.882 10.4303 12.9327 10.582 12.9327 10.582C13.017 11.1105 13.2083 11.2511 13.2083 11.2511C13.4446 11.7177 13.2871 12.1223 13.2871 12.1223C13.2871 12.1223 13.2363 12.3585 13.1856 12.409C13.1351 12.4597 13.0619 12.4314 13.0619 12.4314C13.0619 12.4314 13.1013 12.7464 12.8595 12.78C12.6177 12.8138 12.6851 13.0667 12.5725 13.0836C12.4602 13.1005 12.4713 12.8812 12.4602 12.9713C12.4488 13.0611 12.3701 13.3592 12.1563 13.3703C11.9425 13.3817 11.414 13.5109 11.414 13.5109C11.414 13.5109 11.3239 13.5164 11.3294 13.4266ZM14.907 2.13822C14.8787 2.21143 14.8676 2.20006 14.8 2.23389C14.7268 2.26743 14.6708 2.32372 14.6314 2.3911C14.592 2.45876 14.8113 2.54306 14.8338 2.57106C14.8563 2.59935 14.8507 2.7341 14.8169 2.7341C14.783 2.7341 14.7212 2.70056 14.6708 2.72301C14.62 2.74547 14.5806 2.86914 14.5526 2.97035C14.5302 3.07156 14.7268 3.06018 14.8055 3.06018C14.8843 3.06018 14.9295 3.15585 14.8507 3.18385C14.772 3.21214 14.6818 3.21768 14.6145 3.27397C14.5413 3.32997 14.6086 3.70681 14.5862 3.74035C14.5637 3.77972 14.7101 4.03843 14.7326 4.10581C14.755 4.17318 14.8901 4.19593 14.8956 4.24085C14.9012 4.28576 15.098 4.35314 15.1657 4.63431C15.2331 4.91547 15.1263 4.8761 15.1263 4.8761C15.1263 4.8761 15.1263 4.63985 15.087 4.59493C15.0476 4.55556 14.9799 4.65122 14.907 4.71306C14.8338 4.76935 14.9125 4.96593 14.8676 5.05606C14.8224 5.14589 14.8618 5.54489 14.8618 5.56735C14.8563 5.5901 14.935 5.81497 14.9181 5.87097C14.9012 5.92726 14.9405 6.21397 14.9913 6.27026C15.0418 6.32656 15.1205 6.33764 15.1039 6.38839C15.087 6.43885 15.0531 6.48931 15.0307 6.57389C15.0082 6.65818 15.0925 7.02918 15.0811 7.05164C15.07 7.0741 15.0587 7.32697 15.0645 7.38326C15.07 7.43956 15.1599 7.4731 15.1039 7.52385C15.0476 7.56876 15.0362 7.60814 15.0362 7.60814C15.0362 7.60814 15.2106 7.64751 15.1433 7.70935C15.0756 7.77118 15.1433 7.86685 15.1433 7.86685C15.1433 7.86685 15.2331 7.98468 15.1937 8.00743C15.1543 8.02989 15.1263 8.02989 15.1205 8.07481C15.115 8.11418 15.2894 8.14218 15.2386 8.19293C15.1882 8.24339 15.1657 8.26031 15.1826 8.28276C15.1993 8.30522 15.3008 8.40089 15.2725 8.41781C15.25 8.43443 15.115 8.43443 15.0307 8.48518C14.9464 8.53564 14.8732 8.99676 14.9295 9.32285C14.9858 9.64893 15.0024 9.40714 14.9236 9.78951C14.8393 10.1716 15.2555 10.6103 15.2555 10.6103C15.1882 10.8462 15.4075 11.3298 15.6213 11.5827C15.8351 11.8356 16.5438 11.5322 16.5438 11.5322C16.5438 11.5322 16.51 10.897 16.5943 11.0148C16.6786 11.1329 16.6281 11.6165 16.6281 11.6165C16.6617 11.8863 17.0105 11.5488 17.0105 11.5488C17.0105 11.5488 17.2468 11.7008 17.2523 11.6051C17.2581 11.5153 17.3255 10.9868 17.3424 10.8801C17.3593 10.7733 17.4436 10.3854 17.4492 10.3008C17.455 10.2165 17.4267 9.7726 17.4492 9.55881C17.4719 9.34531 17.2917 8.89001 17.2917 8.89001C17.3649 8.78881 17.2074 8.59747 17.14 8.49072C17.0723 8.38397 16.6561 8.32214 16.6561 8.32214C16.4875 8.36151 16.3076 8.30522 16.3076 8.30522C16.3076 8.30522 16.6281 8.25476 16.673 8.20401C16.7238 8.15356 16.7069 8.0016 16.8081 7.96806C16.9093 7.93422 17.0274 7.71489 16.9936 7.6026C16.96 7.48447 16.51 7.51831 16.4762 7.56876C16.4423 7.61951 16.1107 7.65306 16.043 7.65306C15.9757 7.65306 15.8068 7.66997 15.593 7.63614C15.3737 7.6026 15.4413 7.50139 15.4918 7.46756C15.5425 7.43401 16.5605 7.18085 16.7798 7.18085C16.9994 7.18085 16.9373 6.72001 16.9373 6.56806C16.9373 6.41639 16.6617 5.91618 16.7349 5.69131C16.8081 5.46643 16.6844 4.52756 16.718 4.45989C16.7518 4.39251 16.8699 4.15656 16.9262 3.98214C16.9825 3.80801 17.0782 3.45364 17.1117 3.24014C17.1455 3.02081 17.0554 2.87468 17.0388 2.69472C17.0219 2.5206 17.0723 2.22835 17.0723 2.0201C17.0723 1.81214 17.0893 1.60418 17.0668 1.51435C17.0443 1.42422 16.9767 1.2781 16.9542 0.924014C16.9318 0.575472 16.4762 0.384431 16.4762 0.384431C15.3118 0.00759739 15.4355 0.924014 15.385 0.974473C15.3343 1.02522 15.2106 1.30056 15.1094 1.37376C15.0082 1.44668 14.9968 1.55926 14.8956 1.67739C14.7944 1.79522 14.7944 2.06531 14.7944 2.06531C14.7944 2.06531 14.935 2.06531 14.907 2.13822ZM19.6711 3.85847C19.5699 4.47681 19.5868 5.11206 19.7385 5.72485C19.7668 5.83743 19.8006 5.95526 19.8904 6.02293C19.7892 6.13522 19.8006 6.30381 19.823 6.45576C19.879 6.78739 19.9747 7.11901 20.1042 7.43401C20.1436 7.53522 20.1999 7.64197 20.2955 7.68689C20.1774 7.78256 20.1322 7.93976 20.1098 8.09172C20.0648 8.37843 20.0704 8.66514 20.1153 8.95185C20.3405 8.99122 20.5712 9.03031 20.796 9.06414C20.8354 9.06968 20.8803 9.07551 20.9197 9.0586C20.9705 9.03614 20.9929 8.97985 21.0154 8.92939C21.1729 8.53564 21.3304 8.11418 21.2403 7.70381C21.1898 7.4731 21.0661 7.24851 21.0997 7.01781C21.1335 6.78185 21.3304 6.55697 21.2516 6.3321C21.1843 6.3601 21.0941 6.37147 21.0434 6.31518C20.9705 6.23089 21.0717 6.10168 21.1729 6.05093C21.2741 6.00601 21.4091 5.9611 21.4316 5.85406C21.5273 5.94418 21.6961 5.85989 21.741 5.73622C21.786 5.61256 21.7521 5.47751 21.7241 5.35385C21.5835 4.72414 21.634 4.05535 21.8703 3.45364C21.9659 3.20076 22.0954 2.90851 21.949 2.68364C21.8478 2.52614 21.6454 2.46431 21.4599 2.43047C21.1673 2.37447 20.8579 2.34618 20.5712 2.43047C20.5373 2.44185 20.5035 2.45322 20.4641 2.46431C19.9298 2.67226 19.7778 3.24014 19.6825 3.75726C19.688 3.7911 19.6766 3.82464 19.6711 3.85847ZM21.0997 11.6894C21.2009 11.5264 21.2123 11.4141 21.1898 11.2904C21.1673 11.1668 21.139 10.8631 21.1784 10.6158C21.2178 10.3629 21.0548 10.2279 21.0548 10.1267C21.0548 10.0255 21.0154 9.87381 20.8917 9.72768C20.768 9.57572 20.8634 9.41268 20.8859 9.25518C20.9086 9.10906 20.6893 9.18781 20.4866 9.16535C20.2842 9.14289 20.2955 8.96293 20.0873 9.14289C19.9184 9.28347 19.7498 9.54189 19.7498 9.54189C19.7498 9.54189 19.6766 9.58126 19.5979 9.59264C19.525 9.60372 19.4293 9.73322 19.2493 10.0704C18.9848 10.5595 19.1872 10.897 19.1254 10.9982C19.0635 11.0991 19.0635 11.2228 19.0749 11.4141C19.086 11.5996 19.0974 11.5882 19.086 11.6894C19.0749 11.7906 19.1085 12.0155 19.0635 12.1056C19.0131 12.1955 19.1872 12.3416 19.1537 12.409C19.1143 12.4708 19.0805 12.4708 19.1537 12.6621C19.2266 12.8476 19.1143 12.8476 19.1143 12.8476L20.1042 13.3986C20.1042 13.3986 20.2673 13.3592 20.3574 13.3085C20.4472 13.258 20.346 13.1343 20.3349 13.0218C20.3235 12.9095 20.3743 12.8363 20.4361 12.7575C20.498 12.6791 20.3743 12.3923 20.3854 12.2459C20.3968 12.0998 20.4361 12.1561 20.509 12.0324C20.5823 11.9088 20.5992 11.7682 20.6724 11.7682C20.7453 11.7682 20.6724 11.83 20.6499 11.9312L21.0997 11.6894ZM26.3138 7.58014C26.3138 7.58014 26.1452 7.51247 26.0609 7.57431C25.9708 7.63614 25.7853 7.82747 25.7853 7.87793C25.7853 7.92868 25.6841 7.71489 25.622 7.72626C25.5601 7.73735 25.1104 8.11418 24.756 8.77743C24.4016 9.44097 24.5198 9.51943 24.5198 9.66556C24.5198 9.81197 24.4296 9.94118 24.469 10.1547C24.5084 10.3685 24.5591 10.4697 24.4183 10.5426C24.2777 10.6158 24.182 11.1837 24.1934 11.4476C24.2048 11.7119 24.1202 11.6334 24.0808 11.6501C24.0414 11.6614 23.9796 11.9143 23.9067 11.9257C23.8335 11.9368 23.6535 12.0887 23.5689 11.9481C23.5689 11.9481 23.2933 12.3361 23.2315 12.5271C23.1696 12.7126 22.9054 12.915 22.8322 13.2411C22.759 13.5672 22.7703 14.0674 22.7196 14.2418C22.6691 14.4159 22.894 14.7814 22.894 14.8715C22.894 14.9613 22.8042 15.0456 22.7703 15.0961C22.731 15.1468 23.3102 15.4336 23.4342 15.4336C23.5578 15.4336 23.7716 15.3603 23.811 15.321C23.8504 15.2819 23.496 15.1693 23.5578 15.1355C23.6197 15.0961 23.9067 15.2591 23.9965 15.2367C24.0866 15.2142 24.0359 15.0736 24.0473 14.9838C24.0583 14.894 24.4635 13.7921 24.5985 13.8031C24.7391 13.8145 24.8348 13.629 24.8348 13.629C24.8348 13.629 25.2227 13.5672 25.2116 13.3029C25.2002 13.0387 25.1495 13.0725 25.2227 12.9658C25.2959 12.8587 25.4872 12.7351 25.5432 12.6283C25.5995 12.5216 25.7121 12.3136 25.7121 12.2179C25.7121 12.1223 25.6278 11.7513 25.6278 11.6221C25.6278 11.4928 25.7345 11.0093 25.7853 10.9643C25.8358 10.9194 25.5208 10.6269 25.4758 10.5315C25.4309 10.4358 25.3633 10.3571 25.4758 10.3346C25.5884 10.3177 25.8133 10.3685 25.909 10.3796C26.0046 10.3909 26.179 10.3122 26.1846 10.2503C26.1901 10.1885 26.2633 9.99164 26.2913 9.89043C26.3196 9.78951 26.1566 9.81751 26.1228 9.8286C26.0834 9.83443 26.2184 9.54189 26.2689 9.44651C26.3196 9.34531 26.4095 9.21026 26.4153 9.14843C26.4208 9.09214 26.3815 9.01368 26.4713 8.91247C26.5614 8.81126 26.7189 8.61993 26.6965 8.5581C26.674 8.49626 26.5559 8.30522 26.5559 8.24893C26.5559 8.19293 26.5334 7.9736 26.4882 7.91731C26.4433 7.86101 26.3365 7.66997 26.3365 7.66997L26.3138 7.58014ZM15.908 18.7279C15.8911 18.7055 15.7674 18.6547 15.6942 18.6436C15.6213 18.6323 15.3737 18.5086 15.3737 18.5086L15.3174 18.5366C15.3174 18.5366 15.402 18.6436 15.4075 18.6603C15.413 18.6716 15.5032 18.7279 15.5143 18.7279C15.5256 18.7279 15.6099 18.8178 15.6548 18.8741C15.6942 18.9303 15.7843 18.9863 15.8237 18.9808C15.8631 18.9753 15.8182 18.9245 15.8013 18.8741C15.7788 18.8178 15.9249 18.7504 15.908 18.7279ZM23.3779 16.0743C23.3047 15.8778 22.5959 15.428 22.5565 15.428C22.5172 15.428 22.3092 15.3717 22.2809 15.321C22.2471 15.2705 22.1179 15.0736 22.0447 15.0063C21.9715 14.9389 22.0053 14.9444 21.7915 14.6297C21.578 14.3147 21.3978 14.4218 21.2461 14.3092C21.0941 14.1969 20.8859 14.0169 20.8693 13.9945C20.8523 13.9776 20.5204 13.8933 20.4361 13.8145C20.3515 13.7302 20.1042 13.5841 20.0593 13.5109C20.0141 13.4435 19.0186 12.8646 18.9568 12.8646C18.895 12.8646 18.7879 12.8756 18.6923 12.8027C18.5969 12.7295 18.4618 12.7015 18.3323 12.6283C18.2087 12.5551 17.9555 12.5326 17.8992 12.544C17.8429 12.5551 17.7362 12.5551 17.6913 12.4483C17.646 12.3416 17.4775 12.3305 17.4212 12.3471C17.3649 12.3641 17.3538 12.6228 17.32 12.6791C17.2861 12.7351 17.2188 13.0894 17.1231 13.0667C17.0274 13.0501 17.1286 12.8701 16.9656 12.7464C16.8025 12.6228 16.4762 12.7969 16.4762 12.7969C16.3018 12.5609 16.0769 12.6732 15.8969 12.6732C15.7225 12.6732 15.6607 12.7464 15.3681 12.6338C15.0811 12.5216 14.7268 12.8193 14.6538 12.8193C14.5806 12.8193 14.6538 12.8193 14.5019 12.8418C14.3499 12.8646 14.2881 12.943 14.1644 12.9658C14.0408 12.9882 13.99 12.8646 13.8774 12.8138C13.7651 12.7633 13.6919 12.9882 13.5738 13.0162C13.4612 13.0387 13.225 13.1399 13.225 13.0894C13.225 13.0387 12.91 13.1285 12.8595 13.3029C12.8088 13.4771 12.5839 13.5896 12.5839 13.5053C12.5839 13.4152 12.3476 13.5164 12.3476 13.5164C12.0606 13.7807 11.4645 14.0898 11.4645 14.0898C11.4645 14.0898 11.2565 14.5454 11.2565 14.6466C11.2565 14.7476 11.3183 14.9106 11.3183 14.9838C11.3183 15.057 11.307 15.2367 11.2171 15.3603C11.127 15.484 11.5038 15.5852 11.5038 15.5852C11.5038 15.5852 11.3913 15.6246 11.279 15.6864C11.1664 15.7483 11.5321 16.0014 11.3294 16.1531C11.127 16.3048 11.3183 16.4906 11.3519 16.5016C11.3913 16.513 11.7007 16.7379 11.7007 16.7379L12.0665 16.7603C12.0665 16.7603 12.044 17.0246 12.0775 17.064C12.1169 17.1031 12.4039 17.064 12.5051 17.064C12.6063 17.064 12.8201 17.2999 12.8201 17.2999L12.9327 17.4011C12.9327 17.4011 12.4938 17.3279 12.4039 17.3113C12.3138 17.2999 12.0551 17.3731 11.9877 17.3731C11.92 17.3731 11.6109 17.4854 11.6109 17.4854L11.4251 17.834C11.4251 17.834 12.0157 17.9859 12.0775 17.9746C12.1394 17.9632 12.73 17.9352 12.8426 17.9352C12.882 17.9352 12.9213 17.9521 12.9607 17.9746L12.9887 17.9576C12.9887 17.9576 13.3095 17.9576 13.3714 17.9521C13.4388 17.9466 13.7199 17.969 13.7199 17.969C13.7199 17.969 13.9226 18.0026 14.0125 18.0419C14.1026 18.0813 14.1869 18.0026 14.1869 18.0026C14.1869 18.0026 14.277 17.7497 14.305 17.7497C14.3275 17.7497 14.4287 18.025 14.4287 18.025C14.4287 18.025 14.6369 18.1262 14.6649 18.1656C14.6874 18.205 14.935 18.2499 15.1094 18.2837C15.2838 18.3176 15.4413 18.3849 15.4413 18.3849L15.8517 18.4917C15.8517 18.4917 16.2175 18.6267 16.2513 18.6323C16.2848 18.6378 16.51 18.7504 16.5605 18.8067C16.6112 18.8627 16.7124 18.8796 16.8136 18.8402C16.9148 18.8008 16.8475 18.5141 16.8475 18.5141C16.8475 18.5141 17.016 18.7559 17.016 18.7839C17.016 18.8067 17.1062 18.9922 17.1062 18.9922C17.1062 18.9922 17.3144 19.0934 17.455 19.1438C17.5956 19.1943 17.8712 19.4924 17.7642 19.4699C17.6574 19.4475 17.5393 19.4192 17.5393 19.4192C17.5393 19.4192 17.7248 19.5542 17.7417 19.5767C17.7586 19.5991 17.5393 19.5991 17.4098 19.5542C17.275 19.5038 17.3873 19.5038 17.168 19.453C16.9487 19.4026 17.0443 19.4755 17.0105 19.5429C16.9767 19.6105 16.8755 19.5656 16.8192 19.5767C16.7632 19.5822 16.7687 19.7511 16.7687 19.8354C16.7687 19.9197 16.7349 20.2962 16.7124 20.3021C16.69 20.3076 16.7124 19.9535 16.7124 19.9083C16.7124 19.8689 16.6057 19.8185 16.5888 19.7003C16.5718 19.5822 16.5325 19.3349 16.5494 19.2564C16.5663 19.1832 16.4931 18.9808 16.3919 18.9808C16.2907 18.9808 15.9981 19.3013 16.015 19.3124C16.032 19.3238 16.0993 19.4924 16.195 19.6216C16.2907 19.7511 16.3076 19.7003 16.3356 19.8016C16.358 19.9028 16.4651 20.0827 16.4651 20.0827L16.7404 20.4593L16.9148 20.8755C16.9148 20.8755 17.1511 21.4037 17.2412 21.5387C17.331 21.6793 17.4661 22.1684 17.4661 22.1684L17.6067 21.6568L17.5562 22.2583C17.5562 22.2583 17.5338 22.3819 17.5562 22.4718C17.5787 22.5619 17.6067 22.6462 17.5787 22.7754C17.5562 22.8991 17.8149 22.9498 17.7925 22.9892C17.77 23.0286 17.5673 23.2251 17.5673 23.2251L17.5279 23.7143L17.4661 23.6749C17.4661 23.6749 17.4156 23.5232 17.4436 23.4725C17.4661 23.422 17.4436 23.2196 17.3704 23.1239C17.2975 23.0227 17.1963 22.9215 17.2581 22.8711C17.32 22.8203 17.2581 22.6686 17.2581 22.5844C17.2581 22.5001 17.0837 22.4607 16.9825 22.4213C16.8813 22.3819 16.7463 22.2358 16.7798 22.2358C16.8192 22.2358 16.9542 22.2469 16.9542 22.2469C16.9038 22.3706 17.2188 22.4099 17.2581 22.3706C17.2975 22.3315 17.1062 21.8928 17.1062 21.7916C17.1062 21.6904 16.9656 21.5387 16.9656 21.5387C16.9656 21.5387 16.7518 20.9259 16.7293 20.8755C16.7069 20.8247 16.4651 20.4368 16.4651 20.4368C16.4651 20.4368 16.1501 20.0883 16.1501 19.9701C16.1501 19.8578 15.9643 19.6554 15.9643 19.6554C15.9643 19.6554 15.9868 19.9926 15.9757 20.167C15.9643 20.3411 15.6718 20.3301 15.7619 20.2907C15.8517 20.2513 15.8351 19.824 15.7843 19.8409C15.7336 19.8523 15.6438 19.8803 15.6438 19.8803C15.6438 19.8803 15.7056 19.7677 15.7957 19.7791C15.8855 19.7905 15.8575 19.5656 15.8575 19.453C15.8575 19.3407 15.7674 19.3293 15.6324 19.4026C15.4918 19.4755 15.3457 19.4755 15.3457 19.4755C15.4863 19.4136 15.5481 19.1494 15.4583 19.1383C15.3681 19.1269 14.6649 18.6378 14.7157 18.6098C14.7661 18.5873 15.6831 19.1214 15.6831 19.1214C15.6831 19.1214 15.4638 18.9134 15.4583 18.8796C15.4524 18.8461 15.3906 18.7615 15.3906 18.7615L15.087 18.6772L15.2386 18.6436L15.1657 18.5255L14.6369 18.3176C14.6369 18.3176 14.7268 18.5031 14.7043 18.5031C14.6818 18.5031 14.5302 18.3511 14.5302 18.3511C14.5302 18.3511 14.0125 18.2105 13.962 18.2105C13.9113 18.2105 13.3265 18.1376 13.3265 18.1376L13.017 18.1656C12.9269 18.1994 12.7525 18.2163 12.6119 18.2105C12.4264 18.1994 12.4488 18.1487 12.1228 18.2333C11.892 18.2951 11.8527 18.3511 11.8471 18.3794C11.8413 18.34 11.8302 18.2443 11.7964 18.2219C11.757 18.1994 11.6333 18.3117 11.594 18.3117C11.5546 18.3117 11.3408 18.4748 11.3802 18.4748C11.4195 18.4748 11.5826 18.6267 11.5826 18.6267C11.5826 18.6267 11.4082 18.7898 11.4589 18.8122C11.5094 18.8347 11.5488 19.0146 11.5488 19.0146C11.5488 19.0146 11.3239 18.9639 11.2734 18.9753C11.2227 18.9863 11.0876 19.0765 11.0876 19.0765C11.0876 19.0765 11.1888 19.0765 11.3239 19.0876C11.4645 19.0989 11.2734 19.29 11.2227 19.29C11.1719 19.29 11.0707 19.3124 11.0707 19.3124C11.0707 19.3124 11.0821 19.4361 11.1439 19.4755C11.2058 19.5149 11.3971 19.661 11.4814 19.6893C11.5715 19.7117 11.4306 19.7286 11.3183 19.7286C11.2058 19.7286 11.1045 19.7677 11.0427 19.7905C10.9809 19.8129 10.919 19.9141 10.992 19.9421C11.0652 19.9646 11.3915 20.1163 11.5546 20.1052C11.7176 20.0938 11.9933 20.2458 12.1169 20.3301C12.2409 20.4199 12.3925 20.4817 12.5162 20.5042C12.6402 20.5269 12.2409 20.6561 12.0382 20.4931C11.8358 20.3301 11.4983 20.3411 11.2002 20.2568C10.8963 20.167 10.9357 20.2344 10.7333 20.1839C10.5308 20.1332 10.2438 19.9984 10.154 20.0095C10.0639 20.0209 10.0528 20.1107 10.0922 20.1726C10.1315 20.2344 10.2666 20.3974 10.2328 20.6112C10.1934 20.8247 9.91776 20.9146 9.85592 20.8247C9.79409 20.7349 9.61967 20.7515 9.20346 20.5888C8.78726 20.4257 8.69159 20.6112 8.57346 20.6392C8.46088 20.6617 8.29784 20.6392 8.20771 20.5774C8.11788 20.5156 8.06713 20.4257 8.0333 20.403C7.99392 20.3805 7.69584 20.3021 7.64538 20.3021C7.59463 20.3021 7.29655 20.6392 7.2178 20.8921C7.14459 21.1453 6.94217 21.1788 6.94217 21.2914C6.94217 21.4037 7.40913 21.5781 7.40913 21.7691C7.40913 21.9546 7.7183 22.3032 7.74105 22.3539C7.76351 22.4044 7.88163 22.4945 7.94901 22.5281C8.01667 22.5674 8.1628 22.7585 8.23017 22.8991C8.29784 23.0396 8.48888 23.1802 8.53963 23.2082C8.59038 23.2307 8.87709 23.4894 8.88846 23.5457C8.89955 23.602 9.19209 23.8324 9.25976 23.8324C9.32713 23.8324 9.49571 23.7143 9.52955 23.7198C9.56338 23.7256 9.61384 24.0517 9.61967 24.164C9.62521 24.2763 9.9233 24.4901 9.94021 24.4732C9.95713 24.4563 9.9233 24.2372 9.97405 24.2372C10.0245 24.2372 10.1709 24.507 10.1765 24.5406C10.182 24.5744 10.3847 24.8556 10.4915 24.9229C10.5982 24.9903 10.5982 24.9229 10.6545 24.9343C10.7108 24.9454 10.7163 25.1029 10.6939 25.1816C10.6714 25.2546 11.0707 25.3841 11.1101 25.429C11.1495 25.4739 11.4869 25.9741 11.5263 26.0249C11.5657 26.0753 11.9539 26.3903 11.9708 26.4463C11.9877 26.5026 12.252 26.6432 12.4827 26.677C12.7131 26.7164 12.7469 26.6038 12.7469 26.6376C12.7469 26.6712 12.9327 26.8511 12.9832 26.8567C13.0339 26.8625 13.3206 27.0086 13.512 27.0591C13.6975 27.1098 13.8156 27.2446 14.0688 27.2391C14.3275 27.2335 14.3613 27.0929 14.5526 27.0816C14.7381 27.0705 14.6932 27.2671 14.7495 27.2784C14.8055 27.2898 15.098 27.1098 15.1205 27.2111C15.1374 27.3123 15.4976 27.419 15.7 27.3966C15.9025 27.3796 15.8686 27.2166 15.9643 27.2671C16.06 27.3178 16.2793 27.5258 16.347 27.5033C16.4143 27.4864 16.358 27.3064 16.6168 27.3741C16.8755 27.4359 17.1511 27.2784 17.2468 27.2784C17.3424 27.2784 18.0512 27.627 18.0512 27.627C18.0512 27.627 18.1638 27.6101 18.2142 27.5651C18.265 27.5202 18.6024 27.7057 18.6024 27.7057C19.6935 27.9924 19.8006 27.6101 19.9747 27.6045C20.1491 27.599 20.5543 27.1098 20.5598 26.9862C20.5653 26.8625 20.5992 26.8118 20.6779 26.5534C20.7622 26.2946 20.7622 26.0135 20.824 25.9012C20.8862 25.7886 20.6555 25.5188 20.6555 25.5188C20.6555 25.5188 20.8523 25.4794 20.8523 25.3951C20.8523 25.3053 20.6441 25.114 20.7287 25.0915C20.813 25.0746 21.3922 25.6763 21.426 25.6763C21.4599 25.6763 21.741 25.62 21.8143 25.4625C21.8872 25.3053 21.7017 25.0804 21.7241 24.9568C21.7466 24.8331 22.1403 24.9903 22.1742 24.8891C22.2135 24.7879 22.2305 24.4901 22.3034 24.2763C22.3766 24.0628 22.2529 23.6244 22.1573 23.4106C22.0616 23.1971 21.6568 22.9723 21.5835 22.8766C21.5159 22.7812 21.471 22.6406 21.5386 22.6686C21.606 22.7025 21.9884 23.079 22.1403 23.0286C22.2923 22.9778 22.8322 21.4993 22.8435 21.4375C22.8546 21.3757 22.551 21.1339 22.551 21.1001C22.551 21.061 22.7648 21.1114 22.8153 21.1394C22.866 21.1622 22.9334 21.1563 22.9783 20.8866C23.0235 20.6168 22.6916 20.4706 22.7423 20.4593C22.7928 20.4482 22.9897 20.4368 23.001 20.2962C23.0121 20.1556 22.8829 19.9477 22.8266 19.9141C22.7703 19.8803 22.8266 19.8634 23.029 19.7677C23.2315 19.6723 23.1585 19.3801 23.1865 19.2451C23.209 19.1158 23.0853 19.0202 22.8715 18.8178C22.6578 18.6153 22.7085 18.5311 22.8771 18.4748C23.046 18.4188 23.2145 18.2274 23.3047 17.9801C23.3948 17.7272 23.1585 17.3618 23.1865 17.2944C23.209 17.2326 23.4342 17.12 23.5803 16.9458C23.7209 16.7828 23.4508 16.2712 23.3779 16.0743ZM2.10488 17.0695C2.37496 17.3055 2.27376 17.255 2.47617 17.4685C2.67859 17.6823 2.76288 17.7777 2.89792 17.9576C3.03296 18.1376 3.21292 18.2443 3.38734 18.5873C3.56176 18.9245 4.07917 18.9245 4.09055 18.9639C4.09055 18.9697 4.10163 18.9808 4.11301 18.9977C4.21976 19.1383 4.38863 19.2171 4.56859 19.2171C4.76546 19.2171 4.94542 19.2226 4.96234 19.2564C5.02971 19.3967 4.92296 19.4979 5.01863 19.5204C5.16476 19.5542 5.50776 20.2288 5.74401 20.3245C5.98026 20.4199 7.02646 21.5726 7.08859 21.4544C7.15042 21.3363 8.09542 20.5436 7.94346 20.3525C7.79151 20.1615 7.17842 19.0989 7.17288 18.947C7.16705 18.7953 6.69484 18.4748 6.45276 18.1545C6.20542 17.834 5.92426 17.5528 5.92426 17.5528C5.92426 17.5528 5.44038 17.5642 5.38409 17.4685C5.3278 17.3731 5.50776 16.9794 5.4573 16.8277C5.40655 16.6702 5.13092 16.3611 5.11984 16.3161C5.10846 16.2712 5.08601 16.1137 4.5123 15.5797C3.93859 15.0456 3.45471 14.8601 3.45471 14.8601C3.45471 14.8601 3.02742 14.6128 2.18363 14.7589C1.3343 14.8995 1.29492 15.4505 1.29492 15.4505C1.36813 16.3441 1.65484 16.2543 1.65484 16.2543C1.68313 16.3611 1.8348 16.8333 2.10488 17.0695Z" fill="#E5E0FF"/>
</g>
</svg>
