<svg width="28" height="28" viewBox="0 0 28 28" fill="none" xmlns="http://www.w3.org/2000/svg">
<mask id="mask0_5_1005" style="mask-type:luminance" maskUnits="userSpaceOnUse" x="12" y="2" width="16" height="18">
<path d="M12.4712 2.79999H27.9884V19.9051H12.4712V2.79999Z" fill="white"/>
</mask>
<g mask="url(#mask0_5_1005)">
<path d="M24.9467 9.80002C24.7297 9.98756 23.8217 10.5528 22.6364 10.0167C21.1716 9.35523 21.1871 7.91206 21.2387 7.62156C21.2699 7.44743 21.4869 7.38473 21.5899 7.51656C21.7731 7.74668 21.988 7.98789 22.2429 8.22268C22.6431 8.59573 23.1465 9.06268 23.9562 9.30389C24.2782 9.40014 24.5847 9.44039 24.8507 9.45148C25.0272 9.46023 25.0855 9.67927 24.9467 9.80002ZM23.7392 12.8564C23.3991 12.8564 23.1241 12.5816 23.1241 12.2419C23.1241 11.9024 23.7392 11.0691 23.7392 11.0691C23.7392 11.0691 24.354 11.9024 24.354 12.2419C24.354 12.5816 24.079 12.8564 23.7392 12.8564ZM25.7674 4.40652C24.2782 4.71248 22.3013 4.8936 20.0423 4.51589C18.1949 4.2076 16.6628 3.60881 15.4888 3.00798C14.4286 2.46489 13.1426 3.03014 12.8475 4.1831C12.6923 4.78277 12.5634 5.4466 12.4785 6.16031C12.7629 6.05239 13.0604 5.99727 13.3666 5.99727C14.4933 5.99727 15.49 6.75414 15.7907 7.83681C15.8222 7.94998 15.8511 8.05877 15.8773 8.16464C15.9281 8.16231 15.9785 8.16114 16.0298 8.15793C16.5779 8.12643 17.2645 8.08618 18.0024 7.69739C18.2978 7.54106 18.5393 7.36227 18.7362 7.19048C18.8634 7.07643 19.0626 7.17706 19.0515 7.34681C19.0334 7.61252 18.962 7.95231 18.7496 8.28277C18.4273 8.78327 17.9688 8.97548 17.7186 9.08048C17.5413 9.1566 16.8701 9.43689 16.1086 9.24673C16.12 9.31118 16.1328 9.3736 16.1436 9.43923C16.2606 10.1369 16.33 10.8459 16.3495 11.5459C16.3711 12.3025 16.3562 13.0611 16.3101 13.8119C17.0177 13.221 17.7603 12.9701 18.1835 12.8587C19.1653 12.7222 19.9236 13.0708 20.2144 13.2093C20.3888 13.2942 21.3682 13.7792 21.9434 14.8852C22.2654 15.5085 22.471 16.3441 22.2607 16.4646C22.1088 16.5541 21.827 16.2033 21.3125 15.8346C21.3125 15.8346 20.4022 15.1734 19.0358 14.9007C17.8828 14.6697 16.878 15.0223 16.1754 15.2941C16.1439 15.5531 16.1106 15.8075 16.073 16.0499C15.9342 16.9179 15.7463 17.7331 15.5183 18.4826C16.325 19.1937 17.326 19.6852 18.5706 19.8541C23.4102 20.5086 26.3826 14.4763 27.5524 9.77318C27.8744 8.47498 27.9841 7.26398 27.9885 6.2096C27.9905 5.03885 26.9149 4.17202 25.7674 4.40652Z" fill="#E5E0FF"/>
</g>
<mask id="mask1_5_1005" style="mask-type:luminance" maskUnits="userSpaceOnUse" x="0" y="6" width="16" height="18">
<path d="M0.0117188 6.65698H15.6903V23.7437H0.0117188V6.65698Z" fill="white"/>
</mask>
<g mask="url(#mask1_5_1005)">
<path d="M2.43872 13.3636C2.51689 13.111 2.66681 12.7983 2.95089 12.5279C3.38256 12.1167 3.87227 12.0365 4.14089 11.9939C4.22343 11.9808 4.40368 11.9516 4.63789 11.9516C5.04418 11.9516 5.61235 12.0397 6.11343 12.4521C6.42872 12.7134 6.61889 13.0194 6.73293 13.272C6.79068 13.4029 6.68889 13.5374 6.55764 13.5374C6.53693 13.5374 6.51535 13.5342 6.49347 13.5266C6.2161 13.4327 5.90547 13.3501 5.56306 13.2874C5.23872 13.2285 4.86481 13.1603 4.44218 13.1603C4.16247 13.1603 3.86147 13.19 3.53918 13.272C3.21485 13.3525 2.93747 13.4709 2.70706 13.5914C2.67702 13.6074 2.64639 13.6144 2.61693 13.6144C2.49735 13.6144 2.3976 13.4963 2.43872 13.3636ZM8.34352 18.1909C8.49402 18.1909 8.65006 18.1857 8.81047 18.1737C10.7037 18.0343 11.8205 16.5354 12.2755 16.5354C12.3154 16.5354 12.3501 16.5468 12.3799 16.5719C12.6707 16.8198 12.0331 17.9885 11.973 18.1002C11.4226 19.1056 10.6197 19.6551 10.1813 19.9121C9.6881 20.1264 9.21968 20.1854 8.84372 20.1854C8.52581 20.1854 8.27381 20.1434 8.12827 20.1177C7.93839 20.0841 6.86477 19.8785 6.01281 18.9671C5.53622 18.4531 5.11593 17.7024 5.28364 17.5283C5.30581 17.5055 5.33556 17.4956 5.37318 17.4956C5.54527 17.4956 5.87835 17.7039 6.36835 17.8835C6.36835 17.8835 7.19231 18.1909 8.34352 18.1909ZM9.51485 12.9748C9.57989 12.6956 9.98239 11.7057 11.2573 11.4421C11.4448 11.403 11.6218 11.3855 11.789 11.3855C11.966 11.3855 12.1317 11.4053 12.286 11.44C13.2006 11.6433 13.6994 12.3605 13.798 12.5615C13.8656 12.7026 13.7633 12.8596 13.6268 12.8596C13.6096 12.8596 13.5921 12.8572 13.5743 12.852C13.2925 12.7715 12.9769 12.7044 12.6304 12.6621C12.5701 12.6554 12.5053 12.6464 12.4403 12.6396C12.239 12.6178 12.0214 12.5982 11.7884 12.5982C11.4308 12.5982 11.0365 12.6437 10.6086 12.7939C10.291 12.9056 10.0203 13.0509 9.79689 13.2005C9.76364 13.2221 9.72952 13.2317 9.69656 13.2317C9.58193 13.2317 9.48364 13.1154 9.51485 12.9748ZM0.546682 13.8171C1.75418 18.2009 4.17356 23.7437 8.86939 23.7437C9.1491 23.7437 9.43581 23.7241 9.73185 23.6836C12.3933 23.3173 13.9677 21.1522 14.822 18.4709C15.0793 17.6645 15.2718 16.8111 15.4103 15.9442C15.4707 15.5554 15.52 15.162 15.5602 14.7711C15.6743 13.6742 15.7078 12.5793 15.6786 11.5649C15.6588 10.85 15.5871 10.1777 15.4821 9.54973C15.4284 9.22569 15.3657 8.91302 15.2939 8.61581C15.2493 8.41019 15.198 8.20923 15.1443 8.01702C14.9133 7.1849 14.1628 6.66748 13.3666 6.66748C13.0834 6.66748 12.7943 6.73281 12.5208 6.87311C12.4201 6.92444 12.3151 6.97577 12.2078 7.02944C10.8883 7.66848 9.14385 8.28973 7.03247 8.51315C6.46781 8.57265 5.92356 8.5989 5.40352 8.5989C4.21031 8.5989 3.14397 8.46123 2.24185 8.27631C2.11322 8.24977 1.98518 8.23723 1.85977 8.23723C0.848557 8.23694 -0.00777681 9.05769 0.0120565 10.1173C0.0345149 11.2119 0.17539 12.4699 0.546682 13.8171Z" fill="#E5E0FF"/>
</g>
</svg>
