<svg width="28" height="28" viewBox="0 0 28 28" fill="none" xmlns="http://www.w3.org/2000/svg">
<g clip-path="url(#clip0_5_1001)">
<mask id="mask0_5_1001" style="mask-type:luminance" maskUnits="userSpaceOnUse" x="0" y="16" width="28" height="12">
<path d="M0.074707 16.2773H27.9254V27.888H0.074707V16.2773Z" fill="white"/>
</mask>
<g mask="url(#mask0_5_1001)">
<path d="M26.7255 25.0198L19.8935 24.0155C21.3991 23.7723 23.6225 23.7323 26.9081 24.1798C27.0539 24.1996 27.2004 24.1491 27.303 24.0433C27.4054 23.9377 27.4518 23.7898 27.4276 23.6445C27.4074 23.5258 26.9177 20.6987 24.9828 18.7638C24.9058 18.6868 24.804 18.6393 24.6955 18.6302C24.4266 18.6069 18.383 18.114 15.3114 20.3432C17.0652 17.5904 20.9077 17.1022 24.1726 17.2384C24.2957 17.2451 24.4164 17.2019 24.5074 17.1185C24.5981 17.0351 24.6515 16.9187 24.6553 16.7956C24.6605 16.6728 24.6168 16.553 24.5334 16.4625C24.4502 16.3721 24.3344 16.3182 24.2117 16.3132C20.0551 16.14 15.569 17.008 14.0036 20.8626C12.4377 17.0039 7.94482 16.1411 3.79586 16.3132C3.54036 16.324 3.34144 16.5398 3.35224 16.7956C3.36303 17.0514 3.57886 17.25 3.83494 17.2393C7.1092 17.1045 10.9432 17.5925 12.6958 20.344C9.62424 18.114 3.58061 18.6063 3.31199 18.6282C3.20349 18.6375 3.10169 18.6848 3.02469 18.7618C1.08949 20.6987 0.60007 23.5258 0.579945 23.6445C0.555736 23.7898 0.602111 23.9377 0.704486 24.0433C0.806861 24.1491 0.953278 24.1996 1.09911 24.1798C4.38736 23.7318 6.61249 23.7723 8.11778 24.0153L1.28169 25.0198C0.531528 25.1285 0.0117779 25.8245 0.120278 26.5743C0.229361 27.3242 0.925278 27.844 1.67515 27.7352L9.62949 26.5991C9.6814 26.5918 9.73361 26.6073 9.77299 26.6411C9.81236 26.6755 9.8354 26.7245 9.8357 26.7768C9.8357 27.3887 10.3307 27.8854 10.9426 27.888H17.0649C17.6757 27.8871 18.1709 27.3925 18.1718 26.7814C18.1715 26.728 18.1952 26.677 18.236 26.6426C18.3287 26.558 17.8565 26.525 26.3321 27.7358C27.0819 27.8445 27.7782 27.3245 27.8869 26.5749C27.9957 25.8248 27.4757 25.1288 26.7255 25.0203V25.0198ZM1.63869 23.1767C1.98519 21.8304 2.64378 20.5847 3.56107 19.5405C7.0984 19.3171 13.1642 19.7718 13.5221 23.3561C13.5224 23.4973 13.5297 23.6381 13.5445 23.7787C13.5474 23.7907 13.5515 23.8029 13.5559 23.8146C13.5763 23.9065 13.6224 23.9902 13.6889 24.0567C13.7338 24.092 13.7819 24.1232 13.8324 24.1494C13.8534 24.1558 13.8747 24.1608 13.8969 24.1637C13.9476 24.1879 14.0051 24.1935 14.0596 24.1798C14.0751 24.1798 14.087 24.1693 14.1019 24.166C14.1617 24.1608 14.218 24.1363 14.2632 24.0966C14.4948 23.9374 14.4819 23.6702 14.4854 23.3558C14.843 19.7735 20.9036 19.3162 24.4462 19.5399C25.3623 20.585 26.0206 21.8304 26.3682 23.1761C19.3184 22.3183 16.9958 23.7373 16.2314 24.7225C16.1121 24.8421 16.0039 24.9716 15.907 25.1102H12.1002C12.0039 24.9713 11.8954 24.8418 11.7762 24.7223C11.0102 23.7367 8.68565 22.3186 1.63869 23.1767ZM26.818 26.7143C26.7206 26.7986 26.5914 26.8368 26.4636 26.8185L18.5093 25.6827C18.1914 25.639 17.8699 25.7343 17.6276 25.9449C17.3855 26.1555 17.2461 26.4606 17.2455 26.7814C17.2452 26.8812 17.1644 26.9617 17.0649 26.962H10.9426C10.8939 26.9614 10.8475 26.9415 10.8137 26.9068C10.7801 26.8721 10.7614 26.8255 10.762 26.7768C10.762 26.4562 10.6226 26.1508 10.3799 25.9408C10.1376 25.7308 9.81586 25.636 9.49824 25.6813L1.54624 26.8185C1.41907 26.8374 1.29015 26.7995 1.19361 26.7143C1.06207 26.6006 1.0084 26.4203 1.05682 26.2532C1.10524 26.0858 1.24611 25.9618 1.41849 25.9356L9.36845 24.7675C9.95207 24.6846 10.5433 24.8579 10.9895 25.2429C11.0972 25.3563 11.18 25.4911 11.2319 25.639C11.2646 25.8659 11.4585 26.0348 11.6881 26.0359H16.3192C16.5414 26.0292 16.7301 25.8708 16.775 25.653C16.8284 25.4969 16.9159 25.3546 17.0311 25.2365C17.475 24.8588 18.0592 24.6881 18.637 24.768L26.5911 25.9356C26.7626 25.9624 26.9034 26.0858 26.9522 26.2529C27.0003 26.4198 26.9481 26.5997 26.8174 26.7143H26.818Z" fill="#E5E0FF"/>
</g>
<path d="M13.5407 18.1653C13.5407 18.4208 13.7478 18.6281 14.0036 18.6281C14.2594 18.6281 14.4668 18.4208 14.4668 18.1653C14.4668 18.1416 14.4706 17.5294 14.5528 16.5558C16.1812 15.5814 17.4406 14.0948 18.1342 12.3287C19.5698 8.98185 18.1438 8.26377 21.1801 6.52922C23.5475 5.17706 25.8523 2.77518 25.4486 1.25385C25.3095 0.731183 24.8183 0.108475 23.2658 0.108475C23.2127 0.108475 23.1433 0.108475 23.059 0.104683C18.5883 0.000558041 15.107 1.62427 12.7031 4.92914C8.97004 10.0631 13.2747 16.1052 13.6148 16.5663C13.5448 17.4763 13.5407 18.0725 13.5407 18.1653ZM13.4524 5.47368C15.5996 2.52114 18.6974 1.02606 22.6638 1.02606C23.2194 1.02606 24.4164 0.97385 24.5535 1.49156C24.7667 2.29568 23.1051 4.36214 20.721 5.72539C17.2659 7.69939 18.6327 8.81735 17.2834 11.9638C16.7345 13.3116 15.8344 14.4876 14.6771 15.3702C15.0688 12.196 16.1914 7.0796 19.4102 4.15506C19.5325 4.04393 19.5861 3.87564 19.5508 3.71377C19.5158 3.55218 19.3968 3.42152 19.2393 3.37135C19.0818 3.32089 18.9092 3.35852 18.7867 3.46993C15.3733 6.57181 14.1812 11.781 13.7647 15.0955C12.6955 13.2664 10.828 9.08102 13.4524 5.47368Z" fill="#E5E0FF"/>
</g>
<defs>
<clipPath id="clip0_5_1001">
<rect width="28" height="28" fill="white"/>
</clipPath>
</defs>
</svg>
