<svg width="28" height="28" viewBox="0 0 28 28" fill="none" xmlns="http://www.w3.org/2000/svg">
<g clip-path="url(#clip0_5_1009)">
<path d="M25.0254 14.3062C24.9939 14.9033 24.9061 15.4916 24.7623 16.0717C24.1536 18.5021 21.9148 17.2981 20.7831 19.5075C20.1846 20.6768 19.5677 21.8411 18.8747 22.9579C18.4804 23.5938 17.9837 24.5816 17.2764 24.9319C15.8081 25.6593 15.5057 25.1924 14.4615 24.4125C13.417 23.6328 13.4173 26.7496 12.0658 26.8009C10.7145 26.8526 10.4033 25.0865 9.54488 25.7098C8.68679 26.3331 5.93258 27.9959 5.36092 26.5413C4.78925 25.0868 5.67271 22.6447 4.47746 22.5928C3.89646 22.5674 3.11508 22.6528 2.61283 22.2961C1.93383 21.8152 2.18817 20.8541 2.38708 20.1833C3.17779 17.5119 4.18988 14.8321 4.61863 12.0738C5.03629 9.38668 5.28275 6.58756 6.74196 4.2166C8.26504 1.74151 11 0.470139 13.9473 0.186931C14.2078 0.162139 14.4682 0.149597 14.7287 0.149597C18.5828 0.149597 21.6272 2.3756 23.1272 5.77322C23.8316 7.36572 25.1222 12.5373 25.0254 14.3062Z" fill="#E5E0FF"/>
<path d="M12.7154 10.4495C12.7154 10.5099 12.7096 10.57 12.6977 10.6292C12.686 10.6887 12.6685 10.7464 12.6452 10.8022C12.6221 10.8582 12.5935 10.9112 12.56 10.9617C12.5262 11.0122 12.4879 11.0585 12.4451 11.1014C12.4025 11.1443 12.3558 11.1825 12.3054 11.216C12.2552 11.2499 12.2018 11.2782 12.1458 11.3012C12.0901 11.3245 12.0324 11.342 11.9729 11.3537C11.9134 11.3657 11.8536 11.3715 11.7929 11.3715C11.7322 11.3715 11.6724 11.3657 11.6129 11.3537C11.5534 11.342 11.496 11.3245 11.44 11.3012C11.384 11.2782 11.3309 11.2499 11.2804 11.216C11.23 11.1825 11.1833 11.1443 11.1407 11.1014C11.0979 11.0585 11.0597 11.0122 11.0258 10.9617C10.9923 10.9112 10.9637 10.8582 10.9407 10.8022C10.9173 10.7464 10.8998 10.6887 10.8882 10.6292C10.8762 10.57 10.8704 10.5099 10.8704 10.4495C10.8704 10.3889 10.8762 10.3288 10.8882 10.2696C10.8998 10.2101 10.9173 10.1526 10.9407 10.0966C10.9637 10.0406 10.9923 9.98753 11.0258 9.93707C11.0597 9.88691 11.0979 9.84024 11.1407 9.79737C11.1833 9.75449 11.23 9.71628 11.2804 9.68274C11.3309 9.6492 11.384 9.62062 11.44 9.59757C11.496 9.57424 11.5534 9.55674 11.6129 9.54507C11.6724 9.53312 11.7322 9.52728 11.7929 9.52728C11.8536 9.52728 11.9134 9.53312 11.9729 9.54507C12.0324 9.55674 12.0901 9.57424 12.1458 9.59757C12.2018 9.62062 12.2552 9.6492 12.3054 9.68274C12.3558 9.71628 12.4025 9.75449 12.4451 9.79737C12.4879 9.84024 12.5262 9.88691 12.56 9.93707C12.5935 9.98753 12.6221 10.0406 12.6452 10.0966C12.6685 10.1526 12.686 10.2101 12.6977 10.2696C12.7096 10.3288 12.7154 10.3889 12.7154 10.4495Z" fill="black"/>
<path d="M20.3428 9.91463C20.3428 9.9753 20.337 10.0351 20.3253 10.0946C20.3134 10.1538 20.2959 10.2116 20.2728 10.2676C20.2495 10.3236 20.2212 10.3766 20.1874 10.4268C20.1538 10.4773 20.1156 10.5239 20.0728 10.5665C20.0299 10.6094 19.9832 10.6476 19.933 10.6814C19.8826 10.715 19.8295 10.7433 19.7735 10.7666C19.7175 10.7896 19.6598 10.8071 19.6005 10.8191C19.541 10.8308 19.481 10.8366 19.4206 10.8366C19.3599 10.8366 19.2998 10.8308 19.2406 10.8191C19.1811 10.8071 19.1234 10.7896 19.0674 10.7666C19.0114 10.7433 18.9583 10.715 18.9078 10.6814C18.8577 10.6476 18.811 10.6094 18.7681 10.5665C18.7253 10.5239 18.687 10.4773 18.6535 10.4268C18.6197 10.3766 18.5914 10.3236 18.5683 10.2676C18.545 10.2116 18.5275 10.1538 18.5158 10.0946C18.5039 10.0351 18.498 9.9753 18.498 9.91463C18.498 9.85397 18.5039 9.79418 18.5158 9.73468C18.5275 9.67547 18.545 9.61772 18.5683 9.56172C18.5914 9.50572 18.6197 9.45263 18.6535 9.40247C18.687 9.35201 18.7253 9.30534 18.7681 9.26247C18.811 9.21988 18.8577 9.18168 18.9078 9.14784C18.9583 9.1143 19.0114 9.08601 19.0674 9.06268C19.1234 9.03963 19.1811 9.02213 19.2406 9.01018C19.2998 8.99851 19.3599 8.99268 19.4206 8.99268C19.481 8.99268 19.541 8.99851 19.6005 9.01018C19.6598 9.02213 19.7175 9.03963 19.7735 9.06268C19.8295 9.08601 19.8826 9.1143 19.933 9.14784C19.9832 9.18168 20.0299 9.21988 20.0728 9.26247C20.1156 9.30534 20.1538 9.35201 20.1874 9.40247C20.2212 9.45263 20.2495 9.50572 20.2728 9.56172C20.2959 9.61772 20.3134 9.67547 20.3253 9.73468C20.337 9.79418 20.3428 9.85397 20.3428 9.91463Z" fill="black"/>
<path d="M16.0034 12.4746C15.9267 12.4795 15.8506 12.4772 15.7744 12.4679C15.6983 12.4585 15.6236 12.4422 15.5504 12.4189C15.4775 12.3955 15.4072 12.3661 15.3396 12.3296C15.2722 12.2934 15.2083 12.2511 15.1488 12.203C15.089 12.1552 15.0342 12.1018 14.9843 12.0438C14.9344 11.9854 14.8904 11.923 14.8522 11.8565C14.814 11.7903 14.7822 11.7209 14.7568 11.6486C14.7314 11.5762 14.7128 11.5021 14.7011 11.4263C14.6982 11.4033 14.6999 11.3805 14.7058 11.3578C14.7119 11.3353 14.7218 11.3149 14.7361 11.2962C14.7501 11.2776 14.767 11.2624 14.7871 11.2504C14.8073 11.2385 14.8286 11.2309 14.8519 11.2274C14.8749 11.2239 14.8977 11.2248 14.9204 11.2303C14.9429 11.2356 14.9639 11.2452 14.9828 11.2586C15.0018 11.2723 15.0176 11.2889 15.0298 11.3085C15.0423 11.3283 15.0508 11.3496 15.0549 11.3724C15.0631 11.4263 15.0762 11.4791 15.0943 11.5304C15.1123 11.5818 15.1351 11.6311 15.1622 11.6783C15.1896 11.7256 15.2208 11.7699 15.2564 11.8113C15.2917 11.8527 15.3308 11.8906 15.3731 11.9248C15.4157 11.9589 15.4609 11.9889 15.509 12.0146C15.5568 12.0406 15.607 12.0616 15.6589 12.0782C15.7108 12.0945 15.7639 12.1062 15.8182 12.1129C15.8721 12.1196 15.9264 12.1211 15.9809 12.1179C16.006 12.1161 16.0311 12.1135 16.0565 12.1097C16.1133 12.1009 16.1691 12.0866 16.2233 12.0671C16.2778 12.0473 16.3295 12.0225 16.3791 11.9927C16.4283 11.9627 16.4744 11.9286 16.517 11.8895C16.5596 11.8507 16.5981 11.8078 16.6322 11.7614C16.6666 11.7151 16.6958 11.6655 16.7203 11.6133C16.7448 11.5611 16.7641 11.5071 16.7781 11.4508C16.7918 11.3948 16.7999 11.3382 16.8028 11.2805C16.8055 11.2227 16.8026 11.1656 16.7938 11.1084C16.7909 11.0854 16.7926 11.0626 16.7988 11.0401C16.8049 11.0177 16.8148 10.9973 16.8288 10.9786C16.8431 10.9602 16.86 10.9448 16.8801 10.9331C16.9 10.9211 16.9216 10.9136 16.9446 10.9101C16.9676 10.9066 16.9904 10.9074 17.0128 10.9127C17.0356 10.9182 17.0563 10.9276 17.0753 10.9413C17.0942 10.9547 17.11 10.9713 17.1225 10.9909C17.1348 11.0107 17.1432 11.032 17.1473 11.0547C17.1534 11.0947 17.1575 11.1349 17.1596 11.1755C17.1616 11.2157 17.1616 11.2563 17.1598 11.2968C17.1581 11.3371 17.154 11.3773 17.1482 11.4176C17.1423 11.4575 17.1348 11.4972 17.1248 11.5366C17.1152 11.5759 17.1036 11.6144 17.0901 11.6526C17.0764 11.6909 17.0613 11.7282 17.0441 11.7649C17.0268 11.8017 17.0079 11.8373 16.9872 11.872C16.9665 11.907 16.944 11.9405 16.9201 11.9732C16.8959 12.0059 16.8705 12.0371 16.8434 12.0674C16.8163 12.0974 16.7877 12.126 16.7579 12.1534C16.7279 12.1806 16.6967 12.2065 16.6643 12.2307C16.6319 12.2549 16.5984 12.2774 16.5637 12.2984C16.529 12.3194 16.4934 12.3386 16.4569 12.3561C16.4205 12.3736 16.3831 12.3891 16.3449 12.4031C16.307 12.4168 16.2682 12.4288 16.2291 12.4387C16.1898 12.4489 16.1501 12.4568 16.1101 12.4629C16.0737 12.4684 16.0387 12.4722 16.0034 12.4746Z" fill="black"/>
<path d="M9.88229 17.3588C9.86625 17.3591 9.85108 17.3568 9.83591 17.3509C9.82104 17.3454 9.80791 17.3372 9.79625 17.3261C9.78458 17.3154 9.77554 17.3028 9.76883 17.2882C9.76241 17.2736 9.75862 17.2585 9.75833 17.2424C9.75775 17.2267 9.76037 17.2112 9.76591 17.1964C9.77146 17.1812 9.77962 17.1681 9.79071 17.1564C9.8015 17.1447 9.81433 17.1357 9.82891 17.129C9.84321 17.1226 9.85866 17.1191 9.87441 17.1185C10.4615 17.0785 11.0347 16.9668 11.5938 16.7831C12.1529 16.5996 12.6808 16.3499 13.1775 16.0344C13.6751 15.7176 13.9292 15.3991 13.9537 15.0614C14 14.4244 13.342 14.2593 12.5426 14.1225C12.428 14.1024 12.3197 14.0843 12.2238 14.0636L12.1579 14.0496C11.2689 13.8585 10.3501 13.6611 9.51741 13.2449C9.50254 13.2381 9.48971 13.2285 9.47862 13.2166C9.46783 13.2046 9.45966 13.1909 9.45412 13.1757C9.44887 13.1603 9.44683 13.1445 9.44771 13.1282C9.44887 13.1121 9.45296 13.0967 9.46025 13.0821C9.46754 13.0675 9.47716 13.055 9.48971 13.0445C9.50196 13.034 9.51596 13.0261 9.53141 13.0211C9.54687 13.0165 9.56262 13.0147 9.57896 13.0162C9.595 13.0176 9.61046 13.0223 9.62475 13.0299C10.4303 13.4327 11.3342 13.6266 12.2089 13.8145L12.2751 13.8288C12.3658 13.8489 12.4717 13.8664 12.584 13.8856C13.2513 13.9997 14.2602 14.1724 14.194 15.0789C14.1634 15.4977 13.8735 15.8766 13.3073 16.2371C12.7937 16.5634 12.2477 16.8219 11.6693 17.0114C11.0912 17.2013 10.4983 17.3171 9.89104 17.3582L9.88229 17.3588Z" fill="black"/>
</g>
<defs>
<clipPath id="clip0_5_1009">
<rect width="28" height="28" fill="white"/>
</clipPath>
</defs>
</svg>
