<svg width="28" height="28" viewBox="0 0 28 28" fill="none" xmlns="http://www.w3.org/2000/svg">
<mask id="mask0_5_1004" style="mask-type:luminance" maskUnits="userSpaceOnUse" x="0" y="2" width="28" height="24">
<path d="M0.672119 2.31H27.3281V25.718H0.672119V2.31Z" fill="white"/>
</mask>
<g mask="url(#mask0_5_1004)">
<path d="M25.1511 4.44673C23.7742 3.06831 21.9425 2.30881 19.9953 2.30881C18.0482 2.30881 16.2168 3.06773 14.8401 4.44673L14.0033 5.28381L13.1668 4.44644C11.7899 3.06773 9.95909 2.30823 8.01134 2.30823C6.06359 2.30823 4.2325 3.06714 2.85555 4.44644C0.0126699 7.29252 0.0126699 11.9236 2.85555 14.77L13.6414 25.5686C13.7411 25.6684 13.8724 25.7189 14.0033 25.7189C14.1343 25.7189 14.2655 25.6684 14.3653 25.5686L25.1511 14.77C27.994 11.9239 27.994 7.29252 25.1511 4.44673Z" fill="#E5E0FF"/>
</g>
</svg>
