<svg width="28" height="28" viewBox="0 0 28 28" fill="none" xmlns="http://www.w3.org/2000/svg">
<g clip-path="url(#clip0_5_1002)">
<mask id="mask0_5_1002" style="mask-type:luminance" maskUnits="userSpaceOnUse" x="4" y="0" width="2" height="25">
<path d="M4.00757 0.074646H5.0774V24.5653H4.00757V0.074646Z" fill="white"/>
</mask>
<g mask="url(#mask0_5_1002)">
<path d="M5.00711 0.102051C4.42728 0.309134 4.00757 0.859509 4.00757 1.50934V24.4921C4.29836 24.2754 4.63815 24.1231 5.00711 24.049V0.102051Z" fill="#E5E0FF"/>
</g>
<mask id="mask1_5_1002" style="mask-type:luminance" maskUnits="userSpaceOnUse" x="4" y="24" width="20" height="4">
<path d="M4.00757 24.9387H23.0721V28H4.00757V24.9387Z" fill="white"/>
</mask>
<g mask="url(#mask1_5_1002)">
<path d="M7.50611 25.991H15.503C15.7784 25.991 16.0027 26.2156 16.0027 26.4906C16.0027 26.7657 15.7784 26.9903 15.503 26.9903H7.50611C7.23078 26.9903 7.00649 26.7657 7.00649 26.4906C7.00649 26.2156 7.23078 25.991 7.50611 25.991ZM17.5021 25.991H20.0011C20.2764 25.991 20.501 26.2156 20.501 26.4906C20.501 26.7657 20.2764 26.9903 20.0011 26.9903H17.5021C17.2268 26.9903 17.0025 26.7657 17.0025 26.4906C17.0025 26.2156 17.2268 25.991 17.5021 25.991ZM5.50703 27.9895H22.5001C22.7754 27.9895 23 27.7649 23 27.4899V24.9918H5.50703C4.67928 24.9918 4.00757 25.6632 4.00757 26.4906C4.00757 27.3181 4.67928 27.9895 5.50703 27.9895Z" fill="#E5E0FF"/>
</g>
<mask id="mask2_5_1002" style="mask-type:luminance" maskUnits="userSpaceOnUse" x="5" y="0" width="19" height="25">
<path d="M5.97339 0H23.9996V24.0427H5.97339V0Z" fill="white"/>
</mask>
<g mask="url(#mask2_5_1002)">
<path d="M20.8408 12.1109C20.2294 13.799 17.8418 14.9992 15.0031 14.9992C12.1643 14.9992 9.77668 13.799 9.16563 12.1109C7.8613 11.6112 7.00643 10.9066 7.00643 10.003C7.00643 8.918 8.24601 8.03192 10.505 7.49117V6.50562C10.505 4.025 12.5216 2.009 15.0031 2.009C17.4846 2.009 19.5014 4.025 19.5014 6.50562V7.49117C21.7601 8.03192 23 8.918 23 10.003C23 10.9066 22.1448 11.6112 20.8408 12.1109ZM19.5014 18.4966C19.5014 18.7717 19.2768 18.9963 19.0015 18.9963C18.7262 18.9963 18.5016 18.7717 18.5016 18.4966V15.4989C18.5016 15.2238 18.7262 14.9992 19.0015 14.9992C19.2768 14.9992 19.5014 15.2238 19.5014 15.4989V18.4966ZM17.5021 19.9955C17.5021 20.2705 17.2775 20.4951 17.0024 20.4951C16.7271 20.4951 16.5025 20.2705 16.5025 19.9955V16.4981C16.5025 16.2231 16.7271 15.9985 17.0024 15.9985C17.2775 15.9985 17.5021 16.2231 17.5021 16.4981V19.9955ZM15.503 20.9947C15.503 21.2698 15.2784 21.4944 15.0031 21.4944C14.7277 21.4944 14.5034 21.2698 14.5034 20.9947V17.4974C14.5034 17.2223 14.7277 16.9977 15.0031 16.9977C15.2784 16.9977 15.503 17.2223 15.503 17.4974V20.9947ZM13.5036 19.9955C13.5036 20.2705 13.2793 20.4951 13.004 20.4951C12.7286 20.4951 12.5041 20.2705 12.5041 19.9955V16.4981C12.5041 16.2231 12.7286 15.9985 13.004 15.9985C13.2793 15.9985 13.5036 16.2231 13.5036 16.4981V19.9955ZM11.5045 18.4966C11.5045 18.7717 11.2799 18.9963 11.0046 18.9963C10.7296 18.9963 10.505 18.7717 10.505 18.4966V15.4989C10.505 15.2238 10.7296 14.9992 11.0046 14.9992C11.2799 14.9992 11.5045 15.2238 11.5045 15.4989V18.4966ZM23.9995 0.510123C23.9995 0.235081 23.7749 0.010498 23.4996 0.010498H6.00659V23.9925H23.4996C23.7749 23.9925 23.9995 23.7679 23.9995 23.4929V0.510123Z" fill="#E5E0FF"/>
</g>
<path d="M19.5013 8.52368V9.00377C19.5013 9.08193 19.4835 9.15806 19.4485 9.22835C19.3412 9.43893 18.6266 10.5026 15.0029 10.5026C11.3796 10.5026 10.665 9.43893 10.5577 9.22835C10.5224 9.15806 10.5049 9.08193 10.5049 9.00377V8.52368C8.79832 8.97052 8.00586 9.58331 8.00586 10.003C8.00586 10.8188 10.7312 12.0015 15.0029 12.0015C19.2747 12.0015 22.0003 10.8188 22.0003 10.003C22.0003 9.58331 21.2076 8.97052 19.5013 8.52368Z" fill="#E5E0FF"/>
<path d="M10.616 12.544C11.479 13.4085 13.164 14 15.0029 14C16.8422 14 18.5268 13.4085 19.3899 12.544C18.0759 12.8465 16.5374 13.0008 15.0029 13.0008C13.4685 13.0008 11.9299 12.8465 10.616 12.544Z" fill="#E5E0FF"/>
<path d="M13.5035 6.50561C13.5035 6.78066 13.2792 7.00524 13.0039 7.00524C12.7285 7.00524 12.5039 6.78066 12.5039 6.50561C12.5039 5.12778 13.6245 4.00749 15.0029 4.00749C15.2783 4.00749 15.5029 4.23207 15.5029 4.50711C15.5029 4.78216 15.2783 5.00674 15.0029 5.00674C14.1752 5.00674 13.5035 5.67816 13.5035 6.50561ZM18.5015 8.81649V6.50561C18.5015 4.57741 16.932 3.00824 15.0029 3.00824C13.0741 3.00824 11.5044 4.57741 11.5044 6.50561V8.82611C11.7036 8.98799 12.5197 9.50336 15.0029 9.50336C17.4454 9.50336 18.2751 9.00374 18.5015 8.81649Z" fill="#E5E0FF"/>
</g>
<defs>
<clipPath id="clip0_5_1002">
<rect width="28" height="28" fill="white"/>
</clipPath>
</defs>
</svg>
