<svg width="28" height="28" viewBox="0 0 28 28" fill="none" xmlns="http://www.w3.org/2000/svg">
<g clip-path="url(#clip0_5_1003)">
<path d="M27.8471 6.27436C27.6942 6.07807 27.4326 6.05619 27.236 6.18715L25.2282 7.73648L25.0972 6.68911C25.0538 6.36157 24.6828 6.18715 24.399 6.38344L21.5619 8.41315C21.3653 8.54411 21.3219 8.8279 21.4528 9.02419C21.5838 9.22048 21.8673 9.26423 22.0639 9.13328L24.3118 7.51832L24.4427 8.58757C24.4862 8.91511 24.8791 9.08953 25.141 8.87136L27.7598 6.86353C27.9561 6.73257 27.9999 6.47094 27.8471 6.27436Z" fill="#E5E0FF"/>
<path d="M21.2345 6.73257C21.453 6.82007 21.7149 6.68911 21.8021 6.47094L22.8714 3.5464L23.4824 4.17932C23.7009 4.41936 24.1153 4.31028 24.2028 4.00461L25.2939 0.643734C25.3593 0.403692 25.2502 0.163651 25.0102 0.0983172C24.792 0.0326922 24.5301 0.141776 24.4644 0.381817L23.5915 3.06632L23.0023 2.45528C22.7842 2.23711 22.3913 2.30244 22.2822 2.60811L20.9726 6.18715C20.8854 6.40532 21.0164 6.64536 21.2345 6.73257Z" fill="#E5E0FF"/>
<path d="M16.6081 3.96114C16.6515 4.11368 16.7606 4.22306 16.8916 4.26652C17.0444 4.31027 17.1972 4.28839 17.3063 4.17931L18.0702 3.52452L18.7685 6.42718C18.8122 6.62347 18.9866 6.75443 19.1832 6.75443C19.467 6.75443 19.6633 6.49252 19.598 6.20902L18.725 2.62968C18.6812 2.47714 18.5722 2.36777 18.4412 2.32431C18.2884 2.28056 18.1355 2.30243 18.0265 2.41152L17.2407 3.08818L16.5643 0.381807C16.4987 0.141766 16.2587 0.0108073 16.0405 0.0764323C15.8005 0.141766 15.6695 0.381807 15.7351 0.600266L16.6081 3.96114Z" fill="#E5E0FF"/>
<path d="M11.3485 5.2923C5.08492 5.2923 0 10.3772 0 16.6408C0 22.904 5.08492 27.9892 11.3485 27.9892C17.6117 27.9892 22.6969 22.904 22.6969 16.6408C22.6969 10.3772 17.6117 5.2923 11.3485 5.2923ZM3.95004 11.774C3.86283 11.5558 3.97192 11.2939 4.19008 11.2064C5.76158 10.5954 7.72567 10.5954 9.31875 11.2064C9.53692 11.2939 9.646 11.5558 9.55879 11.774C9.47158 11.9922 9.20967 12.1013 8.9915 12.014C7.61658 11.4683 5.89254 11.4683 4.51762 12.014C4.29917 12.1231 4.03754 12.014 3.95004 11.774ZM5.89254 15.113C5.89254 13.9128 6.48171 12.9308 7.20183 12.9308C7.92196 12.9308 8.51142 13.9128 8.51142 15.113C8.51142 16.3132 7.92196 17.2955 7.20183 17.2955C6.48171 17.2955 5.89254 16.3132 5.89254 15.113ZM15.7567 23.5369C15.5604 23.6898 15.2766 23.6244 15.1457 23.4497C14.2074 22.162 12.8325 21.4419 11.3485 21.4419C9.86446 21.4419 8.48954 22.162 7.55096 23.4497C7.42 23.646 7.1365 23.6898 6.93992 23.5369C6.74362 23.3844 6.69987 23.1225 6.85271 22.9259C7.94383 21.42 9.58067 20.5689 11.3485 20.5689C13.1162 20.5689 14.7528 21.42 15.8442 22.9259C15.9967 23.1225 15.9533 23.406 15.7567 23.5369ZM15.4948 17.2955C14.7747 17.2955 14.1855 16.3132 14.1855 15.113C14.1855 13.9128 14.7747 12.9308 15.4948 12.9308C16.2152 12.9308 16.8044 13.9128 16.8044 15.113C16.8044 16.3132 16.2152 17.2955 15.4948 17.2955ZM18.7466 11.774C18.6594 11.9922 18.3975 12.1013 18.1793 12.014C16.8044 11.4683 15.0803 11.4683 13.7054 12.014C13.4872 12.1013 13.2253 11.9922 13.1378 11.774C13.0506 11.5558 13.1597 11.2939 13.3779 11.2064C14.9494 10.5954 16.9135 10.5954 18.5065 11.2064C18.725 11.2939 18.8341 11.5558 18.7466 11.774Z" fill="#E5E0FF"/>
</g>
<defs>
<clipPath id="clip0_5_1003">
<rect width="28" height="28" fill="white"/>
</clipPath>
</defs>
</svg>
