<svg width="28" height="28" viewBox="0 0 28 28" fill="none" xmlns="http://www.w3.org/2000/svg">
<g clip-path="url(#clip0_120_1129)">
<mask id="mask0_120_1129" style="mask-type:luminance" maskUnits="userSpaceOnUse" x="0" y="0" width="28" height="28">
<path d="M0 0H27.9253V27.9253H0V0Z" fill="white"/>
</mask>
<g mask="url(#mask0_120_1129)">
<path fill-rule="evenodd" clip-rule="evenodd" d="M14.059 -1.72852e-05C14.2888 -1.72852e-05 14.5192 0.00581605 14.749 0.0168993C14.9789 0.0279827 15.2081 0.0448993 15.4368 0.0676494C15.666 0.0903994 15.8941 0.118399 16.1216 0.152233C16.3497 0.186066 16.576 0.225149 16.8018 0.270066C17.0275 0.314983 17.2521 0.365149 17.475 0.421149C17.6984 0.477149 17.92 0.538399 18.14 0.605483C18.3605 0.671983 18.5786 0.744316 18.795 0.821899C19.012 0.899483 19.2267 0.982316 19.439 1.0704C19.652 1.15848 19.862 1.25123 20.0702 1.34982C20.2779 1.4484 20.4832 1.55165 20.6862 1.66015C20.8892 1.76865 21.0893 1.88182 21.2865 2.00023C21.4842 2.11865 21.6785 2.24173 21.8698 2.36948C22.0611 2.49723 22.249 2.62965 22.4339 2.76673C22.6188 2.90382 22.8002 3.04498 22.9781 3.1914C23.1555 3.33723 23.3299 3.48715 23.5002 3.64173C23.6711 3.79632 23.8374 3.95498 24.0001 4.11773C24.1629 4.28048 24.3215 4.44732 24.4761 4.61765C24.6307 4.78798 24.7806 4.9624 24.9265 5.14032C25.0729 5.31765 25.214 5.49907 25.3511 5.68398C25.4882 5.8689 25.6206 6.05673 25.7484 6.24807C25.8761 6.4394 25.9992 6.63365 26.1176 6.8314C26.236 7.02857 26.3492 7.22865 26.4577 7.43165C26.5662 7.63465 26.6695 7.83998 26.768 8.04823C26.8666 8.2559 26.96 8.46648 27.048 8.67882C27.1355 8.89115 27.2184 9.10582 27.296 9.32282C27.3735 9.53923 27.4459 9.7574 27.5124 9.9779C27.5795 10.1978 27.6407 10.4195 27.6967 10.6429C27.7527 10.8663 27.8029 11.0903 27.8478 11.3161C27.8927 11.5418 27.9318 11.7687 27.9656 11.9962C27.9995 12.2237 28.0275 12.4518 28.0502 12.6811C28.073 12.9097 28.0899 13.1396 28.101 13.3688C28.112 13.5986 28.1179 13.8291 28.1179 14.0589C28.1179 14.2887 28.112 14.5191 28.101 14.749C28.0899 14.9788 28.073 15.2081 28.0502 15.4367C28.0275 15.666 27.9995 15.8941 27.9656 16.1216C27.9318 16.3496 27.8927 16.576 27.8478 16.8017C27.8029 17.0275 27.7527 17.2521 27.6967 17.4749C27.6407 17.6983 27.5795 17.92 27.5124 18.1399C27.4459 18.3604 27.3735 18.5786 27.296 18.795C27.2184 19.012 27.1355 19.2267 27.048 19.439C26.96 19.6519 26.8666 19.8619 26.768 20.0702C26.6695 20.2778 26.5662 20.4832 26.4577 20.6861C26.3492 20.8892 26.236 21.0892 26.1176 21.2864C25.9992 21.4841 25.8761 21.6784 25.7484 21.8697C25.6206 22.0611 25.4882 22.2489 25.3511 22.4338C25.214 22.6187 25.0729 22.8001 24.9265 22.9781C24.7806 23.1554 24.6307 23.3298 24.4761 23.5002C24.3215 23.6711 24.1629 23.8373 24.0001 24.0001C23.8374 24.1628 23.6711 24.3215 23.5002 24.4761C23.3299 24.6306 23.1555 24.7806 22.9781 24.9264C22.8002 25.0728 22.6188 25.214 22.4339 25.3511C22.249 25.4881 22.0611 25.6206 21.8698 25.7483C21.6785 25.8761 21.4842 25.9992 21.2865 26.1176C21.0893 26.236 20.8892 26.3491 20.6862 26.4577C20.4832 26.5662 20.2779 26.6694 20.0702 26.768C19.862 26.8666 19.652 26.9599 19.439 27.048C19.2267 27.1355 19.012 27.2183 18.795 27.2959C18.5786 27.3735 18.3605 27.4458 18.14 27.5123C17.92 27.5794 17.6984 27.6406 17.475 27.6967C17.2521 27.7527 17.0275 27.8028 16.8018 27.8477C16.576 27.8927 16.3497 27.9317 16.1216 27.9656C15.8941 27.9994 15.666 28.0274 15.4368 28.0501C15.2081 28.0729 14.9789 28.0898 14.749 28.1009C14.5192 28.112 14.2888 28.1178 14.059 28.1178C13.8291 28.1178 13.5987 28.112 13.3689 28.1009C13.1396 28.0898 12.9098 28.0729 12.6811 28.0501C12.4519 28.0274 12.2238 27.9994 11.9963 27.9656C11.7688 27.9317 11.5419 27.8927 11.3161 27.8477C11.0904 27.8028 10.8664 27.7527 10.643 27.6967C10.4195 27.6406 10.1979 27.5794 9.97796 27.5123C9.75746 27.4458 9.53929 27.3735 9.32288 27.2959C9.10588 27.2183 8.89121 27.1355 8.67888 27.048C8.46654 26.9599 8.25596 26.8666 8.04829 26.768C7.84004 26.6694 7.63471 26.5662 7.43171 26.4577C7.22871 26.3491 7.02863 26.236 6.83146 26.1176C6.63371 25.9992 6.43946 25.8761 6.24813 25.7483C6.05679 25.6206 5.86896 25.4881 5.68404 25.3511C5.49913 25.214 5.31771 25.0728 5.14038 24.9264C4.96246 24.7806 4.78804 24.6306 4.61771 24.4761C4.44738 24.3215 4.28054 24.1628 4.11779 24.0001C3.95504 23.8373 3.79638 23.6711 3.64179 23.5002C3.48721 23.3298 3.33729 23.1554 3.19146 22.9781C3.04504 22.8001 2.90388 22.6187 2.76679 22.4338C2.62971 22.2489 2.49729 22.0611 2.36954 21.8697C2.24179 21.6784 2.11871 21.4841 2.00029 21.2864C1.88188 21.0892 1.76871 20.8892 1.66021 20.6861C1.55171 20.4832 1.44846 20.2778 1.34988 20.0702C1.25129 19.8619 1.15854 19.6519 1.07046 19.439C0.982377 19.2267 0.899544 19.012 0.82196 18.795C0.744377 18.5786 0.672044 18.3604 0.605544 18.1399C0.53846 17.92 0.47721 17.6983 0.42121 17.4749C0.36521 17.2521 0.315044 17.0275 0.270127 16.8017C0.22521 16.576 0.186127 16.3496 0.152294 16.1216C0.11846 15.8941 0.0904605 15.666 0.0677104 15.4367C0.0449604 15.2081 0.0280438 14.9788 0.0169604 14.749C0.00587708 14.5191 4.375e-05 14.2887 4.375e-05 14.0589C-0.000539583 13.8285 0.00471042 13.5986 0.0157938 13.3688C0.0262937 13.139 0.042627 12.9092 0.0647938 12.6799C0.0869604 12.4507 0.11496 12.2226 0.14821 11.9945C0.182044 11.767 0.220544 11.5401 0.26546 11.3143C0.309794 11.088 0.35996 10.8634 0.415377 10.64C0.471377 10.4166 0.532044 10.1949 0.598544 9.9744C0.665044 9.7539 0.737377 9.53573 0.814377 9.31873C0.89196 9.10173 0.974211 8.88707 1.06229 8.67415C1.15038 8.46123 1.24313 8.25065 1.34171 8.04298C1.43971 7.83473 1.54296 7.62882 1.65146 7.42582C1.75996 7.22282 1.87313 7.02215 1.99154 6.82498C2.10938 6.62723 2.23246 6.4324 2.36021 6.24107C2.48796 6.04973 2.62038 5.86132 2.75746 5.6764C2.89454 5.49148 3.03629 5.31007 3.18213 5.13215C3.32796 4.95423 3.47846 4.77982 3.63304 4.6089C3.78763 4.43857 3.94629 4.27173 4.10904 4.10898C4.27179 3.94623 4.43863 3.78757 4.60896 3.63298C4.77988 3.4784 4.95429 3.3279 5.13221 3.18207C5.31013 3.03623 5.49154 2.89448 5.67646 2.7574C5.86138 2.62032 6.04979 2.4879 6.24113 2.36015C6.43246 2.2324 6.62729 2.10932 6.82504 1.99148C7.02221 1.87307 7.22288 1.7599 7.42588 1.6514C7.62888 1.5429 7.83479 1.43965 8.04304 1.34165C8.25071 1.24307 8.46129 1.15032 8.67421 1.06223C8.88713 0.974149 9.10179 0.891899 9.31879 0.814316C9.53579 0.737316 9.75396 0.664983 9.97446 0.598483C10.195 0.531983 10.4166 0.471316 10.64 0.415316C10.8635 0.359899 11.088 0.309733 11.3144 0.265399C11.5401 0.220483 11.767 0.181983 11.9945 0.148149C12.2226 0.114899 12.4507 0.0868993 12.68 0.0647328C12.9092 0.042566 13.139 0.0262327 13.3689 0.0157328C13.5987 0.00464938 13.8285 -0.000600619 14.059 -1.72852e-05ZM17.0065 8.84215C17.9498 8.13457 19.0103 10.6697 20.5725 11.7897C22.1346 12.9097 25.0233 13.5578 24.4633 14.7367C21.5157 20.6313 16.1222 21.28 14.5303 19.8065C12.2611 17.6843 12.1725 12.4378 16.8887 8.84215H17.0065ZM14.7368 16.6232C14.7263 16.6979 14.721 16.7731 14.7205 16.8484C14.7199 16.9242 14.7245 16.9995 14.7339 17.0747C14.7426 17.1494 14.7572 17.2235 14.7759 17.2964C14.7945 17.3699 14.8185 17.4411 14.8465 17.5117C14.875 17.5816 14.9077 17.6493 14.9445 17.7152C14.9818 17.7812 15.0232 17.8442 15.0681 17.9048C15.1136 17.9649 15.1626 18.0221 15.2151 18.0763C15.2682 18.1306 15.3242 18.1807 15.3837 18.2274C15.4432 18.2741 15.505 18.3167 15.5698 18.3557C15.6351 18.3942 15.7022 18.4286 15.7716 18.4584C15.841 18.4881 15.9116 18.5132 15.9845 18.5342C16.0569 18.5546 16.131 18.5704 16.2056 18.5815C16.2803 18.5926 16.3555 18.599 16.4308 18.6002C16.5066 18.6013 16.5819 18.5978 16.6565 18.5891C16.7318 18.5803 16.8059 18.5669 16.8794 18.5488C16.9529 18.5307 17.0246 18.5074 17.0946 18.48C17.5957 18.48 17.5665 18.2735 17.0946 18.1265C16.8782 18.0746 16.6694 18.0005 16.4681 17.9037C16.2675 17.8074 16.0796 17.6901 15.904 17.5525C15.7285 17.4154 15.5698 17.2608 15.4275 17.0893C15.2857 16.9178 15.1632 16.7329 15.0611 16.5346C14.8447 16.1023 14.7368 16.1321 14.7368 16.6232ZM7.45679 13.1157C7.40896 13.1168 7.36113 13.1209 7.31329 13.1273C7.26546 13.1337 7.21879 13.1437 7.17213 13.1553C7.12546 13.1676 7.07996 13.1827 7.03504 13.2002C6.99013 13.2177 6.94638 13.2376 6.90379 13.2603C6.86121 13.2825 6.82038 13.3076 6.78071 13.335C6.74104 13.3624 6.70313 13.3916 6.66696 13.4236C6.63079 13.4551 6.59696 13.489 6.56488 13.5246C6.53221 13.5607 6.50246 13.5981 6.47446 13.6371C6.44704 13.6768 6.42138 13.7171 6.39804 13.7597C6.37529 13.8017 6.35488 13.8454 6.33679 13.8897C6.31871 13.9346 6.30296 13.9802 6.29071 14.0262C6.27788 14.0729 6.26796 14.1196 6.26038 14.1674C6.25338 14.2147 6.24871 14.2625 6.24754 14.3109C6.24579 14.3587 6.24696 14.4066 6.25046 14.455C6.25454 14.5028 6.26154 14.5501 6.27088 14.5973C6.28021 14.6446 6.29246 14.6912 6.30763 14.7367C6.30763 15.0611 6.48438 15.0902 6.66113 14.7367C6.92713 14.2782 7.25146 13.8658 7.63354 13.4989C7.84004 13.3222 7.78113 13.1454 7.45679 13.1746V13.1157ZM10.8465 11.1411C10.9043 11.0728 10.969 11.0116 11.0408 10.9573C11.112 10.9031 11.1884 10.857 11.27 10.8191C11.3511 10.7817 11.4357 10.7531 11.5238 10.7339C11.6113 10.7146 11.7 10.7047 11.7898 10.7047C11.879 10.7047 11.9677 10.7146 12.0558 10.7339C12.1433 10.7531 12.2279 10.7817 12.309 10.8191C12.3906 10.857 12.467 10.9031 12.5382 10.9573C12.61 11.0116 12.6747 11.0728 12.7325 11.1411C12.9687 11.3476 12.7325 11.4946 12.5855 11.4946C12.0645 11.4065 11.5436 11.4065 11.0233 11.4946C10.7579 11.4946 10.6698 11.4946 10.8465 11.1702V11.1411ZM16.2698 11.3767C16.3153 11.3621 16.3614 11.3505 16.4086 11.3411C16.4553 11.3318 16.5025 11.3248 16.5504 11.3207C16.5982 11.3172 16.646 11.3155 16.6939 11.3172C16.7417 11.3184 16.7895 11.3225 16.8368 11.3295C16.884 11.3365 16.9307 11.3458 16.9774 11.3581C17.0235 11.3703 17.069 11.3849 17.1139 11.4024C17.1582 11.4193 17.202 11.4391 17.2445 11.4613C17.2865 11.4835 17.328 11.5086 17.367 11.5354C17.4067 11.5622 17.4446 11.5914 17.4814 11.6223C17.5175 11.6532 17.552 11.6865 17.5846 11.7215C17.6173 11.7571 17.6476 11.7938 17.6762 11.8323C17.7042 11.8708 17.7305 11.9111 17.7544 11.9525C17.7783 11.9939 17.7999 12.0365 17.8185 12.0808C17.8378 12.1246 17.8541 12.1695 17.8681 12.215C17.8821 12.2611 17.8932 12.3071 17.902 12.3544C17.9107 12.4016 17.9165 12.4489 17.92 12.4967C17.92 12.7621 17.92 12.8502 17.5957 12.4967C17.202 12.1491 16.7505 11.9134 16.24 11.7897C15.9746 11.7897 16.0044 11.4946 16.24 11.4356L16.2698 11.3767ZM20.6314 14.2946C20.6792 14.287 20.727 14.2811 20.7749 14.2788C20.8233 14.2765 20.8711 14.2765 20.919 14.2794C20.9674 14.2823 21.0152 14.2881 21.0625 14.2963C21.1097 14.3045 21.1564 14.3156 21.203 14.3296C21.2491 14.343 21.294 14.3593 21.3384 14.378C21.3827 14.3972 21.4259 14.4182 21.4679 14.4422C21.5099 14.4661 21.5501 14.4917 21.5892 14.5203C21.6277 14.5489 21.665 14.5792 21.7006 14.6119C21.7356 14.6446 21.7695 14.679 21.801 14.7151C21.8325 14.7519 21.8616 14.7898 21.889 14.8295C21.9159 14.8692 21.941 14.9106 21.9631 14.9531C21.9859 14.9957 22.0057 15.0395 22.0232 15.0844C22.0407 15.1293 22.0559 15.1748 22.0681 15.2215C22.0804 15.2682 22.0897 15.3148 22.0967 15.3626C22.1037 15.4105 22.1078 15.4583 22.109 15.5062C22.1107 15.5546 22.1095 15.6024 22.1055 15.6502C22.1055 15.9746 21.9287 16.0043 21.7514 15.6502C21.4486 15.26 21.0753 14.9555 20.6314 14.7367C20.3665 14.7367 20.4255 14.4124 20.6314 14.3832V14.2946ZM3.71354 11.7897C3.41896 10.4043 6.16004 10.4043 7.81029 9.54973C9.46113 8.69457 11.7898 6.7789 12.6444 8.01673C13.2569 8.8649 13.7486 9.77898 14.1179 10.7578V10.9346C13.6565 11.6206 13.286 12.3526 13.0066 13.1308C12.7272 13.909 12.5475 14.7099 12.4676 15.5324C12.4676 15.9157 12.4676 15.9157 12.1433 16.0632C11.7554 16.2271 11.4025 16.4482 11.0851 16.7253C10.7678 17.0024 10.5012 17.3221 10.2865 17.6843C10.08 18.0967 10.2865 18.1854 10.5514 17.92C10.9475 17.7036 11.3599 17.5268 11.7898 17.3897C12.379 17.1832 12.4379 17.1832 12.6146 17.8022C12.869 18.4578 13.1933 19.0767 13.5876 19.6589C13.5876 19.8356 13.5876 19.8946 13.2044 20.1011C9.66763 21.9286 4.95138 17.6843 3.71354 11.7897Z" fill="#E5E0FF"/>
</g>
</g>
<defs>
<clipPath id="clip0_120_1129">
<rect width="28" height="28" fill="white"/>
</clipPath>
</defs>
</svg>
