<svg width="28" height="28" viewBox="0 0 28 28" fill="none" xmlns="http://www.w3.org/2000/svg">
<g clip-path="url(#clip0_127_1315)">
<path d="M5.83341 17.5H22.1667C22.8084 17.5 23.3334 16.975 23.3334 16.3334C23.3334 15.6917 22.8084 15.1667 22.1667 15.1667H5.83341C5.19175 15.1667 4.66675 15.6917 4.66675 16.3334C4.66675 16.975 5.19175 17.5 5.83341 17.5ZM5.83341 22.1667H22.1667C22.8084 22.1667 23.3334 21.6417 23.3334 21C23.3334 20.3584 22.8084 19.8334 22.1667 19.8334H5.83341C5.19175 19.8334 4.66675 20.3584 4.66675 21C4.66675 21.6417 5.19175 22.1667 5.83341 22.1667ZM5.83341 12.8334H22.1667C22.8084 12.8334 23.3334 12.3084 23.3334 11.6667C23.3334 11.025 22.8084 10.5 22.1667 10.5H5.83341C5.19175 10.5 4.66675 11.025 4.66675 11.6667C4.66675 12.3084 5.19175 12.8334 5.83341 12.8334ZM4.66675 7.00004C4.66675 7.64171 5.19175 8.16671 5.83341 8.16671H22.1667C22.8084 8.16671 23.3334 7.64171 23.3334 7.00004C23.3334 6.35837 22.8084 5.83337 22.1667 5.83337H5.83341C5.19175 5.83337 4.66675 6.35837 4.66675 7.00004Z" fill="#E5E0FF"/>
</g>
<defs>
<clipPath id="clip0_127_1315">
<rect width="28" height="28" fill="white"/>
</clipPath>
</defs>
</svg>
