<svg width="28" height="28" viewBox="0 0 28 28" fill="none" xmlns="http://www.w3.org/2000/svg">
<mask id="mask0_21_2889" style="mask-type:alpha" maskUnits="userSpaceOnUse" x="0" y="0" width="28" height="28">
<rect width="28" height="28" fill="#D9D9D9"/>
</mask>
<g mask="url(#mask0_21_2889)">
<path d="M12.8334 24.5L9.12925 21.175C7.72925 19.9111 6.52855 18.7833 5.52716 17.7917C4.52578 16.8 3.69939 15.8667 3.048 14.9917C2.39661 14.1167 1.92022 13.2708 1.61883 12.4542C1.31744 11.6375 1.16675 10.7819 1.16675 9.8875C1.16675 8.05972 1.77925 6.53819 3.00425 5.32292C4.22925 4.10764 5.75564 3.5 7.58341 3.5C8.59453 3.5 9.55702 3.71389 10.4709 4.14167C11.3848 4.56944 12.1723 5.17222 12.8334 5.95C13.4945 5.17222 14.282 4.56944 15.1959 4.14167C16.1098 3.71389 17.0723 3.5 18.0834 3.5C19.6584 3.5 20.9806 3.94236 22.0501 4.82708C23.1195 5.71181 23.8487 6.825 24.2376 8.16667H21.7584C21.4084 7.38889 20.8931 6.80556 20.2126 6.41667C19.532 6.02778 18.8223 5.83333 18.0834 5.83333C17.0917 5.83333 16.2362 6.10069 15.5167 6.63542C14.7973 7.17014 14.1265 7.875 13.5042 8.75H12.1626C11.5598 7.875 10.8744 7.17014 10.1063 6.63542C9.33827 6.10069 8.4973 5.83333 7.58341 5.83333C6.47508 5.83333 5.51744 6.21736 4.7105 6.98542C3.90355 7.75347 3.50008 8.72083 3.50008 9.8875C3.50008 10.5292 3.63619 11.1806 3.90841 11.8417C4.18064 12.5028 4.66675 13.266 5.36675 14.1312C6.06675 14.9965 7.01953 16.0076 8.22508 17.1646C9.43064 18.3215 10.9667 19.7167 12.8334 21.35C13.339 20.9028 13.932 20.3875 14.6126 19.8042C15.2931 19.2208 15.8376 18.7347 16.2459 18.3458L17.9084 20.0083C17.4806 20.3972 16.9362 20.8785 16.2751 21.4521C15.614 22.0257 15.0306 22.5361 14.5251 22.9833L12.8334 24.5ZM21.0001 19.8333V16.3333H17.5001V14H21.0001V10.5H23.3334V14H26.8334V16.3333H23.3334V19.8333H21.0001Z" fill="#E5E0FF"/>
</g>
</svg>
