<svg width="28" height="28" viewBox="0 0 28 28" fill="none" xmlns="http://www.w3.org/2000/svg">
<mask id="mask0_21_2899" style="mask-type:alpha" maskUnits="userSpaceOnUse" x="0" y="0" width="28" height="28">
<rect width="28" height="28" fill="#D9D9D9"/>
</mask>
<g mask="url(#mask0_21_2899)">
<path d="M25.8709 12.2792C26.0848 12.5125 26.1918 12.7896 26.1918 13.1104C26.1918 13.4313 26.0848 13.7083 25.8709 13.9417L21.7292 18.0542C21.5154 18.2875 21.2431 18.4042 20.9126 18.4042C20.582 18.4042 20.3098 18.2875 20.0959 18.0542L18.4334 16.4208C18.2001 16.1875 18.0834 15.9104 18.0834 15.5896C18.0834 15.2688 18.2001 14.9917 18.4334 14.7583C18.6667 14.5444 18.9438 14.4375 19.2647 14.4375C19.5855 14.4375 19.8626 14.5444 20.0959 14.7583L20.9126 15.575L24.2084 12.2792C24.4417 12.0653 24.7188 11.9583 25.0397 11.9583C25.3605 11.9583 25.6376 12.0653 25.8709 12.2792ZM12.0459 23.8292L9.12925 21.175C7.72925 19.9111 6.52855 18.7833 5.52716 17.7917C4.52578 16.8 3.69939 15.8667 3.048 14.9917C2.39661 14.1167 1.92022 13.2708 1.61883 12.4542C1.31744 11.6375 1.16675 10.7819 1.16675 9.8875C1.16675 8.05972 1.77925 6.53819 3.00425 5.32292C4.22925 4.10764 5.75564 3.5 7.58342 3.5C8.59453 3.5 9.55703 3.70903 10.4709 4.12708C11.3848 4.54514 12.1723 5.14306 12.8334 5.92083C13.4945 5.14306 14.282 4.54514 15.1959 4.12708C16.1098 3.70903 17.0723 3.5 18.0834 3.5C19.7362 3.5 21.1216 4.00069 22.2397 5.00208C23.3577 6.00347 24.0529 7.175 24.3251 8.51667C23.9362 8.36111 23.5279 8.26389 23.1001 8.225C22.6723 8.18611 22.2348 8.16667 21.7876 8.16667C20.1348 8.16667 18.6181 8.83264 17.2376 10.1646C15.857 11.4965 15.1667 13.1639 15.1667 15.1667C15.1667 16.1 15.3709 17.0479 15.7793 18.0104C16.1876 18.9729 16.7612 19.7556 17.5001 20.3583C17.1306 20.6889 16.6494 21.1118 16.0563 21.6271C15.4633 22.1424 14.9529 22.5944 14.5251 22.9833L13.5917 23.8292C13.3779 24.0236 13.1202 24.1208 12.8188 24.1208C12.5174 24.1208 12.2598 24.0236 12.0459 23.8292Z" fill="#E5E0FF"/>
</g>
</svg>
