<svg width="28" height="28" viewBox="0 0 28 28" fill="none" xmlns="http://www.w3.org/2000/svg">
<g clip-path="url(#clip0_122_1140)">
<path d="M21.0001 9.33329H19.8334V6.99996C19.8334 3.77996 17.2201 1.16663 14.0001 1.16663C10.7801 1.16663 8.16675 3.77996 8.16675 6.99996V9.33329H7.00008C5.71675 9.33329 4.66675 10.3833 4.66675 11.6666V23.3333C4.66675 24.6166 5.71675 25.6666 7.00008 25.6666H21.0001C22.2834 25.6666 23.3334 24.6166 23.3334 23.3333V11.6666C23.3334 10.3833 22.2834 9.33329 21.0001 9.33329ZM14.0001 19.8333C12.7167 19.8333 11.6667 18.7833 11.6667 17.5C11.6667 16.2166 12.7167 15.1666 14.0001 15.1666C15.2834 15.1666 16.3334 16.2166 16.3334 17.5C16.3334 18.7833 15.2834 19.8333 14.0001 19.8333ZM17.6167 9.33329H10.3834V6.99996C10.3834 5.00496 12.0051 3.38329 14.0001 3.38329C15.9951 3.38329 17.6167 5.00496 17.6167 6.99996V9.33329Z" fill="#E5E0FF"/>
</g>
<defs>
<clipPath id="clip0_122_1140">
<rect width="28" height="28" fill="white"/>
</clipPath>
</defs>
</svg>
