<svg width="28" height="28" viewBox="0 0 28 28" fill="none" xmlns="http://www.w3.org/2000/svg">
<mask id="mask0_2_624" style="mask-type:alpha" maskUnits="userSpaceOnUse" x="0" y="0" width="28" height="28">
<rect width="28" height="28" fill="#D9D9D9"/>
</mask>
<g mask="url(#mask0_2_624)">
<path d="M4.66659 23.3333C4.02492 23.3333 3.47561 23.1048 3.01867 22.6479C2.56172 22.1909 2.33325 21.6416 2.33325 21V6.99996C2.33325 6.35829 2.56172 5.80899 3.01867 5.35204C3.47561 4.8951 4.02492 4.66663 4.66659 4.66663H23.3333C23.9749 4.66663 24.5242 4.8951 24.9812 5.35204C25.4381 5.80899 25.6666 6.35829 25.6666 6.99996V21C25.6666 21.6416 25.4381 22.1909 24.9812 22.6479C24.5242 23.1048 23.9749 23.3333 23.3333 23.3333H4.66659ZM23.3333 9.33329L14.6124 14.7875C14.5152 14.8458 14.4131 14.8895 14.3062 14.9187C14.1992 14.9479 14.0971 14.9625 13.9999 14.9625C13.9027 14.9625 13.8006 14.9479 13.6937 14.9187C13.5867 14.8895 13.4846 14.8458 13.3874 14.7875L4.66659 9.33329V21H23.3333V9.33329ZM13.9999 12.8333L23.3333 6.99996H4.66659L13.9999 12.8333ZM4.66659 9.62496V7.90413V7.93329V7.91871V9.62496Z" fill="#E5E0FF"/>
</g>
</svg>
