<svg width="28" height="28" viewBox="0 0 28 28" fill="none" xmlns="http://www.w3.org/2000/svg">
<g clip-path="url(#clip0_162_1704)">
<path d="M22.1666 11.6667C23.4849 11.6667 24.6866 11.2117 25.6666 10.4767V21C25.6666 22.2834 24.6166 23.3334 23.3333 23.3334H4.66659C3.38325 23.3334 2.33325 22.2834 2.33325 21V7.00004C2.33325 5.71671 3.38325 4.66671 4.66659 4.66671H16.4499C16.3799 5.04004 16.3333 5.43671 16.3333 5.83337C16.3333 7.56004 17.0916 9.08837 18.2816 10.1617L13.9999 12.8334L6.18325 7.94504C5.51825 7.53671 4.66659 8.00337 4.66659 8.78504C4.66659 9.12337 4.84159 9.43837 5.13325 9.62504L13.3816 14.7817C13.7549 15.015 14.2449 15.015 14.6183 14.7817L20.1833 11.305C20.8133 11.5267 21.4666 11.6667 22.1666 11.6667ZM18.6666 5.83337C18.6666 7.77004 20.2299 9.33337 22.1666 9.33337C24.1033 9.33337 25.6666 7.77004 25.6666 5.83337C25.6666 3.89671 24.1033 2.33337 22.1666 2.33337C20.2299 2.33337 18.6666 3.89671 18.6666 5.83337Z" fill="#E5E0FF"/>
</g>
<defs>
<clipPath id="clip0_162_1704">
<rect width="28" height="28" fill="white"/>
</clipPath>
</defs>
</svg>
