<svg width="28" height="28" viewBox="0 0 28 28" fill="none" xmlns="http://www.w3.org/2000/svg">
<g clip-path="url(#clip0_120_1130)">
<mask id="mask0_120_1130" style="mask-type:luminance" maskUnits="userSpaceOnUse" x="0" y="0" width="28" height="28">
<path d="M0 0H27.9253V27.9253H0V0Z" fill="white"/>
</mask>
<g mask="url(#mask0_120_1130)">
<path fill-rule="evenodd" clip-rule="evenodd" d="M14.059 -1.72852e-05C14.2888 -1.72852e-05 14.5192 0.00581605 14.749 0.0168993C14.9789 0.0279827 15.2081 0.0448993 15.4368 0.0676494C15.666 0.0903994 15.8941 0.118399 16.1216 0.152233C16.3497 0.186066 16.576 0.225149 16.8018 0.270066C17.0275 0.314983 17.2521 0.365149 17.475 0.421149C17.6984 0.477149 17.92 0.538399 18.14 0.605483C18.3605 0.671983 18.5786 0.744316 18.795 0.821899C19.012 0.899483 19.2267 0.982316 19.439 1.0704C19.652 1.15848 19.862 1.25123 20.0702 1.34982C20.2779 1.4484 20.4832 1.55165 20.6862 1.66015C20.8892 1.76865 21.0893 1.88182 21.2865 2.00023C21.4842 2.11865 21.6785 2.24173 21.8698 2.36948C22.0611 2.49723 22.249 2.62965 22.4339 2.76673C22.6188 2.90382 22.8002 3.04498 22.9781 3.1914C23.1555 3.33723 23.3299 3.48715 23.5002 3.64173C23.6711 3.79632 23.8374 3.95498 24.0001 4.11773C24.1629 4.28048 24.3215 4.44732 24.4761 4.61765C24.6307 4.78798 24.7806 4.9624 24.9265 5.14032C25.0729 5.31765 25.214 5.49907 25.3511 5.68398C25.4882 5.8689 25.6206 6.05673 25.7484 6.24807C25.8761 6.4394 25.9992 6.63365 26.1176 6.8314C26.236 7.02857 26.3492 7.22865 26.4577 7.43165C26.5662 7.63465 26.6695 7.83998 26.768 8.04823C26.8666 8.2559 26.96 8.46648 27.048 8.67882C27.1355 8.89115 27.2184 9.10582 27.296 9.32282C27.3735 9.53923 27.4459 9.7574 27.5124 9.9779C27.5795 10.1978 27.6407 10.4195 27.6967 10.6429C27.7527 10.8663 27.8029 11.0903 27.8478 11.3161C27.8927 11.5418 27.9318 11.7687 27.9656 11.9962C27.9995 12.2237 28.0275 12.4518 28.0502 12.6811C28.073 12.9097 28.0899 13.1396 28.101 13.3688C28.112 13.5986 28.1179 13.8291 28.1179 14.0589C28.1179 14.2887 28.112 14.5191 28.101 14.749C28.0899 14.9788 28.073 15.2081 28.0502 15.4367C28.0275 15.666 27.9995 15.8941 27.9656 16.1216C27.9318 16.3496 27.8927 16.576 27.8478 16.8017C27.8029 17.0275 27.7527 17.2521 27.6967 17.4749C27.6407 17.6983 27.5795 17.92 27.5124 18.1399C27.4459 18.3604 27.3735 18.5786 27.296 18.795C27.2184 19.012 27.1355 19.2267 27.048 19.439C26.96 19.6519 26.8666 19.8619 26.768 20.0702C26.6695 20.2778 26.5662 20.4832 26.4577 20.6861C26.3492 20.8892 26.236 21.0892 26.1176 21.2864C25.9992 21.4841 25.8761 21.6784 25.7484 21.8697C25.6206 22.0611 25.4882 22.2489 25.3511 22.4338C25.214 22.6187 25.0729 22.8001 24.9265 22.9781C24.7806 23.1554 24.6307 23.3298 24.4761 23.5002C24.3215 23.6711 24.1629 23.8373 24.0001 24.0001C23.8374 24.1628 23.6711 24.3215 23.5002 24.4761C23.3299 24.6306 23.1555 24.7806 22.9781 24.9264C22.8002 25.0728 22.6188 25.214 22.4339 25.3511C22.249 25.4881 22.0611 25.6206 21.8698 25.7483C21.6785 25.8761 21.4842 25.9992 21.2865 26.1176C21.0893 26.236 20.8892 26.3491 20.6862 26.4577C20.4832 26.5662 20.2779 26.6694 20.0702 26.768C19.862 26.8666 19.652 26.9599 19.439 27.048C19.2267 27.1355 19.012 27.2183 18.795 27.2959C18.5786 27.3735 18.3605 27.4458 18.14 27.5123C17.92 27.5794 17.6984 27.6406 17.475 27.6967C17.2521 27.7527 17.0275 27.8028 16.8018 27.8477C16.576 27.8927 16.3497 27.9317 16.1216 27.9656C15.8941 27.9994 15.666 28.0274 15.4368 28.0501C15.2081 28.0729 14.9789 28.0898 14.749 28.1009C14.5192 28.112 14.2888 28.1178 14.059 28.1178C13.8291 28.1178 13.5987 28.112 13.3689 28.1009C13.1396 28.0898 12.9098 28.0729 12.6811 28.0501C12.4519 28.0274 12.2238 27.9994 11.9963 27.9656C11.7688 27.9317 11.5419 27.8927 11.3161 27.8477C11.0904 27.8028 10.8664 27.7527 10.643 27.6967C10.4195 27.6406 10.1979 27.5794 9.97796 27.5123C9.75746 27.4458 9.53929 27.3735 9.32288 27.2959C9.10588 27.2183 8.89121 27.1355 8.67888 27.048C8.46654 26.9599 8.25596 26.8666 8.04829 26.768C7.84004 26.6694 7.63471 26.5662 7.43171 26.4577C7.22871 26.3491 7.02863 26.236 6.83146 26.1176C6.63371 25.9992 6.43946 25.8761 6.24813 25.7483C6.05679 25.6206 5.86896 25.4881 5.68404 25.3511C5.49913 25.214 5.31771 25.0728 5.14038 24.9264C4.96246 24.7806 4.78804 24.6306 4.61771 24.4761C4.44738 24.3215 4.28054 24.1628 4.11779 24.0001C3.95504 23.8373 3.79638 23.6711 3.64179 23.5002C3.48721 23.3298 3.33729 23.1554 3.19146 22.9781C3.04504 22.8001 2.90388 22.6187 2.76679 22.4338C2.62971 22.2489 2.49729 22.0611 2.36954 21.8697C2.24179 21.6784 2.11871 21.4841 2.00029 21.2864C1.88188 21.0892 1.76871 20.8892 1.66021 20.6861C1.55171 20.4832 1.44846 20.2778 1.34988 20.0702C1.25129 19.8619 1.15854 19.6519 1.07046 19.439C0.982377 19.2267 0.899544 19.012 0.82196 18.795C0.744377 18.5786 0.672044 18.3604 0.605544 18.1399C0.53846 17.92 0.47721 17.6983 0.42121 17.4749C0.36521 17.2521 0.315044 17.0275 0.270127 16.8017C0.22521 16.576 0.186127 16.3496 0.152294 16.1216C0.11846 15.8941 0.0904605 15.666 0.0677104 15.4367C0.0449604 15.2081 0.0280438 14.9788 0.0169604 14.749C0.00587708 14.5191 4.375e-05 14.2887 4.375e-05 14.0589C-0.000539583 13.8285 0.00471042 13.5986 0.0157938 13.3688C0.0262937 13.139 0.042627 12.9092 0.0647938 12.6799C0.0869604 12.4507 0.11496 12.2226 0.14821 11.9945C0.182044 11.767 0.220544 11.5401 0.26546 11.3143C0.309794 11.088 0.35996 10.8634 0.415377 10.64C0.471377 10.4166 0.532044 10.1949 0.598544 9.9744C0.665044 9.7539 0.737377 9.53573 0.814377 9.31873C0.89196 9.10173 0.974211 8.88707 1.06229 8.67415C1.15038 8.46123 1.24313 8.25065 1.34171 8.04298C1.43971 7.83473 1.54296 7.62882 1.65146 7.42582C1.75996 7.22282 1.87313 7.02215 1.99154 6.82498C2.10938 6.62723 2.23246 6.4324 2.36021 6.24107C2.48796 6.04973 2.62038 5.86132 2.75746 5.6764C2.89454 5.49148 3.03629 5.31007 3.18213 5.13215C3.32796 4.95423 3.47846 4.77982 3.63304 4.6089C3.78763 4.43857 3.94629 4.27173 4.10904 4.10898C4.27179 3.94623 4.43863 3.78757 4.60896 3.63298C4.77988 3.4784 4.95429 3.3279 5.13221 3.18207C5.31013 3.03623 5.49154 2.89448 5.67646 2.7574C5.86138 2.62032 6.04979 2.4879 6.24113 2.36015C6.43246 2.2324 6.62729 2.10932 6.82504 1.99148C7.02221 1.87307 7.22288 1.7599 7.42588 1.6514C7.62888 1.5429 7.83479 1.43965 8.04304 1.34165C8.25071 1.24307 8.46129 1.15032 8.67421 1.06223C8.88713 0.974149 9.10179 0.891899 9.31879 0.814316C9.53579 0.737316 9.75396 0.664983 9.97446 0.598483C10.195 0.531983 10.4166 0.471316 10.64 0.415316C10.8635 0.359899 11.088 0.309733 11.3144 0.265399C11.5401 0.220483 11.767 0.181983 11.9945 0.148149C12.2226 0.114899 12.4507 0.0868993 12.68 0.0647328C12.9092 0.042566 13.139 0.0262327 13.3689 0.0157328C13.5987 0.00464938 13.8285 -0.000600619 14.059 -1.72852e-05ZM7.19138 6.39565C7.66329 6.39565 7.69246 6.39565 7.69246 6.83782C7.69246 7.27998 7.69246 7.45673 8.28221 7.45673C8.87138 7.45673 8.84221 7.36865 8.84221 6.83782C8.84221 6.30757 8.84221 6.39565 9.28438 6.39565H18.7455C19.1579 6.39565 19.2168 6.39565 19.2168 6.89673C19.2168 7.39782 19.2168 7.45673 19.8065 7.45673C20.3957 7.45673 20.4255 7.45673 20.4255 6.89673C20.4255 6.33673 20.4255 6.39565 20.8968 6.39565C21.3687 6.39565 21.3979 6.39565 21.3979 6.83782V21.2502C21.3979 21.6924 21.3979 21.6924 20.8968 21.6924C20.3957 21.6924 20.4255 21.6924 20.4255 21.1621C20.4255 20.6313 20.4255 20.6313 19.8065 20.6313C19.1876 20.6313 19.2168 20.6313 19.2168 21.1913C19.2168 21.7513 19.2168 21.7222 18.7455 21.7222H9.34329C8.84221 21.6924 8.84221 21.6924 8.84221 21.1621C8.84221 20.6313 8.84221 20.6313 8.31138 20.6313C7.78113 20.6313 7.69246 20.6313 7.69246 21.1913C7.69246 21.7513 7.69246 21.7222 7.19138 21.7222C6.69029 21.7222 6.72004 21.7222 6.72004 21.28V6.83782C6.72004 6.45457 6.72004 6.39565 7.19138 6.39565ZM10.6698 14.7367H17.4487C17.5065 14.7367 17.5642 14.7426 17.6208 14.7536C17.678 14.7653 17.7334 14.7816 17.787 14.8044C17.8407 14.8266 17.8915 14.8534 17.9399 14.8861C17.9877 14.9181 18.0326 14.9549 18.0735 14.9957C18.1149 15.0366 18.1516 15.0815 18.1837 15.1299C18.2158 15.1783 18.2432 15.2291 18.2654 15.2827C18.2875 15.3364 18.3045 15.3918 18.3155 15.4484C18.3272 15.5056 18.3325 15.5627 18.3325 15.6211V19.6297C18.3325 19.6875 18.3272 19.7452 18.3155 19.8018C18.3045 19.859 18.2875 19.9144 18.2654 19.9681C18.2432 20.0217 18.2158 20.0725 18.1837 20.1209C18.1516 20.1687 18.1149 20.2136 18.0735 20.2545C18.0326 20.2959 17.9877 20.3327 17.9399 20.3647C17.8915 20.3968 17.8407 20.4242 17.787 20.4464C17.7334 20.4686 17.678 20.4855 17.6208 20.4966C17.5642 20.5082 17.5065 20.5135 17.4487 20.5135H10.6698C10.6103 20.5158 10.5514 20.5117 10.493 20.5018C10.4341 20.4919 10.3775 20.4762 10.3221 20.4552C10.2667 20.4336 10.2142 20.4073 10.164 20.3752C10.1139 20.3432 10.0678 20.3064 10.0252 20.2656C9.98263 20.2241 9.94471 20.1792 9.91088 20.1302C9.87704 20.0812 9.84904 20.0293 9.82571 19.9745C9.80296 19.9202 9.78546 19.8636 9.77321 19.8059C9.76154 19.7476 9.75571 19.6887 9.75571 19.6297V15.4735C9.76446 15.421 9.77846 15.3691 9.79654 15.3189C9.81463 15.2682 9.83738 15.2197 9.86479 15.1736C9.89163 15.1276 9.92254 15.0838 9.95754 15.043C9.99254 15.0027 10.031 14.9654 10.073 14.9316C10.1145 14.8983 10.1588 14.8686 10.206 14.8429C10.2533 14.8172 10.3023 14.7962 10.353 14.7793C10.4044 14.763 10.4563 14.7507 10.5094 14.7437C10.5625 14.7367 10.6161 14.7344 10.6698 14.7367ZM10.6698 7.72215H17.4487C17.5059 7.7239 17.563 7.7309 17.619 7.74373C17.675 7.75598 17.7299 7.77407 17.7824 7.79682C17.8355 7.81957 17.8856 7.84757 17.9329 7.87965C17.9807 7.91173 18.025 7.94848 18.0653 7.98932C18.1061 8.03015 18.1429 8.0739 18.175 8.12173C18.2076 8.16957 18.235 8.21973 18.2578 8.27223C18.2805 8.32532 18.2986 8.37957 18.3109 8.43557C18.3237 8.49215 18.3307 8.54873 18.3325 8.60648V12.6146C18.3325 12.6735 18.3272 12.7318 18.3161 12.7896C18.3045 12.8473 18.2881 12.9033 18.266 12.9576C18.2438 13.0124 18.217 13.0643 18.1849 13.1133C18.1528 13.1623 18.1166 13.2084 18.0758 13.2504C18.035 13.293 17.99 13.3309 17.9422 13.3642C17.8938 13.398 17.843 13.4266 17.7888 13.4505C17.7351 13.4744 17.6797 13.4931 17.6225 13.5059C17.5654 13.5187 17.507 13.5263 17.4487 13.5286H10.6698C10.6097 13.5286 10.5502 13.5228 10.4913 13.5106C10.4324 13.4989 10.3752 13.482 10.3198 13.4586C10.2644 13.4359 10.2119 13.4079 10.1617 13.3747C10.1121 13.3408 10.066 13.3035 10.0235 13.2609C9.98088 13.2183 9.94296 13.1722 9.90971 13.1221C9.87646 13.0725 9.84846 13.02 9.82513 12.9646C9.80238 12.9092 9.78488 12.852 9.77321 12.7931C9.76154 12.7341 9.75571 12.6747 9.75571 12.6146V8.4589C9.75746 8.39998 9.76504 8.34223 9.77846 8.28507C9.79129 8.22732 9.80996 8.1719 9.83388 8.11823C9.85721 8.06457 9.88638 8.01382 9.91963 7.9654C9.95346 7.91698 9.99138 7.87265 10.0334 7.83182C10.076 7.79098 10.1215 7.75423 10.171 7.72273C10.22 7.69065 10.272 7.66323 10.3268 7.64107C10.381 7.61948 10.437 7.60257 10.4948 7.59148C10.5525 7.5804 10.6109 7.57457 10.6698 7.57457V7.72215ZM8.31138 18.9513C8.90113 18.9513 8.90113 18.9513 8.90113 19.5411C8.90113 20.1302 8.90113 20.1011 8.28221 20.1011C7.66329 20.1011 7.69246 20.1011 7.69246 19.5411C7.69246 18.9811 7.69246 18.9513 8.31138 18.9513ZM8.31138 17.1832C8.90113 17.1832 8.90113 17.1832 8.90113 17.7432C8.90113 18.3032 8.90113 18.3324 8.28221 18.3324C7.66329 18.3324 7.69246 18.3324 7.69246 17.7432C7.69246 17.1535 7.69246 17.1832 8.31138 17.1832ZM8.31138 15.3854C8.90113 15.3854 8.90113 15.3854 8.90113 15.9454C8.90113 16.5054 8.90113 16.5346 8.28221 16.5346C7.66329 16.5346 7.69246 16.5346 7.69246 15.9746C7.69246 15.4146 7.69246 15.3854 8.31138 15.3854ZM8.31138 13.5876C8.90113 13.5876 8.90113 13.5876 8.90113 14.1767C8.90113 14.7665 8.84221 14.7367 8.28221 14.7367C7.72221 14.7367 7.69246 14.7367 7.69246 14.1476C7.69246 13.5578 7.69246 13.5578 8.31138 13.5578V13.5876ZM8.31138 11.8189C8.84221 11.7897 8.84221 11.7897 8.84221 12.2313C8.84221 12.6735 8.84221 12.8211 8.22329 12.8211C7.60438 12.8211 7.63354 12.8211 7.63354 12.2313C7.63354 11.6421 7.63354 11.6713 8.25246 11.6713L8.31138 11.8189ZM8.31138 10.0211C8.90113 10.0211 8.90113 10.0211 8.90113 10.6102C8.90113 11.2 8.90113 11.1702 8.28221 11.1702C7.66329 11.1702 7.69246 11.1702 7.69246 10.6102C7.69246 10.0502 7.69246 10.0211 8.31138 10.0211ZM8.31138 8.2524C8.90113 8.2524 8.90113 8.2524 8.90113 8.8124C8.90113 9.3724 8.90113 9.40215 8.28221 9.40215C7.66329 9.40215 7.69246 9.40215 7.69246 8.8124C7.69246 8.22323 7.69246 8.2524 8.31138 8.2524ZM19.8065 18.9513C20.4255 18.9513 20.4255 18.9513 20.4255 19.5411C20.4255 20.1302 20.4255 20.1011 19.8065 20.1011C19.1876 20.1011 19.2168 20.1011 19.2168 19.5411C19.2168 18.9811 19.2168 18.9513 19.8065 18.9513ZM19.8065 17.1832C20.4255 17.1832 20.4255 17.1832 20.4255 17.7432C20.4255 18.3032 20.4255 18.3324 19.8065 18.3324C19.1876 18.3324 19.2168 18.3324 19.2168 17.7432C19.2168 17.1535 19.2168 17.1832 19.8065 17.1832ZM19.8065 15.3854C20.4255 15.3854 20.4255 15.3854 20.4255 15.9454C20.4255 16.5054 20.4255 16.5346 19.8065 16.5346C19.1876 16.5346 19.2168 16.5346 19.2168 15.9746C19.2168 15.4146 19.2168 15.3854 19.8065 15.3854ZM19.8065 13.5876C20.4255 13.5876 20.4255 13.5876 20.4255 14.1767C20.4255 14.7665 20.4255 14.7665 19.8065 14.7665C19.1876 14.7665 19.2168 14.7665 19.2168 14.1767C19.2168 13.5876 19.2168 13.5876 19.8065 13.5876ZM19.8065 11.8189C20.4255 11.8189 20.4255 11.8189 20.4255 12.3789C20.4255 12.9389 20.4255 12.9686 19.8065 12.9686C19.1876 12.9686 19.2168 12.9686 19.2168 12.3789C19.2168 11.7897 19.2168 11.8189 19.8065 11.8189ZM19.8065 10.0211C20.4255 10.0211 20.4255 10.0211 20.4255 10.6102C20.4255 11.2 20.4255 11.1702 19.8065 11.1702C19.1876 11.1702 19.2168 11.1702 19.2168 10.6102C19.2168 10.0502 19.2168 10.0211 19.8065 10.0211ZM19.8065 8.2524C20.4255 8.2524 20.4255 8.2524 20.4255 8.8124C20.4255 9.3724 20.4255 9.40215 19.8065 9.40215C19.1876 9.40215 19.2168 9.40215 19.2168 8.8124C19.2168 8.22323 19.2168 8.2524 19.8065 8.2524Z" fill="#E5E0FF"/>
</g>
</g>
<defs>
<clipPath id="clip0_120_1130">
<rect width="28" height="28" fill="white"/>
</clipPath>
</defs>
</svg>
