<svg width="28" height="28" viewBox="0 0 28 28" fill="none" xmlns="http://www.w3.org/2000/svg">
<path d="M26.8249 10.2069L22.5152 7.03935V3.2611C22.5152 2.66873 22.034 2.18952 21.4422 2.18952H19.6977C19.1051 2.18952 18.6247 2.6696 18.6247 3.2611V4.17898L15.3385 1.76427C14.6257 1.23898 13.4584 1.23898 12.7453 1.76427L1.25916 10.2069C0.546033 10.7313 0.392325 11.7442 0.917325 12.4574L1.23466 12.8879C1.75878 13.601 2.77232 13.7553 3.48458 13.2309L12.7453 6.42102C13.4584 5.8966 14.6257 5.8966 15.3385 6.42102L24.5986 13.2309C25.3117 13.7553 26.3244 13.6001 26.8485 12.8879L27.1667 12.4574C27.6909 11.7442 27.5372 10.7313 26.8249 10.2069Z" fill="#E5E0FF"/>
<mask id="mask0_15_2436" style="mask-type:luminance" maskUnits="userSpaceOnUse" x="3" y="7" width="22" height="20">
<path d="M3.36011 7.46667H24.7148V26.7015H3.36011V7.46667Z" fill="white"/>
</mask>
<g mask="url(#mask0_15_2436)">
<path d="M23.3888 13.8233L15.3362 7.87677C14.624 7.35089 13.4602 7.35089 12.748 7.87677L4.69534 13.8233C3.98338 14.3494 3.40063 15.1189 3.40063 15.5359V24.1573C3.40063 25.557 4.60143 26.6922 6.08368 26.6922H11.0012V19.066C11.0012 18.4768 11.4842 17.9953 12.0736 17.9953H16.0088C16.5983 17.9953 17.0813 18.4768 17.0813 19.066V26.6922H21.9996C23.481 26.6922 24.6812 25.557 24.6812 24.1573V15.5359C24.6821 15.1189 24.1008 14.3494 23.3888 13.8233Z" fill="#E5E0FF"/>
</g>
</svg>
