<svg width="28" height="28" viewBox="0 0 28 28" fill="none" xmlns="http://www.w3.org/2000/svg">
<g clip-path="url(#clip0_15_2438)">
<path d="M4.19854 3.49623C4.19854 4.65619 3.25879 5.59507 2.10058 5.59507C0.93975 5.59507 0 4.65619 0 3.49623C0 2.3389 0.93975 1.40002 2.10058 1.40002C3.25879 1.40002 4.19854 2.3389 4.19854 3.49623Z" fill="#E5E0FF"/>
<path d="M27.4306 1.40002H7.56169C7.25106 1.40002 6.99731 1.65319 6.99731 1.96119V5.03857C6.99731 5.34657 7.24611 5.60002 7.56169 5.60002H27.4382C27.7465 5.60002 27.9999 5.35152 27.9999 5.03857V1.96119C27.995 1.65319 27.7465 1.40002 27.4306 1.40002Z" fill="#E5E0FF"/>
<path d="M4.19854 10.4904C4.19854 11.6477 3.25879 12.5866 2.10058 12.5866C0.93975 12.5866 0 11.6477 0 10.4904C0 9.33042 0.93975 8.39154 2.10058 8.39154C3.25879 8.39154 4.19854 9.33042 4.19854 10.4904Z" fill="#E5E0FF"/>
<path d="M27.4306 8.39154H7.56169C7.25106 8.39154 6.99731 8.645 6.99731 8.953V12.0327C6.99731 12.3407 7.24611 12.5942 7.56169 12.5942H27.4382C27.7465 12.5942 27.9999 12.3457 27.9999 12.0327V8.953C27.995 8.645 27.7465 8.39154 27.4306 8.39154Z" fill="#E5E0FF"/>
<path d="M4.19854 17.4822C4.19854 18.6422 3.25879 19.581 2.10058 19.581C0.93975 19.581 0 18.6422 0 17.4822C0 16.3246 0.93975 15.386 2.10058 15.386C3.25879 15.386 4.19854 16.3246 4.19854 17.4822Z" fill="#E5E0FF"/>
<path d="M27.4306 15.386H7.56169C7.25106 15.386 6.99731 15.6319 6.99731 15.9472V19.0245C6.99731 19.3325 7.24611 19.586 7.56169 19.586H27.4382C27.7465 19.586 27.9999 19.3375 27.9999 19.0245V15.9472C27.995 15.6392 27.7465 15.386 27.4306 15.386Z" fill="#E5E0FF"/>
<mask id="mask0_15_2438" style="mask-type:luminance" maskUnits="userSpaceOnUse" x="0" y="22" width="5" height="5">
<path d="M0 22.3253H4.256V26.5802H0V22.3253Z" fill="white"/>
</mask>
<g mask="url(#mask0_15_2438)">
<path d="M4.19854 24.4763C4.19854 25.6337 3.25879 26.5725 2.10058 26.5725C0.93975 26.5725 0 25.6337 0 24.4763C0 23.3164 0.93975 22.3775 2.10058 22.3775C3.25879 22.3775 4.19854 23.3164 4.19854 24.4763Z" fill="#E5E0FF"/>
</g>
<mask id="mask1_15_2438" style="mask-type:luminance" maskUnits="userSpaceOnUse" x="6" y="22" width="22" height="5">
<path d="M6.94409 22.3253H28.0001V26.5802H6.94409V22.3253Z" fill="white"/>
</mask>
<g mask="url(#mask1_15_2438)">
<path d="M27.4308 22.3775H7.56193C7.25131 22.3775 6.99756 22.631 6.99756 22.939V26.0163C6.99756 26.3267 7.24635 26.5801 7.56193 26.5801H27.4384C27.7467 26.5801 28.0002 26.3316 28.0002 26.0163V22.939C27.9952 22.631 27.7467 22.3775 27.4308 22.3775Z" fill="#E5E0FF"/>
</g>
</g>
<defs>
<clipPath id="clip0_15_2438">
<rect width="28" height="28" fill="white"/>
</clipPath>
</defs>
</svg>
