<svg width="28" height="28" viewBox="0 0 28 28" fill="none" xmlns="http://www.w3.org/2000/svg">
<g clip-path="url(#clip0_15_2439)">
<path d="M13.9351 -0.0650635C13.7058 -0.0650635 13.4768 -0.0595218 13.2479 -0.0481468C13.0192 -0.0370635 12.7908 -0.0201468 12.5628 0.00231154C12.3347 0.0247699 12.1075 0.0527699 11.8808 0.0863115C11.6542 0.120145 11.4285 0.159228 11.2036 0.203853C10.979 0.248478 10.7556 0.298645 10.5333 0.354353C10.3111 0.410062 10.0903 0.471312 9.87097 0.537812C9.65164 0.604312 9.43435 0.676062 9.21852 0.753353C9.00268 0.830353 8.78918 0.912895 8.57743 1.00069C8.36568 1.08819 8.15627 1.18094 7.94918 1.27894C7.7421 1.37694 7.53735 1.47989 7.33552 1.5881C7.13339 1.69602 6.93418 1.80889 6.7376 1.92673C6.54102 2.04456 6.34764 2.16706 6.15689 2.29423C5.96643 2.42169 5.77918 2.55352 5.59514 2.69002C5.4111 2.82652 5.23056 2.96739 5.05352 3.11264C4.87647 3.25819 4.70293 3.40781 4.53318 3.56152C4.36343 3.71552 4.19747 3.87331 4.0356 4.03548C3.87343 4.19735 3.71564 4.36331 3.56164 4.53306C3.40793 4.70281 3.25831 4.87635 3.11277 5.05339C2.96752 5.23044 2.82664 5.41098 2.69014 5.59502C2.55364 5.77906 2.42181 5.96631 2.29435 6.15677C2.16718 6.34752 2.04468 6.54089 1.92685 6.73748C1.80902 6.93406 1.69614 7.13327 1.58823 7.33539C1.48002 7.53723 1.37706 7.74198 1.27906 7.94906C1.18106 8.15614 1.08831 8.36556 1.00081 8.57731C0.913017 8.78906 0.830475 9.00256 0.753475 9.21839C0.676184 9.43423 0.604434 9.65152 0.537934 9.87085C0.471434 10.0902 0.410184 10.311 0.354475 10.5332C0.298767 10.7555 0.2486 10.9789 0.203975 11.2035C0.15935 11.4284 0.120267 11.6541 0.0864336 11.8807C0.0528919 12.1074 0.0248919 12.3346 0.00243361 12.5626C-0.0200247 12.7907 -0.0369414 13.0191 -0.0480247 13.2478C-0.0593997 13.4767 -0.0649414 13.7057 -0.0649414 13.9349C-0.0649414 14.1639 -0.0593997 14.3929 -0.0480247 14.6218C-0.0369414 14.8508 -0.0200247 15.0791 0.00243361 15.3072C0.0248919 15.535 0.0528919 15.7625 0.0864336 15.9891C0.120267 16.2158 0.15935 16.4415 0.203975 16.6661C0.2486 16.891 0.298767 17.1144 0.354475 17.3366C0.410184 17.5589 0.471434 17.7797 0.537934 17.9987C0.604434 18.2181 0.676184 18.4356 0.753475 18.6512C0.830475 18.867 0.913017 19.0808 1.00081 19.2926C1.08831 19.504 1.18106 19.7134 1.27906 19.9205C1.37706 20.1279 1.48002 20.3324 1.58823 20.5345C1.69614 20.7366 1.80902 20.9358 1.92685 21.1324C2.04468 21.3287 2.16718 21.5224 2.29435 21.7128C2.42181 21.9033 2.55364 22.0905 2.69014 22.2746C2.82664 22.4586 2.96752 22.6391 3.11277 22.8165C3.25831 22.9935 3.40793 23.1671 3.56164 23.3368C3.71564 23.5066 3.87343 23.6722 4.0356 23.8344C4.19747 23.9963 4.36343 24.1544 4.53318 24.3081C4.70293 24.4621 4.87647 24.6117 5.05352 24.7569C5.23056 24.9025 5.4111 25.0434 5.59514 25.1799C5.77918 25.3164 5.96643 25.4482 6.15689 25.5754C6.34764 25.7028 6.54102 25.8253 6.7376 25.9431C6.93418 26.061 7.13339 26.1739 7.33552 26.2818C7.53735 26.3897 7.7421 26.4926 7.94918 26.5906C8.15627 26.6886 8.36568 26.7814 8.57743 26.8692C8.78918 26.957 9.00268 27.0392 9.21852 27.1165C9.43435 27.1935 9.65164 27.2656 9.87097 27.3321C10.0903 27.3986 10.3111 27.4595 10.5333 27.5152C10.7556 27.5709 10.979 27.6211 11.2036 27.6657C11.4285 27.7106 11.6542 27.7497 11.8808 27.7833C12.1075 27.8168 12.3347 27.8451 12.5628 27.8676C12.7908 27.89 13.0192 27.9066 13.2479 27.918C13.4768 27.9291 13.7058 27.9349 13.9351 27.9349C14.164 27.9349 14.393 27.9291 14.6219 27.918C14.8509 27.9066 15.0793 27.89 15.3074 27.8676C15.5351 27.8451 15.7626 27.8168 15.9893 27.7833C16.2159 27.7497 16.4416 27.7106 16.6662 27.6657C16.8911 27.6211 17.1145 27.5709 17.3368 27.5152C17.559 27.4595 17.7798 27.3986 17.9988 27.3321C18.2182 27.2656 18.4358 27.1935 18.6513 27.1165C18.8671 27.0392 19.0809 26.957 19.2927 26.8692C19.5041 26.7814 19.7136 26.6886 19.9206 26.5906C20.128 26.4926 20.3325 26.3897 20.5346 26.2818C20.7367 26.1739 20.9359 26.061 21.1325 25.9431C21.3288 25.8253 21.5225 25.7028 21.7129 25.5754C21.9034 25.4482 22.0906 25.3164 22.2747 25.1799C22.4587 25.0434 22.6393 24.9025 22.8166 24.7569C22.9936 24.6117 23.1672 24.4621 23.3369 24.3081C23.5067 24.1544 23.6723 23.9963 23.8345 23.8344C23.9964 23.6722 24.1545 23.5066 24.3082 23.3368C24.4622 23.1668 24.6118 22.9935 24.7571 22.8165C24.9026 22.6391 25.0435 22.4586 25.18 22.2746C25.3165 22.0905 25.4483 21.9033 25.5755 21.7128C25.7029 21.5224 25.8254 21.3287 25.9433 21.1324C26.0611 20.9358 26.174 20.7366 26.2819 20.5345C26.3898 20.3324 26.4928 20.1279 26.5908 19.9205C26.6888 19.7134 26.7815 19.504 26.8693 19.2926C26.9571 19.0808 27.0393 18.867 27.1166 18.6512C27.1936 18.4356 27.2657 18.2181 27.3322 17.9987C27.3987 17.7797 27.4596 17.5589 27.5153 17.3366C27.5711 17.1144 27.6212 16.891 27.6658 16.6661C27.7108 16.4415 27.7498 16.2158 27.7834 15.9891C27.8169 15.7625 27.8452 15.535 27.8677 15.3072C27.8901 15.0791 27.9068 14.8508 27.9181 14.6218C27.9292 14.3929 27.9351 14.1639 27.9351 13.9349C27.9348 13.7057 27.9289 13.477 27.9173 13.2481C27.9059 13.0194 27.8887 12.791 27.8662 12.5632C27.8435 12.3351 27.8152 12.1079 27.7813 11.8813C27.7475 11.655 27.7081 11.4292 27.6635 11.2046C27.6186 10.9801 27.5681 10.7566 27.5124 10.5347C27.4564 10.3124 27.3952 10.0916 27.3287 9.8726C27.2619 9.65356 27.1901 9.43598 27.1129 9.22044C27.0356 9.00489 26.953 8.79139 26.8652 8.57964C26.7774 8.36819 26.6844 8.15877 26.5864 7.95198C26.4884 7.74489 26.3854 7.54044 26.2772 7.33831C26.1693 7.13648 26.0561 6.93727 25.9386 6.74069C25.8208 6.54439 25.698 6.35102 25.5708 6.16056C25.4433 5.9701 25.3115 5.78285 25.175 5.5991C25.0385 5.41506 24.8976 5.23452 24.7524 5.05748C24.6071 4.88044 24.4575 4.70719 24.3035 4.53744C24.1498 4.36769 23.992 4.20202 23.8298 4.03985C23.668 3.87798 23.502 3.72019 23.3323 3.56619C23.1628 3.41248 22.9893 3.26285 22.8122 3.1176C22.6352 2.97206 22.4546 2.83119 22.2709 2.69469C22.0868 2.55819 21.8996 2.42635 21.7091 2.29919C21.519 2.17173 21.3253 2.04923 21.129 1.93139C20.9327 1.81356 20.7335 1.70069 20.5314 1.59248C20.3296 1.48456 20.1251 1.3816 19.918 1.28331C19.7109 1.18531 19.5018 1.09256 19.2901 1.00477C19.0786 0.916978 18.8651 0.834436 18.6493 0.757145C18.4337 0.679853 18.2164 0.607812 17.9971 0.541312C17.7781 0.47452 17.5576 0.41327 17.3353 0.357561C17.1131 0.301562 16.8896 0.251395 16.6651 0.206478C16.4405 0.161562 16.215 0.122187 15.9884 0.0883532C15.7618 0.0545199 15.5346 0.0262282 15.3068 0.00376987C15.0787 -0.0189801 14.8506 -0.0361885 14.6216 -0.0475635C14.393 -0.0589384 14.164 -0.0647718 13.9351 -0.0650635ZM13.9351 25.7014C13.7426 25.7014 13.5501 25.6967 13.3576 25.6871C13.1653 25.6777 12.9734 25.6637 12.7818 25.6448C12.5899 25.6258 12.3988 25.6022 12.2084 25.5739C12.0179 25.5459 11.8284 25.5129 11.6393 25.4753C11.4506 25.4377 11.2628 25.3954 11.0758 25.3487C10.8892 25.3021 10.7037 25.2507 10.5194 25.1947C10.335 25.1387 10.1521 25.0784 9.97102 25.0136C9.7896 24.9486 9.60993 24.8794 9.43202 24.8056C9.2541 24.7321 9.07823 24.654 8.9041 24.5717C8.72997 24.4892 8.55818 24.4029 8.38814 24.3119C8.21839 24.2211 8.05097 24.1264 7.88589 24.0272C7.72052 23.9283 7.55806 23.8254 7.39793 23.7183C7.23781 23.6113 7.08031 23.5004 6.92572 23.3858C6.77114 23.2712 6.61918 23.1528 6.47043 23.0306C6.32139 22.9084 6.17585 22.7826 6.03293 22.6531C5.89031 22.5239 5.75089 22.3912 5.61468 22.255C5.47877 22.1188 5.34577 21.9794 5.21656 21.8368C5.08735 21.6941 4.96164 21.5483 4.83943 21.3996C4.71723 21.2505 4.59881 21.0989 4.48389 20.9443C4.36927 20.7894 4.25843 20.6322 4.15139 20.4721C4.04464 20.3119 3.94139 20.1492 3.84252 19.9841C3.74364 19.819 3.64856 19.6513 3.55785 19.4816C3.46714 19.3118 3.38052 19.1397 3.29827 18.9656C3.21573 18.7915 3.13785 18.6156 3.06406 18.4377C2.99056 18.2598 2.92114 18.0801 2.85639 17.899C2.79135 17.7176 2.73098 17.5347 2.67527 17.3504C2.61927 17.1663 2.56793 16.9808 2.52098 16.7939C2.47431 16.6072 2.43202 16.4194 2.39468 16.2304C2.35706 16.0416 2.3241 15.8518 2.29581 15.6613C2.26752 15.4709 2.24389 15.2798 2.22523 15.0882C2.20627 14.8966 2.19198 14.7046 2.18264 14.5121C2.17331 14.3199 2.16835 14.1274 2.16835 13.9349C2.16835 13.7424 2.17331 13.5499 2.18264 13.3574C2.19198 13.1652 2.20627 12.9733 2.22523 12.7814C2.24389 12.5898 2.26752 12.3987 2.29581 12.2083C2.3241 12.0178 2.35706 11.8282 2.39468 11.6392C2.43202 11.4505 2.47431 11.2627 2.52098 11.0757C2.56793 10.8891 2.61927 10.7036 2.67527 10.5192C2.73098 10.3349 2.79135 10.152 2.85639 9.97089C2.92114 9.78948 2.99056 9.60981 3.06406 9.43189C3.13785 9.25398 3.21573 9.0781 3.29827 8.90398C3.38052 8.72985 3.46714 8.55806 3.55785 8.38802C3.64856 8.21827 3.74364 8.05085 3.84252 7.88577C3.94139 7.72039 4.04464 7.55794 4.15139 7.39781C4.25843 7.23769 4.36927 7.08019 4.48389 6.9256C4.59881 6.77102 4.71723 6.61906 4.83943 6.47031C4.96164 6.32127 5.08735 6.17573 5.21656 6.03281C5.34577 5.89019 5.47877 5.75077 5.61468 5.61456C5.75089 5.47864 5.89031 5.34564 6.03293 5.21644C6.17585 5.08723 6.32139 4.96152 6.47043 4.83931C6.61918 4.7171 6.77114 4.59869 6.92572 4.48377C7.08031 4.36914 7.23781 4.25831 7.39793 4.15127C7.55806 4.04452 7.72052 3.94127 7.88589 3.84239C8.05097 3.74352 8.21839 3.64844 8.38814 3.55773C8.55818 3.46702 8.72997 3.38039 8.9041 3.29814C9.07823 3.2156 9.2541 3.13773 9.43202 3.06394C9.60993 2.99044 9.7896 2.92102 9.97102 2.85627C10.1521 2.79123 10.335 2.73085 10.5194 2.67514C10.7037 2.61914 10.8892 2.56781 11.0758 2.52085C11.2628 2.47419 11.4506 2.43189 11.6393 2.39456C11.8284 2.35694 12.0179 2.32398 12.2084 2.29569C12.3988 2.26739 12.5899 2.24377 12.7815 2.2251C12.9734 2.20614 13.1653 2.19185 13.3576 2.18252C13.5501 2.17319 13.7426 2.16823 13.9351 2.16823C14.1276 2.16823 14.3201 2.17319 14.5123 2.18252C14.7048 2.19185 14.8967 2.20614 15.0883 2.2251C15.2799 2.24377 15.471 2.26739 15.6614 2.29569C15.8519 2.32398 16.0418 2.35694 16.2305 2.39456C16.4195 2.43189 16.6073 2.47419 16.794 2.52085C16.9809 2.56781 17.1664 2.61914 17.3505 2.67514C17.5348 2.73085 17.7177 2.79123 17.8991 2.85627C18.0802 2.92102 18.2599 2.99044 18.4378 3.06394C18.6157 3.13773 18.7916 3.2156 18.9657 3.29814C19.1398 3.38039 19.3119 3.46702 19.4817 3.55773C19.6514 3.64844 19.8191 3.74352 19.9842 3.84239C20.1493 3.94127 20.3121 4.04452 20.4722 4.15127C20.6323 4.25831 20.7895 4.36914 20.9444 4.48377C21.099 4.59869 21.2506 4.7171 21.3997 4.83931C21.5484 4.96152 21.6943 5.08723 21.8369 5.21644C21.9795 5.34564 22.1189 5.47864 22.2551 5.61456C22.3913 5.75077 22.5241 5.89019 22.6533 6.03281C22.7828 6.17573 22.9085 6.32127 23.0307 6.47031C23.1529 6.61906 23.2713 6.77102 23.3859 6.9256C23.5006 7.08019 23.6114 7.23769 23.7184 7.39781C23.8255 7.55794 23.9284 7.72039 24.0273 7.88577C24.1265 8.05085 24.2213 8.21827 24.312 8.38802C24.403 8.55806 24.4893 8.72985 24.5718 8.90398C24.6541 9.0781 24.7323 9.25398 24.8058 9.43189C24.8796 9.60981 24.9487 9.78948 25.0137 9.97089C25.0785 10.152 25.1388 10.3349 25.1948 10.5192C25.2508 10.7036 25.3022 10.8891 25.3489 11.0757C25.3955 11.2627 25.4378 11.4505 25.4754 11.6392C25.5131 11.8282 25.546 12.0178 25.574 12.2083C25.6023 12.3987 25.6259 12.5898 25.6449 12.7817C25.6638 12.9733 25.6778 13.1652 25.6872 13.3574C25.6968 13.5499 25.7015 13.7424 25.7015 13.9349C25.7012 14.1274 25.6962 14.3196 25.6866 14.5121C25.677 14.7044 25.6627 14.8963 25.6437 15.0879C25.6245 15.2792 25.6008 15.4703 25.5726 15.6607C25.544 15.8512 25.511 16.0408 25.4734 16.2295C25.4355 16.4182 25.3932 16.606 25.3462 16.7927C25.2993 16.9794 25.2479 17.1649 25.1919 17.3492C25.1359 17.5332 25.0756 17.7158 25.0105 17.8972C24.9455 18.0784 24.8761 18.2577 24.8023 18.4356C24.7285 18.6136 24.6506 18.7894 24.5681 18.9633C24.4858 19.1374 24.3992 19.3092 24.3082 19.4789C24.2175 19.6487 24.1227 19.8161 24.0235 19.9812C23.9243 20.1463 23.8214 20.3087 23.7143 20.4689C23.6076 20.629 23.4968 20.7862 23.3818 20.9408C23.2672 21.0954 23.1488 21.247 23.0266 21.3961C22.9044 21.5448 22.7787 21.6904 22.6495 21.833C22.5203 21.9756 22.3876 22.115 22.2514 22.2512C22.1151 22.3874 21.9757 22.5201 21.8331 22.6494C21.6905 22.7786 21.5449 22.9043 21.3962 23.0265C21.2471 23.1487 21.0955 23.2671 20.9409 23.3817C20.7863 23.4966 20.6291 23.6075 20.469 23.7142C20.3088 23.8213 20.1464 23.9242 19.9813 24.0234C19.8162 24.1226 19.6488 24.2174 19.4791 24.3081C19.3093 24.3991 19.1375 24.4857 18.9634 24.5679C18.7896 24.6505 18.6137 24.7284 18.4358 24.8021C18.2581 24.8759 18.0785 24.9454 17.8974 25.0104C17.7159 25.0751 17.5333 25.1358 17.3493 25.1918C17.165 25.2478 16.9795 25.2991 16.7928 25.3461C16.6061 25.3931 16.4183 25.4354 16.2296 25.4733C16.0409 25.5109 15.8513 25.5439 15.6608 25.5724C15.4704 25.6007 15.2793 25.6244 15.088 25.6436C14.8964 25.6626 14.7045 25.6769 14.5123 25.6865C14.3198 25.6961 14.1276 25.7011 13.9351 25.7014Z" fill="#E5E0FF"/>
<path d="M19.2314 4.76376C19.1664 4.72614 19.099 4.69318 19.0293 4.6646C18.9593 4.6363 18.8881 4.61297 18.8149 4.5946C18.742 4.57622 18.6682 4.5631 18.5933 4.55493C18.5183 4.54676 18.4433 4.54414 18.3681 4.54647C18.2928 4.5488 18.2182 4.55639 18.1438 4.56922C18.0697 4.58205 17.9968 4.60014 17.9251 4.62318C17.8533 4.64622 17.7836 4.67393 17.7159 4.7066C17.648 4.73955 17.5829 4.7766 17.5202 4.8186L10.5164 9.43801C10.3592 9.54243 10.2087 9.6553 10.0646 9.77693C9.92056 9.89855 9.78406 10.0283 9.65485 10.1657C9.52564 10.3031 9.40489 10.4475 9.29231 10.5988C9.17972 10.7499 9.07618 10.9074 8.98168 11.0705C8.88718 11.2338 8.8026 11.4018 8.72735 11.5748C8.65239 11.748 8.58735 11.9245 8.53251 12.105C8.47797 12.2856 8.43364 12.4684 8.39981 12.6539C8.36626 12.8397 8.34322 13.0264 8.33097 13.2148L7.82843 21.5938C7.82376 21.6691 7.82406 21.744 7.82989 21.8193C7.83572 21.8942 7.84651 21.9686 7.86256 22.0424C7.8786 22.1159 7.8996 22.1879 7.92585 22.2588C7.95181 22.3294 7.98272 22.3979 8.01831 22.4641C8.05389 22.5306 8.09385 22.5942 8.13818 22.6552C8.18281 22.7158 8.23122 22.7733 8.28343 22.8276C8.33593 22.8815 8.39193 22.9317 8.45114 22.9781C8.51064 23.0244 8.57276 23.0664 8.6381 23.1041C8.70343 23.1417 8.77081 23.1749 8.84051 23.2032C8.91051 23.2315 8.98197 23.2548 9.05489 23.2732C9.1281 23.2916 9.20189 23.3047 9.27685 23.3129C9.35181 23.3211 9.42676 23.3237 9.50201 23.3213C9.57726 23.3193 9.65222 23.3117 9.72631 23.2989C9.80068 23.2863 9.8736 23.2686 9.94535 23.2455C10.0171 23.2228 10.0871 23.1951 10.1551 23.1624C10.2227 23.13 10.2883 23.0927 10.3511 23.0513L17.3537 18.4278C17.5106 18.3236 17.6611 18.2105 17.8052 18.0888C17.9493 17.9672 18.0861 17.8374 18.2153 17.7001C18.3442 17.5627 18.4652 17.4183 18.5778 17.2669C18.6901 17.1158 18.7936 16.9583 18.8881 16.7953C18.9826 16.632 19.0675 16.464 19.1425 16.291C19.2177 16.1181 19.2825 15.9413 19.3373 15.7608C19.3921 15.5802 19.4362 15.3973 19.47 15.2118C19.5038 15.0261 19.5266 14.8394 19.5388 14.6513L20.0417 6.27197C20.0463 6.19672 20.0461 6.12176 20.0405 6.04651C20.035 5.97155 20.0242 5.89718 20.0081 5.82368C19.9921 5.75018 19.9711 5.67785 19.9451 5.60726C19.9192 5.53668 19.8883 5.46814 19.8527 5.40193C19.8171 5.33543 19.7768 5.27214 19.7325 5.21118C19.6879 5.15051 19.6395 5.09335 19.587 5.03939C19.5345 4.98543 19.4785 4.93526 19.419 4.88918C19.3592 4.8431 19.2968 4.80139 19.2314 4.76376ZM13.9351 15.2372C13.8925 15.2372 13.8499 15.2352 13.8073 15.2308C13.765 15.2267 13.7227 15.2206 13.681 15.2121C13.639 15.204 13.5979 15.1935 13.5571 15.1812C13.5162 15.1687 13.476 15.1544 13.4366 15.1381C13.3972 15.1217 13.3587 15.1036 13.3211 15.0835C13.2835 15.0634 13.247 15.0415 13.2114 15.0176C13.1758 14.994 13.1417 14.9686 13.1088 14.9415C13.0758 14.9146 13.0443 14.8858 13.014 14.8557C12.9839 14.8257 12.9553 14.7939 12.9282 14.7609C12.9011 14.728 12.8757 14.6938 12.8521 14.6583C12.8285 14.623 12.8066 14.5865 12.7865 14.5489C12.7663 14.5113 12.748 14.4728 12.7319 14.4331C12.7156 14.3937 12.701 14.3538 12.6888 14.3129C12.6762 14.2721 12.666 14.2307 12.6576 14.189C12.6494 14.147 12.643 14.105 12.6389 14.0624C12.6348 14.0201 12.6328 13.9775 12.6328 13.9349C12.6328 13.8923 12.6348 13.8498 12.6389 13.8072C12.643 13.7649 12.6494 13.7226 12.6576 13.6809C12.666 13.6389 12.6762 13.5978 12.6888 13.5569C12.701 13.5161 12.7156 13.4758 12.7319 13.4365C12.748 13.3971 12.7663 13.3586 12.7865 13.321C12.8066 13.2833 12.8285 13.2469 12.8521 13.2113C12.8757 13.1757 12.9011 13.1416 12.9282 13.1086C12.9553 13.0757 12.9839 13.0442 13.014 13.0138C13.0443 12.9838 13.0758 12.9552 13.1088 12.9281C13.1417 12.901 13.1758 12.8756 13.2114 12.852C13.247 12.8283 13.2835 12.8065 13.3211 12.7863C13.3587 12.7662 13.3972 12.7478 13.4366 12.7318C13.476 12.7155 13.5162 12.7009 13.5571 12.6886C13.5979 12.6761 13.639 12.6659 13.681 12.6574C13.7227 12.6493 13.765 12.6428 13.8073 12.6388C13.8499 12.6347 13.8925 12.6326 13.9351 12.6326C13.9776 12.6326 14.0202 12.6347 14.0625 12.6388C14.1051 12.6428 14.1471 12.6493 14.1891 12.6574C14.2308 12.6659 14.2722 12.6761 14.3131 12.6886C14.3539 12.7009 14.3938 12.7155 14.4332 12.7318C14.4729 12.7478 14.5114 12.7662 14.549 12.7863C14.5866 12.8065 14.6231 12.8283 14.6584 12.852C14.694 12.8756 14.7281 12.901 14.7611 12.9281C14.794 12.9552 14.8258 12.9838 14.8558 13.0138C14.8859 13.0442 14.9148 13.0757 14.9416 13.1086C14.9687 13.1416 14.9941 13.1757 15.0177 13.2113C15.0416 13.2469 15.0635 13.2833 15.0836 13.321C15.1038 13.3586 15.1218 13.3971 15.1382 13.4365C15.1545 13.4758 15.1688 13.5161 15.1813 13.5569C15.1936 13.5978 15.2041 13.6389 15.2123 13.6809C15.2207 13.7226 15.2268 13.7649 15.2309 13.8072C15.2353 13.8498 15.2373 13.8923 15.2373 13.9349C15.2373 13.9775 15.2353 14.0201 15.2309 14.0624C15.2268 14.105 15.2207 14.147 15.2123 14.189C15.2041 14.2307 15.1936 14.2721 15.1813 14.3129C15.1688 14.3538 15.1545 14.3937 15.1382 14.4331C15.1218 14.4728 15.1038 14.5113 15.0836 14.5489C15.0635 14.5865 15.0416 14.623 15.0177 14.6583C14.9941 14.6938 14.9687 14.728 14.9416 14.7609C14.9148 14.7939 14.8859 14.8257 14.8558 14.8557C14.8258 14.8858 14.794 14.9146 14.7611 14.9415C14.7281 14.9686 14.694 14.994 14.6584 15.0176C14.6231 15.0415 14.5866 15.0634 14.549 15.0835C14.5114 15.1036 14.4729 15.1217 14.4332 15.1381C14.3938 15.1544 14.3539 15.1687 14.3131 15.1812C14.2722 15.1935 14.2308 15.204 14.1891 15.2121C14.1471 15.2206 14.1051 15.2267 14.0625 15.2308C14.0202 15.2352 13.9776 15.2372 13.9351 15.2372Z" fill="#E5E0FF"/>
</g>
<defs>
<clipPath id="clip0_15_2439">
<rect width="28" height="28" fill="white"/>
</clipPath>
</defs>
</svg>
