<svg width="28" height="28" viewBox="0 0 28 28" fill="none" xmlns="http://www.w3.org/2000/svg">
<mask id="mask0_2_353" style="mask-type:alpha" maskUnits="userSpaceOnUse" x="0" y="0" width="28" height="28">
<rect width="28" height="28" fill="#D9D9D9"/>
</mask>
<g mask="url(#mask0_2_353)">
<path d="M12.2501 17.5H15.7501L15.0792 13.7375C15.4681 13.5431 15.7744 13.2612 15.998 12.8917C16.2216 12.5223 16.3334 12.1139 16.3334 11.6667C16.3334 11.025 16.1049 10.4757 15.648 10.0188C15.1911 9.56185 14.6417 9.33337 14.0001 9.33337C13.3584 9.33337 12.8091 9.56185 12.3522 10.0188C11.8952 10.4757 11.6667 11.025 11.6667 11.6667C11.6667 12.1139 11.7786 12.5223 12.0022 12.8917C12.2258 13.2612 12.532 13.5431 12.9209 13.7375L12.2501 17.5ZM14.0001 25.6667C11.2973 24.9862 9.06605 23.4355 7.30633 21.0146C5.54661 18.5938 4.66675 15.9056 4.66675 12.95V5.83337L14.0001 2.33337L23.3334 5.83337V12.95C23.3334 15.9056 22.4536 18.5938 20.6938 21.0146C18.9341 23.4355 16.7029 24.9862 14.0001 25.6667ZM14.0001 23.2167C16.0223 22.575 17.6945 21.2917 19.0167 19.3667C20.339 17.4417 21.0001 15.3028 21.0001 12.95V7.43754L14.0001 4.81254L7.00008 7.43754V12.95C7.00008 15.3028 7.66119 17.4417 8.98341 19.3667C10.3056 21.2917 11.9779 22.575 14.0001 23.2167Z" fill="#E5E0FF"/>
</g>
</svg>
