<svg width="28" height="28" viewBox="0 0 28 28" fill="none" xmlns="http://www.w3.org/2000/svg">
<g clip-path="url(#clip0_120_907)">
<path d="M18.6667 12.8334C20.6034 12.8334 22.1551 11.27 22.1551 9.33337C22.1551 7.39671 20.6034 5.83337 18.6667 5.83337C16.7301 5.83337 15.1667 7.39671 15.1667 9.33337C15.1667 11.27 16.7301 12.8334 18.6667 12.8334ZM9.33341 12.8334C11.2701 12.8334 12.8217 11.27 12.8217 9.33337C12.8217 7.39671 11.2701 5.83337 9.33341 5.83337C7.39675 5.83337 5.83341 7.39671 5.83341 9.33337C5.83341 11.27 7.39675 12.8334 9.33341 12.8334ZM9.33341 15.1667C6.61508 15.1667 1.16675 16.5317 1.16675 19.25V21C1.16675 21.6417 1.69175 22.1667 2.33341 22.1667H16.3334C16.9751 22.1667 17.5001 21.6417 17.5001 21V19.25C17.5001 16.5317 12.0517 15.1667 9.33341 15.1667ZM18.6667 15.1667C18.3284 15.1667 17.9434 15.19 17.5351 15.225C17.5584 15.2367 17.5701 15.26 17.5817 15.2717C18.9117 16.24 19.8334 17.535 19.8334 19.25V21C19.8334 21.4084 19.7517 21.805 19.6234 22.1667H25.6667C26.3084 22.1667 26.8334 21.6417 26.8334 21V19.25C26.8334 16.5317 21.3851 15.1667 18.6667 15.1667Z" fill="#E5E0FF"/>
</g>
<defs>
<clipPath id="clip0_120_907">
<rect width="28" height="28" fill="white"/>
</clipPath>
</defs>
</svg>
