<svg width="28" height="28" viewBox="0 0 28 28" fill="none" xmlns="http://www.w3.org/2000/svg">
<mask id="mask0_2_319" style="mask-type:alpha" maskUnits="userSpaceOnUse" x="0" y="0" width="28" height="28">
<rect width="28" height="28" fill="#D9D9D9"/>
</mask>
<g mask="url(#mask0_2_319)">
<path d="M6.82492 19.95C7.81659 19.1917 8.92492 18.5938 10.1499 18.1563C11.3749 17.7188 12.6583 17.5 13.9999 17.5C15.3416 17.5 16.6249 17.7188 17.8499 18.1563C19.0749 18.5938 20.1833 19.1917 21.1749 19.95C21.8555 19.1528 22.3853 18.2487 22.7645 17.2375C23.1437 16.2264 23.3333 15.1473 23.3333 14C23.3333 11.4139 22.4242 9.21185 20.6062 7.39379C18.7881 5.57574 16.586 4.66671 13.9999 4.66671C11.4138 4.66671 9.21172 5.57574 7.39367 7.39379C5.57561 9.21185 4.66659 11.4139 4.66659 14C4.66659 15.1473 4.85617 16.2264 5.23534 17.2375C5.6145 18.2487 6.14436 19.1528 6.82492 19.95ZM13.9999 15.1667C12.8527 15.1667 11.8853 14.773 11.0978 13.9855C10.3103 13.198 9.91659 12.2306 9.91659 11.0834C9.91659 9.93615 10.3103 8.96879 11.0978 8.18129C11.8853 7.39379 12.8527 7.00004 13.9999 7.00004C15.1471 7.00004 16.1145 7.39379 16.902 8.18129C17.6895 8.96879 18.0833 9.93615 18.0833 11.0834C18.0833 12.2306 17.6895 13.198 16.902 13.9855C16.1145 14.773 15.1471 15.1667 13.9999 15.1667ZM13.9999 25.6667C12.386 25.6667 10.8694 25.3605 9.44992 24.748C8.03047 24.1355 6.79575 23.3042 5.74575 22.2542C4.69575 21.2042 3.8645 19.9695 3.252 18.55C2.6395 17.1306 2.33325 15.6139 2.33325 14C2.33325 12.3862 2.6395 10.8695 3.252 9.45004C3.8645 8.0306 4.69575 6.79587 5.74575 5.74587C6.79575 4.69587 8.03047 3.86462 9.44992 3.25212C10.8694 2.63962 12.386 2.33337 13.9999 2.33337C15.6138 2.33337 17.1305 2.63962 18.5499 3.25212C19.9694 3.86462 21.2041 4.69587 22.2541 5.74587C23.3041 6.79587 24.1353 8.0306 24.7478 9.45004C25.3603 10.8695 25.6666 12.3862 25.6666 14C25.6666 15.6139 25.3603 17.1306 24.7478 18.55C24.1353 19.9695 23.3041 21.2042 22.2541 22.2542C21.2041 23.3042 19.9694 24.1355 18.5499 24.748C17.1305 25.3605 15.6138 25.6667 13.9999 25.6667ZM13.9999 23.3334C15.0305 23.3334 16.0027 23.1827 16.9166 22.8813C17.8305 22.5799 18.6666 22.1473 19.4249 21.5834C18.6666 21.0195 17.8305 20.5868 16.9166 20.2855C16.0027 19.9841 15.0305 19.8334 13.9999 19.8334C12.9694 19.8334 11.9971 19.9841 11.0833 20.2855C10.1694 20.5868 9.33325 21.0195 8.57492 21.5834C9.33325 22.1473 10.1694 22.5799 11.0833 22.8813C11.9971 23.1827 12.9694 23.3334 13.9999 23.3334ZM13.9999 12.8334C14.5055 12.8334 14.9235 12.6681 15.2541 12.3375C15.5846 12.007 15.7499 11.5889 15.7499 11.0834C15.7499 10.5778 15.5846 10.1598 15.2541 9.82921C14.9235 9.49865 14.5055 9.33337 13.9999 9.33337C13.4944 9.33337 13.0763 9.49865 12.7458 9.82921C12.4152 10.1598 12.2499 10.5778 12.2499 11.0834C12.2499 11.5889 12.4152 12.007 12.7458 12.3375C13.0763 12.6681 13.4944 12.8334 13.9999 12.8334Z" fill="#E5E0FF"/>
</g>
</svg>
