<svg width="28" height="28" viewBox="0 0 28 28" fill="none" xmlns="http://www.w3.org/2000/svg">
<g clip-path="url(#clip0_162_2414)">
<path d="M22.6684 15.1434C22.7151 14.77 22.7501 14.3967 22.7501 14C22.7501 13.6034 22.7151 13.23 22.6684 12.8567L25.1301 10.9317C25.3517 10.7567 25.4101 10.4417 25.2701 10.185L22.9367 6.14837C22.7967 5.89171 22.4817 5.79837 22.2251 5.89171L19.3201 7.05837C18.7134 6.59171 18.0601 6.20671 17.3484 5.91504L16.9051 2.82337C16.8701 2.54337 16.6251 2.33337 16.3334 2.33337H11.6667C11.3751 2.33337 11.1301 2.54337 11.0951 2.82337L10.6517 5.91504C9.94006 6.20671 9.28672 6.60337 8.68006 7.05837L5.77506 5.89171C5.50672 5.78671 5.20339 5.89171 5.06339 6.14837L2.73006 10.185C2.57839 10.4417 2.64839 10.7567 2.87006 10.9317L5.33172 12.8567C5.28506 13.23 5.25006 13.615 5.25006 14C5.25006 14.385 5.28506 14.77 5.33172 15.1434L2.87006 17.0684C2.64839 17.2434 2.59006 17.5584 2.73006 17.815L5.06339 21.8517C5.20339 22.1084 5.51839 22.2017 5.77506 22.1084L8.68006 20.9417C9.28672 21.4084 9.94006 21.7934 10.6517 22.085L11.0951 25.1767C11.1301 25.4567 11.3751 25.6667 11.6667 25.6667H16.3334C16.6251 25.6667 16.8701 25.4567 16.9051 25.1767L17.3484 22.085C18.0601 21.7934 18.7134 21.3967 19.3201 20.9417L22.2251 22.1084C22.4934 22.2134 22.7967 22.1084 22.9367 21.8517L25.2701 17.815C25.4101 17.5584 25.3517 17.2434 25.1301 17.0684L22.6684 15.1434ZM14.0001 18.0834C11.7484 18.0834 9.91672 16.2517 9.91672 14C9.91672 11.7484 11.7484 9.91671 14.0001 9.91671C16.2517 9.91671 18.0834 11.7484 18.0834 14C18.0834 16.2517 16.2517 18.0834 14.0001 18.0834Z" fill="#E5E0FF"/>
</g>
<defs>
<clipPath id="clip0_162_2414">
<rect width="28" height="28" fill="white"/>
</clipPath>
</defs>
</svg>
