<svg width="28" height="28" viewBox="0 0 28 28" fill="none" xmlns="http://www.w3.org/2000/svg">
<g clip-path="url(#clip0_120_1131)">
<path d="M7.38257 12.0517H18.0057V20.6343H7.38257V12.0517Z" fill="#E5E0FF"/>
<path d="M19.2488 13.5497H20.2375V14.5174H19.2488V13.5497Z" fill="#E5E0FF"/>
<mask id="mask0_120_1131" style="mask-type:luminance" maskUnits="userSpaceOnUse" x="0" y="0" width="28" height="28">
<path d="M0 0H27.9253V27.9253H0V0Z" fill="white"/>
</mask>
<g mask="url(#mask0_120_1131)">
<path d="M13.9976 -0.00817871C6.26788 -0.00817871 0.00170898 6.25799 0.00170898 13.9877C0.00170898 21.7175 6.26788 27.9842 13.9976 27.9842C21.7274 27.9842 27.9941 21.7175 27.9941 13.9877C27.9941 6.25799 21.7274 -0.00817871 13.9976 -0.00817871ZM22.092 21.0467C22.092 21.7023 21.5605 22.2337 20.9055 22.2337H6.96963C6.31454 22.2337 5.78313 21.7023 5.78313 21.0467V11.6392C5.78313 10.9836 6.31454 10.4522 6.96963 10.4522H13.3799L8.89113 5.96399L9.57538 5.27974L14.0221 9.7259L18.4689 5.27974L19.1531 5.96399L14.665 10.4522H20.9055C21.5605 10.4522 22.0914 10.9836 22.0914 11.6392V21.0467H22.092Z" fill="#E5E0FF"/>
</g>
<path d="M19.2488 12.0167H20.2375V12.985H19.2488V12.0167Z" fill="#E5E0FF"/>
</g>
<defs>
<clipPath id="clip0_120_1131">
<rect width="28" height="28" fill="white"/>
</clipPath>
</defs>
</svg>
