<svg width="28" height="28" viewBox="0 0 28 28" fill="none" xmlns="http://www.w3.org/2000/svg">
<mask id="mask0_2_376" style="mask-type:alpha" maskUnits="userSpaceOnUse" x="0" y="0" width="28" height="28">
<rect width="28" height="28" fill="#D9D9D9"/>
</mask>
<g mask="url(#mask0_2_376)">
<path d="M18.7834 15.5167L17.0917 13.8251C17.2667 12.9112 17.0042 12.0556 16.3042 11.2584C15.6042 10.4612 14.7001 10.1501 13.5917 10.3251L11.9001 8.63339C12.2306 8.47784 12.5661 8.36117 12.9063 8.28339C13.2466 8.20561 13.6112 8.16672 14.0001 8.16672C15.4584 8.16672 16.698 8.67714 17.7188 9.69797C18.7397 10.7188 19.2501 11.9584 19.2501 13.4167C19.2501 13.8056 19.2112 14.1702 19.1334 14.5105C19.0556 14.8508 18.939 15.1862 18.7834 15.5167ZM22.5167 19.1917L20.8251 17.5584C21.564 16.9945 22.2202 16.3771 22.7938 15.7063C23.3674 15.0355 23.8584 14.2723 24.2667 13.4167C23.2945 11.4528 21.8994 9.89242 20.0813 8.73547C18.2633 7.57853 16.2362 7.00006 14.0001 7.00006C13.4362 7.00006 12.882 7.03895 12.3376 7.11672C11.7931 7.1945 11.2584 7.31117 10.7334 7.46672L8.92508 5.65839C9.7223 5.32783 10.539 5.07992 11.3751 4.91464C12.2112 4.74936 13.0862 4.66672 14.0001 4.66672C16.9362 4.66672 19.5515 5.47853 21.8459 7.10214C24.1404 8.72575 25.8029 10.8306 26.8334 13.4167C26.3862 14.5639 25.798 15.6285 25.0688 16.6105C24.3397 17.5924 23.489 18.4528 22.5167 19.1917ZM23.1001 26.3667L18.2001 21.5251C17.5195 21.7389 16.8341 21.8994 16.1438 22.0063C15.4536 22.1133 14.739 22.1667 14.0001 22.1667C11.064 22.1667 8.44869 21.3549 6.15425 19.7313C3.8598 18.1077 2.1973 16.0028 1.16675 13.4167C1.57508 12.3862 2.09036 11.4285 2.71258 10.5438C3.3348 9.65909 4.04453 8.86672 4.84175 8.16672L1.63341 4.90006L3.26675 3.26672L24.7334 24.7334L23.1001 26.3667ZM6.47508 9.80006C5.91119 10.3056 5.39591 10.8598 4.92925 11.4626C4.46258 12.0653 4.06397 12.7167 3.73341 13.4167C4.70564 15.3806 6.10078 16.941 7.91883 18.098C9.73689 19.2549 11.764 19.8334 14.0001 19.8334C14.389 19.8334 14.7681 19.8091 15.1376 19.7605C15.507 19.7119 15.8862 19.6584 16.2751 19.6001L15.2251 18.4917C15.0112 18.5501 14.807 18.5938 14.6126 18.623C14.4181 18.6521 14.214 18.6667 14.0001 18.6667C12.5417 18.6667 11.3022 18.1563 10.2813 17.1355C9.2605 16.1146 8.75008 14.8751 8.75008 13.4167C8.75008 13.2028 8.76466 12.9987 8.79383 12.8042C8.823 12.6098 8.86675 12.4056 8.92508 12.1917L6.47508 9.80006Z" fill="#E5E0FF"/>
</g>
</svg>
