<svg width="28" height="28" viewBox="0 0 28 28" fill="none" xmlns="http://www.w3.org/2000/svg">
<g clip-path="url(#clip0_120_1132)">
<mask id="mask0_120_1132" style="mask-type:luminance" maskUnits="userSpaceOnUse" x="0" y="0" width="28" height="28">
<path d="M0 0H27.9253V27.9253H0V0Z" fill="white"/>
</mask>
<g mask="url(#mask0_120_1132)">
<path fill-rule="evenodd" clip-rule="evenodd" d="M14.059 -1.72852e-05C14.2888 -1.72852e-05 14.5192 0.00581605 14.749 0.0168993C14.9789 0.0279827 15.2081 0.0448993 15.4368 0.0676494C15.666 0.0903994 15.8941 0.118399 16.1216 0.152233C16.3497 0.186066 16.576 0.225149 16.8018 0.270066C17.0275 0.314983 17.2521 0.365149 17.475 0.421149C17.6984 0.477149 17.92 0.538399 18.14 0.605483C18.3605 0.671983 18.5786 0.744316 18.795 0.821899C19.012 0.899483 19.2267 0.982316 19.439 1.0704C19.652 1.15848 19.862 1.25123 20.0702 1.34982C20.2779 1.4484 20.4832 1.55165 20.6862 1.66015C20.8892 1.76865 21.0893 1.88182 21.2865 2.00023C21.4842 2.11865 21.6785 2.24173 21.8698 2.36948C22.0611 2.49723 22.249 2.62965 22.4339 2.76673C22.6188 2.90382 22.8002 3.04498 22.9781 3.1914C23.1555 3.33723 23.3299 3.48715 23.5002 3.64173C23.6711 3.79632 23.8374 3.95498 24.0001 4.11773C24.1629 4.28048 24.3215 4.44732 24.4761 4.61765C24.6307 4.78798 24.7806 4.9624 24.9265 5.14032C25.0729 5.31765 25.214 5.49907 25.3511 5.68398C25.4882 5.8689 25.6206 6.05673 25.7484 6.24807C25.8761 6.4394 25.9992 6.63365 26.1176 6.8314C26.236 7.02857 26.3492 7.22865 26.4577 7.43165C26.5662 7.63465 26.6695 7.83998 26.768 8.04823C26.8666 8.2559 26.96 8.46648 27.048 8.67882C27.1355 8.89115 27.2184 9.10582 27.296 9.32282C27.3735 9.53923 27.4459 9.7574 27.5124 9.9779C27.5795 10.1978 27.6407 10.4195 27.6967 10.6429C27.7527 10.8663 27.8029 11.0903 27.8478 11.3161C27.8927 11.5418 27.9318 11.7687 27.9656 11.9962C27.9995 12.2237 28.0275 12.4518 28.0502 12.6811C28.073 12.9097 28.0899 13.1396 28.101 13.3688C28.112 13.5986 28.1179 13.8291 28.1179 14.0589C28.1179 14.2887 28.112 14.5191 28.101 14.749C28.0899 14.9788 28.073 15.2081 28.0502 15.4367C28.0275 15.666 27.9995 15.8941 27.9656 16.1216C27.9318 16.3496 27.8927 16.576 27.8478 16.8017C27.8029 17.0275 27.7527 17.2521 27.6967 17.4749C27.6407 17.6983 27.5795 17.92 27.5124 18.1399C27.4459 18.3604 27.3735 18.5786 27.296 18.795C27.2184 19.012 27.1355 19.2267 27.048 19.439C26.96 19.6519 26.8666 19.8619 26.768 20.0702C26.6695 20.2778 26.5662 20.4832 26.4577 20.6861C26.3492 20.8892 26.236 21.0892 26.1176 21.2864C25.9992 21.4841 25.8761 21.6784 25.7484 21.8697C25.6206 22.0611 25.4882 22.2489 25.3511 22.4338C25.214 22.6187 25.0729 22.8001 24.9265 22.9781C24.7806 23.1554 24.6307 23.3298 24.4761 23.5002C24.3215 23.6711 24.1629 23.8373 24.0001 24.0001C23.8374 24.1628 23.6711 24.3215 23.5002 24.4761C23.3299 24.6306 23.1555 24.7806 22.9781 24.9264C22.8002 25.0728 22.6188 25.214 22.4339 25.3511C22.249 25.4881 22.0611 25.6206 21.8698 25.7483C21.6785 25.8761 21.4842 25.9992 21.2865 26.1176C21.0893 26.236 20.8892 26.3491 20.6862 26.4577C20.4832 26.5662 20.2779 26.6694 20.0702 26.768C19.862 26.8666 19.652 26.9599 19.439 27.048C19.2267 27.1355 19.012 27.2183 18.795 27.2959C18.5786 27.3735 18.3605 27.4458 18.14 27.5123C17.92 27.5794 17.6984 27.6406 17.475 27.6967C17.2521 27.7527 17.0275 27.8028 16.8018 27.8477C16.576 27.8927 16.3497 27.9317 16.1216 27.9656C15.8941 27.9994 15.666 28.0274 15.4368 28.0501C15.2081 28.0729 14.9789 28.0898 14.749 28.1009C14.5192 28.112 14.2888 28.1178 14.059 28.1178C13.8291 28.1178 13.5987 28.112 13.3689 28.1009C13.1396 28.0898 12.9098 28.0729 12.6811 28.0501C12.4519 28.0274 12.2238 27.9994 11.9963 27.9656C11.7688 27.9317 11.5419 27.8927 11.3161 27.8477C11.0904 27.8028 10.8664 27.7527 10.643 27.6967C10.4195 27.6406 10.1979 27.5794 9.97796 27.5123C9.75746 27.4458 9.53929 27.3735 9.32288 27.2959C9.10588 27.2183 8.89121 27.1355 8.67888 27.048C8.46654 26.9599 8.25596 26.8666 8.04829 26.768C7.84004 26.6694 7.63471 26.5662 7.43171 26.4577C7.22871 26.3491 7.02863 26.236 6.83146 26.1176C6.63371 25.9992 6.43946 25.8761 6.24813 25.7483C6.05679 25.6206 5.86896 25.4881 5.68404 25.3511C5.49913 25.214 5.31771 25.0728 5.14038 24.9264C4.96246 24.7806 4.78804 24.6306 4.61771 24.4761C4.44738 24.3215 4.28054 24.1628 4.11779 24.0001C3.95504 23.8373 3.79638 23.6711 3.64179 23.5002C3.48721 23.3298 3.33729 23.1554 3.19146 22.9781C3.04504 22.8001 2.90388 22.6187 2.76679 22.4338C2.62971 22.2489 2.49729 22.0611 2.36954 21.8697C2.24179 21.6784 2.11871 21.4841 2.00029 21.2864C1.88188 21.0892 1.76871 20.8892 1.66021 20.6861C1.55171 20.4832 1.44846 20.2778 1.34988 20.0702C1.25129 19.8619 1.15854 19.6519 1.07046 19.439C0.982377 19.2267 0.899544 19.012 0.82196 18.795C0.744377 18.5786 0.672044 18.3604 0.605544 18.1399C0.53846 17.92 0.47721 17.6983 0.42121 17.4749C0.36521 17.2521 0.315044 17.0275 0.270127 16.8017C0.22521 16.576 0.186127 16.3496 0.152294 16.1216C0.11846 15.8941 0.0904605 15.666 0.0677104 15.4367C0.0449604 15.2081 0.0280438 14.9788 0.0169604 14.749C0.00587708 14.5191 4.375e-05 14.2887 4.375e-05 14.0589C-0.000539583 13.8285 0.00471042 13.5986 0.0157938 13.3688C0.0262937 13.139 0.042627 12.9092 0.0647938 12.6799C0.0869604 12.4507 0.11496 12.2226 0.14821 11.9945C0.182044 11.767 0.220544 11.5401 0.26546 11.3143C0.309794 11.088 0.35996 10.8634 0.415377 10.64C0.471377 10.4166 0.532044 10.1949 0.598544 9.9744C0.665044 9.7539 0.737377 9.53573 0.814377 9.31873C0.89196 9.10173 0.974211 8.88707 1.06229 8.67415C1.15038 8.46123 1.24313 8.25065 1.34171 8.04298C1.43971 7.83473 1.54296 7.62882 1.65146 7.42582C1.75996 7.22282 1.87313 7.02215 1.99154 6.82498C2.10938 6.62723 2.23246 6.4324 2.36021 6.24107C2.48796 6.04973 2.62038 5.86132 2.75746 5.6764C2.89454 5.49148 3.03629 5.31007 3.18213 5.13215C3.32796 4.95423 3.47846 4.77982 3.63304 4.6089C3.78763 4.43857 3.94629 4.27173 4.10904 4.10898C4.27179 3.94623 4.43863 3.78757 4.60896 3.63298C4.77988 3.4784 4.95429 3.3279 5.13221 3.18207C5.31013 3.03623 5.49154 2.89448 5.67646 2.7574C5.86138 2.62032 6.04979 2.4879 6.24113 2.36015C6.43246 2.2324 6.62729 2.10932 6.82504 1.99148C7.02221 1.87307 7.22288 1.7599 7.42588 1.6514C7.62888 1.5429 7.83479 1.43965 8.04304 1.34165C8.25071 1.24307 8.46129 1.15032 8.67421 1.06223C8.88713 0.974149 9.10179 0.891899 9.31879 0.814316C9.53579 0.737316 9.75396 0.664983 9.97446 0.598483C10.195 0.531983 10.4166 0.471316 10.64 0.415316C10.8635 0.359899 11.088 0.309733 11.3144 0.265399C11.5401 0.220483 11.767 0.181983 11.9945 0.148149C12.2226 0.114899 12.4507 0.0868993 12.68 0.0647328C12.9092 0.042566 13.139 0.0262327 13.3689 0.0157328C13.5987 0.00464938 13.8285 -0.000600619 14.059 -1.72852e-05ZM8.37029 11.9956H21.2211C21.84 11.9956 21.9287 11.9956 21.9287 12.7032V20.8967C21.9287 21.4567 21.9287 21.6043 21.2211 21.6043H7.28004C6.63138 21.6043 6.57246 21.6043 6.57246 20.8967V12.32C6.52113 11.7396 6.41263 11.1697 6.24871 10.6102C6.10113 9.99132 6.24871 9.9324 6.74979 9.7854L20.3368 6.5724C21.0146 6.5724 21.0444 6.5724 21.28 7.42757C21.5157 8.28215 21.4865 8.48865 20.8379 8.63565L8.34113 11.5832C7.57463 11.76 7.57463 11.9956 8.34113 11.9956H8.37029ZM7.07354 12.3497C7.86979 12.3497 7.89896 12.3497 7.07354 13.2335C6.80871 13.5286 6.80871 13.4989 6.80871 13.2335C6.80871 12.9686 6.80871 12.4967 6.80871 12.4967L7.07354 12.3497ZM11.2887 12.3497H12.9979C13.7055 12.3497 13.7346 12.3497 12.9979 13.2924C12.2611 14.2357 12.7033 13.7935 12.1135 13.7935H10.4925C9.78546 13.7935 9.75571 13.7935 10.4925 12.8502C11.2298 11.9076 10.9055 12.3497 11.2298 12.3497H11.2887ZM17.4487 12.3497H19.099C19.8065 12.3497 19.8065 12.3497 19.099 13.2924C18.3914 14.2357 18.6865 13.7935 18.1855 13.7935H16.5935C15.8865 13.7935 15.8568 13.7935 16.5935 12.8502C17.3303 11.9076 17.0065 12.3497 17.419 12.3497H17.4487ZM7.04438 11.5243C7.69246 11.3476 7.66329 11.2886 7.04438 10.7876C6.42546 10.2865 6.69029 10.5513 6.80871 10.9643C6.92654 11.3767 6.80871 11.5832 7.16221 11.5243H7.04438ZM11.3768 10.4924L12.7622 10.1686C13.44 10.0211 13.4698 9.96215 12.4968 9.28432C11.5244 8.60648 11.9665 8.84215 11.3768 9.04865L9.99138 9.3724C9.31354 9.3724 9.31354 9.60865 10.2568 10.2865C11.2 10.9643 10.8168 10.64 11.3768 10.4924ZM17.1244 9.16648L18.6865 8.84215C19.3935 8.84215 19.3935 8.63565 18.4211 7.92865C17.92 7.57457 17.8611 7.57457 17.4779 7.66323L15.9157 8.04648C15.4146 8.04648 15.3855 8.2524 16.1811 8.95998C16.9768 9.66757 16.6822 9.31348 17.1244 9.2254V9.16648Z" fill="#E5E0FF"/>
</g>
</g>
<defs>
<clipPath id="clip0_120_1132">
<rect width="28" height="28" fill="white"/>
</clipPath>
</defs>
</svg>
